M48
; FORMAT={-:-/ absolute / metric / decimal}
; #@! TF.GenerationSoftware,Kicad,Pcbnew,7.0.11+1
; #@! TF.FileFunction,Plated,1,2,PTH
FMAT,2
METRIC
; #@! TA.AperFunction,Plated,PTH,ViaDrill
T1C0.400
%
G90
G05
T1
X65.797Y-102.044
X65.797Y-104.584
X65.797Y-119.824
X65.797Y-122.364
X65.797Y-124.904
X67.05Y-111.45
X68.15Y-108.9
X68.337Y-94.424
X68.337Y-96.964
X68.337Y-127.444
X68.337Y-129.984
X69.86Y-84.64
X69.86Y-85.93
X69.86Y-87.2
X69.86Y-88.47
X69.86Y-89.74
X70.09Y-100.83
X70.09Y-102.1
X70.09Y-103.37
X70.09Y-104.64
X70.1Y-105.94
X70.35Y-68.05
X70.4Y-69.6
X70.877Y-81.724
X71.13Y-84.64
X71.13Y-85.93
X71.13Y-87.2
X71.13Y-88.47
X71.13Y-89.74
X71.36Y-100.83
X71.36Y-102.1
X71.36Y-103.37
X71.36Y-104.64
X71.37Y-105.94
X71.5Y-65.55
X71.878Y-71.073
X71.878Y-72.636
X71.878Y-74.2
X72.4Y-84.64
X72.4Y-85.93
X72.4Y-87.2
X72.4Y-88.47
X72.4Y-89.74
X72.4Y-96.6
X72.63Y-100.83
X72.63Y-102.1
X72.63Y-103.37
X72.63Y-104.64
X72.64Y-105.94
X73.417Y-79.184
X73.417Y-81.724
X73.67Y-84.64
X73.67Y-85.93
X73.67Y-87.2
X73.67Y-88.47
X73.67Y-89.74
X73.9Y-100.83
X73.9Y-102.1
X73.9Y-103.37
X73.9Y-104.64
X73.91Y-105.94
X74.958Y-119.578
X75.8Y-126.95
X75.957Y-76.644
X75.957Y-79.184
X75.957Y-81.724
X75.977Y-120.537
X76.95Y-71.1
X77.0Y-72.65
X77.0Y-74.2
X77.003Y-121.488
X77.25Y-95.55
X77.5Y-67.1
X77.5Y-125.75
X78.497Y-76.644
X78.497Y-79.184
X78.497Y-81.724
X78.497Y-84.264
X78.497Y-112.204
X78.5Y-115.6
X78.75Y-117.7
X79.75Y-118.7
X79.8Y-62.45
X79.9Y-128.4
X80.35Y-64.3
X80.45Y-126.55
X80.6Y-61.3
X80.6Y-69.45
X80.7Y-129.55
X81.037Y-81.724
X81.037Y-84.264
X81.037Y-109.664
X81.05Y-63.15
X81.15Y-127.7
X81.4Y-60.15
X81.5Y-130.7
X81.7Y-65.05
X81.8Y-125.8
X81.85Y-62.0
X81.95Y-128.85
X82.15Y-59.0
X82.25Y-131.85
X82.4Y-63.9
X82.5Y-126.95
X82.6Y-60.85
X82.677Y-68.373
X82.7Y-130.0
X83.05Y-62.7
X83.05Y-65.85
X83.15Y-125.0
X83.15Y-128.15
X83.35Y-59.7
X83.45Y-131.15
X83.577Y-84.264
X83.577Y-107.124
X83.7Y-64.65
X83.8Y-61.55
X83.8Y-126.2
X83.9Y-129.3
X84.55Y-60.4
X84.65Y-130.45
X85.8Y-92.9
X86.117Y-84.264
X86.117Y-99.504
X86.117Y-102.044
X86.117Y-104.584
X86.524Y-74.865
X86.547Y-115.872
X87.274Y-73.715
X87.297Y-117.022
X87.824Y-75.615
X87.847Y-115.122
X88.024Y-72.565
X88.047Y-118.172
X88.574Y-74.465
X88.597Y-116.272
X88.657Y-94.424
X88.657Y-96.964
X88.657Y-99.504
X88.657Y-102.044
X88.657Y-104.584
X88.724Y-71.365
X88.747Y-119.372
X89.124Y-76.365
X89.147Y-114.372
X89.324Y-73.315
X89.347Y-117.422
X89.874Y-75.215
X89.897Y-115.522
X90.024Y-72.115
X90.047Y-118.622
X90.424Y-77.115
X90.447Y-113.622
X90.624Y-74.065
X90.647Y-116.672
X91.174Y-75.965
X91.197Y-114.772
X91.197Y-84.264
X91.197Y-94.424
X91.197Y-96.964
X91.197Y-99.504
X91.197Y-102.044
X91.197Y-104.584
X91.324Y-72.865
X91.347Y-117.872
X91.924Y-74.815
X91.947Y-115.922
X92.45Y-88.5
X92.45Y-89.8
X92.624Y-73.615
X92.647Y-117.122
X93.737Y-84.264
X93.737Y-94.424
X93.737Y-96.964
X93.737Y-99.504
X93.737Y-102.044
X93.737Y-104.584
X93.75Y-88.5
X93.75Y-89.8
X94.3Y-110.35
X95.0Y-81.7
X96.277Y-89.344
X96.277Y-94.424
X96.277Y-96.964
X96.277Y-99.504
X96.277Y-102.044
X96.277Y-104.584
X96.277Y-114.744
X96.95Y-79.95
X97.9Y-110.35
X98.817Y-89.344
X98.817Y-94.424
X98.817Y-96.964
X98.817Y-99.504
X98.817Y-102.044
X98.817Y-104.584
X101.357Y-94.424
X101.357Y-96.964
X101.357Y-99.504
X101.357Y-102.044
X101.357Y-104.584
X103.897Y-84.264
X103.897Y-96.964
X103.897Y-99.504
X103.897Y-102.044
X104.814Y-92.645
X105.9Y-93.65
X106.437Y-96.964
X106.437Y-99.504
X108.2Y-84.3
X108.977Y-107.124
X109.25Y-86.75
X110.589Y-88.775
X110.6Y-102.05
X111.339Y-87.625
X111.35Y-103.2
X111.889Y-89.525
X111.9Y-101.3
X112.089Y-86.475
X112.1Y-104.35
X112.639Y-88.375
X112.65Y-102.45
X112.789Y-85.275
X112.8Y-105.55
X113.189Y-90.275
X113.2Y-100.55
X113.389Y-87.225
X113.4Y-103.6
X113.8Y-94.249
X113.939Y-89.125
X113.95Y-101.7
X114.089Y-86.025
X114.1Y-104.8
X114.489Y-91.025
X114.5Y-99.8
X114.689Y-87.975
X114.7Y-102.85
X115.239Y-89.875
X115.25Y-100.95
X115.389Y-86.775
X115.4Y-104.05
X115.989Y-88.725
X116.0Y-102.1
X116.349Y-95.35
X116.349Y-96.748
X116.349Y-98.25
X116.689Y-87.525
X116.7Y-103.3
X117.2Y-91.6
X118.75Y-100.3
X120.95Y-97.35
X121.0Y-98.9
X121.0Y-100.55
X121.975Y-93.45
X122.8Y-91.3
X123.1Y-99.8
X124.35Y-89.75
X124.35Y-101.15
X124.4Y-91.9
X124.5Y-99.0
X125.05Y-88.6
X125.05Y-102.3
X125.6Y-90.45
X125.6Y-100.45
X125.75Y-98.25
X126.3Y-89.3
X126.3Y-101.6
X126.95Y-91.2
X126.95Y-99.7
X127.1Y-88.15
X127.1Y-102.75
X127.65Y-90.05
X127.65Y-100.85
X127.85Y-87.0
X127.85Y-103.9
X128.3Y-88.85
X128.3Y-102.05
X128.6Y-85.85
X128.6Y-105.05
X128.95Y-90.8
X128.95Y-100.1
X129.05Y-87.7
X129.05Y-103.2
X129.55Y-89.55
X129.55Y-101.35
X129.8Y-86.55
X129.8Y-104.35
X130.35Y-88.4
X130.35Y-102.5
X131.1Y-87.25
X131.1Y-103.65
M30
