M48
; FORMAT={-:-/ absolute / metric / decimal}
; #@! TF.GenerationSoftware,Kicad,Pcbnew,7.0.11+1
; #@! TF.FileFunction,Plated,1,2,PTH
FMAT,2
METRIC
; #@! TA.AperFunction,Plated,PTH,ViaDrill
T1C0.400
%
G90
G05
T1
X63.3Y-87.0
X63.3Y-88.6
X65.3Y-81.6
X65.4Y-109.1
X69.0Y-74.4
X71.3Y-74.4
X72.7Y-96.2
X75.9Y-98.8
X77.2Y-95.5
X77.4Y-98.8
X79.2Y-63.8
X81.3Y-102.3
X82.8Y-102.3
X84.6Y-127.2
X84.7Y-63.1
X89.0Y-66.0
X89.1Y-124.7
X101.2Y-86.0
X102.6Y-86.0
X102.6Y-94.2
X102.6Y-95.6
X105.4Y-97.5
X115.6Y-88.1
X116.6Y-111.4
X117.1Y-88.1
X118.1Y-110.5
X121.5Y-106.1
X121.6Y-84.8
X125.9Y-103.5
X126.0Y-87.2
X127.4Y-99.2
X128.9Y-99.2
M30
