%TF.GenerationSoftware,KiCad,Pcbnew,7.0.11+1*%
%TF.ProjectId,makerspace_sign,6d616b65-7273-4706-9163-655f7369676e,rev?*%
%TF.SameCoordinates,Original*%
%TF.FileFunction,Drillmap*%
%TF.FilePolarity,Positive*%
%FSLAX45Y45*%
G04 Gerber Fmt 4.5, Leading zero omitted, Abs format (unit mm)*
%MOMM*%
%LPD*%
G01*
G04 APERTURE LIST*
%ADD10C,0.200000*%
%ADD11C,0.320000*%
G04 APERTURE END LIST*
D10*
X6200000Y-4640000D02*
X6200000Y-9040000D01*
X6200000Y-10040000D02*
X6200000Y-14440000D01*
X6200000Y-10040000D02*
G75*
G03*
X6200000Y-9040000I0J500000D01*
G01*
X13821024Y-9040000D02*
X6200000Y-4640000D01*
X6200000Y-14440000D02*
X13821024Y-10040000D01*
X13821024Y-10040000D02*
X13821024Y-9040000D01*
D11*
X6395000Y-5960000D02*
X6715000Y-6280000D01*
X6715000Y-5960000D02*
X6395000Y-6280000D01*
X6395000Y-12805000D02*
X6715000Y-13125000D01*
X6715000Y-12805000D02*
X6395000Y-13125000D01*
X13255000Y-9385000D02*
X13575000Y-9705000D01*
X13575000Y-9385000D02*
X13255000Y-9705000D01*
D10*
X6450777Y-14761484D02*
X6450777Y-14561484D01*
X6450777Y-14561484D02*
X6498396Y-14561484D01*
X6498396Y-14561484D02*
X6526967Y-14571008D01*
X6526967Y-14571008D02*
X6546015Y-14590055D01*
X6546015Y-14590055D02*
X6555539Y-14609103D01*
X6555539Y-14609103D02*
X6565062Y-14647198D01*
X6565062Y-14647198D02*
X6565062Y-14675769D01*
X6565062Y-14675769D02*
X6555539Y-14713865D01*
X6555539Y-14713865D02*
X6546015Y-14732912D01*
X6546015Y-14732912D02*
X6526967Y-14751960D01*
X6526967Y-14751960D02*
X6498396Y-14761484D01*
X6498396Y-14761484D02*
X6450777Y-14761484D01*
X6650777Y-14761484D02*
X6650777Y-14628150D01*
X6650777Y-14666246D02*
X6660301Y-14647198D01*
X6660301Y-14647198D02*
X6669824Y-14637674D01*
X6669824Y-14637674D02*
X6688872Y-14628150D01*
X6688872Y-14628150D02*
X6707920Y-14628150D01*
X6774586Y-14761484D02*
X6774586Y-14628150D01*
X6774586Y-14561484D02*
X6765062Y-14571008D01*
X6765062Y-14571008D02*
X6774586Y-14580531D01*
X6774586Y-14580531D02*
X6784110Y-14571008D01*
X6784110Y-14571008D02*
X6774586Y-14561484D01*
X6774586Y-14561484D02*
X6774586Y-14580531D01*
X6898396Y-14761484D02*
X6879348Y-14751960D01*
X6879348Y-14751960D02*
X6869824Y-14732912D01*
X6869824Y-14732912D02*
X6869824Y-14561484D01*
X7003158Y-14761484D02*
X6984110Y-14751960D01*
X6984110Y-14751960D02*
X6974586Y-14732912D01*
X6974586Y-14732912D02*
X6974586Y-14561484D01*
X7231729Y-14761484D02*
X7231729Y-14561484D01*
X7231729Y-14561484D02*
X7298396Y-14704341D01*
X7298396Y-14704341D02*
X7365062Y-14561484D01*
X7365062Y-14561484D02*
X7365062Y-14761484D01*
X7546015Y-14761484D02*
X7546015Y-14656722D01*
X7546015Y-14656722D02*
X7536491Y-14637674D01*
X7536491Y-14637674D02*
X7517443Y-14628150D01*
X7517443Y-14628150D02*
X7479348Y-14628150D01*
X7479348Y-14628150D02*
X7460301Y-14637674D01*
X7546015Y-14751960D02*
X7526967Y-14761484D01*
X7526967Y-14761484D02*
X7479348Y-14761484D01*
X7479348Y-14761484D02*
X7460301Y-14751960D01*
X7460301Y-14751960D02*
X7450777Y-14732912D01*
X7450777Y-14732912D02*
X7450777Y-14713865D01*
X7450777Y-14713865D02*
X7460301Y-14694817D01*
X7460301Y-14694817D02*
X7479348Y-14685293D01*
X7479348Y-14685293D02*
X7526967Y-14685293D01*
X7526967Y-14685293D02*
X7546015Y-14675769D01*
X7641253Y-14628150D02*
X7641253Y-14828150D01*
X7641253Y-14637674D02*
X7660301Y-14628150D01*
X7660301Y-14628150D02*
X7698396Y-14628150D01*
X7698396Y-14628150D02*
X7717443Y-14637674D01*
X7717443Y-14637674D02*
X7726967Y-14647198D01*
X7726967Y-14647198D02*
X7736491Y-14666246D01*
X7736491Y-14666246D02*
X7736491Y-14723388D01*
X7736491Y-14723388D02*
X7726967Y-14742436D01*
X7726967Y-14742436D02*
X7717443Y-14751960D01*
X7717443Y-14751960D02*
X7698396Y-14761484D01*
X7698396Y-14761484D02*
X7660301Y-14761484D01*
X7660301Y-14761484D02*
X7641253Y-14751960D01*
X7822205Y-14742436D02*
X7831729Y-14751960D01*
X7831729Y-14751960D02*
X7822205Y-14761484D01*
X7822205Y-14761484D02*
X7812682Y-14751960D01*
X7812682Y-14751960D02*
X7822205Y-14742436D01*
X7822205Y-14742436D02*
X7822205Y-14761484D01*
X7822205Y-14637674D02*
X7831729Y-14647198D01*
X7831729Y-14647198D02*
X7822205Y-14656722D01*
X7822205Y-14656722D02*
X7812682Y-14647198D01*
X7812682Y-14647198D02*
X7822205Y-14637674D01*
X7822205Y-14637674D02*
X7822205Y-14656722D01*
X5990000Y-14990000D02*
X6190000Y-15190000D01*
X6190000Y-14990000D02*
X5990000Y-15190000D01*
X6431729Y-14981484D02*
X6555539Y-14981484D01*
X6555539Y-14981484D02*
X6488872Y-15057674D01*
X6488872Y-15057674D02*
X6517443Y-15057674D01*
X6517443Y-15057674D02*
X6536491Y-15067198D01*
X6536491Y-15067198D02*
X6546015Y-15076722D01*
X6546015Y-15076722D02*
X6555539Y-15095769D01*
X6555539Y-15095769D02*
X6555539Y-15143388D01*
X6555539Y-15143388D02*
X6546015Y-15162436D01*
X6546015Y-15162436D02*
X6536491Y-15171960D01*
X6536491Y-15171960D02*
X6517443Y-15181484D01*
X6517443Y-15181484D02*
X6460301Y-15181484D01*
X6460301Y-15181484D02*
X6441253Y-15171960D01*
X6441253Y-15171960D02*
X6431729Y-15162436D01*
X6641253Y-15162436D02*
X6650777Y-15171960D01*
X6650777Y-15171960D02*
X6641253Y-15181484D01*
X6641253Y-15181484D02*
X6631729Y-15171960D01*
X6631729Y-15171960D02*
X6641253Y-15162436D01*
X6641253Y-15162436D02*
X6641253Y-15181484D01*
X6726967Y-15000531D02*
X6736491Y-14991008D01*
X6736491Y-14991008D02*
X6755539Y-14981484D01*
X6755539Y-14981484D02*
X6803158Y-14981484D01*
X6803158Y-14981484D02*
X6822205Y-14991008D01*
X6822205Y-14991008D02*
X6831729Y-15000531D01*
X6831729Y-15000531D02*
X6841253Y-15019579D01*
X6841253Y-15019579D02*
X6841253Y-15038627D01*
X6841253Y-15038627D02*
X6831729Y-15067198D01*
X6831729Y-15067198D02*
X6717443Y-15181484D01*
X6717443Y-15181484D02*
X6841253Y-15181484D01*
X6965062Y-14981484D02*
X6984110Y-14981484D01*
X6984110Y-14981484D02*
X7003158Y-14991008D01*
X7003158Y-14991008D02*
X7012682Y-15000531D01*
X7012682Y-15000531D02*
X7022205Y-15019579D01*
X7022205Y-15019579D02*
X7031729Y-15057674D01*
X7031729Y-15057674D02*
X7031729Y-15105293D01*
X7031729Y-15105293D02*
X7022205Y-15143388D01*
X7022205Y-15143388D02*
X7012682Y-15162436D01*
X7012682Y-15162436D02*
X7003158Y-15171960D01*
X7003158Y-15171960D02*
X6984110Y-15181484D01*
X6984110Y-15181484D02*
X6965062Y-15181484D01*
X6965062Y-15181484D02*
X6946015Y-15171960D01*
X6946015Y-15171960D02*
X6936491Y-15162436D01*
X6936491Y-15162436D02*
X6926967Y-15143388D01*
X6926967Y-15143388D02*
X6917443Y-15105293D01*
X6917443Y-15105293D02*
X6917443Y-15057674D01*
X6917443Y-15057674D02*
X6926967Y-15019579D01*
X6926967Y-15019579D02*
X6936491Y-15000531D01*
X6936491Y-15000531D02*
X6946015Y-14991008D01*
X6946015Y-14991008D02*
X6965062Y-14981484D01*
X7155539Y-14981484D02*
X7174586Y-14981484D01*
X7174586Y-14981484D02*
X7193634Y-14991008D01*
X7193634Y-14991008D02*
X7203158Y-15000531D01*
X7203158Y-15000531D02*
X7212682Y-15019579D01*
X7212682Y-15019579D02*
X7222205Y-15057674D01*
X7222205Y-15057674D02*
X7222205Y-15105293D01*
X7222205Y-15105293D02*
X7212682Y-15143388D01*
X7212682Y-15143388D02*
X7203158Y-15162436D01*
X7203158Y-15162436D02*
X7193634Y-15171960D01*
X7193634Y-15171960D02*
X7174586Y-15181484D01*
X7174586Y-15181484D02*
X7155539Y-15181484D01*
X7155539Y-15181484D02*
X7136491Y-15171960D01*
X7136491Y-15171960D02*
X7126967Y-15162436D01*
X7126967Y-15162436D02*
X7117443Y-15143388D01*
X7117443Y-15143388D02*
X7107920Y-15105293D01*
X7107920Y-15105293D02*
X7107920Y-15057674D01*
X7107920Y-15057674D02*
X7117443Y-15019579D01*
X7117443Y-15019579D02*
X7126967Y-15000531D01*
X7126967Y-15000531D02*
X7136491Y-14991008D01*
X7136491Y-14991008D02*
X7155539Y-14981484D01*
X7307920Y-15181484D02*
X7307920Y-15048150D01*
X7307920Y-15067198D02*
X7317443Y-15057674D01*
X7317443Y-15057674D02*
X7336491Y-15048150D01*
X7336491Y-15048150D02*
X7365063Y-15048150D01*
X7365063Y-15048150D02*
X7384110Y-15057674D01*
X7384110Y-15057674D02*
X7393634Y-15076722D01*
X7393634Y-15076722D02*
X7393634Y-15181484D01*
X7393634Y-15076722D02*
X7403158Y-15057674D01*
X7403158Y-15057674D02*
X7422205Y-15048150D01*
X7422205Y-15048150D02*
X7450777Y-15048150D01*
X7450777Y-15048150D02*
X7469824Y-15057674D01*
X7469824Y-15057674D02*
X7479348Y-15076722D01*
X7479348Y-15076722D02*
X7479348Y-15181484D01*
X7574586Y-15181484D02*
X7574586Y-15048150D01*
X7574586Y-15067198D02*
X7584110Y-15057674D01*
X7584110Y-15057674D02*
X7603158Y-15048150D01*
X7603158Y-15048150D02*
X7631729Y-15048150D01*
X7631729Y-15048150D02*
X7650777Y-15057674D01*
X7650777Y-15057674D02*
X7660301Y-15076722D01*
X7660301Y-15076722D02*
X7660301Y-15181484D01*
X7660301Y-15076722D02*
X7669824Y-15057674D01*
X7669824Y-15057674D02*
X7688872Y-15048150D01*
X7688872Y-15048150D02*
X7717443Y-15048150D01*
X7717443Y-15048150D02*
X7736491Y-15057674D01*
X7736491Y-15057674D02*
X7746015Y-15076722D01*
X7746015Y-15076722D02*
X7746015Y-15181484D01*
X8136491Y-14971960D02*
X7965063Y-15229103D01*
X8393634Y-14981484D02*
X8412682Y-14981484D01*
X8412682Y-14981484D02*
X8431729Y-14991008D01*
X8431729Y-14991008D02*
X8441253Y-15000531D01*
X8441253Y-15000531D02*
X8450777Y-15019579D01*
X8450777Y-15019579D02*
X8460301Y-15057674D01*
X8460301Y-15057674D02*
X8460301Y-15105293D01*
X8460301Y-15105293D02*
X8450777Y-15143388D01*
X8450777Y-15143388D02*
X8441253Y-15162436D01*
X8441253Y-15162436D02*
X8431729Y-15171960D01*
X8431729Y-15171960D02*
X8412682Y-15181484D01*
X8412682Y-15181484D02*
X8393634Y-15181484D01*
X8393634Y-15181484D02*
X8374586Y-15171960D01*
X8374586Y-15171960D02*
X8365063Y-15162436D01*
X8365063Y-15162436D02*
X8355539Y-15143388D01*
X8355539Y-15143388D02*
X8346015Y-15105293D01*
X8346015Y-15105293D02*
X8346015Y-15057674D01*
X8346015Y-15057674D02*
X8355539Y-15019579D01*
X8355539Y-15019579D02*
X8365063Y-15000531D01*
X8365063Y-15000531D02*
X8374586Y-14991008D01*
X8374586Y-14991008D02*
X8393634Y-14981484D01*
X8546015Y-15162436D02*
X8555539Y-15171960D01*
X8555539Y-15171960D02*
X8546015Y-15181484D01*
X8546015Y-15181484D02*
X8536491Y-15171960D01*
X8536491Y-15171960D02*
X8546015Y-15162436D01*
X8546015Y-15162436D02*
X8546015Y-15181484D01*
X8746015Y-15181484D02*
X8631729Y-15181484D01*
X8688872Y-15181484D02*
X8688872Y-14981484D01*
X8688872Y-14981484D02*
X8669825Y-15010055D01*
X8669825Y-15010055D02*
X8650777Y-15029103D01*
X8650777Y-15029103D02*
X8631729Y-15038627D01*
X8822206Y-15000531D02*
X8831729Y-14991008D01*
X8831729Y-14991008D02*
X8850777Y-14981484D01*
X8850777Y-14981484D02*
X8898396Y-14981484D01*
X8898396Y-14981484D02*
X8917444Y-14991008D01*
X8917444Y-14991008D02*
X8926968Y-15000531D01*
X8926968Y-15000531D02*
X8936491Y-15019579D01*
X8936491Y-15019579D02*
X8936491Y-15038627D01*
X8936491Y-15038627D02*
X8926968Y-15067198D01*
X8926968Y-15067198D02*
X8812682Y-15181484D01*
X8812682Y-15181484D02*
X8936491Y-15181484D01*
X9107920Y-14981484D02*
X9069825Y-14981484D01*
X9069825Y-14981484D02*
X9050777Y-14991008D01*
X9050777Y-14991008D02*
X9041253Y-15000531D01*
X9041253Y-15000531D02*
X9022206Y-15029103D01*
X9022206Y-15029103D02*
X9012682Y-15067198D01*
X9012682Y-15067198D02*
X9012682Y-15143388D01*
X9012682Y-15143388D02*
X9022206Y-15162436D01*
X9022206Y-15162436D02*
X9031729Y-15171960D01*
X9031729Y-15171960D02*
X9050777Y-15181484D01*
X9050777Y-15181484D02*
X9088872Y-15181484D01*
X9088872Y-15181484D02*
X9107920Y-15171960D01*
X9107920Y-15171960D02*
X9117444Y-15162436D01*
X9117444Y-15162436D02*
X9126968Y-15143388D01*
X9126968Y-15143388D02*
X9126968Y-15095769D01*
X9126968Y-15095769D02*
X9117444Y-15076722D01*
X9117444Y-15076722D02*
X9107920Y-15067198D01*
X9107920Y-15067198D02*
X9088872Y-15057674D01*
X9088872Y-15057674D02*
X9050777Y-15057674D01*
X9050777Y-15057674D02*
X9031729Y-15067198D01*
X9031729Y-15067198D02*
X9022206Y-15076722D01*
X9022206Y-15076722D02*
X9012682Y-15095769D01*
X9250777Y-14981484D02*
X9269825Y-14981484D01*
X9269825Y-14981484D02*
X9288872Y-14991008D01*
X9288872Y-14991008D02*
X9298396Y-15000531D01*
X9298396Y-15000531D02*
X9307920Y-15019579D01*
X9307920Y-15019579D02*
X9317444Y-15057674D01*
X9317444Y-15057674D02*
X9317444Y-15105293D01*
X9317444Y-15105293D02*
X9307920Y-15143388D01*
X9307920Y-15143388D02*
X9298396Y-15162436D01*
X9298396Y-15162436D02*
X9288872Y-15171960D01*
X9288872Y-15171960D02*
X9269825Y-15181484D01*
X9269825Y-15181484D02*
X9250777Y-15181484D01*
X9250777Y-15181484D02*
X9231729Y-15171960D01*
X9231729Y-15171960D02*
X9222206Y-15162436D01*
X9222206Y-15162436D02*
X9212682Y-15143388D01*
X9212682Y-15143388D02*
X9203158Y-15105293D01*
X9203158Y-15105293D02*
X9203158Y-15057674D01*
X9203158Y-15057674D02*
X9212682Y-15019579D01*
X9212682Y-15019579D02*
X9222206Y-15000531D01*
X9222206Y-15000531D02*
X9231729Y-14991008D01*
X9231729Y-14991008D02*
X9250777Y-14981484D01*
X9393634Y-14981484D02*
X9393634Y-15019579D01*
X9469825Y-14981484D02*
X9469825Y-15019579D01*
X9765063Y-15257674D02*
X9755539Y-15248150D01*
X9755539Y-15248150D02*
X9736491Y-15219579D01*
X9736491Y-15219579D02*
X9726968Y-15200531D01*
X9726968Y-15200531D02*
X9717444Y-15171960D01*
X9717444Y-15171960D02*
X9707920Y-15124341D01*
X9707920Y-15124341D02*
X9707920Y-15086246D01*
X9707920Y-15086246D02*
X9717444Y-15038627D01*
X9717444Y-15038627D02*
X9726968Y-15010055D01*
X9726968Y-15010055D02*
X9736491Y-14991008D01*
X9736491Y-14991008D02*
X9755539Y-14962436D01*
X9755539Y-14962436D02*
X9765063Y-14952912D01*
X9822206Y-14981484D02*
X9946015Y-14981484D01*
X9946015Y-14981484D02*
X9879349Y-15057674D01*
X9879349Y-15057674D02*
X9907920Y-15057674D01*
X9907920Y-15057674D02*
X9926968Y-15067198D01*
X9926968Y-15067198D02*
X9936491Y-15076722D01*
X9936491Y-15076722D02*
X9946015Y-15095769D01*
X9946015Y-15095769D02*
X9946015Y-15143388D01*
X9946015Y-15143388D02*
X9936491Y-15162436D01*
X9936491Y-15162436D02*
X9926968Y-15171960D01*
X9926968Y-15171960D02*
X9907920Y-15181484D01*
X9907920Y-15181484D02*
X9850777Y-15181484D01*
X9850777Y-15181484D02*
X9831730Y-15171960D01*
X9831730Y-15171960D02*
X9822206Y-15162436D01*
X10184111Y-15181484D02*
X10184111Y-14981484D01*
X10269825Y-15181484D02*
X10269825Y-15076722D01*
X10269825Y-15076722D02*
X10260301Y-15057674D01*
X10260301Y-15057674D02*
X10241253Y-15048150D01*
X10241253Y-15048150D02*
X10212682Y-15048150D01*
X10212682Y-15048150D02*
X10193634Y-15057674D01*
X10193634Y-15057674D02*
X10184111Y-15067198D01*
X10393634Y-15181484D02*
X10374587Y-15171960D01*
X10374587Y-15171960D02*
X10365063Y-15162436D01*
X10365063Y-15162436D02*
X10355539Y-15143388D01*
X10355539Y-15143388D02*
X10355539Y-15086246D01*
X10355539Y-15086246D02*
X10365063Y-15067198D01*
X10365063Y-15067198D02*
X10374587Y-15057674D01*
X10374587Y-15057674D02*
X10393634Y-15048150D01*
X10393634Y-15048150D02*
X10422206Y-15048150D01*
X10422206Y-15048150D02*
X10441253Y-15057674D01*
X10441253Y-15057674D02*
X10450777Y-15067198D01*
X10450777Y-15067198D02*
X10460301Y-15086246D01*
X10460301Y-15086246D02*
X10460301Y-15143388D01*
X10460301Y-15143388D02*
X10450777Y-15162436D01*
X10450777Y-15162436D02*
X10441253Y-15171960D01*
X10441253Y-15171960D02*
X10422206Y-15181484D01*
X10422206Y-15181484D02*
X10393634Y-15181484D01*
X10574587Y-15181484D02*
X10555539Y-15171960D01*
X10555539Y-15171960D02*
X10546015Y-15152912D01*
X10546015Y-15152912D02*
X10546015Y-14981484D01*
X10726968Y-15171960D02*
X10707920Y-15181484D01*
X10707920Y-15181484D02*
X10669825Y-15181484D01*
X10669825Y-15181484D02*
X10650777Y-15171960D01*
X10650777Y-15171960D02*
X10641253Y-15152912D01*
X10641253Y-15152912D02*
X10641253Y-15076722D01*
X10641253Y-15076722D02*
X10650777Y-15057674D01*
X10650777Y-15057674D02*
X10669825Y-15048150D01*
X10669825Y-15048150D02*
X10707920Y-15048150D01*
X10707920Y-15048150D02*
X10726968Y-15057674D01*
X10726968Y-15057674D02*
X10736492Y-15076722D01*
X10736492Y-15076722D02*
X10736492Y-15095769D01*
X10736492Y-15095769D02*
X10641253Y-15114817D01*
X10812682Y-15171960D02*
X10831730Y-15181484D01*
X10831730Y-15181484D02*
X10869825Y-15181484D01*
X10869825Y-15181484D02*
X10888873Y-15171960D01*
X10888873Y-15171960D02*
X10898396Y-15152912D01*
X10898396Y-15152912D02*
X10898396Y-15143388D01*
X10898396Y-15143388D02*
X10888873Y-15124341D01*
X10888873Y-15124341D02*
X10869825Y-15114817D01*
X10869825Y-15114817D02*
X10841253Y-15114817D01*
X10841253Y-15114817D02*
X10822206Y-15105293D01*
X10822206Y-15105293D02*
X10812682Y-15086246D01*
X10812682Y-15086246D02*
X10812682Y-15076722D01*
X10812682Y-15076722D02*
X10822206Y-15057674D01*
X10822206Y-15057674D02*
X10841253Y-15048150D01*
X10841253Y-15048150D02*
X10869825Y-15048150D01*
X10869825Y-15048150D02*
X10888873Y-15057674D01*
X10965063Y-15257674D02*
X10974587Y-15248150D01*
X10974587Y-15248150D02*
X10993634Y-15219579D01*
X10993634Y-15219579D02*
X11003158Y-15200531D01*
X11003158Y-15200531D02*
X11012682Y-15171960D01*
X11012682Y-15171960D02*
X11022206Y-15124341D01*
X11022206Y-15124341D02*
X11022206Y-15086246D01*
X11022206Y-15086246D02*
X11012682Y-15038627D01*
X11012682Y-15038627D02*
X11003158Y-15010055D01*
X11003158Y-15010055D02*
X10993634Y-14991008D01*
X10993634Y-14991008D02*
X10974587Y-14962436D01*
X10974587Y-14962436D02*
X10965063Y-14952912D01*
X11326968Y-15257674D02*
X11317444Y-15248150D01*
X11317444Y-15248150D02*
X11298396Y-15219579D01*
X11298396Y-15219579D02*
X11288872Y-15200531D01*
X11288872Y-15200531D02*
X11279349Y-15171960D01*
X11279349Y-15171960D02*
X11269825Y-15124341D01*
X11269825Y-15124341D02*
X11269825Y-15086246D01*
X11269825Y-15086246D02*
X11279349Y-15038627D01*
X11279349Y-15038627D02*
X11288872Y-15010055D01*
X11288872Y-15010055D02*
X11298396Y-14991008D01*
X11298396Y-14991008D02*
X11317444Y-14962436D01*
X11317444Y-14962436D02*
X11326968Y-14952912D01*
X11403158Y-15048150D02*
X11403158Y-15181484D01*
X11403158Y-15067198D02*
X11412682Y-15057674D01*
X11412682Y-15057674D02*
X11431730Y-15048150D01*
X11431730Y-15048150D02*
X11460301Y-15048150D01*
X11460301Y-15048150D02*
X11479349Y-15057674D01*
X11479349Y-15057674D02*
X11488872Y-15076722D01*
X11488872Y-15076722D02*
X11488872Y-15181484D01*
X11612682Y-15181484D02*
X11593634Y-15171960D01*
X11593634Y-15171960D02*
X11584111Y-15162436D01*
X11584111Y-15162436D02*
X11574587Y-15143388D01*
X11574587Y-15143388D02*
X11574587Y-15086246D01*
X11574587Y-15086246D02*
X11584111Y-15067198D01*
X11584111Y-15067198D02*
X11593634Y-15057674D01*
X11593634Y-15057674D02*
X11612682Y-15048150D01*
X11612682Y-15048150D02*
X11641253Y-15048150D01*
X11641253Y-15048150D02*
X11660301Y-15057674D01*
X11660301Y-15057674D02*
X11669825Y-15067198D01*
X11669825Y-15067198D02*
X11679349Y-15086246D01*
X11679349Y-15086246D02*
X11679349Y-15143388D01*
X11679349Y-15143388D02*
X11669825Y-15162436D01*
X11669825Y-15162436D02*
X11660301Y-15171960D01*
X11660301Y-15171960D02*
X11641253Y-15181484D01*
X11641253Y-15181484D02*
X11612682Y-15181484D01*
X11736492Y-15048150D02*
X11812682Y-15048150D01*
X11765063Y-14981484D02*
X11765063Y-15152912D01*
X11765063Y-15152912D02*
X11774587Y-15171960D01*
X11774587Y-15171960D02*
X11793634Y-15181484D01*
X11793634Y-15181484D02*
X11812682Y-15181484D01*
X12031730Y-15048150D02*
X12031730Y-15248150D01*
X12031730Y-15057674D02*
X12050777Y-15048150D01*
X12050777Y-15048150D02*
X12088873Y-15048150D01*
X12088873Y-15048150D02*
X12107920Y-15057674D01*
X12107920Y-15057674D02*
X12117444Y-15067198D01*
X12117444Y-15067198D02*
X12126968Y-15086246D01*
X12126968Y-15086246D02*
X12126968Y-15143388D01*
X12126968Y-15143388D02*
X12117444Y-15162436D01*
X12117444Y-15162436D02*
X12107920Y-15171960D01*
X12107920Y-15171960D02*
X12088873Y-15181484D01*
X12088873Y-15181484D02*
X12050777Y-15181484D01*
X12050777Y-15181484D02*
X12031730Y-15171960D01*
X12241253Y-15181484D02*
X12222206Y-15171960D01*
X12222206Y-15171960D02*
X12212682Y-15152912D01*
X12212682Y-15152912D02*
X12212682Y-14981484D01*
X12403158Y-15181484D02*
X12403158Y-15076722D01*
X12403158Y-15076722D02*
X12393634Y-15057674D01*
X12393634Y-15057674D02*
X12374587Y-15048150D01*
X12374587Y-15048150D02*
X12336492Y-15048150D01*
X12336492Y-15048150D02*
X12317444Y-15057674D01*
X12403158Y-15171960D02*
X12384111Y-15181484D01*
X12384111Y-15181484D02*
X12336492Y-15181484D01*
X12336492Y-15181484D02*
X12317444Y-15171960D01*
X12317444Y-15171960D02*
X12307920Y-15152912D01*
X12307920Y-15152912D02*
X12307920Y-15133865D01*
X12307920Y-15133865D02*
X12317444Y-15114817D01*
X12317444Y-15114817D02*
X12336492Y-15105293D01*
X12336492Y-15105293D02*
X12384111Y-15105293D01*
X12384111Y-15105293D02*
X12403158Y-15095769D01*
X12469825Y-15048150D02*
X12546015Y-15048150D01*
X12498396Y-14981484D02*
X12498396Y-15152912D01*
X12498396Y-15152912D02*
X12507920Y-15171960D01*
X12507920Y-15171960D02*
X12526968Y-15181484D01*
X12526968Y-15181484D02*
X12546015Y-15181484D01*
X12688873Y-15171960D02*
X12669825Y-15181484D01*
X12669825Y-15181484D02*
X12631730Y-15181484D01*
X12631730Y-15181484D02*
X12612682Y-15171960D01*
X12612682Y-15171960D02*
X12603158Y-15152912D01*
X12603158Y-15152912D02*
X12603158Y-15076722D01*
X12603158Y-15076722D02*
X12612682Y-15057674D01*
X12612682Y-15057674D02*
X12631730Y-15048150D01*
X12631730Y-15048150D02*
X12669825Y-15048150D01*
X12669825Y-15048150D02*
X12688873Y-15057674D01*
X12688873Y-15057674D02*
X12698396Y-15076722D01*
X12698396Y-15076722D02*
X12698396Y-15095769D01*
X12698396Y-15095769D02*
X12603158Y-15114817D01*
X12869825Y-15181484D02*
X12869825Y-14981484D01*
X12869825Y-15171960D02*
X12850777Y-15181484D01*
X12850777Y-15181484D02*
X12812682Y-15181484D01*
X12812682Y-15181484D02*
X12793634Y-15171960D01*
X12793634Y-15171960D02*
X12784111Y-15162436D01*
X12784111Y-15162436D02*
X12774587Y-15143388D01*
X12774587Y-15143388D02*
X12774587Y-15086246D01*
X12774587Y-15086246D02*
X12784111Y-15067198D01*
X12784111Y-15067198D02*
X12793634Y-15057674D01*
X12793634Y-15057674D02*
X12812682Y-15048150D01*
X12812682Y-15048150D02*
X12850777Y-15048150D01*
X12850777Y-15048150D02*
X12869825Y-15057674D01*
X12946015Y-15257674D02*
X12955539Y-15248150D01*
X12955539Y-15248150D02*
X12974587Y-15219579D01*
X12974587Y-15219579D02*
X12984111Y-15200531D01*
X12984111Y-15200531D02*
X12993634Y-15171960D01*
X12993634Y-15171960D02*
X13003158Y-15124341D01*
X13003158Y-15124341D02*
X13003158Y-15086246D01*
X13003158Y-15086246D02*
X12993634Y-15038627D01*
X12993634Y-15038627D02*
X12984111Y-15010055D01*
X12984111Y-15010055D02*
X12974587Y-14991008D01*
X12974587Y-14991008D02*
X12955539Y-14962436D01*
X12955539Y-14962436D02*
X12946015Y-14952912D01*
M02*
