%TF.GenerationSoftware,KiCad,Pcbnew,7.0.11+1*%
%TF.ProjectId,makerspace_sign,6d616b65-7273-4706-9163-655f7369676e,rev?*%
%TF.SameCoordinates,Original*%
%TF.FileFunction,Drillmap*%
%TF.FilePolarity,Positive*%
%FSLAX45Y45*%
G04 Gerber Fmt 4.5, Leading zero omitted, Abs format (unit mm)*
%MOMM*%
%LPD*%
G01*
G04 APERTURE LIST*
%ADD10C,0.200000*%
%ADD11C,0.100000*%
G04 APERTURE END LIST*
D10*
X6200000Y-4640000D02*
X6200000Y-9040000D01*
X6200000Y-10040000D02*
X6200000Y-14440000D01*
X6200000Y-10040000D02*
G75*
G03*
X6200000Y-9040000I0J500000D01*
G01*
X13821024Y-9040000D02*
X6200000Y-4640000D01*
X6200000Y-14440000D02*
X13821024Y-10040000D01*
X13821024Y-10040000D02*
X13821024Y-9040000D01*
D11*
X6559675Y-6374422D02*
X6599675Y-6414422D01*
X6599675Y-6374422D02*
X6559675Y-6414422D01*
X6559675Y-6628422D02*
X6599675Y-6668422D01*
X6599675Y-6628422D02*
X6559675Y-6668422D01*
X6559675Y-8660422D02*
X6599675Y-8700422D01*
X6599675Y-8660422D02*
X6559675Y-8700422D01*
X6559675Y-8914422D02*
X6599675Y-8954422D01*
X6599675Y-8914422D02*
X6559675Y-8954422D01*
X6559675Y-10184422D02*
X6599675Y-10224422D01*
X6599675Y-10184422D02*
X6559675Y-10224422D01*
X6559675Y-10438422D02*
X6599675Y-10478422D01*
X6599675Y-10438422D02*
X6559675Y-10478422D01*
X6559675Y-11962422D02*
X6599675Y-12002422D01*
X6599675Y-11962422D02*
X6559675Y-12002422D01*
X6559675Y-12216422D02*
X6599675Y-12256422D01*
X6599675Y-12216422D02*
X6559675Y-12256422D01*
X6559675Y-12470422D02*
X6599675Y-12510422D01*
X6599675Y-12470422D02*
X6559675Y-12510422D01*
X6646503Y-8103496D02*
X6686503Y-8143496D01*
X6686503Y-8103496D02*
X6646503Y-8143496D01*
X6685000Y-11125000D02*
X6725000Y-11165000D01*
X6725000Y-11125000D02*
X6685000Y-11165000D01*
X6795000Y-10870000D02*
X6835000Y-10910000D01*
X6835000Y-10870000D02*
X6795000Y-10910000D01*
X6804496Y-7950504D02*
X6844496Y-7990504D01*
X6844496Y-7950504D02*
X6804496Y-7990504D01*
X6813675Y-6120422D02*
X6853675Y-6160422D01*
X6853675Y-6120422D02*
X6813675Y-6160422D01*
X6813675Y-12724422D02*
X6853675Y-12764422D01*
X6853675Y-12724422D02*
X6813675Y-12764422D01*
X6813675Y-12978422D02*
X6853675Y-13018422D01*
X6853675Y-12978422D02*
X6813675Y-13018422D01*
X7059000Y-10059000D02*
X7099000Y-10099000D01*
X7099000Y-10059000D02*
X7059000Y-10099000D01*
X7059000Y-10186000D02*
X7099000Y-10226000D01*
X7099000Y-10186000D02*
X7059000Y-10226000D01*
X7059000Y-10313000D02*
X7099000Y-10353000D01*
X7099000Y-10313000D02*
X7059000Y-10353000D01*
X7059000Y-10440000D02*
X7099000Y-10480000D01*
X7099000Y-10440000D02*
X7059000Y-10480000D01*
X7060000Y-10570000D02*
X7100000Y-10610000D01*
X7100000Y-10570000D02*
X7060000Y-10610000D01*
X7066000Y-8430000D02*
X7106000Y-8470000D01*
X7106000Y-8430000D02*
X7066000Y-8470000D01*
X7066000Y-8559000D02*
X7106000Y-8599000D01*
X7106000Y-8559000D02*
X7066000Y-8599000D01*
X7066000Y-8686000D02*
X7106000Y-8726000D01*
X7106000Y-8686000D02*
X7066000Y-8726000D01*
X7066000Y-8813000D02*
X7106000Y-8853000D01*
X7106000Y-8813000D02*
X7066000Y-8853000D01*
X7066000Y-8940000D02*
X7106000Y-8980000D01*
X7106000Y-8940000D02*
X7066000Y-8980000D01*
X7067675Y-6120422D02*
X7107675Y-6160422D01*
X7107675Y-6120422D02*
X7067675Y-6160422D01*
X7067675Y-8152422D02*
X7107675Y-8192422D01*
X7107675Y-8152422D02*
X7067675Y-8192422D01*
X7160000Y-7235000D02*
X7200000Y-7275000D01*
X7200000Y-7235000D02*
X7160000Y-7275000D01*
X7186000Y-10059000D02*
X7226000Y-10099000D01*
X7226000Y-10059000D02*
X7186000Y-10099000D01*
X7186000Y-10186000D02*
X7226000Y-10226000D01*
X7226000Y-10186000D02*
X7186000Y-10226000D01*
X7186000Y-10313000D02*
X7226000Y-10353000D01*
X7226000Y-10313000D02*
X7186000Y-10353000D01*
X7186000Y-10440000D02*
X7226000Y-10480000D01*
X7226000Y-10440000D02*
X7186000Y-10480000D01*
X7187000Y-10570000D02*
X7227000Y-10610000D01*
X7227000Y-10570000D02*
X7187000Y-10610000D01*
X7193000Y-8430000D02*
X7233000Y-8470000D01*
X7233000Y-8430000D02*
X7193000Y-8470000D01*
X7193000Y-8559000D02*
X7233000Y-8599000D01*
X7233000Y-8559000D02*
X7193000Y-8599000D01*
X7193000Y-8686000D02*
X7233000Y-8726000D01*
X7233000Y-8686000D02*
X7193000Y-8726000D01*
X7193000Y-8813000D02*
X7233000Y-8853000D01*
X7233000Y-8813000D02*
X7193000Y-8853000D01*
X7193000Y-8940000D02*
X7233000Y-8980000D01*
X7233000Y-8940000D02*
X7193000Y-8980000D01*
X7300000Y-7090000D02*
X7340000Y-7130000D01*
X7340000Y-7090000D02*
X7300000Y-7130000D01*
X7313000Y-10059000D02*
X7353000Y-10099000D01*
X7353000Y-10059000D02*
X7313000Y-10099000D01*
X7313000Y-10186000D02*
X7353000Y-10226000D01*
X7353000Y-10186000D02*
X7313000Y-10226000D01*
X7313000Y-10313000D02*
X7353000Y-10353000D01*
X7353000Y-10313000D02*
X7313000Y-10353000D01*
X7313000Y-10440000D02*
X7353000Y-10480000D01*
X7353000Y-10440000D02*
X7313000Y-10480000D01*
X7314000Y-10570000D02*
X7354000Y-10610000D01*
X7354000Y-10570000D02*
X7314000Y-10610000D01*
X7320000Y-8430000D02*
X7360000Y-8470000D01*
X7360000Y-8430000D02*
X7320000Y-8470000D01*
X7320000Y-8559000D02*
X7360000Y-8599000D01*
X7360000Y-8559000D02*
X7320000Y-8599000D01*
X7320000Y-8686000D02*
X7360000Y-8726000D01*
X7360000Y-8686000D02*
X7320000Y-8726000D01*
X7320000Y-8813000D02*
X7360000Y-8853000D01*
X7360000Y-8813000D02*
X7320000Y-8853000D01*
X7320000Y-8940000D02*
X7360000Y-8980000D01*
X7360000Y-8940000D02*
X7320000Y-8980000D01*
X7321675Y-7898422D02*
X7361675Y-7938422D01*
X7361675Y-7898422D02*
X7321675Y-7938422D01*
X7321675Y-8152422D02*
X7361675Y-8192422D01*
X7361675Y-8152422D02*
X7321675Y-8192422D01*
X7321675Y-10946422D02*
X7361675Y-10986422D01*
X7361675Y-10946422D02*
X7321675Y-10986422D01*
X7440000Y-10059000D02*
X7480000Y-10099000D01*
X7480000Y-10059000D02*
X7440000Y-10099000D01*
X7440000Y-10186000D02*
X7480000Y-10226000D01*
X7480000Y-10186000D02*
X7440000Y-10226000D01*
X7440000Y-10313000D02*
X7480000Y-10353000D01*
X7480000Y-10313000D02*
X7440000Y-10353000D01*
X7440000Y-10440000D02*
X7480000Y-10480000D01*
X7480000Y-10440000D02*
X7440000Y-10480000D01*
X7441000Y-10570000D02*
X7481000Y-10610000D01*
X7481000Y-10570000D02*
X7441000Y-10610000D01*
X7447000Y-8430000D02*
X7487000Y-8470000D01*
X7487000Y-8430000D02*
X7447000Y-8470000D01*
X7447000Y-8559000D02*
X7487000Y-8599000D01*
X7487000Y-8559000D02*
X7447000Y-8599000D01*
X7447000Y-8686000D02*
X7487000Y-8726000D01*
X7487000Y-8686000D02*
X7447000Y-8726000D01*
X7447000Y-8813000D02*
X7487000Y-8853000D01*
X7487000Y-8813000D02*
X7447000Y-8853000D01*
X7447000Y-8940000D02*
X7487000Y-8980000D01*
X7487000Y-8940000D02*
X7447000Y-8980000D01*
X7475785Y-11937772D02*
X7515785Y-11977772D01*
X7515785Y-11937772D02*
X7475785Y-11977772D01*
X7491815Y-7356815D02*
X7531815Y-7396815D01*
X7531815Y-7356815D02*
X7491815Y-7396815D01*
X7575675Y-7898422D02*
X7615675Y-7938422D01*
X7615675Y-7898422D02*
X7575675Y-7938422D01*
X7575675Y-8152422D02*
X7615675Y-8192422D01*
X7615675Y-8152422D02*
X7575675Y-8192422D01*
X7575675Y-10946422D02*
X7615675Y-10986422D01*
X7615675Y-10946422D02*
X7575675Y-10986422D01*
X7575675Y-11200422D02*
X7615675Y-11240422D01*
X7615675Y-11200422D02*
X7575675Y-11240422D01*
X7577660Y-12033729D02*
X7617660Y-12073729D01*
X7617660Y-12033729D02*
X7577660Y-12073729D01*
X7675000Y-7090000D02*
X7715000Y-7130000D01*
X7715000Y-7090000D02*
X7675000Y-7130000D01*
X7680331Y-12128832D02*
X7720331Y-12168832D01*
X7720331Y-12128832D02*
X7680331Y-12168832D01*
X7829675Y-7390422D02*
X7869675Y-7430422D01*
X7869675Y-7390422D02*
X7829675Y-7430422D01*
X7829675Y-8152422D02*
X7869675Y-8192422D01*
X7869675Y-8152422D02*
X7829675Y-8192422D01*
X7829675Y-10946422D02*
X7869675Y-10986422D01*
X7869675Y-10946422D02*
X7829675Y-10986422D01*
X7830000Y-11540000D02*
X7870000Y-11580000D01*
X7870000Y-11540000D02*
X7830000Y-11580000D01*
X7855000Y-11750000D02*
X7895000Y-11790000D01*
X7895000Y-11750000D02*
X7855000Y-11790000D01*
X7955000Y-11850000D02*
X7995000Y-11890000D01*
X7995000Y-11850000D02*
X7955000Y-11890000D01*
X7960000Y-6225000D02*
X8000000Y-6265000D01*
X8000000Y-6225000D02*
X7960000Y-6265000D01*
X7970000Y-12820000D02*
X8010000Y-12860000D01*
X8010000Y-12820000D02*
X7970000Y-12860000D01*
X8015000Y-6410000D02*
X8055000Y-6450000D01*
X8055000Y-6410000D02*
X8015000Y-6450000D01*
X8025000Y-12635000D02*
X8065000Y-12675000D01*
X8065000Y-12635000D02*
X8025000Y-12675000D01*
X8040000Y-6110000D02*
X8080000Y-6150000D01*
X8080000Y-6110000D02*
X8040000Y-6150000D01*
X8040000Y-6925000D02*
X8080000Y-6965000D01*
X8080000Y-6925000D02*
X8040000Y-6965000D01*
X8050000Y-12935000D02*
X8090000Y-12975000D01*
X8090000Y-12935000D02*
X8050000Y-12975000D01*
X8083675Y-9168422D02*
X8123675Y-9208422D01*
X8123675Y-9168422D02*
X8083675Y-9208422D01*
X8085000Y-6295000D02*
X8125000Y-6335000D01*
X8125000Y-6295000D02*
X8085000Y-6335000D01*
X8095000Y-12750000D02*
X8135000Y-12790000D01*
X8135000Y-12750000D02*
X8095000Y-12790000D01*
X8120000Y-5995000D02*
X8160000Y-6035000D01*
X8160000Y-5995000D02*
X8120000Y-6035000D01*
X8130000Y-13050000D02*
X8170000Y-13090000D01*
X8170000Y-13050000D02*
X8130000Y-13090000D01*
X8150000Y-6485000D02*
X8190000Y-6525000D01*
X8190000Y-6485000D02*
X8150000Y-6525000D01*
X8160000Y-12560000D02*
X8200000Y-12600000D01*
X8200000Y-12560000D02*
X8160000Y-12600000D01*
X8165000Y-6180000D02*
X8205000Y-6220000D01*
X8205000Y-6180000D02*
X8165000Y-6220000D01*
X8175000Y-12865000D02*
X8215000Y-12905000D01*
X8215000Y-12865000D02*
X8175000Y-12905000D01*
X8195000Y-5880000D02*
X8235000Y-5920000D01*
X8235000Y-5880000D02*
X8195000Y-5920000D01*
X8205000Y-13165000D02*
X8245000Y-13205000D01*
X8245000Y-13165000D02*
X8205000Y-13205000D01*
X8220000Y-6370000D02*
X8260000Y-6410000D01*
X8260000Y-6370000D02*
X8220000Y-6410000D01*
X8230000Y-12675000D02*
X8270000Y-12715000D01*
X8270000Y-12675000D02*
X8230000Y-12715000D01*
X8240000Y-6065000D02*
X8280000Y-6105000D01*
X8280000Y-6065000D02*
X8240000Y-6105000D01*
X8247746Y-6817254D02*
X8287746Y-6857254D01*
X8287746Y-6817254D02*
X8247746Y-6857254D01*
X8250000Y-12980000D02*
X8290000Y-13020000D01*
X8290000Y-12980000D02*
X8250000Y-13020000D01*
X8285000Y-6250000D02*
X8325000Y-6290000D01*
X8325000Y-6250000D02*
X8285000Y-6290000D01*
X8285000Y-6565000D02*
X8325000Y-6605000D01*
X8325000Y-6565000D02*
X8285000Y-6605000D01*
X8295000Y-12480000D02*
X8335000Y-12520000D01*
X8335000Y-12480000D02*
X8295000Y-12520000D01*
X8295000Y-12795000D02*
X8335000Y-12835000D01*
X8335000Y-12795000D02*
X8295000Y-12835000D01*
X8315000Y-5950000D02*
X8355000Y-5990000D01*
X8355000Y-5950000D02*
X8315000Y-5990000D01*
X8325000Y-13095000D02*
X8365000Y-13135000D01*
X8365000Y-13095000D02*
X8325000Y-13135000D01*
X8337675Y-9168422D02*
X8377675Y-9208422D01*
X8377675Y-9168422D02*
X8337675Y-9208422D01*
X8350000Y-6445000D02*
X8390000Y-6485000D01*
X8390000Y-6445000D02*
X8350000Y-6485000D01*
X8360000Y-6135000D02*
X8400000Y-6175000D01*
X8400000Y-6135000D02*
X8360000Y-6175000D01*
X8360000Y-12600000D02*
X8400000Y-12640000D01*
X8400000Y-12600000D02*
X8360000Y-12640000D01*
X8370000Y-12910000D02*
X8410000Y-12950000D01*
X8410000Y-12910000D02*
X8370000Y-12950000D01*
X8435000Y-6020000D02*
X8475000Y-6060000D01*
X8475000Y-6020000D02*
X8435000Y-6060000D01*
X8445000Y-13025000D02*
X8485000Y-13065000D01*
X8485000Y-13025000D02*
X8445000Y-13065000D01*
X8591675Y-9930422D02*
X8631675Y-9970422D01*
X8631675Y-9930422D02*
X8591675Y-9970422D01*
X8591675Y-10184422D02*
X8631675Y-10224422D01*
X8631675Y-10184422D02*
X8591675Y-10224422D01*
X8591675Y-10438422D02*
X8631675Y-10478422D01*
X8631675Y-10438422D02*
X8591675Y-10478422D01*
X8632387Y-7466529D02*
X8672387Y-7506529D01*
X8672387Y-7466529D02*
X8632387Y-7506529D01*
X8634666Y-11567214D02*
X8674666Y-11607214D01*
X8674666Y-11567214D02*
X8634666Y-11607214D01*
X8707387Y-7351529D02*
X8747387Y-7391529D01*
X8747387Y-7351529D02*
X8707387Y-7391529D01*
X8709666Y-11682214D02*
X8749666Y-11722214D01*
X8749666Y-11682214D02*
X8709666Y-11722214D01*
X8762387Y-7541529D02*
X8802387Y-7581529D01*
X8802387Y-7541529D02*
X8762387Y-7581529D01*
X8764666Y-11492214D02*
X8804666Y-11532214D01*
X8804666Y-11492214D02*
X8764666Y-11532214D01*
X8782387Y-7236529D02*
X8822387Y-7276529D01*
X8822387Y-7236529D02*
X8782387Y-7276529D01*
X8784666Y-11797214D02*
X8824666Y-11837214D01*
X8824666Y-11797214D02*
X8784666Y-11837214D01*
X8837387Y-7426529D02*
X8877387Y-7466529D01*
X8877387Y-7426529D02*
X8837387Y-7466529D01*
X8839666Y-11607214D02*
X8879666Y-11647214D01*
X8879666Y-11607214D02*
X8839666Y-11647214D01*
X8845675Y-9422422D02*
X8885675Y-9462422D01*
X8885675Y-9422422D02*
X8845675Y-9462422D01*
X8845675Y-9676422D02*
X8885675Y-9716422D01*
X8885675Y-9676422D02*
X8845675Y-9716422D01*
X8845675Y-9930422D02*
X8885675Y-9970422D01*
X8885675Y-9930422D02*
X8845675Y-9970422D01*
X8845675Y-10184422D02*
X8885675Y-10224422D01*
X8885675Y-10184422D02*
X8845675Y-10224422D01*
X8845675Y-10438422D02*
X8885675Y-10478422D01*
X8885675Y-10438422D02*
X8845675Y-10478422D01*
X8852387Y-7116529D02*
X8892387Y-7156529D01*
X8892387Y-7116529D02*
X8852387Y-7156529D01*
X8854666Y-11917214D02*
X8894666Y-11957214D01*
X8894666Y-11917214D02*
X8854666Y-11957214D01*
X8892387Y-7616529D02*
X8932387Y-7656529D01*
X8932387Y-7616529D02*
X8892387Y-7656529D01*
X8894666Y-11417214D02*
X8934666Y-11457214D01*
X8934666Y-11417214D02*
X8894666Y-11457214D01*
X8912387Y-7311529D02*
X8952387Y-7351529D01*
X8952387Y-7311529D02*
X8912387Y-7351529D01*
X8914666Y-11722214D02*
X8954666Y-11762214D01*
X8954666Y-11722214D02*
X8914666Y-11762214D01*
X8967387Y-7501529D02*
X9007387Y-7541529D01*
X9007387Y-7501529D02*
X8967387Y-7541529D01*
X8969666Y-11532214D02*
X9009666Y-11572214D01*
X9009666Y-11532214D02*
X8969666Y-11572214D01*
X8982387Y-7191529D02*
X9022387Y-7231529D01*
X9022387Y-7191529D02*
X8982387Y-7231529D01*
X8984666Y-11842214D02*
X9024666Y-11882214D01*
X9024666Y-11842214D02*
X8984666Y-11882214D01*
X9022387Y-7691529D02*
X9062387Y-7731529D01*
X9062387Y-7691529D02*
X9022387Y-7731529D01*
X9024666Y-11342214D02*
X9064666Y-11382214D01*
X9064666Y-11342214D02*
X9024666Y-11382214D01*
X9042387Y-7386529D02*
X9082387Y-7426529D01*
X9082387Y-7386529D02*
X9042387Y-7426529D01*
X9044666Y-11647214D02*
X9084666Y-11687214D01*
X9084666Y-11647214D02*
X9044666Y-11687214D01*
X9097387Y-7576529D02*
X9137387Y-7616529D01*
X9137387Y-7576529D02*
X9097387Y-7616529D01*
X9099666Y-11457214D02*
X9139666Y-11497214D01*
X9139666Y-11457214D02*
X9099666Y-11497214D01*
X9099675Y-9422422D02*
X9139675Y-9462422D01*
X9139675Y-9422422D02*
X9099675Y-9462422D01*
X9099675Y-9676422D02*
X9139675Y-9716422D01*
X9139675Y-9676422D02*
X9099675Y-9716422D01*
X9099675Y-9930422D02*
X9139675Y-9970422D01*
X9139675Y-9930422D02*
X9099675Y-9970422D01*
X9099675Y-10184422D02*
X9139675Y-10224422D01*
X9139675Y-10184422D02*
X9099675Y-10224422D01*
X9099675Y-10438422D02*
X9139675Y-10478422D01*
X9139675Y-10438422D02*
X9099675Y-10478422D01*
X9112387Y-7266529D02*
X9152387Y-7306529D01*
X9152387Y-7266529D02*
X9112387Y-7306529D01*
X9114666Y-11767214D02*
X9154666Y-11807214D01*
X9154666Y-11767214D02*
X9114666Y-11807214D01*
X9172387Y-7461529D02*
X9212387Y-7501529D01*
X9212387Y-7461529D02*
X9172387Y-7501529D01*
X9174666Y-11572214D02*
X9214666Y-11612214D01*
X9214666Y-11572214D02*
X9174666Y-11612214D01*
X9225000Y-8880000D02*
X9265000Y-8920000D01*
X9265000Y-8880000D02*
X9225000Y-8920000D01*
X9225000Y-9010000D02*
X9265000Y-9050000D01*
X9265000Y-9010000D02*
X9225000Y-9050000D01*
X9242387Y-7341529D02*
X9282387Y-7381529D01*
X9282387Y-7341529D02*
X9242387Y-7381529D01*
X9244666Y-11692214D02*
X9284666Y-11732214D01*
X9284666Y-11692214D02*
X9244666Y-11732214D01*
X9353675Y-9422422D02*
X9393675Y-9462422D01*
X9393675Y-9422422D02*
X9353675Y-9462422D01*
X9353675Y-9676422D02*
X9393675Y-9716422D01*
X9393675Y-9676422D02*
X9353675Y-9716422D01*
X9353675Y-9930422D02*
X9393675Y-9970422D01*
X9393675Y-9930422D02*
X9353675Y-9970422D01*
X9353675Y-10184422D02*
X9393675Y-10224422D01*
X9393675Y-10184422D02*
X9353675Y-10224422D01*
X9353675Y-10438422D02*
X9393675Y-10478422D01*
X9393675Y-10438422D02*
X9353675Y-10478422D01*
X9355000Y-8880000D02*
X9395000Y-8920000D01*
X9395000Y-8880000D02*
X9355000Y-8920000D01*
X9355000Y-9010000D02*
X9395000Y-9050000D01*
X9395000Y-9010000D02*
X9355000Y-9050000D01*
X9607675Y-9168422D02*
X9647675Y-9208422D01*
X9647675Y-9168422D02*
X9607675Y-9208422D01*
X9607675Y-9422422D02*
X9647675Y-9462422D01*
X9647675Y-9422422D02*
X9607675Y-9462422D01*
X9607675Y-9676422D02*
X9647675Y-9716422D01*
X9647675Y-9676422D02*
X9607675Y-9716422D01*
X9607675Y-9930422D02*
X9647675Y-9970422D01*
X9647675Y-9930422D02*
X9607675Y-9970422D01*
X9607675Y-10184422D02*
X9647675Y-10224422D01*
X9647675Y-10184422D02*
X9607675Y-10224422D01*
X9607675Y-10438422D02*
X9647675Y-10478422D01*
X9647675Y-10438422D02*
X9607675Y-10478422D01*
X9607675Y-11454422D02*
X9647675Y-11494422D01*
X9647675Y-11454422D02*
X9607675Y-11494422D01*
X9861675Y-8914422D02*
X9901675Y-8954422D01*
X9901675Y-8914422D02*
X9861675Y-8954422D01*
X9861675Y-9168422D02*
X9901675Y-9208422D01*
X9901675Y-9168422D02*
X9861675Y-9208422D01*
X9861675Y-9422422D02*
X9901675Y-9462422D01*
X9901675Y-9422422D02*
X9861675Y-9462422D01*
X9861675Y-9676422D02*
X9901675Y-9716422D01*
X9901675Y-9676422D02*
X9861675Y-9716422D01*
X9861675Y-9930422D02*
X9901675Y-9970422D01*
X9901675Y-9930422D02*
X9861675Y-9970422D01*
X9861675Y-10184422D02*
X9901675Y-10224422D01*
X9901675Y-10184422D02*
X9861675Y-10224422D01*
X9861675Y-10438422D02*
X9901675Y-10478422D01*
X9901675Y-10438422D02*
X9861675Y-10478422D01*
X10115675Y-8406422D02*
X10155675Y-8446422D01*
X10155675Y-8406422D02*
X10115675Y-8446422D01*
X10115675Y-9168422D02*
X10155675Y-9208422D01*
X10155675Y-9168422D02*
X10115675Y-9208422D01*
X10115675Y-9422422D02*
X10155675Y-9462422D01*
X10155675Y-9422422D02*
X10115675Y-9462422D01*
X10115675Y-9676422D02*
X10155675Y-9716422D01*
X10155675Y-9676422D02*
X10115675Y-9716422D01*
X10115675Y-9930422D02*
X10155675Y-9970422D01*
X10155675Y-9930422D02*
X10115675Y-9970422D01*
X10115675Y-10184422D02*
X10155675Y-10224422D01*
X10155675Y-10184422D02*
X10115675Y-10224422D01*
X10115675Y-10438422D02*
X10155675Y-10478422D01*
X10155675Y-10438422D02*
X10115675Y-10478422D01*
X10369675Y-8406422D02*
X10409675Y-8446422D01*
X10409675Y-8406422D02*
X10369675Y-8446422D01*
X10369675Y-8660422D02*
X10409675Y-8700422D01*
X10409675Y-8660422D02*
X10369675Y-8700422D01*
X10369675Y-9422422D02*
X10409675Y-9462422D01*
X10409675Y-9422422D02*
X10369675Y-9462422D01*
X10369675Y-9676422D02*
X10409675Y-9716422D01*
X10409675Y-9676422D02*
X10369675Y-9716422D01*
X10369675Y-9930422D02*
X10409675Y-9970422D01*
X10409675Y-9930422D02*
X10369675Y-9970422D01*
X10369675Y-10184422D02*
X10409675Y-10224422D01*
X10409675Y-10184422D02*
X10369675Y-10224422D01*
X10623675Y-9676422D02*
X10663675Y-9716422D01*
X10663675Y-9676422D02*
X10623675Y-9716422D01*
X10623675Y-9930422D02*
X10663675Y-9970422D01*
X10663675Y-9930422D02*
X10623675Y-9970422D01*
X10877675Y-10692422D02*
X10917675Y-10732422D01*
X10917675Y-10692422D02*
X10877675Y-10732422D01*
X11038926Y-8857530D02*
X11078926Y-8897530D01*
X11078926Y-8857530D02*
X11038926Y-8897530D01*
X11040000Y-10185000D02*
X11080000Y-10225000D01*
X11080000Y-10185000D02*
X11040000Y-10225000D01*
X11113926Y-8742530D02*
X11153926Y-8782530D01*
X11153926Y-8742530D02*
X11113926Y-8782530D01*
X11115000Y-10300000D02*
X11155000Y-10340000D01*
X11155000Y-10300000D02*
X11115000Y-10340000D01*
X11168926Y-8932530D02*
X11208926Y-8972530D01*
X11208926Y-8932530D02*
X11168926Y-8972530D01*
X11170000Y-10110000D02*
X11210000Y-10150000D01*
X11210000Y-10110000D02*
X11170000Y-10150000D01*
X11188926Y-8627530D02*
X11228926Y-8667530D01*
X11228926Y-8627530D02*
X11188926Y-8667530D01*
X11190000Y-10415000D02*
X11230000Y-10455000D01*
X11230000Y-10415000D02*
X11190000Y-10455000D01*
X11243926Y-8817530D02*
X11283926Y-8857530D01*
X11283926Y-8817530D02*
X11243926Y-8857530D01*
X11245000Y-10225000D02*
X11285000Y-10265000D01*
X11285000Y-10225000D02*
X11245000Y-10265000D01*
X11258926Y-8507530D02*
X11298926Y-8547530D01*
X11298926Y-8507530D02*
X11258926Y-8547530D01*
X11260000Y-10535000D02*
X11300000Y-10575000D01*
X11300000Y-10535000D02*
X11260000Y-10575000D01*
X11298926Y-9007530D02*
X11338926Y-9047530D01*
X11338926Y-9007530D02*
X11298926Y-9047530D01*
X11300000Y-10035000D02*
X11340000Y-10075000D01*
X11340000Y-10035000D02*
X11300000Y-10075000D01*
X11318926Y-8702530D02*
X11358926Y-8742530D01*
X11358926Y-8702530D02*
X11318926Y-8742530D01*
X11320000Y-10340000D02*
X11360000Y-10380000D01*
X11360000Y-10340000D02*
X11320000Y-10380000D01*
X11360000Y-9404950D02*
X11400000Y-9444950D01*
X11400000Y-9404950D02*
X11360000Y-9444950D01*
X11373926Y-8892530D02*
X11413926Y-8932530D01*
X11413926Y-8892530D02*
X11373926Y-8932530D01*
X11375000Y-10150000D02*
X11415000Y-10190000D01*
X11415000Y-10150000D02*
X11375000Y-10190000D01*
X11388926Y-8582530D02*
X11428926Y-8622530D01*
X11428926Y-8582530D02*
X11388926Y-8622530D01*
X11390000Y-10460000D02*
X11430000Y-10500000D01*
X11430000Y-10460000D02*
X11390000Y-10500000D01*
X11428926Y-9082530D02*
X11468926Y-9122530D01*
X11468926Y-9082530D02*
X11428926Y-9122530D01*
X11430000Y-9960000D02*
X11470000Y-10000000D01*
X11470000Y-9960000D02*
X11430000Y-10000000D01*
X11448926Y-8777530D02*
X11488926Y-8817530D01*
X11488926Y-8777530D02*
X11448926Y-8817530D01*
X11450000Y-10265000D02*
X11490000Y-10305000D01*
X11490000Y-10265000D02*
X11450000Y-10305000D01*
X11503926Y-8967530D02*
X11543926Y-9007530D01*
X11543926Y-8967530D02*
X11503926Y-9007530D01*
X11505000Y-10075000D02*
X11545000Y-10115000D01*
X11545000Y-10075000D02*
X11505000Y-10115000D01*
X11518926Y-8657530D02*
X11558926Y-8697530D01*
X11558926Y-8657530D02*
X11518926Y-8697530D01*
X11520000Y-10385000D02*
X11560000Y-10425000D01*
X11560000Y-10385000D02*
X11520000Y-10425000D01*
X11578926Y-8852530D02*
X11618926Y-8892530D01*
X11618926Y-8852530D02*
X11578926Y-8892530D01*
X11580000Y-10190000D02*
X11620000Y-10230000D01*
X11620000Y-10190000D02*
X11580000Y-10230000D01*
X11600000Y-9805000D02*
X11640000Y-9845000D01*
X11640000Y-9805000D02*
X11600000Y-9845000D01*
X11607668Y-9654761D02*
X11647668Y-9694761D01*
X11647668Y-9654761D02*
X11607668Y-9694761D01*
X11614950Y-9515000D02*
X11654950Y-9555000D01*
X11654950Y-9515000D02*
X11614950Y-9555000D01*
X11648926Y-8732530D02*
X11688926Y-8772530D01*
X11688926Y-8732530D02*
X11648926Y-8772530D01*
X11650000Y-10310000D02*
X11690000Y-10350000D01*
X11690000Y-10310000D02*
X11650000Y-10350000D01*
X11700000Y-9140050D02*
X11740000Y-9180050D01*
X11740000Y-9140050D02*
X11700000Y-9180050D01*
X11855000Y-10010000D02*
X11895000Y-10050000D01*
X11895000Y-10010000D02*
X11855000Y-10050000D01*
X12074950Y-9715000D02*
X12114950Y-9755000D01*
X12114950Y-9715000D02*
X12074950Y-9755000D01*
X12080000Y-9870000D02*
X12120000Y-9910000D01*
X12120000Y-9870000D02*
X12080000Y-9910000D01*
X12080000Y-10035000D02*
X12120000Y-10075000D01*
X12120000Y-10035000D02*
X12080000Y-10075000D01*
X12177500Y-9325000D02*
X12217500Y-9365000D01*
X12217500Y-9325000D02*
X12177500Y-9365000D01*
X12260000Y-9110000D02*
X12300000Y-9150000D01*
X12300000Y-9110000D02*
X12260000Y-9150000D01*
X12290000Y-9960000D02*
X12330000Y-10000000D01*
X12330000Y-9960000D02*
X12290000Y-10000000D01*
X12415000Y-8955000D02*
X12455000Y-8995000D01*
X12455000Y-8955000D02*
X12415000Y-8995000D01*
X12415000Y-10095000D02*
X12455000Y-10135000D01*
X12455000Y-10095000D02*
X12415000Y-10135000D01*
X12420000Y-9170000D02*
X12460000Y-9210000D01*
X12460000Y-9170000D02*
X12420000Y-9210000D01*
X12430000Y-9880000D02*
X12470000Y-9920000D01*
X12470000Y-9880000D02*
X12430000Y-9920000D01*
X12485000Y-8840000D02*
X12525000Y-8880000D01*
X12525000Y-8840000D02*
X12485000Y-8880000D01*
X12485000Y-10210000D02*
X12525000Y-10250000D01*
X12525000Y-10210000D02*
X12485000Y-10250000D01*
X12540000Y-9025000D02*
X12580000Y-9065000D01*
X12580000Y-9025000D02*
X12540000Y-9065000D01*
X12540000Y-10025000D02*
X12580000Y-10065000D01*
X12580000Y-10025000D02*
X12540000Y-10065000D01*
X12610000Y-8910000D02*
X12650000Y-8950000D01*
X12650000Y-8910000D02*
X12610000Y-8950000D01*
X12610000Y-10140000D02*
X12650000Y-10180000D01*
X12650000Y-10140000D02*
X12610000Y-10180000D01*
X12675000Y-9100000D02*
X12715000Y-9140000D01*
X12715000Y-9100000D02*
X12675000Y-9140000D01*
X12675000Y-9950000D02*
X12715000Y-9990000D01*
X12715000Y-9950000D02*
X12675000Y-9990000D01*
X12690000Y-8795000D02*
X12730000Y-8835000D01*
X12730000Y-8795000D02*
X12690000Y-8835000D01*
X12690000Y-10255000D02*
X12730000Y-10295000D01*
X12730000Y-10255000D02*
X12690000Y-10295000D01*
X12745000Y-8985000D02*
X12785000Y-9025000D01*
X12785000Y-8985000D02*
X12745000Y-9025000D01*
X12745000Y-10065000D02*
X12785000Y-10105000D01*
X12785000Y-10065000D02*
X12745000Y-10105000D01*
X12765000Y-8680000D02*
X12805000Y-8720000D01*
X12805000Y-8680000D02*
X12765000Y-8720000D01*
X12765000Y-10370000D02*
X12805000Y-10410000D01*
X12805000Y-10370000D02*
X12765000Y-10410000D01*
X12810000Y-8865000D02*
X12850000Y-8905000D01*
X12850000Y-8865000D02*
X12810000Y-8905000D01*
X12810000Y-10185000D02*
X12850000Y-10225000D01*
X12850000Y-10185000D02*
X12810000Y-10225000D01*
X12840000Y-8565000D02*
X12880000Y-8605000D01*
X12880000Y-8565000D02*
X12840000Y-8605000D01*
X12840000Y-10485000D02*
X12880000Y-10525000D01*
X12880000Y-10485000D02*
X12840000Y-10525000D01*
X12875000Y-9060000D02*
X12915000Y-9100000D01*
X12915000Y-9060000D02*
X12875000Y-9100000D01*
X12875000Y-9990000D02*
X12915000Y-10030000D01*
X12915000Y-9990000D02*
X12875000Y-10030000D01*
X12885000Y-8750000D02*
X12925000Y-8790000D01*
X12925000Y-8750000D02*
X12885000Y-8790000D01*
X12885000Y-10300000D02*
X12925000Y-10340000D01*
X12925000Y-10300000D02*
X12885000Y-10340000D01*
X12935000Y-8935000D02*
X12975000Y-8975000D01*
X12975000Y-8935000D02*
X12935000Y-8975000D01*
X12935000Y-10115000D02*
X12975000Y-10155000D01*
X12975000Y-10115000D02*
X12935000Y-10155000D01*
X12960000Y-8635000D02*
X13000000Y-8675000D01*
X13000000Y-8635000D02*
X12960000Y-8675000D01*
X12960000Y-10415000D02*
X13000000Y-10455000D01*
X13000000Y-10415000D02*
X12960000Y-10455000D01*
X13015000Y-8820000D02*
X13055000Y-8860000D01*
X13055000Y-8820000D02*
X13015000Y-8860000D01*
X13015000Y-10230000D02*
X13055000Y-10270000D01*
X13055000Y-10230000D02*
X13015000Y-10270000D01*
X13090000Y-8705000D02*
X13130000Y-8745000D01*
X13130000Y-8705000D02*
X13090000Y-8745000D01*
X13090000Y-10345000D02*
X13130000Y-10385000D01*
X13130000Y-10345000D02*
X13090000Y-10385000D01*
D10*
X6450777Y-14761484D02*
X6450777Y-14561484D01*
X6450777Y-14561484D02*
X6498396Y-14561484D01*
X6498396Y-14561484D02*
X6526967Y-14571008D01*
X6526967Y-14571008D02*
X6546015Y-14590055D01*
X6546015Y-14590055D02*
X6555539Y-14609103D01*
X6555539Y-14609103D02*
X6565062Y-14647198D01*
X6565062Y-14647198D02*
X6565062Y-14675769D01*
X6565062Y-14675769D02*
X6555539Y-14713865D01*
X6555539Y-14713865D02*
X6546015Y-14732912D01*
X6546015Y-14732912D02*
X6526967Y-14751960D01*
X6526967Y-14751960D02*
X6498396Y-14761484D01*
X6498396Y-14761484D02*
X6450777Y-14761484D01*
X6650777Y-14761484D02*
X6650777Y-14628150D01*
X6650777Y-14666246D02*
X6660301Y-14647198D01*
X6660301Y-14647198D02*
X6669824Y-14637674D01*
X6669824Y-14637674D02*
X6688872Y-14628150D01*
X6688872Y-14628150D02*
X6707920Y-14628150D01*
X6774586Y-14761484D02*
X6774586Y-14628150D01*
X6774586Y-14561484D02*
X6765062Y-14571008D01*
X6765062Y-14571008D02*
X6774586Y-14580531D01*
X6774586Y-14580531D02*
X6784110Y-14571008D01*
X6784110Y-14571008D02*
X6774586Y-14561484D01*
X6774586Y-14561484D02*
X6774586Y-14580531D01*
X6898396Y-14761484D02*
X6879348Y-14751960D01*
X6879348Y-14751960D02*
X6869824Y-14732912D01*
X6869824Y-14732912D02*
X6869824Y-14561484D01*
X7003158Y-14761484D02*
X6984110Y-14751960D01*
X6984110Y-14751960D02*
X6974586Y-14732912D01*
X6974586Y-14732912D02*
X6974586Y-14561484D01*
X7231729Y-14761484D02*
X7231729Y-14561484D01*
X7231729Y-14561484D02*
X7298396Y-14704341D01*
X7298396Y-14704341D02*
X7365062Y-14561484D01*
X7365062Y-14561484D02*
X7365062Y-14761484D01*
X7546015Y-14761484D02*
X7546015Y-14656722D01*
X7546015Y-14656722D02*
X7536491Y-14637674D01*
X7536491Y-14637674D02*
X7517443Y-14628150D01*
X7517443Y-14628150D02*
X7479348Y-14628150D01*
X7479348Y-14628150D02*
X7460301Y-14637674D01*
X7546015Y-14751960D02*
X7526967Y-14761484D01*
X7526967Y-14761484D02*
X7479348Y-14761484D01*
X7479348Y-14761484D02*
X7460301Y-14751960D01*
X7460301Y-14751960D02*
X7450777Y-14732912D01*
X7450777Y-14732912D02*
X7450777Y-14713865D01*
X7450777Y-14713865D02*
X7460301Y-14694817D01*
X7460301Y-14694817D02*
X7479348Y-14685293D01*
X7479348Y-14685293D02*
X7526967Y-14685293D01*
X7526967Y-14685293D02*
X7546015Y-14675769D01*
X7641253Y-14628150D02*
X7641253Y-14828150D01*
X7641253Y-14637674D02*
X7660301Y-14628150D01*
X7660301Y-14628150D02*
X7698396Y-14628150D01*
X7698396Y-14628150D02*
X7717443Y-14637674D01*
X7717443Y-14637674D02*
X7726967Y-14647198D01*
X7726967Y-14647198D02*
X7736491Y-14666246D01*
X7736491Y-14666246D02*
X7736491Y-14723388D01*
X7736491Y-14723388D02*
X7726967Y-14742436D01*
X7726967Y-14742436D02*
X7717443Y-14751960D01*
X7717443Y-14751960D02*
X7698396Y-14761484D01*
X7698396Y-14761484D02*
X7660301Y-14761484D01*
X7660301Y-14761484D02*
X7641253Y-14751960D01*
X7822205Y-14742436D02*
X7831729Y-14751960D01*
X7831729Y-14751960D02*
X7822205Y-14761484D01*
X7822205Y-14761484D02*
X7812682Y-14751960D01*
X7812682Y-14751960D02*
X7822205Y-14742436D01*
X7822205Y-14742436D02*
X7822205Y-14761484D01*
X7822205Y-14637674D02*
X7831729Y-14647198D01*
X7831729Y-14647198D02*
X7822205Y-14656722D01*
X7822205Y-14656722D02*
X7812682Y-14647198D01*
X7812682Y-14647198D02*
X7822205Y-14637674D01*
X7822205Y-14637674D02*
X7822205Y-14656722D01*
D11*
X6150000Y-15070000D02*
X6190000Y-15110000D01*
X6190000Y-15070000D02*
X6150000Y-15110000D01*
D10*
X6488872Y-14981484D02*
X6507920Y-14981484D01*
X6507920Y-14981484D02*
X6526967Y-14991008D01*
X6526967Y-14991008D02*
X6536491Y-15000531D01*
X6536491Y-15000531D02*
X6546015Y-15019579D01*
X6546015Y-15019579D02*
X6555539Y-15057674D01*
X6555539Y-15057674D02*
X6555539Y-15105293D01*
X6555539Y-15105293D02*
X6546015Y-15143388D01*
X6546015Y-15143388D02*
X6536491Y-15162436D01*
X6536491Y-15162436D02*
X6526967Y-15171960D01*
X6526967Y-15171960D02*
X6507920Y-15181484D01*
X6507920Y-15181484D02*
X6488872Y-15181484D01*
X6488872Y-15181484D02*
X6469824Y-15171960D01*
X6469824Y-15171960D02*
X6460301Y-15162436D01*
X6460301Y-15162436D02*
X6450777Y-15143388D01*
X6450777Y-15143388D02*
X6441253Y-15105293D01*
X6441253Y-15105293D02*
X6441253Y-15057674D01*
X6441253Y-15057674D02*
X6450777Y-15019579D01*
X6450777Y-15019579D02*
X6460301Y-15000531D01*
X6460301Y-15000531D02*
X6469824Y-14991008D01*
X6469824Y-14991008D02*
X6488872Y-14981484D01*
X6641253Y-15162436D02*
X6650777Y-15171960D01*
X6650777Y-15171960D02*
X6641253Y-15181484D01*
X6641253Y-15181484D02*
X6631729Y-15171960D01*
X6631729Y-15171960D02*
X6641253Y-15162436D01*
X6641253Y-15162436D02*
X6641253Y-15181484D01*
X6822205Y-15048150D02*
X6822205Y-15181484D01*
X6774586Y-14971960D02*
X6726967Y-15114817D01*
X6726967Y-15114817D02*
X6850777Y-15114817D01*
X6965062Y-14981484D02*
X6984110Y-14981484D01*
X6984110Y-14981484D02*
X7003158Y-14991008D01*
X7003158Y-14991008D02*
X7012682Y-15000531D01*
X7012682Y-15000531D02*
X7022205Y-15019579D01*
X7022205Y-15019579D02*
X7031729Y-15057674D01*
X7031729Y-15057674D02*
X7031729Y-15105293D01*
X7031729Y-15105293D02*
X7022205Y-15143388D01*
X7022205Y-15143388D02*
X7012682Y-15162436D01*
X7012682Y-15162436D02*
X7003158Y-15171960D01*
X7003158Y-15171960D02*
X6984110Y-15181484D01*
X6984110Y-15181484D02*
X6965062Y-15181484D01*
X6965062Y-15181484D02*
X6946015Y-15171960D01*
X6946015Y-15171960D02*
X6936491Y-15162436D01*
X6936491Y-15162436D02*
X6926967Y-15143388D01*
X6926967Y-15143388D02*
X6917443Y-15105293D01*
X6917443Y-15105293D02*
X6917443Y-15057674D01*
X6917443Y-15057674D02*
X6926967Y-15019579D01*
X6926967Y-15019579D02*
X6936491Y-15000531D01*
X6936491Y-15000531D02*
X6946015Y-14991008D01*
X6946015Y-14991008D02*
X6965062Y-14981484D01*
X7155539Y-14981484D02*
X7174586Y-14981484D01*
X7174586Y-14981484D02*
X7193634Y-14991008D01*
X7193634Y-14991008D02*
X7203158Y-15000531D01*
X7203158Y-15000531D02*
X7212682Y-15019579D01*
X7212682Y-15019579D02*
X7222205Y-15057674D01*
X7222205Y-15057674D02*
X7222205Y-15105293D01*
X7222205Y-15105293D02*
X7212682Y-15143388D01*
X7212682Y-15143388D02*
X7203158Y-15162436D01*
X7203158Y-15162436D02*
X7193634Y-15171960D01*
X7193634Y-15171960D02*
X7174586Y-15181484D01*
X7174586Y-15181484D02*
X7155539Y-15181484D01*
X7155539Y-15181484D02*
X7136491Y-15171960D01*
X7136491Y-15171960D02*
X7126967Y-15162436D01*
X7126967Y-15162436D02*
X7117443Y-15143388D01*
X7117443Y-15143388D02*
X7107920Y-15105293D01*
X7107920Y-15105293D02*
X7107920Y-15057674D01*
X7107920Y-15057674D02*
X7117443Y-15019579D01*
X7117443Y-15019579D02*
X7126967Y-15000531D01*
X7126967Y-15000531D02*
X7136491Y-14991008D01*
X7136491Y-14991008D02*
X7155539Y-14981484D01*
X7307920Y-15181484D02*
X7307920Y-15048150D01*
X7307920Y-15067198D02*
X7317443Y-15057674D01*
X7317443Y-15057674D02*
X7336491Y-15048150D01*
X7336491Y-15048150D02*
X7365063Y-15048150D01*
X7365063Y-15048150D02*
X7384110Y-15057674D01*
X7384110Y-15057674D02*
X7393634Y-15076722D01*
X7393634Y-15076722D02*
X7393634Y-15181484D01*
X7393634Y-15076722D02*
X7403158Y-15057674D01*
X7403158Y-15057674D02*
X7422205Y-15048150D01*
X7422205Y-15048150D02*
X7450777Y-15048150D01*
X7450777Y-15048150D02*
X7469824Y-15057674D01*
X7469824Y-15057674D02*
X7479348Y-15076722D01*
X7479348Y-15076722D02*
X7479348Y-15181484D01*
X7574586Y-15181484D02*
X7574586Y-15048150D01*
X7574586Y-15067198D02*
X7584110Y-15057674D01*
X7584110Y-15057674D02*
X7603158Y-15048150D01*
X7603158Y-15048150D02*
X7631729Y-15048150D01*
X7631729Y-15048150D02*
X7650777Y-15057674D01*
X7650777Y-15057674D02*
X7660301Y-15076722D01*
X7660301Y-15076722D02*
X7660301Y-15181484D01*
X7660301Y-15076722D02*
X7669824Y-15057674D01*
X7669824Y-15057674D02*
X7688872Y-15048150D01*
X7688872Y-15048150D02*
X7717443Y-15048150D01*
X7717443Y-15048150D02*
X7736491Y-15057674D01*
X7736491Y-15057674D02*
X7746015Y-15076722D01*
X7746015Y-15076722D02*
X7746015Y-15181484D01*
X8136491Y-14971960D02*
X7965063Y-15229103D01*
X8393634Y-14981484D02*
X8412682Y-14981484D01*
X8412682Y-14981484D02*
X8431729Y-14991008D01*
X8431729Y-14991008D02*
X8441253Y-15000531D01*
X8441253Y-15000531D02*
X8450777Y-15019579D01*
X8450777Y-15019579D02*
X8460301Y-15057674D01*
X8460301Y-15057674D02*
X8460301Y-15105293D01*
X8460301Y-15105293D02*
X8450777Y-15143388D01*
X8450777Y-15143388D02*
X8441253Y-15162436D01*
X8441253Y-15162436D02*
X8431729Y-15171960D01*
X8431729Y-15171960D02*
X8412682Y-15181484D01*
X8412682Y-15181484D02*
X8393634Y-15181484D01*
X8393634Y-15181484D02*
X8374586Y-15171960D01*
X8374586Y-15171960D02*
X8365063Y-15162436D01*
X8365063Y-15162436D02*
X8355539Y-15143388D01*
X8355539Y-15143388D02*
X8346015Y-15105293D01*
X8346015Y-15105293D02*
X8346015Y-15057674D01*
X8346015Y-15057674D02*
X8355539Y-15019579D01*
X8355539Y-15019579D02*
X8365063Y-15000531D01*
X8365063Y-15000531D02*
X8374586Y-14991008D01*
X8374586Y-14991008D02*
X8393634Y-14981484D01*
X8546015Y-15162436D02*
X8555539Y-15171960D01*
X8555539Y-15171960D02*
X8546015Y-15181484D01*
X8546015Y-15181484D02*
X8536491Y-15171960D01*
X8536491Y-15171960D02*
X8546015Y-15162436D01*
X8546015Y-15162436D02*
X8546015Y-15181484D01*
X8679348Y-14981484D02*
X8698396Y-14981484D01*
X8698396Y-14981484D02*
X8717444Y-14991008D01*
X8717444Y-14991008D02*
X8726968Y-15000531D01*
X8726968Y-15000531D02*
X8736491Y-15019579D01*
X8736491Y-15019579D02*
X8746015Y-15057674D01*
X8746015Y-15057674D02*
X8746015Y-15105293D01*
X8746015Y-15105293D02*
X8736491Y-15143388D01*
X8736491Y-15143388D02*
X8726968Y-15162436D01*
X8726968Y-15162436D02*
X8717444Y-15171960D01*
X8717444Y-15171960D02*
X8698396Y-15181484D01*
X8698396Y-15181484D02*
X8679348Y-15181484D01*
X8679348Y-15181484D02*
X8660301Y-15171960D01*
X8660301Y-15171960D02*
X8650777Y-15162436D01*
X8650777Y-15162436D02*
X8641253Y-15143388D01*
X8641253Y-15143388D02*
X8631729Y-15105293D01*
X8631729Y-15105293D02*
X8631729Y-15057674D01*
X8631729Y-15057674D02*
X8641253Y-15019579D01*
X8641253Y-15019579D02*
X8650777Y-15000531D01*
X8650777Y-15000531D02*
X8660301Y-14991008D01*
X8660301Y-14991008D02*
X8679348Y-14981484D01*
X8936491Y-15181484D02*
X8822206Y-15181484D01*
X8879348Y-15181484D02*
X8879348Y-14981484D01*
X8879348Y-14981484D02*
X8860301Y-15010055D01*
X8860301Y-15010055D02*
X8841253Y-15029103D01*
X8841253Y-15029103D02*
X8822206Y-15038627D01*
X9117444Y-14981484D02*
X9022206Y-14981484D01*
X9022206Y-14981484D02*
X9012682Y-15076722D01*
X9012682Y-15076722D02*
X9022206Y-15067198D01*
X9022206Y-15067198D02*
X9041253Y-15057674D01*
X9041253Y-15057674D02*
X9088872Y-15057674D01*
X9088872Y-15057674D02*
X9107920Y-15067198D01*
X9107920Y-15067198D02*
X9117444Y-15076722D01*
X9117444Y-15076722D02*
X9126968Y-15095769D01*
X9126968Y-15095769D02*
X9126968Y-15143388D01*
X9126968Y-15143388D02*
X9117444Y-15162436D01*
X9117444Y-15162436D02*
X9107920Y-15171960D01*
X9107920Y-15171960D02*
X9088872Y-15181484D01*
X9088872Y-15181484D02*
X9041253Y-15181484D01*
X9041253Y-15181484D02*
X9022206Y-15171960D01*
X9022206Y-15171960D02*
X9012682Y-15162436D01*
X9193634Y-14981484D02*
X9326968Y-14981484D01*
X9326968Y-14981484D02*
X9241253Y-15181484D01*
X9393634Y-14981484D02*
X9393634Y-15019579D01*
X9469825Y-14981484D02*
X9469825Y-15019579D01*
X9765063Y-15257674D02*
X9755539Y-15248150D01*
X9755539Y-15248150D02*
X9736491Y-15219579D01*
X9736491Y-15219579D02*
X9726968Y-15200531D01*
X9726968Y-15200531D02*
X9717444Y-15171960D01*
X9717444Y-15171960D02*
X9707920Y-15124341D01*
X9707920Y-15124341D02*
X9707920Y-15086246D01*
X9707920Y-15086246D02*
X9717444Y-15038627D01*
X9717444Y-15038627D02*
X9726968Y-15010055D01*
X9726968Y-15010055D02*
X9736491Y-14991008D01*
X9736491Y-14991008D02*
X9755539Y-14962436D01*
X9755539Y-14962436D02*
X9765063Y-14952912D01*
X9831730Y-15000531D02*
X9841253Y-14991008D01*
X9841253Y-14991008D02*
X9860301Y-14981484D01*
X9860301Y-14981484D02*
X9907920Y-14981484D01*
X9907920Y-14981484D02*
X9926968Y-14991008D01*
X9926968Y-14991008D02*
X9936491Y-15000531D01*
X9936491Y-15000531D02*
X9946015Y-15019579D01*
X9946015Y-15019579D02*
X9946015Y-15038627D01*
X9946015Y-15038627D02*
X9936491Y-15067198D01*
X9936491Y-15067198D02*
X9822206Y-15181484D01*
X9822206Y-15181484D02*
X9946015Y-15181484D01*
X10012682Y-14981484D02*
X10146015Y-14981484D01*
X10146015Y-14981484D02*
X10060301Y-15181484D01*
X10307920Y-14981484D02*
X10269825Y-14981484D01*
X10269825Y-14981484D02*
X10250777Y-14991008D01*
X10250777Y-14991008D02*
X10241253Y-15000531D01*
X10241253Y-15000531D02*
X10222206Y-15029103D01*
X10222206Y-15029103D02*
X10212682Y-15067198D01*
X10212682Y-15067198D02*
X10212682Y-15143388D01*
X10212682Y-15143388D02*
X10222206Y-15162436D01*
X10222206Y-15162436D02*
X10231730Y-15171960D01*
X10231730Y-15171960D02*
X10250777Y-15181484D01*
X10250777Y-15181484D02*
X10288872Y-15181484D01*
X10288872Y-15181484D02*
X10307920Y-15171960D01*
X10307920Y-15171960D02*
X10317444Y-15162436D01*
X10317444Y-15162436D02*
X10326968Y-15143388D01*
X10326968Y-15143388D02*
X10326968Y-15095769D01*
X10326968Y-15095769D02*
X10317444Y-15076722D01*
X10317444Y-15076722D02*
X10307920Y-15067198D01*
X10307920Y-15067198D02*
X10288872Y-15057674D01*
X10288872Y-15057674D02*
X10250777Y-15057674D01*
X10250777Y-15057674D02*
X10231730Y-15067198D01*
X10231730Y-15067198D02*
X10222206Y-15076722D01*
X10222206Y-15076722D02*
X10212682Y-15095769D01*
X10565063Y-15181484D02*
X10565063Y-14981484D01*
X10650777Y-15181484D02*
X10650777Y-15076722D01*
X10650777Y-15076722D02*
X10641253Y-15057674D01*
X10641253Y-15057674D02*
X10622206Y-15048150D01*
X10622206Y-15048150D02*
X10593634Y-15048150D01*
X10593634Y-15048150D02*
X10574587Y-15057674D01*
X10574587Y-15057674D02*
X10565063Y-15067198D01*
X10774587Y-15181484D02*
X10755539Y-15171960D01*
X10755539Y-15171960D02*
X10746015Y-15162436D01*
X10746015Y-15162436D02*
X10736492Y-15143388D01*
X10736492Y-15143388D02*
X10736492Y-15086246D01*
X10736492Y-15086246D02*
X10746015Y-15067198D01*
X10746015Y-15067198D02*
X10755539Y-15057674D01*
X10755539Y-15057674D02*
X10774587Y-15048150D01*
X10774587Y-15048150D02*
X10803158Y-15048150D01*
X10803158Y-15048150D02*
X10822206Y-15057674D01*
X10822206Y-15057674D02*
X10831730Y-15067198D01*
X10831730Y-15067198D02*
X10841253Y-15086246D01*
X10841253Y-15086246D02*
X10841253Y-15143388D01*
X10841253Y-15143388D02*
X10831730Y-15162436D01*
X10831730Y-15162436D02*
X10822206Y-15171960D01*
X10822206Y-15171960D02*
X10803158Y-15181484D01*
X10803158Y-15181484D02*
X10774587Y-15181484D01*
X10955539Y-15181484D02*
X10936492Y-15171960D01*
X10936492Y-15171960D02*
X10926968Y-15152912D01*
X10926968Y-15152912D02*
X10926968Y-14981484D01*
X11107920Y-15171960D02*
X11088873Y-15181484D01*
X11088873Y-15181484D02*
X11050777Y-15181484D01*
X11050777Y-15181484D02*
X11031730Y-15171960D01*
X11031730Y-15171960D02*
X11022206Y-15152912D01*
X11022206Y-15152912D02*
X11022206Y-15076722D01*
X11022206Y-15076722D02*
X11031730Y-15057674D01*
X11031730Y-15057674D02*
X11050777Y-15048150D01*
X11050777Y-15048150D02*
X11088873Y-15048150D01*
X11088873Y-15048150D02*
X11107920Y-15057674D01*
X11107920Y-15057674D02*
X11117444Y-15076722D01*
X11117444Y-15076722D02*
X11117444Y-15095769D01*
X11117444Y-15095769D02*
X11022206Y-15114817D01*
X11193634Y-15171960D02*
X11212682Y-15181484D01*
X11212682Y-15181484D02*
X11250777Y-15181484D01*
X11250777Y-15181484D02*
X11269825Y-15171960D01*
X11269825Y-15171960D02*
X11279349Y-15152912D01*
X11279349Y-15152912D02*
X11279349Y-15143388D01*
X11279349Y-15143388D02*
X11269825Y-15124341D01*
X11269825Y-15124341D02*
X11250777Y-15114817D01*
X11250777Y-15114817D02*
X11222206Y-15114817D01*
X11222206Y-15114817D02*
X11203158Y-15105293D01*
X11203158Y-15105293D02*
X11193634Y-15086246D01*
X11193634Y-15086246D02*
X11193634Y-15076722D01*
X11193634Y-15076722D02*
X11203158Y-15057674D01*
X11203158Y-15057674D02*
X11222206Y-15048150D01*
X11222206Y-15048150D02*
X11250777Y-15048150D01*
X11250777Y-15048150D02*
X11269825Y-15057674D01*
X11346015Y-15257674D02*
X11355539Y-15248150D01*
X11355539Y-15248150D02*
X11374587Y-15219579D01*
X11374587Y-15219579D02*
X11384111Y-15200531D01*
X11384111Y-15200531D02*
X11393634Y-15171960D01*
X11393634Y-15171960D02*
X11403158Y-15124341D01*
X11403158Y-15124341D02*
X11403158Y-15086246D01*
X11403158Y-15086246D02*
X11393634Y-15038627D01*
X11393634Y-15038627D02*
X11384111Y-15010055D01*
X11384111Y-15010055D02*
X11374587Y-14991008D01*
X11374587Y-14991008D02*
X11355539Y-14962436D01*
X11355539Y-14962436D02*
X11346015Y-14952912D01*
M02*
