G04 #@! TF.GenerationSoftware,KiCad,Pcbnew,7.0.11+1*
G04 #@! TF.ProjectId,makerspace_sign,6d616b65-7273-4706-9163-655f7369676e,rev?*
G04 #@! TF.SameCoordinates,Original*
G04 #@! TF.FileFunction,Legend,Top*
G04 #@! TF.FilePolarity,Positive*
%FSLAX46Y46*%
G04 Gerber Fmt 4.6, Leading zero omitted, Abs format (unit mm)*
%MOMM*%
%LPD*%
G01*
G04 APERTURE LIST*
G04 #@! TA.AperFunction,Profile*
%ADD10C,0.200000*%
G04 #@! TD*
%ADD11C,0.200000*%
%ADD12C,0.100000*%
%ADD13C,0.150000*%
%ADD14C,0.120000*%
%ADD15C,3.200000*%
%ADD16R,1.500000X0.900000*%
G04 APERTURE END LIST*
D10*
X61975000Y-144375000D02*
X138185236Y-100375000D01*
X61975000Y-100375000D02*
G75*
G03*
X61975000Y-90375000I0J5000000D01*
G01*
X138185236Y-90375000D02*
X61975000Y-46375000D01*
X138185236Y-100375000D02*
X138185236Y-90375000D01*
X61975000Y-46375000D02*
X61975000Y-90375000D01*
X61975000Y-100375000D02*
X61975000Y-144375000D01*
D11*
X87181690Y-118895453D02*
X87175948Y-118799793D01*
X87175948Y-118799793D02*
X87111662Y-118688447D01*
X87111662Y-118688447D02*
X87010261Y-118598530D01*
X87010261Y-118598530D02*
X86893173Y-118567156D01*
X86893173Y-118567156D02*
X86797514Y-118572898D01*
X86797514Y-118572898D02*
X86627624Y-118621497D01*
X86627624Y-118621497D02*
X86516278Y-118685782D01*
X86516278Y-118685782D02*
X86389245Y-118808612D01*
X86389245Y-118808612D02*
X86336443Y-118888584D01*
X86336443Y-118888584D02*
X86305069Y-119005672D01*
X86305069Y-119005672D02*
X86332240Y-119138447D01*
X86332240Y-119138447D02*
X86375097Y-119212678D01*
X86375097Y-119212678D02*
X86476498Y-119302595D01*
X86476498Y-119302595D02*
X86535042Y-119318282D01*
X86535042Y-119318282D02*
X86794849Y-119168282D01*
X86794849Y-119168282D02*
X86709135Y-119019821D01*
X86653668Y-119695178D02*
X87433091Y-119245178D01*
X87433091Y-119245178D02*
X86910811Y-120140562D01*
X86910811Y-120140562D02*
X87690234Y-119690562D01*
X87125097Y-120511716D02*
X87904520Y-120061716D01*
X87904520Y-120061716D02*
X88011662Y-120247293D01*
X88011662Y-120247293D02*
X88038833Y-120380067D01*
X88038833Y-120380067D02*
X88007459Y-120497155D01*
X88007459Y-120497155D02*
X87954657Y-120577128D01*
X87954657Y-120577128D02*
X87827624Y-120699957D01*
X87827624Y-120699957D02*
X87716278Y-120764243D01*
X87716278Y-120764243D02*
X87546388Y-120812842D01*
X87546388Y-120812842D02*
X87450728Y-120818584D01*
X87450728Y-120818584D02*
X87333641Y-120787210D01*
X87333641Y-120787210D02*
X87232240Y-120697293D01*
X87232240Y-120697293D02*
X87125097Y-120511716D01*
X84948797Y-119640255D02*
X85728220Y-119190255D01*
X85728220Y-119190255D02*
X85835363Y-119375832D01*
X85835363Y-119375832D02*
X85862533Y-119508606D01*
X85862533Y-119508606D02*
X85831160Y-119625694D01*
X85831160Y-119625694D02*
X85778357Y-119705667D01*
X85778357Y-119705667D02*
X85651325Y-119828496D01*
X85651325Y-119828496D02*
X85539978Y-119892782D01*
X85539978Y-119892782D02*
X85370088Y-119941381D01*
X85370088Y-119941381D02*
X85274429Y-119947123D01*
X85274429Y-119947123D02*
X85157341Y-119915749D01*
X85157341Y-119915749D02*
X85055940Y-119825832D01*
X85055940Y-119825832D02*
X84948797Y-119640255D01*
X85217424Y-120276958D02*
X85560281Y-120870804D01*
X86299923Y-121037617D02*
X86149923Y-120777809D01*
X85741654Y-121013523D02*
X86521077Y-120563523D01*
X86521077Y-120563523D02*
X86735363Y-120934677D01*
X86127369Y-121681601D02*
X86906792Y-121231601D01*
X86598797Y-122498138D02*
X86819951Y-122024045D01*
X86341654Y-122052754D02*
X87121077Y-121602754D01*
X87121077Y-121602754D02*
X87292506Y-121899677D01*
X87292506Y-121899677D02*
X87298247Y-121995336D01*
X87298247Y-121995336D02*
X87282561Y-122053880D01*
X87282561Y-122053880D02*
X87229758Y-122133853D01*
X87229758Y-122133853D02*
X87118412Y-122198138D01*
X87118412Y-122198138D02*
X87022753Y-122203880D01*
X87022753Y-122203880D02*
X86964209Y-122188193D01*
X86964209Y-122188193D02*
X86884236Y-122135391D01*
X86884236Y-122135391D02*
X86712808Y-121838468D01*
X86807341Y-122773633D02*
X86834511Y-122906408D01*
X86834511Y-122906408D02*
X86941654Y-123091984D01*
X86941654Y-123091984D02*
X87021627Y-123144787D01*
X87021627Y-123144787D02*
X87080171Y-123160473D01*
X87080171Y-123160473D02*
X87175830Y-123154732D01*
X87175830Y-123154732D02*
X87250061Y-123111874D01*
X87250061Y-123111874D02*
X87302863Y-123031902D01*
X87302863Y-123031902D02*
X87318550Y-122973358D01*
X87318550Y-122973358D02*
X87312808Y-122877699D01*
X87312808Y-122877699D02*
X87264209Y-122707809D01*
X87264209Y-122707809D02*
X87258467Y-122612149D01*
X87258467Y-122612149D02*
X87274154Y-122553605D01*
X87274154Y-122553605D02*
X87326956Y-122473633D01*
X87326956Y-122473633D02*
X87401187Y-122430776D01*
X87401187Y-122430776D02*
X87496846Y-122425034D01*
X87496846Y-122425034D02*
X87555390Y-122440721D01*
X87555390Y-122440721D02*
X87635363Y-122493523D01*
X87635363Y-122493523D02*
X87742506Y-122679100D01*
X87742506Y-122679100D02*
X87769676Y-122811874D01*
X87935363Y-123013138D02*
X88192506Y-123458523D01*
X87284511Y-123685831D02*
X88063934Y-123235831D01*
X83693926Y-120364755D02*
X84473349Y-119914755D01*
X84473349Y-119914755D02*
X84580492Y-120100332D01*
X84580492Y-120100332D02*
X84607662Y-120233106D01*
X84607662Y-120233106D02*
X84576289Y-120350194D01*
X84576289Y-120350194D02*
X84523486Y-120430167D01*
X84523486Y-120430167D02*
X84396454Y-120552996D01*
X84396454Y-120552996D02*
X84285107Y-120617282D01*
X84285107Y-120617282D02*
X84115217Y-120665881D01*
X84115217Y-120665881D02*
X84019558Y-120671623D01*
X84019558Y-120671623D02*
X83902470Y-120640249D01*
X83902470Y-120640249D02*
X83801069Y-120550332D01*
X83801069Y-120550332D02*
X83693926Y-120364755D01*
X83962553Y-121001458D02*
X84305410Y-121595304D01*
X84701069Y-122109177D02*
X84486783Y-121738023D01*
X84486783Y-121738023D02*
X85266206Y-121288023D01*
X85052332Y-122203298D02*
X85266618Y-122574451D01*
X84786783Y-122257638D02*
X85716206Y-122067446D01*
X85716206Y-122067446D02*
X85086783Y-122777254D01*
X85252470Y-122978518D02*
X85279640Y-123111292D01*
X85279640Y-123111292D02*
X85386783Y-123296869D01*
X85386783Y-123296869D02*
X85466756Y-123349671D01*
X85466756Y-123349671D02*
X85525300Y-123365358D01*
X85525300Y-123365358D02*
X85620959Y-123359616D01*
X85620959Y-123359616D02*
X85695190Y-123316759D01*
X85695190Y-123316759D02*
X85747992Y-123236787D01*
X85747992Y-123236787D02*
X85763679Y-123178243D01*
X85763679Y-123178243D02*
X85757937Y-123082583D01*
X85757937Y-123082583D02*
X85709338Y-122912693D01*
X85709338Y-122912693D02*
X85703596Y-122817034D01*
X85703596Y-122817034D02*
X85719283Y-122758490D01*
X85719283Y-122758490D02*
X85772085Y-122678518D01*
X85772085Y-122678518D02*
X85846316Y-122635660D01*
X85846316Y-122635660D02*
X85941975Y-122629919D01*
X85941975Y-122629919D02*
X86000519Y-122645605D01*
X86000519Y-122645605D02*
X86080492Y-122698408D01*
X86080492Y-122698408D02*
X86187635Y-122883985D01*
X86187635Y-122883985D02*
X86214805Y-123016759D01*
X86380492Y-123218023D02*
X86637635Y-123663408D01*
X85729640Y-123890715D02*
X86509063Y-123440715D01*
X82735978Y-120917826D02*
X83078835Y-121511672D01*
X82610484Y-121386178D02*
X83204330Y-121043321D01*
X83231912Y-122462524D02*
X82974770Y-122017139D01*
X83103341Y-122239832D02*
X83882764Y-121789832D01*
X83882764Y-121789832D02*
X83728561Y-121779887D01*
X83728561Y-121779887D02*
X83611473Y-121748513D01*
X83611473Y-121748513D02*
X83531500Y-121695711D01*
X84108533Y-122352304D02*
X84167077Y-122367991D01*
X84167077Y-122367991D02*
X84247050Y-122420793D01*
X84247050Y-122420793D02*
X84354193Y-122606370D01*
X84354193Y-122606370D02*
X84359934Y-122702029D01*
X84359934Y-122702029D02*
X84344247Y-122760573D01*
X84344247Y-122760573D02*
X84291445Y-122840546D01*
X84291445Y-122840546D02*
X84217215Y-122883403D01*
X84217215Y-122883403D02*
X84084440Y-122910573D01*
X84084440Y-122910573D02*
X83381913Y-122722332D01*
X83381913Y-122722332D02*
X83660484Y-123204832D01*
X84568478Y-122977524D02*
X83939055Y-123687332D01*
X83939055Y-123687332D02*
X84868478Y-123497139D01*
X83020272Y-69670273D02*
X83363129Y-69076427D01*
X83488623Y-69544778D02*
X82894777Y-69201921D01*
X84110052Y-68468432D02*
X83852909Y-68913817D01*
X83981480Y-68691124D02*
X83202058Y-68241124D01*
X83202058Y-68241124D02*
X83270547Y-68379641D01*
X83270547Y-68379641D02*
X83301920Y-68496729D01*
X83301920Y-68496729D02*
X83296178Y-68592388D01*
X83576288Y-67764366D02*
X83560602Y-67705822D01*
X83560602Y-67705822D02*
X83566343Y-67610163D01*
X83566343Y-67610163D02*
X83673486Y-67424586D01*
X83673486Y-67424586D02*
X83753459Y-67371784D01*
X83753459Y-67371784D02*
X83812003Y-67356097D01*
X83812003Y-67356097D02*
X83907662Y-67361839D01*
X83907662Y-67361839D02*
X83981893Y-67404696D01*
X83981893Y-67404696D02*
X84071810Y-67506097D01*
X84071810Y-67506097D02*
X84260052Y-68208624D01*
X84260052Y-68208624D02*
X84538623Y-67726125D01*
X83887772Y-67053432D02*
X84817195Y-67243625D01*
X84817195Y-67243625D02*
X84187772Y-66533817D01*
X84572066Y-70566201D02*
X83792643Y-70116201D01*
X83792643Y-70116201D02*
X83899786Y-69930624D01*
X83899786Y-69930624D02*
X84001187Y-69840707D01*
X84001187Y-69840707D02*
X84118275Y-69809333D01*
X84118275Y-69809333D02*
X84213934Y-69815075D01*
X84213934Y-69815075D02*
X84383824Y-69863674D01*
X84383824Y-69863674D02*
X84495170Y-69927960D01*
X84495170Y-69927960D02*
X84622203Y-70050789D01*
X84622203Y-70050789D02*
X84675005Y-70130762D01*
X84675005Y-70130762D02*
X84706379Y-70247850D01*
X84706379Y-70247850D02*
X84679208Y-70380624D01*
X84679208Y-70380624D02*
X84572066Y-70566201D01*
X84989153Y-70015212D02*
X85332011Y-69421366D01*
X85579208Y-68821779D02*
X85364923Y-69192933D01*
X85364923Y-69192933D02*
X84585500Y-68742933D01*
X85485087Y-68470516D02*
X85699373Y-68099362D01*
X85664922Y-68673318D02*
X85035499Y-67963510D01*
X85035499Y-67963510D02*
X85964922Y-68153703D01*
X86056379Y-67909581D02*
X86157780Y-67819664D01*
X86157780Y-67819664D02*
X86264923Y-67634087D01*
X86264923Y-67634087D02*
X86270664Y-67538428D01*
X86270664Y-67538428D02*
X86254978Y-67479884D01*
X86254978Y-67479884D02*
X86202175Y-67399911D01*
X86202175Y-67399911D02*
X86127945Y-67357054D01*
X86127945Y-67357054D02*
X86032285Y-67351312D01*
X86032285Y-67351312D02*
X85973741Y-67366999D01*
X85973741Y-67366999D02*
X85893769Y-67419801D01*
X85893769Y-67419801D02*
X85770939Y-67546834D01*
X85770939Y-67546834D02*
X85690967Y-67599636D01*
X85690967Y-67599636D02*
X85632423Y-67615323D01*
X85632423Y-67615323D02*
X85536763Y-67609581D01*
X85536763Y-67609581D02*
X85462533Y-67566724D01*
X85462533Y-67566724D02*
X85409730Y-67486752D01*
X85409730Y-67486752D02*
X85394044Y-67428208D01*
X85394044Y-67428208D02*
X85399785Y-67332548D01*
X85399785Y-67332548D02*
X85506928Y-67146972D01*
X85506928Y-67146972D02*
X85608329Y-67057054D01*
X85699785Y-66812933D02*
X85956928Y-66367549D01*
X86607780Y-67040241D02*
X85828357Y-66590241D01*
X85826937Y-71290701D02*
X85047514Y-70840701D01*
X85047514Y-70840701D02*
X85154657Y-70655124D01*
X85154657Y-70655124D02*
X85256058Y-70565207D01*
X85256058Y-70565207D02*
X85373146Y-70533833D01*
X85373146Y-70533833D02*
X85468805Y-70539575D01*
X85468805Y-70539575D02*
X85638695Y-70588174D01*
X85638695Y-70588174D02*
X85750041Y-70652460D01*
X85750041Y-70652460D02*
X85877074Y-70775289D01*
X85877074Y-70775289D02*
X85929876Y-70855262D01*
X85929876Y-70855262D02*
X85961250Y-70972350D01*
X85961250Y-70972350D02*
X85934079Y-71105124D01*
X85934079Y-71105124D02*
X85826937Y-71290701D01*
X86244024Y-70739712D02*
X86586882Y-70145866D01*
X86361524Y-69421911D02*
X86211524Y-69681718D01*
X86619794Y-69917433D02*
X85840371Y-69467433D01*
X85840371Y-69467433D02*
X86054656Y-69096279D01*
X87005508Y-69249356D02*
X86226085Y-68799356D01*
X87476936Y-68432818D02*
X86955783Y-68478340D01*
X87219794Y-68878202D02*
X86440371Y-68428202D01*
X86440371Y-68428202D02*
X86611799Y-68131279D01*
X86611799Y-68131279D02*
X86691772Y-68078477D01*
X86691772Y-68078477D02*
X86750316Y-68062790D01*
X86750316Y-68062790D02*
X86845975Y-68068532D01*
X86845975Y-68068532D02*
X86957321Y-68132818D01*
X86957321Y-68132818D02*
X87010123Y-68212790D01*
X87010123Y-68212790D02*
X87025810Y-68271334D01*
X87025810Y-68271334D02*
X87020068Y-68366994D01*
X87020068Y-68366994D02*
X86848640Y-68663917D01*
X87611250Y-68114466D02*
X87712651Y-68024549D01*
X87712651Y-68024549D02*
X87819794Y-67838972D01*
X87819794Y-67838972D02*
X87825535Y-67743312D01*
X87825535Y-67743312D02*
X87809849Y-67684768D01*
X87809849Y-67684768D02*
X87757046Y-67604796D01*
X87757046Y-67604796D02*
X87682816Y-67561939D01*
X87682816Y-67561939D02*
X87587156Y-67556197D01*
X87587156Y-67556197D02*
X87528612Y-67571884D01*
X87528612Y-67571884D02*
X87448640Y-67624686D01*
X87448640Y-67624686D02*
X87325810Y-67751719D01*
X87325810Y-67751719D02*
X87245838Y-67804521D01*
X87245838Y-67804521D02*
X87187294Y-67820208D01*
X87187294Y-67820208D02*
X87091634Y-67814466D01*
X87091634Y-67814466D02*
X87017404Y-67771609D01*
X87017404Y-67771609D02*
X86964601Y-67691636D01*
X86964601Y-67691636D02*
X86948915Y-67633093D01*
X86948915Y-67633093D02*
X86954656Y-67537433D01*
X86954656Y-67537433D02*
X87061799Y-67351856D01*
X87061799Y-67351856D02*
X87163200Y-67261939D01*
X87254656Y-67017818D02*
X87511799Y-66572433D01*
X88162651Y-67245126D02*
X87383228Y-66795126D01*
X86575214Y-71178361D02*
X86495242Y-71231163D01*
X86495242Y-71231163D02*
X86430956Y-71342509D01*
X86430956Y-71342509D02*
X86403786Y-71475284D01*
X86403786Y-71475284D02*
X86435159Y-71592372D01*
X86435159Y-71592372D02*
X86487962Y-71672344D01*
X86487962Y-71672344D02*
X86614994Y-71795174D01*
X86614994Y-71795174D02*
X86726341Y-71859460D01*
X86726341Y-71859460D02*
X86896231Y-71908058D01*
X86896231Y-71908058D02*
X86991890Y-71913800D01*
X86991890Y-71913800D02*
X87108978Y-71882427D01*
X87108978Y-71882427D02*
X87210379Y-71792509D01*
X87210379Y-71792509D02*
X87253236Y-71718278D01*
X87253236Y-71718278D02*
X87280406Y-71585504D01*
X87280406Y-71585504D02*
X87264720Y-71526960D01*
X87264720Y-71526960D02*
X87004912Y-71376960D01*
X87004912Y-71376960D02*
X86919198Y-71525421D01*
X87531808Y-71235778D02*
X86752385Y-70785778D01*
X86752385Y-70785778D02*
X87788950Y-70790394D01*
X87788950Y-70790394D02*
X87009528Y-70340394D01*
X88003236Y-70419240D02*
X87223813Y-69969240D01*
X87223813Y-69969240D02*
X87330956Y-69783663D01*
X87330956Y-69783663D02*
X87432357Y-69693746D01*
X87432357Y-69693746D02*
X87549445Y-69662372D01*
X87549445Y-69662372D02*
X87645104Y-69668114D01*
X87645104Y-69668114D02*
X87814994Y-69716713D01*
X87814994Y-69716713D02*
X87926341Y-69780999D01*
X87926341Y-69780999D02*
X88053373Y-69903828D01*
X88053373Y-69903828D02*
X88106176Y-69983801D01*
X88106176Y-69983801D02*
X88137549Y-70100889D01*
X88137549Y-70100889D02*
X88110379Y-70233663D01*
X88110379Y-70233663D02*
X88003236Y-70419240D01*
X120850591Y-99319326D02*
X121193448Y-99913172D01*
X120725097Y-99787678D02*
X121318943Y-99444821D01*
X121346525Y-100864024D02*
X121089383Y-100418639D01*
X121217954Y-100641332D02*
X121997377Y-100191332D01*
X121997377Y-100191332D02*
X121843174Y-100181387D01*
X121843174Y-100181387D02*
X121726086Y-100150013D01*
X121726086Y-100150013D02*
X121646113Y-100097211D01*
X122223146Y-100753804D02*
X122281690Y-100769491D01*
X122281690Y-100769491D02*
X122361663Y-100822293D01*
X122361663Y-100822293D02*
X122468806Y-101007870D01*
X122468806Y-101007870D02*
X122474547Y-101103529D01*
X122474547Y-101103529D02*
X122458860Y-101162073D01*
X122458860Y-101162073D02*
X122406058Y-101242046D01*
X122406058Y-101242046D02*
X122331828Y-101284903D01*
X122331828Y-101284903D02*
X122199053Y-101312073D01*
X122199053Y-101312073D02*
X121496526Y-101123832D01*
X121496526Y-101123832D02*
X121775097Y-101606332D01*
X122683091Y-101379024D02*
X122053668Y-102088832D01*
X122053668Y-102088832D02*
X122983091Y-101898639D01*
X119298797Y-100215255D02*
X120078220Y-99765255D01*
X120078220Y-99765255D02*
X120185363Y-99950832D01*
X120185363Y-99950832D02*
X120212533Y-100083606D01*
X120212533Y-100083606D02*
X120181160Y-100200694D01*
X120181160Y-100200694D02*
X120128357Y-100280667D01*
X120128357Y-100280667D02*
X120001325Y-100403496D01*
X120001325Y-100403496D02*
X119889978Y-100467782D01*
X119889978Y-100467782D02*
X119720088Y-100516381D01*
X119720088Y-100516381D02*
X119624429Y-100522123D01*
X119624429Y-100522123D02*
X119507341Y-100490749D01*
X119507341Y-100490749D02*
X119405940Y-100400832D01*
X119405940Y-100400832D02*
X119298797Y-100215255D01*
X119567424Y-100851958D02*
X119910281Y-101445804D01*
X120305940Y-101959677D02*
X120091654Y-101588523D01*
X120091654Y-101588523D02*
X120871077Y-101138523D01*
X120657203Y-102053798D02*
X120871489Y-102424951D01*
X120391654Y-102108138D02*
X121321077Y-101917946D01*
X121321077Y-101917946D02*
X120691654Y-102627754D01*
X120857341Y-102829018D02*
X120884511Y-102961792D01*
X120884511Y-102961792D02*
X120991654Y-103147369D01*
X120991654Y-103147369D02*
X121071627Y-103200171D01*
X121071627Y-103200171D02*
X121130171Y-103215858D01*
X121130171Y-103215858D02*
X121225830Y-103210116D01*
X121225830Y-103210116D02*
X121300061Y-103167259D01*
X121300061Y-103167259D02*
X121352863Y-103087287D01*
X121352863Y-103087287D02*
X121368550Y-103028743D01*
X121368550Y-103028743D02*
X121362808Y-102933083D01*
X121362808Y-102933083D02*
X121314209Y-102763193D01*
X121314209Y-102763193D02*
X121308467Y-102667534D01*
X121308467Y-102667534D02*
X121324154Y-102608990D01*
X121324154Y-102608990D02*
X121376956Y-102529018D01*
X121376956Y-102529018D02*
X121451187Y-102486160D01*
X121451187Y-102486160D02*
X121546846Y-102480419D01*
X121546846Y-102480419D02*
X121605390Y-102496105D01*
X121605390Y-102496105D02*
X121685363Y-102548908D01*
X121685363Y-102548908D02*
X121792506Y-102734485D01*
X121792506Y-102734485D02*
X121819676Y-102867259D01*
X121985363Y-103068523D02*
X122242506Y-103513908D01*
X121334511Y-103741215D02*
X122113934Y-103291215D01*
X118043926Y-100939755D02*
X118823349Y-100489755D01*
X118823349Y-100489755D02*
X118930492Y-100675332D01*
X118930492Y-100675332D02*
X118957662Y-100808106D01*
X118957662Y-100808106D02*
X118926289Y-100925194D01*
X118926289Y-100925194D02*
X118873486Y-101005167D01*
X118873486Y-101005167D02*
X118746454Y-101127996D01*
X118746454Y-101127996D02*
X118635107Y-101192282D01*
X118635107Y-101192282D02*
X118465217Y-101240881D01*
X118465217Y-101240881D02*
X118369558Y-101246623D01*
X118369558Y-101246623D02*
X118252470Y-101215249D01*
X118252470Y-101215249D02*
X118151069Y-101125332D01*
X118151069Y-101125332D02*
X118043926Y-100939755D01*
X118312553Y-101576458D02*
X118655410Y-102170304D01*
X119395052Y-102337117D02*
X119245052Y-102077309D01*
X118836783Y-102313023D02*
X119616206Y-101863023D01*
X119616206Y-101863023D02*
X119830492Y-102234177D01*
X119222498Y-102981101D02*
X120001921Y-102531101D01*
X119693926Y-103797638D02*
X119915080Y-103323545D01*
X119436783Y-103352254D02*
X120216206Y-102902254D01*
X120216206Y-102902254D02*
X120387635Y-103199177D01*
X120387635Y-103199177D02*
X120393376Y-103294836D01*
X120393376Y-103294836D02*
X120377690Y-103353380D01*
X120377690Y-103353380D02*
X120324887Y-103433353D01*
X120324887Y-103433353D02*
X120213541Y-103497638D01*
X120213541Y-103497638D02*
X120117882Y-103503380D01*
X120117882Y-103503380D02*
X120059338Y-103487693D01*
X120059338Y-103487693D02*
X119979365Y-103434891D01*
X119979365Y-103434891D02*
X119807937Y-103137968D01*
X119902470Y-104073133D02*
X119929640Y-104205908D01*
X119929640Y-104205908D02*
X120036783Y-104391484D01*
X120036783Y-104391484D02*
X120116756Y-104444287D01*
X120116756Y-104444287D02*
X120175300Y-104459973D01*
X120175300Y-104459973D02*
X120270959Y-104454232D01*
X120270959Y-104454232D02*
X120345190Y-104411374D01*
X120345190Y-104411374D02*
X120397992Y-104331402D01*
X120397992Y-104331402D02*
X120413679Y-104272858D01*
X120413679Y-104272858D02*
X120407937Y-104177199D01*
X120407937Y-104177199D02*
X120359338Y-104007309D01*
X120359338Y-104007309D02*
X120353596Y-103911649D01*
X120353596Y-103911649D02*
X120369283Y-103853105D01*
X120369283Y-103853105D02*
X120422085Y-103773133D01*
X120422085Y-103773133D02*
X120496316Y-103730276D01*
X120496316Y-103730276D02*
X120591975Y-103724534D01*
X120591975Y-103724534D02*
X120650519Y-103740221D01*
X120650519Y-103740221D02*
X120730492Y-103793023D01*
X120730492Y-103793023D02*
X120837635Y-103978600D01*
X120837635Y-103978600D02*
X120864805Y-104111374D01*
X121030492Y-104312638D02*
X121287635Y-104758023D01*
X120379640Y-104985331D02*
X121159063Y-104535331D01*
X117767077Y-101643953D02*
X117761335Y-101548293D01*
X117761335Y-101548293D02*
X117697049Y-101436947D01*
X117697049Y-101436947D02*
X117595648Y-101347030D01*
X117595648Y-101347030D02*
X117478560Y-101315656D01*
X117478560Y-101315656D02*
X117382901Y-101321398D01*
X117382901Y-101321398D02*
X117213011Y-101369997D01*
X117213011Y-101369997D02*
X117101665Y-101434282D01*
X117101665Y-101434282D02*
X116974632Y-101557112D01*
X116974632Y-101557112D02*
X116921830Y-101637084D01*
X116921830Y-101637084D02*
X116890456Y-101754172D01*
X116890456Y-101754172D02*
X116917627Y-101886947D01*
X116917627Y-101886947D02*
X116960484Y-101961178D01*
X116960484Y-101961178D02*
X117061885Y-102051095D01*
X117061885Y-102051095D02*
X117120429Y-102066782D01*
X117120429Y-102066782D02*
X117380236Y-101916782D01*
X117380236Y-101916782D02*
X117294522Y-101768321D01*
X117239055Y-102443678D02*
X118018478Y-101993678D01*
X118018478Y-101993678D02*
X117496198Y-102889062D01*
X117496198Y-102889062D02*
X118275621Y-102439062D01*
X117710484Y-103260216D02*
X118489907Y-102810216D01*
X118489907Y-102810216D02*
X118597049Y-102995793D01*
X118597049Y-102995793D02*
X118624220Y-103128567D01*
X118624220Y-103128567D02*
X118592846Y-103245655D01*
X118592846Y-103245655D02*
X118540044Y-103325628D01*
X118540044Y-103325628D02*
X118413011Y-103448457D01*
X118413011Y-103448457D02*
X118301665Y-103512743D01*
X118301665Y-103512743D02*
X118131775Y-103561342D01*
X118131775Y-103561342D02*
X118036115Y-103567084D01*
X118036115Y-103567084D02*
X117919028Y-103535710D01*
X117919028Y-103535710D02*
X117817627Y-103445793D01*
X117817627Y-103445793D02*
X117710484Y-103260216D01*
X67817292Y-107750314D02*
X67731578Y-107707457D01*
X67731578Y-107707457D02*
X67603006Y-107707457D01*
X67603006Y-107707457D02*
X67474435Y-107750314D01*
X67474435Y-107750314D02*
X67388720Y-107836028D01*
X67388720Y-107836028D02*
X67345863Y-107921742D01*
X67345863Y-107921742D02*
X67303006Y-108093171D01*
X67303006Y-108093171D02*
X67303006Y-108221742D01*
X67303006Y-108221742D02*
X67345863Y-108393171D01*
X67345863Y-108393171D02*
X67388720Y-108478885D01*
X67388720Y-108478885D02*
X67474435Y-108564600D01*
X67474435Y-108564600D02*
X67603006Y-108607457D01*
X67603006Y-108607457D02*
X67688720Y-108607457D01*
X67688720Y-108607457D02*
X67817292Y-108564600D01*
X67817292Y-108564600D02*
X67860149Y-108521742D01*
X67860149Y-108521742D02*
X67860149Y-108221742D01*
X67860149Y-108221742D02*
X67688720Y-108221742D01*
X68245863Y-108607457D02*
X68245863Y-107707457D01*
X68245863Y-107707457D02*
X68760149Y-108607457D01*
X68760149Y-108607457D02*
X68760149Y-107707457D01*
X69188720Y-108607457D02*
X69188720Y-107707457D01*
X69188720Y-107707457D02*
X69403006Y-107707457D01*
X69403006Y-107707457D02*
X69531577Y-107750314D01*
X69531577Y-107750314D02*
X69617292Y-107836028D01*
X69617292Y-107836028D02*
X69660149Y-107921742D01*
X69660149Y-107921742D02*
X69703006Y-108093171D01*
X69703006Y-108093171D02*
X69703006Y-108221742D01*
X69703006Y-108221742D02*
X69660149Y-108393171D01*
X69660149Y-108393171D02*
X69617292Y-108478885D01*
X69617292Y-108478885D02*
X69531577Y-108564600D01*
X69531577Y-108564600D02*
X69403006Y-108607457D01*
X69403006Y-108607457D02*
X69188720Y-108607457D01*
X67345863Y-110056457D02*
X67345863Y-109156457D01*
X67345863Y-109156457D02*
X67560149Y-109156457D01*
X67560149Y-109156457D02*
X67688720Y-109199314D01*
X67688720Y-109199314D02*
X67774435Y-109285028D01*
X67774435Y-109285028D02*
X67817292Y-109370742D01*
X67817292Y-109370742D02*
X67860149Y-109542171D01*
X67860149Y-109542171D02*
X67860149Y-109670742D01*
X67860149Y-109670742D02*
X67817292Y-109842171D01*
X67817292Y-109842171D02*
X67774435Y-109927885D01*
X67774435Y-109927885D02*
X67688720Y-110013600D01*
X67688720Y-110013600D02*
X67560149Y-110056457D01*
X67560149Y-110056457D02*
X67345863Y-110056457D01*
X68031578Y-110142171D02*
X68717292Y-110142171D01*
X69231577Y-109585028D02*
X68931577Y-109585028D01*
X68931577Y-110056457D02*
X68931577Y-109156457D01*
X68931577Y-109156457D02*
X69360149Y-109156457D01*
X69703006Y-110056457D02*
X69703006Y-109156457D01*
X70645863Y-110056457D02*
X70345863Y-109627885D01*
X70131577Y-110056457D02*
X70131577Y-109156457D01*
X70131577Y-109156457D02*
X70474434Y-109156457D01*
X70474434Y-109156457D02*
X70560149Y-109199314D01*
X70560149Y-109199314D02*
X70603006Y-109242171D01*
X70603006Y-109242171D02*
X70645863Y-109327885D01*
X70645863Y-109327885D02*
X70645863Y-109456457D01*
X70645863Y-109456457D02*
X70603006Y-109542171D01*
X70603006Y-109542171D02*
X70560149Y-109585028D01*
X70560149Y-109585028D02*
X70474434Y-109627885D01*
X70474434Y-109627885D02*
X70131577Y-109627885D01*
X70988720Y-110013600D02*
X71117292Y-110056457D01*
X71117292Y-110056457D02*
X71331577Y-110056457D01*
X71331577Y-110056457D02*
X71417292Y-110013600D01*
X71417292Y-110013600D02*
X71460149Y-109970742D01*
X71460149Y-109970742D02*
X71503006Y-109885028D01*
X71503006Y-109885028D02*
X71503006Y-109799314D01*
X71503006Y-109799314D02*
X71460149Y-109713600D01*
X71460149Y-109713600D02*
X71417292Y-109670742D01*
X71417292Y-109670742D02*
X71331577Y-109627885D01*
X71331577Y-109627885D02*
X71160149Y-109585028D01*
X71160149Y-109585028D02*
X71074434Y-109542171D01*
X71074434Y-109542171D02*
X71031577Y-109499314D01*
X71031577Y-109499314D02*
X70988720Y-109413600D01*
X70988720Y-109413600D02*
X70988720Y-109327885D01*
X70988720Y-109327885D02*
X71031577Y-109242171D01*
X71031577Y-109242171D02*
X71074434Y-109199314D01*
X71074434Y-109199314D02*
X71160149Y-109156457D01*
X71160149Y-109156457D02*
X71374434Y-109156457D01*
X71374434Y-109156457D02*
X71503006Y-109199314D01*
X71760149Y-109156457D02*
X72274435Y-109156457D01*
X72017292Y-110056457D02*
X72017292Y-109156457D01*
X67345863Y-111505457D02*
X67345863Y-110605457D01*
X67345863Y-110605457D02*
X67560149Y-110605457D01*
X67560149Y-110605457D02*
X67688720Y-110648314D01*
X67688720Y-110648314D02*
X67774435Y-110734028D01*
X67774435Y-110734028D02*
X67817292Y-110819742D01*
X67817292Y-110819742D02*
X67860149Y-110991171D01*
X67860149Y-110991171D02*
X67860149Y-111119742D01*
X67860149Y-111119742D02*
X67817292Y-111291171D01*
X67817292Y-111291171D02*
X67774435Y-111376885D01*
X67774435Y-111376885D02*
X67688720Y-111462600D01*
X67688720Y-111462600D02*
X67560149Y-111505457D01*
X67560149Y-111505457D02*
X67345863Y-111505457D01*
X68031578Y-111591171D02*
X68717292Y-111591171D01*
X69360149Y-111505457D02*
X68931577Y-111505457D01*
X68931577Y-111505457D02*
X68931577Y-110605457D01*
X69617291Y-111248314D02*
X70045863Y-111248314D01*
X69531577Y-111505457D02*
X69831577Y-110605457D01*
X69831577Y-110605457D02*
X70131577Y-111505457D01*
X70388720Y-111462600D02*
X70517292Y-111505457D01*
X70517292Y-111505457D02*
X70731577Y-111505457D01*
X70731577Y-111505457D02*
X70817292Y-111462600D01*
X70817292Y-111462600D02*
X70860149Y-111419742D01*
X70860149Y-111419742D02*
X70903006Y-111334028D01*
X70903006Y-111334028D02*
X70903006Y-111248314D01*
X70903006Y-111248314D02*
X70860149Y-111162600D01*
X70860149Y-111162600D02*
X70817292Y-111119742D01*
X70817292Y-111119742D02*
X70731577Y-111076885D01*
X70731577Y-111076885D02*
X70560149Y-111034028D01*
X70560149Y-111034028D02*
X70474434Y-110991171D01*
X70474434Y-110991171D02*
X70431577Y-110948314D01*
X70431577Y-110948314D02*
X70388720Y-110862600D01*
X70388720Y-110862600D02*
X70388720Y-110776885D01*
X70388720Y-110776885D02*
X70431577Y-110691171D01*
X70431577Y-110691171D02*
X70474434Y-110648314D01*
X70474434Y-110648314D02*
X70560149Y-110605457D01*
X70560149Y-110605457D02*
X70774434Y-110605457D01*
X70774434Y-110605457D02*
X70903006Y-110648314D01*
X71160149Y-110605457D02*
X71674435Y-110605457D01*
X71417292Y-111505457D02*
X71417292Y-110605457D01*
X67345863Y-112611600D02*
X68031578Y-112611600D01*
X67688720Y-112954457D02*
X67688720Y-112268742D01*
X68888721Y-112054457D02*
X68460149Y-112054457D01*
X68460149Y-112054457D02*
X68417292Y-112483028D01*
X68417292Y-112483028D02*
X68460149Y-112440171D01*
X68460149Y-112440171D02*
X68545864Y-112397314D01*
X68545864Y-112397314D02*
X68760149Y-112397314D01*
X68760149Y-112397314D02*
X68845864Y-112440171D01*
X68845864Y-112440171D02*
X68888721Y-112483028D01*
X68888721Y-112483028D02*
X68931578Y-112568742D01*
X68931578Y-112568742D02*
X68931578Y-112783028D01*
X68931578Y-112783028D02*
X68888721Y-112868742D01*
X68888721Y-112868742D02*
X68845864Y-112911600D01*
X68845864Y-112911600D02*
X68760149Y-112954457D01*
X68760149Y-112954457D02*
X68545864Y-112954457D01*
X68545864Y-112954457D02*
X68460149Y-112911600D01*
X68460149Y-112911600D02*
X68417292Y-112868742D01*
X69188721Y-112054457D02*
X69488721Y-112954457D01*
X69488721Y-112954457D02*
X69788721Y-112054457D01*
X67620863Y-78239600D02*
X68306578Y-78239600D01*
X67963720Y-78582457D02*
X67963720Y-77896742D01*
X69163721Y-77682457D02*
X68735149Y-77682457D01*
X68735149Y-77682457D02*
X68692292Y-78111028D01*
X68692292Y-78111028D02*
X68735149Y-78068171D01*
X68735149Y-78068171D02*
X68820864Y-78025314D01*
X68820864Y-78025314D02*
X69035149Y-78025314D01*
X69035149Y-78025314D02*
X69120864Y-78068171D01*
X69120864Y-78068171D02*
X69163721Y-78111028D01*
X69163721Y-78111028D02*
X69206578Y-78196742D01*
X69206578Y-78196742D02*
X69206578Y-78411028D01*
X69206578Y-78411028D02*
X69163721Y-78496742D01*
X69163721Y-78496742D02*
X69120864Y-78539600D01*
X69120864Y-78539600D02*
X69035149Y-78582457D01*
X69035149Y-78582457D02*
X68820864Y-78582457D01*
X68820864Y-78582457D02*
X68735149Y-78539600D01*
X68735149Y-78539600D02*
X68692292Y-78496742D01*
X69463721Y-77682457D02*
X69763721Y-78582457D01*
X69763721Y-78582457D02*
X70063721Y-77682457D01*
X67620863Y-80031457D02*
X67620863Y-79131457D01*
X67620863Y-79131457D02*
X67835149Y-79131457D01*
X67835149Y-79131457D02*
X67963720Y-79174314D01*
X67963720Y-79174314D02*
X68049435Y-79260028D01*
X68049435Y-79260028D02*
X68092292Y-79345742D01*
X68092292Y-79345742D02*
X68135149Y-79517171D01*
X68135149Y-79517171D02*
X68135149Y-79645742D01*
X68135149Y-79645742D02*
X68092292Y-79817171D01*
X68092292Y-79817171D02*
X68049435Y-79902885D01*
X68049435Y-79902885D02*
X67963720Y-79988600D01*
X67963720Y-79988600D02*
X67835149Y-80031457D01*
X67835149Y-80031457D02*
X67620863Y-80031457D01*
X68306578Y-80117171D02*
X68992292Y-80117171D01*
X69635149Y-80031457D02*
X69206577Y-80031457D01*
X69206577Y-80031457D02*
X69206577Y-79131457D01*
X69892291Y-79774314D02*
X70320863Y-79774314D01*
X69806577Y-80031457D02*
X70106577Y-79131457D01*
X70106577Y-79131457D02*
X70406577Y-80031457D01*
X70663720Y-79988600D02*
X70792292Y-80031457D01*
X70792292Y-80031457D02*
X71006577Y-80031457D01*
X71006577Y-80031457D02*
X71092292Y-79988600D01*
X71092292Y-79988600D02*
X71135149Y-79945742D01*
X71135149Y-79945742D02*
X71178006Y-79860028D01*
X71178006Y-79860028D02*
X71178006Y-79774314D01*
X71178006Y-79774314D02*
X71135149Y-79688600D01*
X71135149Y-79688600D02*
X71092292Y-79645742D01*
X71092292Y-79645742D02*
X71006577Y-79602885D01*
X71006577Y-79602885D02*
X70835149Y-79560028D01*
X70835149Y-79560028D02*
X70749434Y-79517171D01*
X70749434Y-79517171D02*
X70706577Y-79474314D01*
X70706577Y-79474314D02*
X70663720Y-79388600D01*
X70663720Y-79388600D02*
X70663720Y-79302885D01*
X70663720Y-79302885D02*
X70706577Y-79217171D01*
X70706577Y-79217171D02*
X70749434Y-79174314D01*
X70749434Y-79174314D02*
X70835149Y-79131457D01*
X70835149Y-79131457D02*
X71049434Y-79131457D01*
X71049434Y-79131457D02*
X71178006Y-79174314D01*
X71435149Y-79131457D02*
X71949435Y-79131457D01*
X71692292Y-80031457D02*
X71692292Y-79131457D01*
X67620863Y-81480457D02*
X67620863Y-80580457D01*
X67620863Y-80580457D02*
X67835149Y-80580457D01*
X67835149Y-80580457D02*
X67963720Y-80623314D01*
X67963720Y-80623314D02*
X68049435Y-80709028D01*
X68049435Y-80709028D02*
X68092292Y-80794742D01*
X68092292Y-80794742D02*
X68135149Y-80966171D01*
X68135149Y-80966171D02*
X68135149Y-81094742D01*
X68135149Y-81094742D02*
X68092292Y-81266171D01*
X68092292Y-81266171D02*
X68049435Y-81351885D01*
X68049435Y-81351885D02*
X67963720Y-81437600D01*
X67963720Y-81437600D02*
X67835149Y-81480457D01*
X67835149Y-81480457D02*
X67620863Y-81480457D01*
X68306578Y-81566171D02*
X68992292Y-81566171D01*
X69506577Y-81009028D02*
X69206577Y-81009028D01*
X69206577Y-81480457D02*
X69206577Y-80580457D01*
X69206577Y-80580457D02*
X69635149Y-80580457D01*
X69978006Y-81480457D02*
X69978006Y-80580457D01*
X70920863Y-81480457D02*
X70620863Y-81051885D01*
X70406577Y-81480457D02*
X70406577Y-80580457D01*
X70406577Y-80580457D02*
X70749434Y-80580457D01*
X70749434Y-80580457D02*
X70835149Y-80623314D01*
X70835149Y-80623314D02*
X70878006Y-80666171D01*
X70878006Y-80666171D02*
X70920863Y-80751885D01*
X70920863Y-80751885D02*
X70920863Y-80880457D01*
X70920863Y-80880457D02*
X70878006Y-80966171D01*
X70878006Y-80966171D02*
X70835149Y-81009028D01*
X70835149Y-81009028D02*
X70749434Y-81051885D01*
X70749434Y-81051885D02*
X70406577Y-81051885D01*
X71263720Y-81437600D02*
X71392292Y-81480457D01*
X71392292Y-81480457D02*
X71606577Y-81480457D01*
X71606577Y-81480457D02*
X71692292Y-81437600D01*
X71692292Y-81437600D02*
X71735149Y-81394742D01*
X71735149Y-81394742D02*
X71778006Y-81309028D01*
X71778006Y-81309028D02*
X71778006Y-81223314D01*
X71778006Y-81223314D02*
X71735149Y-81137600D01*
X71735149Y-81137600D02*
X71692292Y-81094742D01*
X71692292Y-81094742D02*
X71606577Y-81051885D01*
X71606577Y-81051885D02*
X71435149Y-81009028D01*
X71435149Y-81009028D02*
X71349434Y-80966171D01*
X71349434Y-80966171D02*
X71306577Y-80923314D01*
X71306577Y-80923314D02*
X71263720Y-80837600D01*
X71263720Y-80837600D02*
X71263720Y-80751885D01*
X71263720Y-80751885D02*
X71306577Y-80666171D01*
X71306577Y-80666171D02*
X71349434Y-80623314D01*
X71349434Y-80623314D02*
X71435149Y-80580457D01*
X71435149Y-80580457D02*
X71649434Y-80580457D01*
X71649434Y-80580457D02*
X71778006Y-80623314D01*
X72035149Y-80580457D02*
X72549435Y-80580457D01*
X72292292Y-81480457D02*
X72292292Y-80580457D01*
X68092292Y-82072314D02*
X68006578Y-82029457D01*
X68006578Y-82029457D02*
X67878006Y-82029457D01*
X67878006Y-82029457D02*
X67749435Y-82072314D01*
X67749435Y-82072314D02*
X67663720Y-82158028D01*
X67663720Y-82158028D02*
X67620863Y-82243742D01*
X67620863Y-82243742D02*
X67578006Y-82415171D01*
X67578006Y-82415171D02*
X67578006Y-82543742D01*
X67578006Y-82543742D02*
X67620863Y-82715171D01*
X67620863Y-82715171D02*
X67663720Y-82800885D01*
X67663720Y-82800885D02*
X67749435Y-82886600D01*
X67749435Y-82886600D02*
X67878006Y-82929457D01*
X67878006Y-82929457D02*
X67963720Y-82929457D01*
X67963720Y-82929457D02*
X68092292Y-82886600D01*
X68092292Y-82886600D02*
X68135149Y-82843742D01*
X68135149Y-82843742D02*
X68135149Y-82543742D01*
X68135149Y-82543742D02*
X67963720Y-82543742D01*
X68520863Y-82929457D02*
X68520863Y-82029457D01*
X68520863Y-82029457D02*
X69035149Y-82929457D01*
X69035149Y-82929457D02*
X69035149Y-82029457D01*
X69463720Y-82929457D02*
X69463720Y-82029457D01*
X69463720Y-82029457D02*
X69678006Y-82029457D01*
X69678006Y-82029457D02*
X69806577Y-82072314D01*
X69806577Y-82072314D02*
X69892292Y-82158028D01*
X69892292Y-82158028D02*
X69935149Y-82243742D01*
X69935149Y-82243742D02*
X69978006Y-82415171D01*
X69978006Y-82415171D02*
X69978006Y-82543742D01*
X69978006Y-82543742D02*
X69935149Y-82715171D01*
X69935149Y-82715171D02*
X69892292Y-82800885D01*
X69892292Y-82800885D02*
X69806577Y-82886600D01*
X69806577Y-82886600D02*
X69678006Y-82929457D01*
X69678006Y-82929457D02*
X69463720Y-82929457D01*
X117660601Y-89104861D02*
X117580629Y-89157663D01*
X117580629Y-89157663D02*
X117516343Y-89269009D01*
X117516343Y-89269009D02*
X117489173Y-89401784D01*
X117489173Y-89401784D02*
X117520546Y-89518872D01*
X117520546Y-89518872D02*
X117573349Y-89598844D01*
X117573349Y-89598844D02*
X117700381Y-89721674D01*
X117700381Y-89721674D02*
X117811728Y-89785960D01*
X117811728Y-89785960D02*
X117981618Y-89834558D01*
X117981618Y-89834558D02*
X118077277Y-89840300D01*
X118077277Y-89840300D02*
X118194365Y-89808927D01*
X118194365Y-89808927D02*
X118295766Y-89719009D01*
X118295766Y-89719009D02*
X118338623Y-89644778D01*
X118338623Y-89644778D02*
X118365793Y-89512004D01*
X118365793Y-89512004D02*
X118350107Y-89453460D01*
X118350107Y-89453460D02*
X118090299Y-89303460D01*
X118090299Y-89303460D02*
X118004585Y-89451921D01*
X118617195Y-89162278D02*
X117837772Y-88712278D01*
X117837772Y-88712278D02*
X118874337Y-88716894D01*
X118874337Y-88716894D02*
X118094915Y-88266894D01*
X119088623Y-88345740D02*
X118309200Y-87895740D01*
X118309200Y-87895740D02*
X118416343Y-87710163D01*
X118416343Y-87710163D02*
X118517744Y-87620246D01*
X118517744Y-87620246D02*
X118634832Y-87588872D01*
X118634832Y-87588872D02*
X118730491Y-87594614D01*
X118730491Y-87594614D02*
X118900381Y-87643213D01*
X118900381Y-87643213D02*
X119011728Y-87707499D01*
X119011728Y-87707499D02*
X119138760Y-87830328D01*
X119138760Y-87830328D02*
X119191563Y-87910301D01*
X119191563Y-87910301D02*
X119222936Y-88027389D01*
X119222936Y-88027389D02*
X119195766Y-88160163D01*
X119195766Y-88160163D02*
X119088623Y-88345740D01*
X119422066Y-90666201D02*
X118642643Y-90216201D01*
X118642643Y-90216201D02*
X118749786Y-90030624D01*
X118749786Y-90030624D02*
X118851187Y-89940707D01*
X118851187Y-89940707D02*
X118968275Y-89909333D01*
X118968275Y-89909333D02*
X119063934Y-89915075D01*
X119063934Y-89915075D02*
X119233824Y-89963674D01*
X119233824Y-89963674D02*
X119345170Y-90027960D01*
X119345170Y-90027960D02*
X119472203Y-90150789D01*
X119472203Y-90150789D02*
X119525005Y-90230762D01*
X119525005Y-90230762D02*
X119556379Y-90347850D01*
X119556379Y-90347850D02*
X119529208Y-90480624D01*
X119529208Y-90480624D02*
X119422066Y-90666201D01*
X119839153Y-90115212D02*
X120182011Y-89521366D01*
X119956653Y-88797411D02*
X119806653Y-89057218D01*
X120214923Y-89292933D02*
X119435500Y-88842933D01*
X119435500Y-88842933D02*
X119649785Y-88471779D01*
X120600637Y-88624856D02*
X119821214Y-88174856D01*
X121072065Y-87808318D02*
X120550912Y-87853840D01*
X120814923Y-88253702D02*
X120035500Y-87803702D01*
X120035500Y-87803702D02*
X120206928Y-87506779D01*
X120206928Y-87506779D02*
X120286901Y-87453977D01*
X120286901Y-87453977D02*
X120345445Y-87438290D01*
X120345445Y-87438290D02*
X120441104Y-87444032D01*
X120441104Y-87444032D02*
X120552450Y-87508318D01*
X120552450Y-87508318D02*
X120605252Y-87588290D01*
X120605252Y-87588290D02*
X120620939Y-87646834D01*
X120620939Y-87646834D02*
X120615197Y-87742494D01*
X120615197Y-87742494D02*
X120443769Y-88039417D01*
X121206379Y-87489966D02*
X121307780Y-87400049D01*
X121307780Y-87400049D02*
X121414923Y-87214472D01*
X121414923Y-87214472D02*
X121420664Y-87118812D01*
X121420664Y-87118812D02*
X121404978Y-87060268D01*
X121404978Y-87060268D02*
X121352175Y-86980296D01*
X121352175Y-86980296D02*
X121277945Y-86937439D01*
X121277945Y-86937439D02*
X121182285Y-86931697D01*
X121182285Y-86931697D02*
X121123741Y-86947384D01*
X121123741Y-86947384D02*
X121043769Y-87000186D01*
X121043769Y-87000186D02*
X120920939Y-87127219D01*
X120920939Y-87127219D02*
X120840967Y-87180021D01*
X120840967Y-87180021D02*
X120782423Y-87195708D01*
X120782423Y-87195708D02*
X120686763Y-87189966D01*
X120686763Y-87189966D02*
X120612533Y-87147109D01*
X120612533Y-87147109D02*
X120559730Y-87067136D01*
X120559730Y-87067136D02*
X120544044Y-87008593D01*
X120544044Y-87008593D02*
X120549785Y-86912933D01*
X120549785Y-86912933D02*
X120656928Y-86727356D01*
X120656928Y-86727356D02*
X120758329Y-86637439D01*
X120849785Y-86393318D02*
X121106928Y-85947933D01*
X121757780Y-86620626D02*
X120978357Y-86170626D01*
X120676937Y-91390701D02*
X119897514Y-90940701D01*
X119897514Y-90940701D02*
X120004657Y-90755124D01*
X120004657Y-90755124D02*
X120106058Y-90665207D01*
X120106058Y-90665207D02*
X120223146Y-90633833D01*
X120223146Y-90633833D02*
X120318805Y-90639575D01*
X120318805Y-90639575D02*
X120488695Y-90688174D01*
X120488695Y-90688174D02*
X120600041Y-90752460D01*
X120600041Y-90752460D02*
X120727074Y-90875289D01*
X120727074Y-90875289D02*
X120779876Y-90955262D01*
X120779876Y-90955262D02*
X120811250Y-91072350D01*
X120811250Y-91072350D02*
X120784079Y-91205124D01*
X120784079Y-91205124D02*
X120676937Y-91390701D01*
X121094024Y-90839712D02*
X121436882Y-90245866D01*
X121684079Y-89646279D02*
X121469794Y-90017433D01*
X121469794Y-90017433D02*
X120690371Y-89567433D01*
X121589958Y-89295016D02*
X121804244Y-88923862D01*
X121769793Y-89497818D02*
X121140370Y-88788010D01*
X121140370Y-88788010D02*
X122069793Y-88978203D01*
X122161250Y-88734081D02*
X122262651Y-88644164D01*
X122262651Y-88644164D02*
X122369794Y-88458587D01*
X122369794Y-88458587D02*
X122375535Y-88362928D01*
X122375535Y-88362928D02*
X122359849Y-88304384D01*
X122359849Y-88304384D02*
X122307046Y-88224411D01*
X122307046Y-88224411D02*
X122232816Y-88181554D01*
X122232816Y-88181554D02*
X122137156Y-88175812D01*
X122137156Y-88175812D02*
X122078612Y-88191499D01*
X122078612Y-88191499D02*
X121998640Y-88244301D01*
X121998640Y-88244301D02*
X121875810Y-88371334D01*
X121875810Y-88371334D02*
X121795838Y-88424136D01*
X121795838Y-88424136D02*
X121737294Y-88439823D01*
X121737294Y-88439823D02*
X121641634Y-88434081D01*
X121641634Y-88434081D02*
X121567404Y-88391224D01*
X121567404Y-88391224D02*
X121514601Y-88311252D01*
X121514601Y-88311252D02*
X121498915Y-88252708D01*
X121498915Y-88252708D02*
X121504656Y-88157048D01*
X121504656Y-88157048D02*
X121611799Y-87971472D01*
X121611799Y-87971472D02*
X121713200Y-87881554D01*
X121804656Y-87637433D02*
X122061799Y-87192049D01*
X122712651Y-87864741D02*
X121933228Y-87414741D01*
X121634885Y-91943773D02*
X121977742Y-91349927D01*
X122103236Y-91818278D02*
X121509390Y-91475421D01*
X122724665Y-90741932D02*
X122467522Y-91187317D01*
X122596093Y-90964624D02*
X121816671Y-90514624D01*
X121816671Y-90514624D02*
X121885160Y-90653141D01*
X121885160Y-90653141D02*
X121916533Y-90770229D01*
X121916533Y-90770229D02*
X121910791Y-90865888D01*
X122190901Y-90037866D02*
X122175215Y-89979322D01*
X122175215Y-89979322D02*
X122180956Y-89883663D01*
X122180956Y-89883663D02*
X122288099Y-89698086D01*
X122288099Y-89698086D02*
X122368072Y-89645284D01*
X122368072Y-89645284D02*
X122426616Y-89629597D01*
X122426616Y-89629597D02*
X122522275Y-89635339D01*
X122522275Y-89635339D02*
X122596506Y-89678196D01*
X122596506Y-89678196D02*
X122686423Y-89779597D01*
X122686423Y-89779597D02*
X122874665Y-90482124D01*
X122874665Y-90482124D02*
X123153236Y-89999625D01*
X122502385Y-89326932D02*
X123431808Y-89517125D01*
X123431808Y-89517125D02*
X122802385Y-88807317D01*
D12*
X70357419Y-99163333D02*
X71071704Y-99163333D01*
X71071704Y-99163333D02*
X71214561Y-99210952D01*
X71214561Y-99210952D02*
X71309800Y-99306190D01*
X71309800Y-99306190D02*
X71357419Y-99449047D01*
X71357419Y-99449047D02*
X71357419Y-99544285D01*
X71357419Y-98163333D02*
X71357419Y-98734761D01*
X71357419Y-98449047D02*
X70357419Y-98449047D01*
X70357419Y-98449047D02*
X70500276Y-98544285D01*
X70500276Y-98544285D02*
X70595514Y-98639523D01*
X70595514Y-98639523D02*
X70643133Y-98734761D01*
X85558206Y-61215431D02*
X85201063Y-61834020D01*
X85201063Y-61834020D02*
X85088395Y-61933929D01*
X85088395Y-61933929D02*
X84958297Y-61968788D01*
X84958297Y-61968788D02*
X84810770Y-61938599D01*
X84810770Y-61938599D02*
X84728291Y-61890980D01*
X85881741Y-61512195D02*
X85946789Y-61494766D01*
X85946789Y-61494766D02*
X86053078Y-61501145D01*
X86053078Y-61501145D02*
X86259274Y-61620193D01*
X86259274Y-61620193D02*
X86317943Y-61709051D01*
X86317943Y-61709051D02*
X86335373Y-61774100D01*
X86335373Y-61774100D02*
X86328993Y-61880388D01*
X86328993Y-61880388D02*
X86281374Y-61962867D01*
X86281374Y-61962867D02*
X86168706Y-62062775D01*
X86168706Y-62062775D02*
X85388120Y-62271933D01*
X85388120Y-62271933D02*
X85924231Y-62581456D01*
D13*
X100161905Y-107279819D02*
X100161905Y-106279819D01*
X100161905Y-106279819D02*
X100400000Y-106279819D01*
X100400000Y-106279819D02*
X100542857Y-106327438D01*
X100542857Y-106327438D02*
X100638095Y-106422676D01*
X100638095Y-106422676D02*
X100685714Y-106517914D01*
X100685714Y-106517914D02*
X100733333Y-106708390D01*
X100733333Y-106708390D02*
X100733333Y-106851247D01*
X100733333Y-106851247D02*
X100685714Y-107041723D01*
X100685714Y-107041723D02*
X100638095Y-107136961D01*
X100638095Y-107136961D02*
X100542857Y-107232200D01*
X100542857Y-107232200D02*
X100400000Y-107279819D01*
X100400000Y-107279819D02*
X100161905Y-107279819D01*
X101590476Y-106613152D02*
X101590476Y-107279819D01*
X101352381Y-106232200D02*
X101114286Y-106946485D01*
X101114286Y-106946485D02*
X101733333Y-106946485D01*
X97035714Y-109179819D02*
X96464286Y-109179819D01*
X96750000Y-109179819D02*
X96750000Y-108179819D01*
X96750000Y-108179819D02*
X96654762Y-108322676D01*
X96654762Y-108322676D02*
X96559524Y-108417914D01*
X96559524Y-108417914D02*
X96464286Y-108465533D01*
X126111905Y-92329819D02*
X126111905Y-91329819D01*
X126111905Y-91329819D02*
X126350000Y-91329819D01*
X126350000Y-91329819D02*
X126492857Y-91377438D01*
X126492857Y-91377438D02*
X126588095Y-91472676D01*
X126588095Y-91472676D02*
X126635714Y-91567914D01*
X126635714Y-91567914D02*
X126683333Y-91758390D01*
X126683333Y-91758390D02*
X126683333Y-91901247D01*
X126683333Y-91901247D02*
X126635714Y-92091723D01*
X126635714Y-92091723D02*
X126588095Y-92186961D01*
X126588095Y-92186961D02*
X126492857Y-92282200D01*
X126492857Y-92282200D02*
X126350000Y-92329819D01*
X126350000Y-92329819D02*
X126111905Y-92329819D01*
X127016667Y-91329819D02*
X127635714Y-91329819D01*
X127635714Y-91329819D02*
X127302381Y-91710771D01*
X127302381Y-91710771D02*
X127445238Y-91710771D01*
X127445238Y-91710771D02*
X127540476Y-91758390D01*
X127540476Y-91758390D02*
X127588095Y-91806009D01*
X127588095Y-91806009D02*
X127635714Y-91901247D01*
X127635714Y-91901247D02*
X127635714Y-92139342D01*
X127635714Y-92139342D02*
X127588095Y-92234580D01*
X127588095Y-92234580D02*
X127540476Y-92282200D01*
X127540476Y-92282200D02*
X127445238Y-92329819D01*
X127445238Y-92329819D02*
X127159524Y-92329819D01*
X127159524Y-92329819D02*
X127064286Y-92282200D01*
X127064286Y-92282200D02*
X127016667Y-92234580D01*
X122985714Y-94229819D02*
X122414286Y-94229819D01*
X122700000Y-94229819D02*
X122700000Y-93229819D01*
X122700000Y-93229819D02*
X122604762Y-93372676D01*
X122604762Y-93372676D02*
X122509524Y-93467914D01*
X122509524Y-93467914D02*
X122414286Y-93515533D01*
D12*
X126342089Y-87189568D02*
X126699232Y-86570979D01*
X126699232Y-86570979D02*
X126811900Y-86471070D01*
X126811900Y-86471070D02*
X126941998Y-86436211D01*
X126941998Y-86436211D02*
X127089525Y-86466400D01*
X127089525Y-86466400D02*
X127172004Y-86514019D01*
X126012175Y-86999092D02*
X125476064Y-86689568D01*
X125476064Y-86689568D02*
X125955215Y-86526320D01*
X125955215Y-86526320D02*
X125831497Y-86454892D01*
X125831497Y-86454892D02*
X125772828Y-86366033D01*
X125772828Y-86366033D02*
X125755398Y-86300984D01*
X125755398Y-86300984D02*
X125761778Y-86194696D01*
X125761778Y-86194696D02*
X125880826Y-85988500D01*
X125880826Y-85988500D02*
X125969684Y-85929831D01*
X125969684Y-85929831D02*
X126034733Y-85912401D01*
X126034733Y-85912401D02*
X126141021Y-85918781D01*
X126141021Y-85918781D02*
X126388457Y-86061638D01*
X126388457Y-86061638D02*
X126447126Y-86150496D01*
X126447126Y-86150496D02*
X126464556Y-86215545D01*
D13*
X100186905Y-77354819D02*
X100186905Y-76354819D01*
X100186905Y-76354819D02*
X100425000Y-76354819D01*
X100425000Y-76354819D02*
X100567857Y-76402438D01*
X100567857Y-76402438D02*
X100663095Y-76497676D01*
X100663095Y-76497676D02*
X100710714Y-76592914D01*
X100710714Y-76592914D02*
X100758333Y-76783390D01*
X100758333Y-76783390D02*
X100758333Y-76926247D01*
X100758333Y-76926247D02*
X100710714Y-77116723D01*
X100710714Y-77116723D02*
X100663095Y-77211961D01*
X100663095Y-77211961D02*
X100567857Y-77307200D01*
X100567857Y-77307200D02*
X100425000Y-77354819D01*
X100425000Y-77354819D02*
X100186905Y-77354819D01*
X101139286Y-76450057D02*
X101186905Y-76402438D01*
X101186905Y-76402438D02*
X101282143Y-76354819D01*
X101282143Y-76354819D02*
X101520238Y-76354819D01*
X101520238Y-76354819D02*
X101615476Y-76402438D01*
X101615476Y-76402438D02*
X101663095Y-76450057D01*
X101663095Y-76450057D02*
X101710714Y-76545295D01*
X101710714Y-76545295D02*
X101710714Y-76640533D01*
X101710714Y-76640533D02*
X101663095Y-76783390D01*
X101663095Y-76783390D02*
X101091667Y-77354819D01*
X101091667Y-77354819D02*
X101710714Y-77354819D01*
X97060714Y-79254819D02*
X96489286Y-79254819D01*
X96775000Y-79254819D02*
X96775000Y-78254819D01*
X96775000Y-78254819D02*
X96679762Y-78397676D01*
X96679762Y-78397676D02*
X96584524Y-78492914D01*
X96584524Y-78492914D02*
X96489286Y-78540533D01*
X74236905Y-62354819D02*
X74236905Y-61354819D01*
X74236905Y-61354819D02*
X74475000Y-61354819D01*
X74475000Y-61354819D02*
X74617857Y-61402438D01*
X74617857Y-61402438D02*
X74713095Y-61497676D01*
X74713095Y-61497676D02*
X74760714Y-61592914D01*
X74760714Y-61592914D02*
X74808333Y-61783390D01*
X74808333Y-61783390D02*
X74808333Y-61926247D01*
X74808333Y-61926247D02*
X74760714Y-62116723D01*
X74760714Y-62116723D02*
X74713095Y-62211961D01*
X74713095Y-62211961D02*
X74617857Y-62307200D01*
X74617857Y-62307200D02*
X74475000Y-62354819D01*
X74475000Y-62354819D02*
X74236905Y-62354819D01*
X75760714Y-62354819D02*
X75189286Y-62354819D01*
X75475000Y-62354819D02*
X75475000Y-61354819D01*
X75475000Y-61354819D02*
X75379762Y-61497676D01*
X75379762Y-61497676D02*
X75284524Y-61592914D01*
X75284524Y-61592914D02*
X75189286Y-61640533D01*
X71110714Y-64254819D02*
X70539286Y-64254819D01*
X70825000Y-64254819D02*
X70825000Y-63254819D01*
X70825000Y-63254819D02*
X70729762Y-63397676D01*
X70729762Y-63397676D02*
X70634524Y-63492914D01*
X70634524Y-63492914D02*
X70539286Y-63540533D01*
D12*
X63057419Y-114523333D02*
X63771704Y-114523333D01*
X63771704Y-114523333D02*
X63914561Y-114570952D01*
X63914561Y-114570952D02*
X64009800Y-114666190D01*
X64009800Y-114666190D02*
X64057419Y-114809047D01*
X64057419Y-114809047D02*
X64057419Y-114904285D01*
X63057419Y-113570952D02*
X63057419Y-114047142D01*
X63057419Y-114047142D02*
X63533609Y-114094761D01*
X63533609Y-114094761D02*
X63485990Y-114047142D01*
X63485990Y-114047142D02*
X63438371Y-113951904D01*
X63438371Y-113951904D02*
X63438371Y-113713809D01*
X63438371Y-113713809D02*
X63485990Y-113618571D01*
X63485990Y-113618571D02*
X63533609Y-113570952D01*
X63533609Y-113570952D02*
X63628847Y-113523333D01*
X63628847Y-113523333D02*
X63866942Y-113523333D01*
X63866942Y-113523333D02*
X63962180Y-113570952D01*
X63962180Y-113570952D02*
X64009800Y-113618571D01*
X64009800Y-113618571D02*
X64057419Y-113713809D01*
X64057419Y-113713809D02*
X64057419Y-113951904D01*
X64057419Y-113951904D02*
X64009800Y-114047142D01*
X64009800Y-114047142D02*
X63962180Y-114094761D01*
X127359965Y-105386235D02*
X127002822Y-104767645D01*
X127002822Y-104767645D02*
X126972633Y-104620118D01*
X126972633Y-104620118D02*
X127007493Y-104490020D01*
X127007493Y-104490020D02*
X127107401Y-104377352D01*
X127107401Y-104377352D02*
X127189880Y-104329733D01*
X126576418Y-105838616D02*
X126741375Y-105743378D01*
X126741375Y-105743378D02*
X126800045Y-105654519D01*
X126800045Y-105654519D02*
X126817474Y-105589470D01*
X126817474Y-105589470D02*
X126828524Y-105418133D01*
X126828524Y-105418133D02*
X126774526Y-105229367D01*
X126774526Y-105229367D02*
X126584049Y-104899452D01*
X126584049Y-104899452D02*
X126495191Y-104840783D01*
X126495191Y-104840783D02*
X126430142Y-104823353D01*
X126430142Y-104823353D02*
X126323854Y-104829733D01*
X126323854Y-104829733D02*
X126158897Y-104924971D01*
X126158897Y-104924971D02*
X126100228Y-105013830D01*
X126100228Y-105013830D02*
X126082798Y-105078878D01*
X126082798Y-105078878D02*
X126089178Y-105185167D01*
X126089178Y-105185167D02*
X126208225Y-105391363D01*
X126208225Y-105391363D02*
X126297084Y-105450032D01*
X126297084Y-105450032D02*
X126362133Y-105467462D01*
X126362133Y-105467462D02*
X126468421Y-105461082D01*
X126468421Y-105461082D02*
X126633378Y-105365844D01*
X126633378Y-105365844D02*
X126692047Y-105276986D01*
X126692047Y-105276986D02*
X126709477Y-105211937D01*
X126709477Y-105211937D02*
X126703097Y-105105649D01*
X65142580Y-76241666D02*
X64428295Y-76241666D01*
X64428295Y-76241666D02*
X64285438Y-76194047D01*
X64285438Y-76194047D02*
X64190200Y-76098809D01*
X64190200Y-76098809D02*
X64142580Y-75955952D01*
X64142580Y-75955952D02*
X64142580Y-75860714D01*
X64809247Y-77146428D02*
X64142580Y-77146428D01*
X65190200Y-76908333D02*
X64475914Y-76670238D01*
X64475914Y-76670238D02*
X64475914Y-77289285D01*
D13*
X74236905Y-122279819D02*
X74236905Y-121279819D01*
X74236905Y-121279819D02*
X74475000Y-121279819D01*
X74475000Y-121279819D02*
X74617857Y-121327438D01*
X74617857Y-121327438D02*
X74713095Y-121422676D01*
X74713095Y-121422676D02*
X74760714Y-121517914D01*
X74760714Y-121517914D02*
X74808333Y-121708390D01*
X74808333Y-121708390D02*
X74808333Y-121851247D01*
X74808333Y-121851247D02*
X74760714Y-122041723D01*
X74760714Y-122041723D02*
X74713095Y-122136961D01*
X74713095Y-122136961D02*
X74617857Y-122232200D01*
X74617857Y-122232200D02*
X74475000Y-122279819D01*
X74475000Y-122279819D02*
X74236905Y-122279819D01*
X75713095Y-121279819D02*
X75236905Y-121279819D01*
X75236905Y-121279819D02*
X75189286Y-121756009D01*
X75189286Y-121756009D02*
X75236905Y-121708390D01*
X75236905Y-121708390D02*
X75332143Y-121660771D01*
X75332143Y-121660771D02*
X75570238Y-121660771D01*
X75570238Y-121660771D02*
X75665476Y-121708390D01*
X75665476Y-121708390D02*
X75713095Y-121756009D01*
X75713095Y-121756009D02*
X75760714Y-121851247D01*
X75760714Y-121851247D02*
X75760714Y-122089342D01*
X75760714Y-122089342D02*
X75713095Y-122184580D01*
X75713095Y-122184580D02*
X75665476Y-122232200D01*
X75665476Y-122232200D02*
X75570238Y-122279819D01*
X75570238Y-122279819D02*
X75332143Y-122279819D01*
X75332143Y-122279819D02*
X75236905Y-122232200D01*
X75236905Y-122232200D02*
X75189286Y-122184580D01*
X71110714Y-124179819D02*
X70539286Y-124179819D01*
X70825000Y-124179819D02*
X70825000Y-123179819D01*
X70825000Y-123179819D02*
X70729762Y-123322676D01*
X70729762Y-123322676D02*
X70634524Y-123417914D01*
X70634524Y-123417914D02*
X70539286Y-123465533D01*
D12*
X84515625Y-127703764D02*
X84872768Y-128322354D01*
X84872768Y-128322354D02*
X84902957Y-128469881D01*
X84902957Y-128469881D02*
X84868097Y-128599979D01*
X84868097Y-128599979D02*
X84768189Y-128712647D01*
X84768189Y-128712647D02*
X84685710Y-128760266D01*
X84845539Y-127513288D02*
X85422890Y-127179955D01*
X85422890Y-127179955D02*
X85551736Y-128260266D01*
D13*
X81111905Y-92304819D02*
X81111905Y-91304819D01*
X81111905Y-91304819D02*
X81350000Y-91304819D01*
X81350000Y-91304819D02*
X81492857Y-91352438D01*
X81492857Y-91352438D02*
X81588095Y-91447676D01*
X81588095Y-91447676D02*
X81635714Y-91542914D01*
X81635714Y-91542914D02*
X81683333Y-91733390D01*
X81683333Y-91733390D02*
X81683333Y-91876247D01*
X81683333Y-91876247D02*
X81635714Y-92066723D01*
X81635714Y-92066723D02*
X81588095Y-92161961D01*
X81588095Y-92161961D02*
X81492857Y-92257200D01*
X81492857Y-92257200D02*
X81350000Y-92304819D01*
X81350000Y-92304819D02*
X81111905Y-92304819D01*
X82540476Y-91304819D02*
X82350000Y-91304819D01*
X82350000Y-91304819D02*
X82254762Y-91352438D01*
X82254762Y-91352438D02*
X82207143Y-91400057D01*
X82207143Y-91400057D02*
X82111905Y-91542914D01*
X82111905Y-91542914D02*
X82064286Y-91733390D01*
X82064286Y-91733390D02*
X82064286Y-92114342D01*
X82064286Y-92114342D02*
X82111905Y-92209580D01*
X82111905Y-92209580D02*
X82159524Y-92257200D01*
X82159524Y-92257200D02*
X82254762Y-92304819D01*
X82254762Y-92304819D02*
X82445238Y-92304819D01*
X82445238Y-92304819D02*
X82540476Y-92257200D01*
X82540476Y-92257200D02*
X82588095Y-92209580D01*
X82588095Y-92209580D02*
X82635714Y-92114342D01*
X82635714Y-92114342D02*
X82635714Y-91876247D01*
X82635714Y-91876247D02*
X82588095Y-91781009D01*
X82588095Y-91781009D02*
X82540476Y-91733390D01*
X82540476Y-91733390D02*
X82445238Y-91685771D01*
X82445238Y-91685771D02*
X82254762Y-91685771D01*
X82254762Y-91685771D02*
X82159524Y-91733390D01*
X82159524Y-91733390D02*
X82111905Y-91781009D01*
X82111905Y-91781009D02*
X82064286Y-91876247D01*
X77985714Y-94204819D02*
X77414286Y-94204819D01*
X77700000Y-94204819D02*
X77700000Y-93204819D01*
X77700000Y-93204819D02*
X77604762Y-93347676D01*
X77604762Y-93347676D02*
X77509524Y-93442914D01*
X77509524Y-93442914D02*
X77414286Y-93490533D01*
D12*
X109100000Y-90895000D02*
X88900000Y-90895000D01*
X88900000Y-90895000D02*
X88900000Y-101595000D01*
X88900000Y-101595000D02*
X109100000Y-101595000D01*
X109100000Y-101595000D02*
X109100000Y-90895000D01*
D14*
X122710000Y-94226248D02*
X122710000Y-94748752D01*
X121240000Y-94226248D02*
X121240000Y-94748752D01*
X97250000Y-107575000D02*
X104550000Y-107575000D01*
X97250000Y-113075000D02*
X104550000Y-113075000D01*
X104550000Y-113075000D02*
X104550000Y-111925000D01*
X123200000Y-92625000D02*
X130500000Y-92625000D01*
X123200000Y-98125000D02*
X130500000Y-98125000D01*
X130500000Y-98125000D02*
X130500000Y-96975000D01*
X97275000Y-77650000D02*
X104575000Y-77650000D01*
X97275000Y-83150000D02*
X104575000Y-83150000D01*
X104575000Y-83150000D02*
X104575000Y-82000000D01*
X71325000Y-62650000D02*
X78625000Y-62650000D01*
X71325000Y-68150000D02*
X78625000Y-68150000D01*
X78625000Y-68150000D02*
X78625000Y-67000000D01*
X71325000Y-122575000D02*
X78625000Y-122575000D01*
X71325000Y-128075000D02*
X78625000Y-128075000D01*
X78625000Y-128075000D02*
X78625000Y-126925000D01*
X96760000Y-109201248D02*
X96760000Y-109723752D01*
X95290000Y-109201248D02*
X95290000Y-109723752D01*
X70885000Y-64276248D02*
X70885000Y-64798752D01*
X69415000Y-64276248D02*
X69415000Y-64798752D01*
X78200000Y-92600000D02*
X85500000Y-92600000D01*
X78200000Y-98100000D02*
X85500000Y-98100000D01*
X85500000Y-98100000D02*
X85500000Y-96950000D01*
X70810000Y-124201248D02*
X70810000Y-124723752D01*
X69340000Y-124201248D02*
X69340000Y-124723752D01*
X96835000Y-79276248D02*
X96835000Y-79798752D01*
X95365000Y-79276248D02*
X95365000Y-79798752D01*
X77935000Y-94226248D02*
X77935000Y-94748752D01*
X76465000Y-94226248D02*
X76465000Y-94748752D01*
%LPC*%
G36*
G01*
X73400000Y-98449000D02*
X73400000Y-99211000D01*
G75*
G02*
X73019000Y-99592000I-381000J0D01*
G01*
X69781000Y-99592000D01*
G75*
G02*
X69400000Y-99211000I0J381000D01*
G01*
X69400000Y-98449000D01*
G75*
G02*
X69781000Y-98068000I381000J0D01*
G01*
X73019000Y-98068000D01*
G75*
G02*
X73400000Y-98449000I0J-381000D01*
G01*
G37*
G36*
G01*
X73400000Y-95909000D02*
X73400000Y-96671000D01*
G75*
G02*
X73019000Y-97052000I-381000J0D01*
G01*
X69781000Y-97052000D01*
G75*
G02*
X69400000Y-96671000I0J381000D01*
G01*
X69400000Y-95909000D01*
G75*
G02*
X69781000Y-95528000I381000J0D01*
G01*
X73019000Y-95528000D01*
G75*
G02*
X73400000Y-95909000I0J-381000D01*
G01*
G37*
G36*
G01*
X73400000Y-93369000D02*
X73400000Y-94131000D01*
G75*
G02*
X73019000Y-94512000I-381000J0D01*
G01*
X69781000Y-94512000D01*
G75*
G02*
X69400000Y-94131000I0J381000D01*
G01*
X69400000Y-93369000D01*
G75*
G02*
X69781000Y-92988000I381000J0D01*
G01*
X73019000Y-92988000D01*
G75*
G02*
X73400000Y-93369000I0J-381000D01*
G01*
G37*
G36*
G01*
X73400000Y-90829000D02*
X73400000Y-91591000D01*
G75*
G02*
X73019000Y-91972000I-381000J0D01*
G01*
X69781000Y-91972000D01*
G75*
G02*
X69400000Y-91591000I0J381000D01*
G01*
X69400000Y-90829000D01*
G75*
G02*
X69781000Y-90448000I381000J0D01*
G01*
X73019000Y-90448000D01*
G75*
G02*
X73400000Y-90829000I0J-381000D01*
G01*
G37*
G36*
G01*
X106857000Y-92856000D02*
X106857000Y-92094000D01*
G75*
G02*
X107238000Y-91713000I381000J0D01*
G01*
X108762000Y-91713000D01*
G75*
G02*
X109143000Y-92094000I0J-381000D01*
G01*
X109143000Y-92856000D01*
G75*
G02*
X108762000Y-93237000I-381000J0D01*
G01*
X107238000Y-93237000D01*
G75*
G02*
X106857000Y-92856000I0J381000D01*
G01*
G37*
G36*
G01*
X106857000Y-95396000D02*
X106857000Y-94634000D01*
G75*
G02*
X107238000Y-94253000I381000J0D01*
G01*
X108762000Y-94253000D01*
G75*
G02*
X109143000Y-94634000I0J-381000D01*
G01*
X109143000Y-95396000D01*
G75*
G02*
X108762000Y-95777000I-381000J0D01*
G01*
X107238000Y-95777000D01*
G75*
G02*
X106857000Y-95396000I0J381000D01*
G01*
G37*
G36*
G01*
X106857000Y-97936000D02*
X106857000Y-97174000D01*
G75*
G02*
X107238000Y-96793000I381000J0D01*
G01*
X108762000Y-96793000D01*
G75*
G02*
X109143000Y-97174000I0J-381000D01*
G01*
X109143000Y-97936000D01*
G75*
G02*
X108762000Y-98317000I-381000J0D01*
G01*
X107238000Y-98317000D01*
G75*
G02*
X106857000Y-97936000I0J381000D01*
G01*
G37*
G36*
G01*
X106857000Y-100476000D02*
X106857000Y-99714000D01*
G75*
G02*
X107238000Y-99333000I381000J0D01*
G01*
X108762000Y-99333000D01*
G75*
G02*
X109143000Y-99714000I0J-381000D01*
G01*
X109143000Y-100476000D01*
G75*
G02*
X108762000Y-100857000I-381000J0D01*
G01*
X107238000Y-100857000D01*
G75*
G02*
X106857000Y-100476000I0J381000D01*
G01*
G37*
D15*
X114775000Y-96000000D03*
G36*
G01*
X84655547Y-64207551D02*
X83995635Y-63826551D01*
G75*
G02*
X83856179Y-63306095I190500J329956D01*
G01*
X85475179Y-60501905D01*
G75*
G02*
X85995635Y-60362449I329956J-190500D01*
G01*
X86655547Y-60743449D01*
G75*
G02*
X86795003Y-61263905I-190500J-329956D01*
G01*
X85176003Y-64068095D01*
G75*
G02*
X84655547Y-64207551I-329956J190500D01*
G01*
G37*
G36*
G01*
X86855252Y-65477551D02*
X86195340Y-65096551D01*
G75*
G02*
X86055884Y-64576095I190500J329956D01*
G01*
X87674884Y-61771905D01*
G75*
G02*
X88195340Y-61632449I329956J-190500D01*
G01*
X88855252Y-62013449D01*
G75*
G02*
X88994708Y-62533905I-190500J-329956D01*
G01*
X87375708Y-65338095D01*
G75*
G02*
X86855252Y-65477551I-329956J190500D01*
G01*
G37*
G36*
G01*
X89054956Y-66747551D02*
X88395044Y-66366551D01*
G75*
G02*
X88255588Y-65846095I190500J329956D01*
G01*
X89874588Y-63041905D01*
G75*
G02*
X90395044Y-62902449I329956J-190500D01*
G01*
X91054956Y-63283449D01*
G75*
G02*
X91194412Y-63803905I-190500J-329956D01*
G01*
X89575412Y-66608095D01*
G75*
G02*
X89054956Y-66747551I-329956J190500D01*
G01*
G37*
G36*
G01*
X91254661Y-68017551D02*
X90594749Y-67636551D01*
G75*
G02*
X90455293Y-67116095I190500J329956D01*
G01*
X92074293Y-64311905D01*
G75*
G02*
X92594749Y-64172449I329956J-190500D01*
G01*
X93254661Y-64553449D01*
G75*
G02*
X93394117Y-65073905I-190500J-329956D01*
G01*
X91775117Y-67878095D01*
G75*
G02*
X91254661Y-68017551I-329956J190500D01*
G01*
G37*
X68075000Y-55950000D03*
G36*
G01*
X121500000Y-92862500D02*
X122450000Y-92862500D01*
G75*
G02*
X122700000Y-93112500I0J-250000D01*
G01*
X122700000Y-93787500D01*
G75*
G02*
X122450000Y-94037500I-250000J0D01*
G01*
X121500000Y-94037500D01*
G75*
G02*
X121250000Y-93787500I0J250000D01*
G01*
X121250000Y-93112500D01*
G75*
G02*
X121500000Y-92862500I250000J0D01*
G01*
G37*
G36*
G01*
X121500000Y-94937500D02*
X122450000Y-94937500D01*
G75*
G02*
X122700000Y-95187500I0J-250000D01*
G01*
X122700000Y-95862500D01*
G75*
G02*
X122450000Y-96112500I-250000J0D01*
G01*
X121500000Y-96112500D01*
G75*
G02*
X121250000Y-95862500I0J250000D01*
G01*
X121250000Y-95187500D01*
G75*
G02*
X121500000Y-94937500I250000J0D01*
G01*
G37*
D16*
X98450000Y-108675000D03*
X98450000Y-111975000D03*
X103350000Y-111975000D03*
X103350000Y-108675000D03*
X124400000Y-93725000D03*
X124400000Y-97025000D03*
X129300000Y-97025000D03*
X129300000Y-93725000D03*
G36*
G01*
X127244749Y-84197449D02*
X127904661Y-84578449D01*
G75*
G02*
X128044117Y-85098905I-190500J-329956D01*
G01*
X126425117Y-87903095D01*
G75*
G02*
X125904661Y-88042551I-329956J190500D01*
G01*
X125244749Y-87661551D01*
G75*
G02*
X125105293Y-87141095I190500J329956D01*
G01*
X126724293Y-84336905D01*
G75*
G02*
X127244749Y-84197449I329956J-190500D01*
G01*
G37*
G36*
G01*
X125045044Y-82927449D02*
X125704956Y-83308449D01*
G75*
G02*
X125844412Y-83828905I-190500J-329956D01*
G01*
X124225412Y-86633095D01*
G75*
G02*
X123704956Y-86772551I-329956J190500D01*
G01*
X123045044Y-86391551D01*
G75*
G02*
X122905588Y-85871095I190500J329956D01*
G01*
X124524588Y-83066905D01*
G75*
G02*
X125045044Y-82927449I329956J-190500D01*
G01*
G37*
G36*
G01*
X122845340Y-81657449D02*
X123505252Y-82038449D01*
G75*
G02*
X123644708Y-82558905I-190500J-329956D01*
G01*
X122025708Y-85363095D01*
G75*
G02*
X121505252Y-85502551I-329956J190500D01*
G01*
X120845340Y-85121551D01*
G75*
G02*
X120705884Y-84601095I190500J329956D01*
G01*
X122324884Y-81796905D01*
G75*
G02*
X122845340Y-81657449I329956J-190500D01*
G01*
G37*
G36*
G01*
X120645635Y-80387449D02*
X121305547Y-80768449D01*
G75*
G02*
X121445003Y-81288905I-190500J-329956D01*
G01*
X119826003Y-84093095D01*
G75*
G02*
X119305547Y-84232551I-329956J190500D01*
G01*
X118645635Y-83851551D01*
G75*
G02*
X118506179Y-83331095I190500J329956D01*
G01*
X120125179Y-80526905D01*
G75*
G02*
X120645635Y-80387449I329956J-190500D01*
G01*
G37*
X98475000Y-78750000D03*
X98475000Y-82050000D03*
X103375000Y-82050000D03*
X103375000Y-78750000D03*
X72525000Y-63750000D03*
X72525000Y-67050000D03*
X77425000Y-67050000D03*
X77425000Y-63750000D03*
G36*
G01*
X66100000Y-113809000D02*
X66100000Y-114571000D01*
G75*
G02*
X65719000Y-114952000I-381000J0D01*
G01*
X62481000Y-114952000D01*
G75*
G02*
X62100000Y-114571000I0J381000D01*
G01*
X62100000Y-113809000D01*
G75*
G02*
X62481000Y-113428000I381000J0D01*
G01*
X65719000Y-113428000D01*
G75*
G02*
X66100000Y-113809000I0J-381000D01*
G01*
G37*
G36*
G01*
X66100000Y-111269000D02*
X66100000Y-112031000D01*
G75*
G02*
X65719000Y-112412000I-381000J0D01*
G01*
X62481000Y-112412000D01*
G75*
G02*
X62100000Y-112031000I0J381000D01*
G01*
X62100000Y-111269000D01*
G75*
G02*
X62481000Y-110888000I381000J0D01*
G01*
X65719000Y-110888000D01*
G75*
G02*
X66100000Y-111269000I0J-381000D01*
G01*
G37*
G36*
G01*
X66100000Y-108729000D02*
X66100000Y-109491000D01*
G75*
G02*
X65719000Y-109872000I-381000J0D01*
G01*
X62481000Y-109872000D01*
G75*
G02*
X62100000Y-109491000I0J381000D01*
G01*
X62100000Y-108729000D01*
G75*
G02*
X62481000Y-108348000I381000J0D01*
G01*
X65719000Y-108348000D01*
G75*
G02*
X66100000Y-108729000I0J-381000D01*
G01*
G37*
G36*
G01*
X66100000Y-106189000D02*
X66100000Y-106951000D01*
G75*
G02*
X65719000Y-107332000I-381000J0D01*
G01*
X62481000Y-107332000D01*
G75*
G02*
X62100000Y-106951000I0J381000D01*
G01*
X62100000Y-106189000D01*
G75*
G02*
X62481000Y-105808000I381000J0D01*
G01*
X65719000Y-105808000D01*
G75*
G02*
X66100000Y-106189000I0J-381000D01*
G01*
G37*
G36*
G01*
X125220044Y-103108449D02*
X125879956Y-102727449D01*
G75*
G02*
X126400412Y-102866905I190500J-329956D01*
G01*
X128019412Y-105671095D01*
G75*
G02*
X127879956Y-106191551I-329956J-190500D01*
G01*
X127220044Y-106572551D01*
G75*
G02*
X126699588Y-106433095I-190500J329956D01*
G01*
X125080588Y-103628905D01*
G75*
G02*
X125220044Y-103108449I329956J190500D01*
G01*
G37*
G36*
G01*
X123020339Y-104378449D02*
X123680251Y-103997449D01*
G75*
G02*
X124200707Y-104136905I190500J-329956D01*
G01*
X125819707Y-106941095D01*
G75*
G02*
X125680251Y-107461551I-329956J-190500D01*
G01*
X125020339Y-107842551D01*
G75*
G02*
X124499883Y-107703095I-190500J329956D01*
G01*
X122880883Y-104898905D01*
G75*
G02*
X123020339Y-104378449I329956J190500D01*
G01*
G37*
G36*
G01*
X120820635Y-105648449D02*
X121480547Y-105267449D01*
G75*
G02*
X122001003Y-105406905I190500J-329956D01*
G01*
X123620003Y-108211095D01*
G75*
G02*
X123480547Y-108731551I-329956J-190500D01*
G01*
X122820635Y-109112551D01*
G75*
G02*
X122300179Y-108973095I-190500J329956D01*
G01*
X120681179Y-106168905D01*
G75*
G02*
X120820635Y-105648449I329956J190500D01*
G01*
G37*
G36*
G01*
X118620930Y-106918449D02*
X119280842Y-106537449D01*
G75*
G02*
X119801298Y-106676905I190500J-329956D01*
G01*
X121420298Y-109481095D01*
G75*
G02*
X121280842Y-110001551I-329956J-190500D01*
G01*
X120620930Y-110382551D01*
G75*
G02*
X120100474Y-110243095I-190500J329956D01*
G01*
X118481474Y-107438905D01*
G75*
G02*
X118620930Y-106918449I329956J190500D01*
G01*
G37*
G36*
G01*
X62100000Y-76956000D02*
X62100000Y-76194000D01*
G75*
G02*
X62481000Y-75813000I381000J0D01*
G01*
X65719000Y-75813000D01*
G75*
G02*
X66100000Y-76194000I0J-381000D01*
G01*
X66100000Y-76956000D01*
G75*
G02*
X65719000Y-77337000I-381000J0D01*
G01*
X62481000Y-77337000D01*
G75*
G02*
X62100000Y-76956000I0J381000D01*
G01*
G37*
G36*
G01*
X62100000Y-79496000D02*
X62100000Y-78734000D01*
G75*
G02*
X62481000Y-78353000I381000J0D01*
G01*
X65719000Y-78353000D01*
G75*
G02*
X66100000Y-78734000I0J-381000D01*
G01*
X66100000Y-79496000D01*
G75*
G02*
X65719000Y-79877000I-381000J0D01*
G01*
X62481000Y-79877000D01*
G75*
G02*
X62100000Y-79496000I0J381000D01*
G01*
G37*
G36*
G01*
X62100000Y-82036000D02*
X62100000Y-81274000D01*
G75*
G02*
X62481000Y-80893000I381000J0D01*
G01*
X65719000Y-80893000D01*
G75*
G02*
X66100000Y-81274000I0J-381000D01*
G01*
X66100000Y-82036000D01*
G75*
G02*
X65719000Y-82417000I-381000J0D01*
G01*
X62481000Y-82417000D01*
G75*
G02*
X62100000Y-82036000I0J381000D01*
G01*
G37*
G36*
G01*
X62100000Y-84576000D02*
X62100000Y-83814000D01*
G75*
G02*
X62481000Y-83433000I381000J0D01*
G01*
X65719000Y-83433000D01*
G75*
G02*
X66100000Y-83814000I0J-381000D01*
G01*
X66100000Y-84576000D01*
G75*
G02*
X65719000Y-84957000I-381000J0D01*
G01*
X62481000Y-84957000D01*
G75*
G02*
X62100000Y-84576000I0J381000D01*
G01*
G37*
X72525000Y-123675000D03*
X72525000Y-126975000D03*
X77425000Y-126975000D03*
X77425000Y-123675000D03*
G36*
G01*
X86655547Y-129981551D02*
X85995635Y-130362551D01*
G75*
G02*
X85475179Y-130223095I-190500J329956D01*
G01*
X83856179Y-127418905D01*
G75*
G02*
X83995635Y-126898449I329956J190500D01*
G01*
X84655547Y-126517449D01*
G75*
G02*
X85176003Y-126656905I190500J-329956D01*
G01*
X86795003Y-129461095D01*
G75*
G02*
X86655547Y-129981551I-329956J-190500D01*
G01*
G37*
G36*
G01*
X88855252Y-128711551D02*
X88195340Y-129092551D01*
G75*
G02*
X87674884Y-128953095I-190500J329956D01*
G01*
X86055884Y-126148905D01*
G75*
G02*
X86195340Y-125628449I329956J190500D01*
G01*
X86855252Y-125247449D01*
G75*
G02*
X87375708Y-125386905I190500J-329956D01*
G01*
X88994708Y-128191095D01*
G75*
G02*
X88855252Y-128711551I-329956J-190500D01*
G01*
G37*
G36*
G01*
X91054956Y-127441551D02*
X90395044Y-127822551D01*
G75*
G02*
X89874588Y-127683095I-190500J329956D01*
G01*
X88255588Y-124878905D01*
G75*
G02*
X88395044Y-124358449I329956J190500D01*
G01*
X89054956Y-123977449D01*
G75*
G02*
X89575412Y-124116905I190500J-329956D01*
G01*
X91194412Y-126921095D01*
G75*
G02*
X91054956Y-127441551I-329956J-190500D01*
G01*
G37*
G36*
G01*
X93254661Y-126171551D02*
X92594749Y-126552551D01*
G75*
G02*
X92074293Y-126413095I-190500J329956D01*
G01*
X90455293Y-123608905D01*
G75*
G02*
X90594749Y-123088449I329956J190500D01*
G01*
X91254661Y-122707449D01*
G75*
G02*
X91775117Y-122846905I190500J-329956D01*
G01*
X93394117Y-125651095D01*
G75*
G02*
X93254661Y-126171551I-329956J-190500D01*
G01*
G37*
G36*
G01*
X95550000Y-107837500D02*
X96500000Y-107837500D01*
G75*
G02*
X96750000Y-108087500I0J-250000D01*
G01*
X96750000Y-108762500D01*
G75*
G02*
X96500000Y-109012500I-250000J0D01*
G01*
X95550000Y-109012500D01*
G75*
G02*
X95300000Y-108762500I0J250000D01*
G01*
X95300000Y-108087500D01*
G75*
G02*
X95550000Y-107837500I250000J0D01*
G01*
G37*
G36*
G01*
X95550000Y-109912500D02*
X96500000Y-109912500D01*
G75*
G02*
X96750000Y-110162500I0J-250000D01*
G01*
X96750000Y-110837500D01*
G75*
G02*
X96500000Y-111087500I-250000J0D01*
G01*
X95550000Y-111087500D01*
G75*
G02*
X95300000Y-110837500I0J250000D01*
G01*
X95300000Y-110162500D01*
G75*
G02*
X95550000Y-109912500I250000J0D01*
G01*
G37*
G36*
G01*
X69675000Y-62912500D02*
X70625000Y-62912500D01*
G75*
G02*
X70875000Y-63162500I0J-250000D01*
G01*
X70875000Y-63837500D01*
G75*
G02*
X70625000Y-64087500I-250000J0D01*
G01*
X69675000Y-64087500D01*
G75*
G02*
X69425000Y-63837500I0J250000D01*
G01*
X69425000Y-63162500D01*
G75*
G02*
X69675000Y-62912500I250000J0D01*
G01*
G37*
G36*
G01*
X69675000Y-64987500D02*
X70625000Y-64987500D01*
G75*
G02*
X70875000Y-65237500I0J-250000D01*
G01*
X70875000Y-65912500D01*
G75*
G02*
X70625000Y-66162500I-250000J0D01*
G01*
X69675000Y-66162500D01*
G75*
G02*
X69425000Y-65912500I0J250000D01*
G01*
X69425000Y-65237500D01*
G75*
G02*
X69675000Y-64987500I250000J0D01*
G01*
G37*
X79400000Y-93700000D03*
X79400000Y-97000000D03*
X84300000Y-97000000D03*
X84300000Y-93700000D03*
D15*
X68575000Y-133250000D03*
G36*
G01*
X69600000Y-122837500D02*
X70550000Y-122837500D01*
G75*
G02*
X70800000Y-123087500I0J-250000D01*
G01*
X70800000Y-123762500D01*
G75*
G02*
X70550000Y-124012500I-250000J0D01*
G01*
X69600000Y-124012500D01*
G75*
G02*
X69350000Y-123762500I0J250000D01*
G01*
X69350000Y-123087500D01*
G75*
G02*
X69600000Y-122837500I250000J0D01*
G01*
G37*
G36*
G01*
X69600000Y-124912500D02*
X70550000Y-124912500D01*
G75*
G02*
X70800000Y-125162500I0J-250000D01*
G01*
X70800000Y-125837500D01*
G75*
G02*
X70550000Y-126087500I-250000J0D01*
G01*
X69600000Y-126087500D01*
G75*
G02*
X69350000Y-125837500I0J250000D01*
G01*
X69350000Y-125162500D01*
G75*
G02*
X69600000Y-124912500I250000J0D01*
G01*
G37*
G36*
G01*
X95625000Y-77912500D02*
X96575000Y-77912500D01*
G75*
G02*
X96825000Y-78162500I0J-250000D01*
G01*
X96825000Y-78837500D01*
G75*
G02*
X96575000Y-79087500I-250000J0D01*
G01*
X95625000Y-79087500D01*
G75*
G02*
X95375000Y-78837500I0J250000D01*
G01*
X95375000Y-78162500D01*
G75*
G02*
X95625000Y-77912500I250000J0D01*
G01*
G37*
G36*
G01*
X95625000Y-79987500D02*
X96575000Y-79987500D01*
G75*
G02*
X96825000Y-80237500I0J-250000D01*
G01*
X96825000Y-80912500D01*
G75*
G02*
X96575000Y-81162500I-250000J0D01*
G01*
X95625000Y-81162500D01*
G75*
G02*
X95375000Y-80912500I0J250000D01*
G01*
X95375000Y-80237500D01*
G75*
G02*
X95625000Y-79987500I250000J0D01*
G01*
G37*
G36*
G01*
X76725000Y-92862500D02*
X77675000Y-92862500D01*
G75*
G02*
X77925000Y-93112500I0J-250000D01*
G01*
X77925000Y-93787500D01*
G75*
G02*
X77675000Y-94037500I-250000J0D01*
G01*
X76725000Y-94037500D01*
G75*
G02*
X76475000Y-93787500I0J250000D01*
G01*
X76475000Y-93112500D01*
G75*
G02*
X76725000Y-92862500I250000J0D01*
G01*
G37*
G36*
G01*
X76725000Y-94937500D02*
X77675000Y-94937500D01*
G75*
G02*
X77925000Y-95187500I0J-250000D01*
G01*
X77925000Y-95862500D01*
G75*
G02*
X77675000Y-96112500I-250000J0D01*
G01*
X76725000Y-96112500D01*
G75*
G02*
X76475000Y-95862500I0J250000D01*
G01*
X76475000Y-95187500D01*
G75*
G02*
X76725000Y-94937500I250000J0D01*
G01*
G37*
%LPD*%
M02*
