G04 #@! TF.GenerationSoftware,KiCad,Pcbnew,7.0.11+1*
G04 #@! TF.ProjectId,makerspace_sign,6d616b65-7273-4706-9163-655f7369676e,rev?*
G04 #@! TF.SameCoordinates,Original*
G04 #@! TF.FileFunction,Copper,L1,Top*
G04 #@! TF.FilePolarity,Positive*
%FSLAX46Y46*%
G04 Gerber Fmt 4.6, Leading zero omitted, Abs format (unit mm)*
%MOMM*%
%LPD*%
G01*
G04 APERTURE LIST*
G04 #@! TA.AperFunction,Profile*
%ADD10C,0.200000*%
G04 #@! TD*
G04 #@! TA.AperFunction,SMDPad,CuDef*
%ADD11R,1.500000X0.900000*%
G04 #@! TD*
G04 #@! TA.AperFunction,ViaPad*
%ADD12C,1.200000*%
G04 #@! TD*
G04 #@! TA.AperFunction,Conductor*
%ADD13C,0.600000*%
G04 #@! TD*
G04 APERTURE END LIST*
D10*
X61975000Y-144375000D02*
X138185236Y-100375000D01*
X61975000Y-100375000D02*
G75*
G03*
X61975000Y-90375000I0J5000000D01*
G01*
X138185236Y-90375000D02*
X61975000Y-46375000D01*
X138185236Y-100375000D02*
X138185236Y-90375000D01*
X61975000Y-46375000D02*
X61975000Y-90375000D01*
X61975000Y-100375000D02*
X61975000Y-144375000D01*
G04 #@! TA.AperFunction,SMDPad,CuDef*
G36*
G01*
X73400000Y-98449000D02*
X73400000Y-99211000D01*
G75*
G02*
X73019000Y-99592000I-381000J0D01*
G01*
X69781000Y-99592000D01*
G75*
G02*
X69400000Y-99211000I0J381000D01*
G01*
X69400000Y-98449000D01*
G75*
G02*
X69781000Y-98068000I381000J0D01*
G01*
X73019000Y-98068000D01*
G75*
G02*
X73400000Y-98449000I0J-381000D01*
G01*
G37*
G04 #@! TD.AperFunction*
G04 #@! TA.AperFunction,SMDPad,CuDef*
G36*
G01*
X73400000Y-95909000D02*
X73400000Y-96671000D01*
G75*
G02*
X73019000Y-97052000I-381000J0D01*
G01*
X69781000Y-97052000D01*
G75*
G02*
X69400000Y-96671000I0J381000D01*
G01*
X69400000Y-95909000D01*
G75*
G02*
X69781000Y-95528000I381000J0D01*
G01*
X73019000Y-95528000D01*
G75*
G02*
X73400000Y-95909000I0J-381000D01*
G01*
G37*
G04 #@! TD.AperFunction*
G04 #@! TA.AperFunction,SMDPad,CuDef*
G36*
G01*
X73400000Y-93369000D02*
X73400000Y-94131000D01*
G75*
G02*
X73019000Y-94512000I-381000J0D01*
G01*
X69781000Y-94512000D01*
G75*
G02*
X69400000Y-94131000I0J381000D01*
G01*
X69400000Y-93369000D01*
G75*
G02*
X69781000Y-92988000I381000J0D01*
G01*
X73019000Y-92988000D01*
G75*
G02*
X73400000Y-93369000I0J-381000D01*
G01*
G37*
G04 #@! TD.AperFunction*
G04 #@! TA.AperFunction,SMDPad,CuDef*
G36*
G01*
X73400000Y-90829000D02*
X73400000Y-91591000D01*
G75*
G02*
X73019000Y-91972000I-381000J0D01*
G01*
X69781000Y-91972000D01*
G75*
G02*
X69400000Y-91591000I0J381000D01*
G01*
X69400000Y-90829000D01*
G75*
G02*
X69781000Y-90448000I381000J0D01*
G01*
X73019000Y-90448000D01*
G75*
G02*
X73400000Y-90829000I0J-381000D01*
G01*
G37*
G04 #@! TD.AperFunction*
G04 #@! TA.AperFunction,SMDPad,CuDef*
G36*
G01*
X106857000Y-92856000D02*
X106857000Y-92094000D01*
G75*
G02*
X107238000Y-91713000I381000J0D01*
G01*
X108762000Y-91713000D01*
G75*
G02*
X109143000Y-92094000I0J-381000D01*
G01*
X109143000Y-92856000D01*
G75*
G02*
X108762000Y-93237000I-381000J0D01*
G01*
X107238000Y-93237000D01*
G75*
G02*
X106857000Y-92856000I0J381000D01*
G01*
G37*
G04 #@! TD.AperFunction*
G04 #@! TA.AperFunction,SMDPad,CuDef*
G36*
G01*
X106857000Y-95396000D02*
X106857000Y-94634000D01*
G75*
G02*
X107238000Y-94253000I381000J0D01*
G01*
X108762000Y-94253000D01*
G75*
G02*
X109143000Y-94634000I0J-381000D01*
G01*
X109143000Y-95396000D01*
G75*
G02*
X108762000Y-95777000I-381000J0D01*
G01*
X107238000Y-95777000D01*
G75*
G02*
X106857000Y-95396000I0J381000D01*
G01*
G37*
G04 #@! TD.AperFunction*
G04 #@! TA.AperFunction,SMDPad,CuDef*
G36*
G01*
X106857000Y-97936000D02*
X106857000Y-97174000D01*
G75*
G02*
X107238000Y-96793000I381000J0D01*
G01*
X108762000Y-96793000D01*
G75*
G02*
X109143000Y-97174000I0J-381000D01*
G01*
X109143000Y-97936000D01*
G75*
G02*
X108762000Y-98317000I-381000J0D01*
G01*
X107238000Y-98317000D01*
G75*
G02*
X106857000Y-97936000I0J381000D01*
G01*
G37*
G04 #@! TD.AperFunction*
G04 #@! TA.AperFunction,SMDPad,CuDef*
G36*
G01*
X106857000Y-100476000D02*
X106857000Y-99714000D01*
G75*
G02*
X107238000Y-99333000I381000J0D01*
G01*
X108762000Y-99333000D01*
G75*
G02*
X109143000Y-99714000I0J-381000D01*
G01*
X109143000Y-100476000D01*
G75*
G02*
X108762000Y-100857000I-381000J0D01*
G01*
X107238000Y-100857000D01*
G75*
G02*
X106857000Y-100476000I0J381000D01*
G01*
G37*
G04 #@! TD.AperFunction*
G04 #@! TA.AperFunction,SMDPad,CuDef*
G36*
G01*
X84655547Y-64207551D02*
X83995635Y-63826551D01*
G75*
G02*
X83856179Y-63306095I190500J329956D01*
G01*
X85475179Y-60501905D01*
G75*
G02*
X85995635Y-60362449I329956J-190500D01*
G01*
X86655547Y-60743449D01*
G75*
G02*
X86795003Y-61263905I-190500J-329956D01*
G01*
X85176003Y-64068095D01*
G75*
G02*
X84655547Y-64207551I-329956J190500D01*
G01*
G37*
G04 #@! TD.AperFunction*
G04 #@! TA.AperFunction,SMDPad,CuDef*
G36*
G01*
X86855252Y-65477551D02*
X86195340Y-65096551D01*
G75*
G02*
X86055884Y-64576095I190500J329956D01*
G01*
X87674884Y-61771905D01*
G75*
G02*
X88195340Y-61632449I329956J-190500D01*
G01*
X88855252Y-62013449D01*
G75*
G02*
X88994708Y-62533905I-190500J-329956D01*
G01*
X87375708Y-65338095D01*
G75*
G02*
X86855252Y-65477551I-329956J190500D01*
G01*
G37*
G04 #@! TD.AperFunction*
G04 #@! TA.AperFunction,SMDPad,CuDef*
G36*
G01*
X89054956Y-66747551D02*
X88395044Y-66366551D01*
G75*
G02*
X88255588Y-65846095I190500J329956D01*
G01*
X89874588Y-63041905D01*
G75*
G02*
X90395044Y-62902449I329956J-190500D01*
G01*
X91054956Y-63283449D01*
G75*
G02*
X91194412Y-63803905I-190500J-329956D01*
G01*
X89575412Y-66608095D01*
G75*
G02*
X89054956Y-66747551I-329956J190500D01*
G01*
G37*
G04 #@! TD.AperFunction*
G04 #@! TA.AperFunction,SMDPad,CuDef*
G36*
G01*
X91254661Y-68017551D02*
X90594749Y-67636551D01*
G75*
G02*
X90455293Y-67116095I190500J329956D01*
G01*
X92074293Y-64311905D01*
G75*
G02*
X92594749Y-64172449I329956J-190500D01*
G01*
X93254661Y-64553449D01*
G75*
G02*
X93394117Y-65073905I-190500J-329956D01*
G01*
X91775117Y-67878095D01*
G75*
G02*
X91254661Y-68017551I-329956J190500D01*
G01*
G37*
G04 #@! TD.AperFunction*
G04 #@! TA.AperFunction,SMDPad,CuDef*
G36*
G01*
X121500000Y-92862500D02*
X122450000Y-92862500D01*
G75*
G02*
X122700000Y-93112500I0J-250000D01*
G01*
X122700000Y-93787500D01*
G75*
G02*
X122450000Y-94037500I-250000J0D01*
G01*
X121500000Y-94037500D01*
G75*
G02*
X121250000Y-93787500I0J250000D01*
G01*
X121250000Y-93112500D01*
G75*
G02*
X121500000Y-92862500I250000J0D01*
G01*
G37*
G04 #@! TD.AperFunction*
G04 #@! TA.AperFunction,SMDPad,CuDef*
G36*
G01*
X121500000Y-94937500D02*
X122450000Y-94937500D01*
G75*
G02*
X122700000Y-95187500I0J-250000D01*
G01*
X122700000Y-95862500D01*
G75*
G02*
X122450000Y-96112500I-250000J0D01*
G01*
X121500000Y-96112500D01*
G75*
G02*
X121250000Y-95862500I0J250000D01*
G01*
X121250000Y-95187500D01*
G75*
G02*
X121500000Y-94937500I250000J0D01*
G01*
G37*
G04 #@! TD.AperFunction*
D11*
X98450000Y-108675000D03*
X98450000Y-111975000D03*
X103350000Y-111975000D03*
X103350000Y-108675000D03*
X124400000Y-93725000D03*
X124400000Y-97025000D03*
X129300000Y-97025000D03*
X129300000Y-93725000D03*
G04 #@! TA.AperFunction,SMDPad,CuDef*
G36*
G01*
X127244749Y-84197449D02*
X127904661Y-84578449D01*
G75*
G02*
X128044117Y-85098905I-190500J-329956D01*
G01*
X126425117Y-87903095D01*
G75*
G02*
X125904661Y-88042551I-329956J190500D01*
G01*
X125244749Y-87661551D01*
G75*
G02*
X125105293Y-87141095I190500J329956D01*
G01*
X126724293Y-84336905D01*
G75*
G02*
X127244749Y-84197449I329956J-190500D01*
G01*
G37*
G04 #@! TD.AperFunction*
G04 #@! TA.AperFunction,SMDPad,CuDef*
G36*
G01*
X125045044Y-82927449D02*
X125704956Y-83308449D01*
G75*
G02*
X125844412Y-83828905I-190500J-329956D01*
G01*
X124225412Y-86633095D01*
G75*
G02*
X123704956Y-86772551I-329956J190500D01*
G01*
X123045044Y-86391551D01*
G75*
G02*
X122905588Y-85871095I190500J329956D01*
G01*
X124524588Y-83066905D01*
G75*
G02*
X125045044Y-82927449I329956J-190500D01*
G01*
G37*
G04 #@! TD.AperFunction*
G04 #@! TA.AperFunction,SMDPad,CuDef*
G36*
G01*
X122845340Y-81657449D02*
X123505252Y-82038449D01*
G75*
G02*
X123644708Y-82558905I-190500J-329956D01*
G01*
X122025708Y-85363095D01*
G75*
G02*
X121505252Y-85502551I-329956J190500D01*
G01*
X120845340Y-85121551D01*
G75*
G02*
X120705884Y-84601095I190500J329956D01*
G01*
X122324884Y-81796905D01*
G75*
G02*
X122845340Y-81657449I329956J-190500D01*
G01*
G37*
G04 #@! TD.AperFunction*
G04 #@! TA.AperFunction,SMDPad,CuDef*
G36*
G01*
X120645635Y-80387449D02*
X121305547Y-80768449D01*
G75*
G02*
X121445003Y-81288905I-190500J-329956D01*
G01*
X119826003Y-84093095D01*
G75*
G02*
X119305547Y-84232551I-329956J190500D01*
G01*
X118645635Y-83851551D01*
G75*
G02*
X118506179Y-83331095I190500J329956D01*
G01*
X120125179Y-80526905D01*
G75*
G02*
X120645635Y-80387449I329956J-190500D01*
G01*
G37*
G04 #@! TD.AperFunction*
X98475000Y-78750000D03*
X98475000Y-82050000D03*
X103375000Y-82050000D03*
X103375000Y-78750000D03*
X72525000Y-63750000D03*
X72525000Y-67050000D03*
X77425000Y-67050000D03*
X77425000Y-63750000D03*
G04 #@! TA.AperFunction,SMDPad,CuDef*
G36*
G01*
X66100000Y-113809000D02*
X66100000Y-114571000D01*
G75*
G02*
X65719000Y-114952000I-381000J0D01*
G01*
X62481000Y-114952000D01*
G75*
G02*
X62100000Y-114571000I0J381000D01*
G01*
X62100000Y-113809000D01*
G75*
G02*
X62481000Y-113428000I381000J0D01*
G01*
X65719000Y-113428000D01*
G75*
G02*
X66100000Y-113809000I0J-381000D01*
G01*
G37*
G04 #@! TD.AperFunction*
G04 #@! TA.AperFunction,SMDPad,CuDef*
G36*
G01*
X66100000Y-111269000D02*
X66100000Y-112031000D01*
G75*
G02*
X65719000Y-112412000I-381000J0D01*
G01*
X62481000Y-112412000D01*
G75*
G02*
X62100000Y-112031000I0J381000D01*
G01*
X62100000Y-111269000D01*
G75*
G02*
X62481000Y-110888000I381000J0D01*
G01*
X65719000Y-110888000D01*
G75*
G02*
X66100000Y-111269000I0J-381000D01*
G01*
G37*
G04 #@! TD.AperFunction*
G04 #@! TA.AperFunction,SMDPad,CuDef*
G36*
G01*
X66100000Y-108729000D02*
X66100000Y-109491000D01*
G75*
G02*
X65719000Y-109872000I-381000J0D01*
G01*
X62481000Y-109872000D01*
G75*
G02*
X62100000Y-109491000I0J381000D01*
G01*
X62100000Y-108729000D01*
G75*
G02*
X62481000Y-108348000I381000J0D01*
G01*
X65719000Y-108348000D01*
G75*
G02*
X66100000Y-108729000I0J-381000D01*
G01*
G37*
G04 #@! TD.AperFunction*
G04 #@! TA.AperFunction,SMDPad,CuDef*
G36*
G01*
X66100000Y-106189000D02*
X66100000Y-106951000D01*
G75*
G02*
X65719000Y-107332000I-381000J0D01*
G01*
X62481000Y-107332000D01*
G75*
G02*
X62100000Y-106951000I0J381000D01*
G01*
X62100000Y-106189000D01*
G75*
G02*
X62481000Y-105808000I381000J0D01*
G01*
X65719000Y-105808000D01*
G75*
G02*
X66100000Y-106189000I0J-381000D01*
G01*
G37*
G04 #@! TD.AperFunction*
G04 #@! TA.AperFunction,SMDPad,CuDef*
G36*
G01*
X125220044Y-103108449D02*
X125879956Y-102727449D01*
G75*
G02*
X126400412Y-102866905I190500J-329956D01*
G01*
X128019412Y-105671095D01*
G75*
G02*
X127879956Y-106191551I-329956J-190500D01*
G01*
X127220044Y-106572551D01*
G75*
G02*
X126699588Y-106433095I-190500J329956D01*
G01*
X125080588Y-103628905D01*
G75*
G02*
X125220044Y-103108449I329956J190500D01*
G01*
G37*
G04 #@! TD.AperFunction*
G04 #@! TA.AperFunction,SMDPad,CuDef*
G36*
G01*
X123020339Y-104378449D02*
X123680251Y-103997449D01*
G75*
G02*
X124200707Y-104136905I190500J-329956D01*
G01*
X125819707Y-106941095D01*
G75*
G02*
X125680251Y-107461551I-329956J-190500D01*
G01*
X125020339Y-107842551D01*
G75*
G02*
X124499883Y-107703095I-190500J329956D01*
G01*
X122880883Y-104898905D01*
G75*
G02*
X123020339Y-104378449I329956J190500D01*
G01*
G37*
G04 #@! TD.AperFunction*
G04 #@! TA.AperFunction,SMDPad,CuDef*
G36*
G01*
X120820635Y-105648449D02*
X121480547Y-105267449D01*
G75*
G02*
X122001003Y-105406905I190500J-329956D01*
G01*
X123620003Y-108211095D01*
G75*
G02*
X123480547Y-108731551I-329956J-190500D01*
G01*
X122820635Y-109112551D01*
G75*
G02*
X122300179Y-108973095I-190500J329956D01*
G01*
X120681179Y-106168905D01*
G75*
G02*
X120820635Y-105648449I329956J190500D01*
G01*
G37*
G04 #@! TD.AperFunction*
G04 #@! TA.AperFunction,SMDPad,CuDef*
G36*
G01*
X118620930Y-106918449D02*
X119280842Y-106537449D01*
G75*
G02*
X119801298Y-106676905I190500J-329956D01*
G01*
X121420298Y-109481095D01*
G75*
G02*
X121280842Y-110001551I-329956J-190500D01*
G01*
X120620930Y-110382551D01*
G75*
G02*
X120100474Y-110243095I-190500J329956D01*
G01*
X118481474Y-107438905D01*
G75*
G02*
X118620930Y-106918449I329956J190500D01*
G01*
G37*
G04 #@! TD.AperFunction*
G04 #@! TA.AperFunction,SMDPad,CuDef*
G36*
G01*
X62100000Y-76956000D02*
X62100000Y-76194000D01*
G75*
G02*
X62481000Y-75813000I381000J0D01*
G01*
X65719000Y-75813000D01*
G75*
G02*
X66100000Y-76194000I0J-381000D01*
G01*
X66100000Y-76956000D01*
G75*
G02*
X65719000Y-77337000I-381000J0D01*
G01*
X62481000Y-77337000D01*
G75*
G02*
X62100000Y-76956000I0J381000D01*
G01*
G37*
G04 #@! TD.AperFunction*
G04 #@! TA.AperFunction,SMDPad,CuDef*
G36*
G01*
X62100000Y-79496000D02*
X62100000Y-78734000D01*
G75*
G02*
X62481000Y-78353000I381000J0D01*
G01*
X65719000Y-78353000D01*
G75*
G02*
X66100000Y-78734000I0J-381000D01*
G01*
X66100000Y-79496000D01*
G75*
G02*
X65719000Y-79877000I-381000J0D01*
G01*
X62481000Y-79877000D01*
G75*
G02*
X62100000Y-79496000I0J381000D01*
G01*
G37*
G04 #@! TD.AperFunction*
G04 #@! TA.AperFunction,SMDPad,CuDef*
G36*
G01*
X62100000Y-82036000D02*
X62100000Y-81274000D01*
G75*
G02*
X62481000Y-80893000I381000J0D01*
G01*
X65719000Y-80893000D01*
G75*
G02*
X66100000Y-81274000I0J-381000D01*
G01*
X66100000Y-82036000D01*
G75*
G02*
X65719000Y-82417000I-381000J0D01*
G01*
X62481000Y-82417000D01*
G75*
G02*
X62100000Y-82036000I0J381000D01*
G01*
G37*
G04 #@! TD.AperFunction*
G04 #@! TA.AperFunction,SMDPad,CuDef*
G36*
G01*
X62100000Y-84576000D02*
X62100000Y-83814000D01*
G75*
G02*
X62481000Y-83433000I381000J0D01*
G01*
X65719000Y-83433000D01*
G75*
G02*
X66100000Y-83814000I0J-381000D01*
G01*
X66100000Y-84576000D01*
G75*
G02*
X65719000Y-84957000I-381000J0D01*
G01*
X62481000Y-84957000D01*
G75*
G02*
X62100000Y-84576000I0J381000D01*
G01*
G37*
G04 #@! TD.AperFunction*
X72525000Y-123675000D03*
X72525000Y-126975000D03*
X77425000Y-126975000D03*
X77425000Y-123675000D03*
G04 #@! TA.AperFunction,SMDPad,CuDef*
G36*
G01*
X86655547Y-129981551D02*
X85995635Y-130362551D01*
G75*
G02*
X85475179Y-130223095I-190500J329956D01*
G01*
X83856179Y-127418905D01*
G75*
G02*
X83995635Y-126898449I329956J190500D01*
G01*
X84655547Y-126517449D01*
G75*
G02*
X85176003Y-126656905I190500J-329956D01*
G01*
X86795003Y-129461095D01*
G75*
G02*
X86655547Y-129981551I-329956J-190500D01*
G01*
G37*
G04 #@! TD.AperFunction*
G04 #@! TA.AperFunction,SMDPad,CuDef*
G36*
G01*
X88855252Y-128711551D02*
X88195340Y-129092551D01*
G75*
G02*
X87674884Y-128953095I-190500J329956D01*
G01*
X86055884Y-126148905D01*
G75*
G02*
X86195340Y-125628449I329956J190500D01*
G01*
X86855252Y-125247449D01*
G75*
G02*
X87375708Y-125386905I190500J-329956D01*
G01*
X88994708Y-128191095D01*
G75*
G02*
X88855252Y-128711551I-329956J-190500D01*
G01*
G37*
G04 #@! TD.AperFunction*
G04 #@! TA.AperFunction,SMDPad,CuDef*
G36*
G01*
X91054956Y-127441551D02*
X90395044Y-127822551D01*
G75*
G02*
X89874588Y-127683095I-190500J329956D01*
G01*
X88255588Y-124878905D01*
G75*
G02*
X88395044Y-124358449I329956J190500D01*
G01*
X89054956Y-123977449D01*
G75*
G02*
X89575412Y-124116905I190500J-329956D01*
G01*
X91194412Y-126921095D01*
G75*
G02*
X91054956Y-127441551I-329956J-190500D01*
G01*
G37*
G04 #@! TD.AperFunction*
G04 #@! TA.AperFunction,SMDPad,CuDef*
G36*
G01*
X93254661Y-126171551D02*
X92594749Y-126552551D01*
G75*
G02*
X92074293Y-126413095I-190500J329956D01*
G01*
X90455293Y-123608905D01*
G75*
G02*
X90594749Y-123088449I329956J190500D01*
G01*
X91254661Y-122707449D01*
G75*
G02*
X91775117Y-122846905I190500J-329956D01*
G01*
X93394117Y-125651095D01*
G75*
G02*
X93254661Y-126171551I-329956J-190500D01*
G01*
G37*
G04 #@! TD.AperFunction*
G04 #@! TA.AperFunction,SMDPad,CuDef*
G36*
G01*
X95550000Y-107837500D02*
X96500000Y-107837500D01*
G75*
G02*
X96750000Y-108087500I0J-250000D01*
G01*
X96750000Y-108762500D01*
G75*
G02*
X96500000Y-109012500I-250000J0D01*
G01*
X95550000Y-109012500D01*
G75*
G02*
X95300000Y-108762500I0J250000D01*
G01*
X95300000Y-108087500D01*
G75*
G02*
X95550000Y-107837500I250000J0D01*
G01*
G37*
G04 #@! TD.AperFunction*
G04 #@! TA.AperFunction,SMDPad,CuDef*
G36*
G01*
X95550000Y-109912500D02*
X96500000Y-109912500D01*
G75*
G02*
X96750000Y-110162500I0J-250000D01*
G01*
X96750000Y-110837500D01*
G75*
G02*
X96500000Y-111087500I-250000J0D01*
G01*
X95550000Y-111087500D01*
G75*
G02*
X95300000Y-110837500I0J250000D01*
G01*
X95300000Y-110162500D01*
G75*
G02*
X95550000Y-109912500I250000J0D01*
G01*
G37*
G04 #@! TD.AperFunction*
G04 #@! TA.AperFunction,SMDPad,CuDef*
G36*
G01*
X69675000Y-62912500D02*
X70625000Y-62912500D01*
G75*
G02*
X70875000Y-63162500I0J-250000D01*
G01*
X70875000Y-63837500D01*
G75*
G02*
X70625000Y-64087500I-250000J0D01*
G01*
X69675000Y-64087500D01*
G75*
G02*
X69425000Y-63837500I0J250000D01*
G01*
X69425000Y-63162500D01*
G75*
G02*
X69675000Y-62912500I250000J0D01*
G01*
G37*
G04 #@! TD.AperFunction*
G04 #@! TA.AperFunction,SMDPad,CuDef*
G36*
G01*
X69675000Y-64987500D02*
X70625000Y-64987500D01*
G75*
G02*
X70875000Y-65237500I0J-250000D01*
G01*
X70875000Y-65912500D01*
G75*
G02*
X70625000Y-66162500I-250000J0D01*
G01*
X69675000Y-66162500D01*
G75*
G02*
X69425000Y-65912500I0J250000D01*
G01*
X69425000Y-65237500D01*
G75*
G02*
X69675000Y-64987500I250000J0D01*
G01*
G37*
G04 #@! TD.AperFunction*
X79400000Y-93700000D03*
X79400000Y-97000000D03*
X84300000Y-97000000D03*
X84300000Y-93700000D03*
G04 #@! TA.AperFunction,SMDPad,CuDef*
G36*
G01*
X69600000Y-122837500D02*
X70550000Y-122837500D01*
G75*
G02*
X70800000Y-123087500I0J-250000D01*
G01*
X70800000Y-123762500D01*
G75*
G02*
X70550000Y-124012500I-250000J0D01*
G01*
X69600000Y-124012500D01*
G75*
G02*
X69350000Y-123762500I0J250000D01*
G01*
X69350000Y-123087500D01*
G75*
G02*
X69600000Y-122837500I250000J0D01*
G01*
G37*
G04 #@! TD.AperFunction*
G04 #@! TA.AperFunction,SMDPad,CuDef*
G36*
G01*
X69600000Y-124912500D02*
X70550000Y-124912500D01*
G75*
G02*
X70800000Y-125162500I0J-250000D01*
G01*
X70800000Y-125837500D01*
G75*
G02*
X70550000Y-126087500I-250000J0D01*
G01*
X69600000Y-126087500D01*
G75*
G02*
X69350000Y-125837500I0J250000D01*
G01*
X69350000Y-125162500D01*
G75*
G02*
X69600000Y-124912500I250000J0D01*
G01*
G37*
G04 #@! TD.AperFunction*
G04 #@! TA.AperFunction,SMDPad,CuDef*
G36*
G01*
X95625000Y-77912500D02*
X96575000Y-77912500D01*
G75*
G02*
X96825000Y-78162500I0J-250000D01*
G01*
X96825000Y-78837500D01*
G75*
G02*
X96575000Y-79087500I-250000J0D01*
G01*
X95625000Y-79087500D01*
G75*
G02*
X95375000Y-78837500I0J250000D01*
G01*
X95375000Y-78162500D01*
G75*
G02*
X95625000Y-77912500I250000J0D01*
G01*
G37*
G04 #@! TD.AperFunction*
G04 #@! TA.AperFunction,SMDPad,CuDef*
G36*
G01*
X95625000Y-79987500D02*
X96575000Y-79987500D01*
G75*
G02*
X96825000Y-80237500I0J-250000D01*
G01*
X96825000Y-80912500D01*
G75*
G02*
X96575000Y-81162500I-250000J0D01*
G01*
X95625000Y-81162500D01*
G75*
G02*
X95375000Y-80912500I0J250000D01*
G01*
X95375000Y-80237500D01*
G75*
G02*
X95625000Y-79987500I250000J0D01*
G01*
G37*
G04 #@! TD.AperFunction*
G04 #@! TA.AperFunction,SMDPad,CuDef*
G36*
G01*
X76725000Y-92862500D02*
X77675000Y-92862500D01*
G75*
G02*
X77925000Y-93112500I0J-250000D01*
G01*
X77925000Y-93787500D01*
G75*
G02*
X77675000Y-94037500I-250000J0D01*
G01*
X76725000Y-94037500D01*
G75*
G02*
X76475000Y-93787500I0J250000D01*
G01*
X76475000Y-93112500D01*
G75*
G02*
X76725000Y-92862500I250000J0D01*
G01*
G37*
G04 #@! TD.AperFunction*
G04 #@! TA.AperFunction,SMDPad,CuDef*
G36*
G01*
X76725000Y-94937500D02*
X77675000Y-94937500D01*
G75*
G02*
X77925000Y-95187500I0J-250000D01*
G01*
X77925000Y-95862500D01*
G75*
G02*
X77675000Y-96112500I-250000J0D01*
G01*
X76725000Y-96112500D01*
G75*
G02*
X76475000Y-95862500I0J250000D01*
G01*
X76475000Y-95187500D01*
G75*
G02*
X76725000Y-94937500I250000J0D01*
G01*
G37*
G04 #@! TD.AperFunction*
D12*
X69000000Y-74400000D03*
X71300000Y-74400000D03*
X116600000Y-111400000D03*
X81300000Y-102300000D03*
X127400000Y-99200000D03*
X63300000Y-87000000D03*
X128900000Y-99200000D03*
X82800000Y-102300000D03*
X77400000Y-98800000D03*
X101200000Y-86000000D03*
X102600000Y-95600000D03*
X75900000Y-98800000D03*
X115600000Y-88100000D03*
X77200000Y-95500000D03*
X102600000Y-86000000D03*
X63300000Y-88600000D03*
X118100000Y-110500000D03*
X102600000Y-94200000D03*
X117100000Y-88100000D03*
X105400000Y-97500000D03*
X84700000Y-63100000D03*
X84600000Y-127200000D03*
X126000000Y-87200000D03*
X125900000Y-103500000D03*
X121500000Y-106100000D03*
X79200000Y-63800000D03*
X65400000Y-109100000D03*
X121600000Y-84800000D03*
X72700000Y-96200000D03*
X89100000Y-124700000D03*
X65300000Y-81600000D03*
X89000000Y-66000000D03*
D13*
X110300000Y-101100000D02*
X110300000Y-94200000D01*
X68600000Y-64300000D02*
X69400000Y-63500000D01*
X74200000Y-74400000D02*
X73500000Y-74400000D01*
X92900000Y-77900000D02*
X77700000Y-77900000D01*
X94200000Y-82000000D02*
X94200000Y-79200000D01*
X66825000Y-76575000D02*
X69000000Y-74400000D01*
X109400000Y-102000000D02*
X110300000Y-101100000D01*
X96100000Y-78500000D02*
X98225000Y-78500000D01*
X74200000Y-74400000D02*
X74200000Y-72900000D01*
X81200000Y-95500000D02*
X82300000Y-94400000D01*
X82300000Y-94400000D02*
X82300000Y-93300000D01*
X72275000Y-123425000D02*
X72525000Y-123675000D01*
X95200000Y-102000000D02*
X98000000Y-102000000D01*
X81200000Y-98600000D02*
X81200000Y-95500000D01*
X122250000Y-93725000D02*
X121975000Y-93450000D01*
X71300000Y-74400000D02*
X73500000Y-74400000D01*
X70075000Y-123425000D02*
X72275000Y-123425000D01*
X77700000Y-77900000D02*
X74200000Y-74400000D01*
X121975000Y-93450000D02*
X118850000Y-93450000D01*
X67090000Y-114190000D02*
X64100000Y-114190000D01*
X96275000Y-108675000D02*
X96025000Y-108425000D01*
X70400000Y-63750000D02*
X70150000Y-63500000D01*
X104675000Y-92475000D02*
X94200000Y-82000000D01*
X79400000Y-93700000D02*
X77450000Y-93700000D01*
X98000000Y-102000000D02*
X109400000Y-102000000D01*
X94200000Y-79200000D02*
X92900000Y-77900000D01*
X118850000Y-93450000D02*
X117600000Y-92200000D01*
X98450000Y-108675000D02*
X96275000Y-108675000D01*
X77450000Y-93700000D02*
X77200000Y-93450000D01*
X69400000Y-63500000D02*
X70150000Y-63500000D01*
X94400000Y-105700000D02*
X94400000Y-102800000D01*
X124400000Y-93725000D02*
X122250000Y-93725000D01*
X94400000Y-102800000D02*
X95200000Y-102000000D01*
X108000000Y-92475000D02*
X104675000Y-92475000D01*
X96025000Y-107325000D02*
X94400000Y-105700000D01*
X94900000Y-78500000D02*
X96100000Y-78500000D01*
X110300000Y-94200000D02*
X108575000Y-92475000D01*
X68600000Y-67300000D02*
X68600000Y-64300000D01*
X64100000Y-76575000D02*
X66825000Y-76575000D01*
X67090000Y-114190000D02*
X67090000Y-112710000D01*
X70075000Y-117175000D02*
X67090000Y-114190000D01*
X112300000Y-92200000D02*
X110300000Y-94200000D01*
X72525000Y-63750000D02*
X70400000Y-63750000D01*
X108575000Y-92475000D02*
X108000000Y-92475000D01*
X83300000Y-92300000D02*
X85500000Y-92300000D01*
X74200000Y-72900000D02*
X68600000Y-67300000D01*
X98225000Y-78500000D02*
X98475000Y-78750000D01*
X67090000Y-112710000D02*
X81200000Y-98600000D01*
X96025000Y-108425000D02*
X96025000Y-107325000D01*
X117600000Y-92200000D02*
X112300000Y-92200000D01*
X82300000Y-93300000D02*
X83300000Y-92300000D01*
X70075000Y-123425000D02*
X70075000Y-117175000D01*
X81200000Y-95500000D02*
X79400000Y-93700000D01*
X94200000Y-79200000D02*
X94900000Y-78500000D01*
X85500000Y-92300000D02*
X95200000Y-102000000D01*
X92755000Y-97555000D02*
X105345000Y-97555000D01*
X105455000Y-97555000D02*
X108000000Y-97555000D01*
X105345000Y-97555000D02*
X105400000Y-97500000D01*
X71400000Y-91210000D02*
X71510000Y-91100000D01*
X86300000Y-91100000D02*
X92755000Y-97555000D01*
X71510000Y-91100000D02*
X86300000Y-91100000D01*
X105400000Y-97500000D02*
X105455000Y-97555000D01*
X81500000Y-76800000D02*
X99400000Y-76800000D01*
X72525000Y-67825000D02*
X81500000Y-76800000D01*
X101350000Y-78750000D02*
X103375000Y-78750000D01*
X99400000Y-76800000D02*
X101350000Y-78750000D01*
X72525000Y-67050000D02*
X72525000Y-67825000D01*
X77425000Y-63750000D02*
X79150000Y-63750000D01*
X79150000Y-63750000D02*
X79200000Y-63800000D01*
X102000000Y-80800000D02*
X104800000Y-80800000D01*
X127125000Y-93725000D02*
X129300000Y-93725000D01*
X101071120Y-82298503D02*
X101305435Y-82064188D01*
X123300000Y-89900000D02*
X127125000Y-93725000D01*
X98475000Y-82050000D02*
X99255435Y-82050000D01*
X99255435Y-82050000D02*
X99503938Y-82298503D01*
X113900000Y-89900000D02*
X123300000Y-89900000D01*
X101305435Y-82064188D02*
X101305435Y-81494565D01*
X101305435Y-81494565D02*
X102000000Y-80800000D01*
X104800000Y-80800000D02*
X113900000Y-89900000D01*
X99503938Y-82298503D02*
X101071120Y-82298503D01*
X119875000Y-97025000D02*
X108225000Y-108675000D01*
X124400000Y-97025000D02*
X119875000Y-97025000D01*
X108225000Y-108675000D02*
X103350000Y-108675000D01*
X89125000Y-111975000D02*
X77425000Y-123675000D01*
X98450000Y-111975000D02*
X89125000Y-111975000D01*
X70200000Y-75015000D02*
X70200000Y-70600000D01*
X124375000Y-85425000D02*
X124375000Y-84850000D01*
X71400000Y-93750000D02*
X69400000Y-93750000D01*
X66100000Y-79115000D02*
X70200000Y-75015000D01*
X68100000Y-109650000D02*
X66100000Y-111650000D01*
X125200000Y-101000000D02*
X123300000Y-102900000D01*
X119500000Y-87100000D02*
X122700000Y-87100000D01*
X67500000Y-67900000D02*
X67500000Y-63800000D01*
X95200000Y-74900000D02*
X107300000Y-74900000D01*
X86500000Y-122300000D02*
X86500000Y-126144704D01*
X86100000Y-65800000D02*
X95200000Y-74900000D01*
X129100000Y-101000000D02*
X125200000Y-101000000D01*
X131500000Y-98600000D02*
X129100000Y-101000000D01*
X131500000Y-92400000D02*
X131500000Y-98600000D01*
X67500000Y-63800000D02*
X69800000Y-61500000D01*
X69800000Y-61500000D02*
X79000000Y-61500000D01*
X79000000Y-61500000D02*
X83300000Y-65800000D01*
X66100000Y-111650000D02*
X64100000Y-111650000D01*
X123300000Y-104869705D02*
X124350295Y-105920000D01*
X123300000Y-102900000D02*
X123300000Y-104869705D01*
X70200000Y-70600000D02*
X67500000Y-67900000D01*
X69400000Y-93750000D02*
X68100000Y-95050000D01*
X130700000Y-91600000D02*
X131500000Y-92400000D01*
X83300000Y-65800000D02*
X86100000Y-65800000D01*
X122700000Y-87100000D02*
X127200000Y-91600000D01*
X87525296Y-64374704D02*
X87525296Y-63555000D01*
X76300000Y-97000000D02*
X73050000Y-93750000D01*
X123300000Y-102900000D02*
X117600000Y-102900000D01*
X66100000Y-79115000D02*
X64100000Y-79115000D01*
X102800000Y-117700000D02*
X91100000Y-117700000D01*
X67800000Y-80815000D02*
X66100000Y-79115000D01*
X68100000Y-95050000D02*
X68100000Y-109650000D01*
X122700000Y-87100000D02*
X124375000Y-85425000D01*
X73050000Y-93750000D02*
X71400000Y-93750000D01*
X86500000Y-126144704D02*
X87525296Y-127170000D01*
X117600000Y-102900000D02*
X102800000Y-117700000D01*
X91100000Y-117700000D02*
X86500000Y-122300000D01*
X67800000Y-92150000D02*
X67800000Y-80815000D01*
X127200000Y-91600000D02*
X130700000Y-91600000D01*
X86100000Y-65800000D02*
X87525296Y-64374704D01*
X69400000Y-93750000D02*
X67800000Y-92150000D01*
X79400000Y-97000000D02*
X76300000Y-97000000D01*
X107300000Y-74900000D02*
X119500000Y-87100000D01*
X84700000Y-93700000D02*
X84300000Y-93700000D01*
X75600000Y-123900000D02*
X75600000Y-123000000D01*
X86600000Y-112000000D02*
X86600000Y-95600000D01*
X86600000Y-95600000D02*
X84700000Y-93700000D01*
X72525000Y-126975000D02*
X75600000Y-123900000D01*
X75600000Y-123000000D02*
X86600000Y-112000000D01*
G04 #@! TA.AperFunction,Conductor*
G36*
X117284099Y-93020185D02*
G01*
X117304741Y-93036819D01*
X118220184Y-93952262D01*
X118347738Y-94079816D01*
X118383089Y-94102028D01*
X118388765Y-94106055D01*
X118421411Y-94132090D01*
X118421412Y-94132091D01*
X118442548Y-94142269D01*
X118459035Y-94150208D01*
X118465112Y-94153567D01*
X118482230Y-94164323D01*
X118500477Y-94175789D01*
X118539891Y-94189581D01*
X118546320Y-94192244D01*
X118583941Y-94210361D01*
X118624641Y-94219650D01*
X118631328Y-94221576D01*
X118670742Y-94235367D01*
X118670745Y-94235368D01*
X118712241Y-94240043D01*
X118719093Y-94241207D01*
X118759806Y-94250500D01*
X118805046Y-94250500D01*
X120850270Y-94250500D01*
X120917309Y-94270185D01*
X120937951Y-94286819D01*
X121031344Y-94380212D01*
X121034173Y-94381957D01*
X121034653Y-94382253D01*
X121036445Y-94384246D01*
X121037011Y-94384693D01*
X121036934Y-94384789D01*
X121081379Y-94434199D01*
X121092603Y-94503161D01*
X121064761Y-94567244D01*
X121034665Y-94593326D01*
X121031660Y-94595179D01*
X121031655Y-94595183D01*
X120907684Y-94719154D01*
X120815643Y-94868375D01*
X120815641Y-94868380D01*
X120760494Y-95034802D01*
X120760493Y-95034809D01*
X120750000Y-95137513D01*
X120750000Y-95275000D01*
X123199999Y-95275000D01*
X123199999Y-95137528D01*
X123199998Y-95137513D01*
X123189505Y-95034802D01*
X123134358Y-94868380D01*
X123134353Y-94868369D01*
X123039505Y-94714597D01*
X123021064Y-94647205D01*
X123041986Y-94580541D01*
X123095628Y-94535771D01*
X123145043Y-94525500D01*
X123241769Y-94525500D01*
X123308808Y-94545185D01*
X123316080Y-94550233D01*
X123374269Y-94593793D01*
X123406755Y-94618112D01*
X123407668Y-94618795D01*
X123407671Y-94618797D01*
X123542517Y-94669091D01*
X123542516Y-94669091D01*
X123549444Y-94669835D01*
X123602127Y-94675500D01*
X125197872Y-94675499D01*
X125257483Y-94669091D01*
X125392331Y-94618796D01*
X125507546Y-94532546D01*
X125593796Y-94417331D01*
X125644091Y-94282483D01*
X125650500Y-94222873D01*
X125650499Y-93681937D01*
X125670183Y-93614900D01*
X125722987Y-93569145D01*
X125792146Y-93559201D01*
X125855702Y-93588226D01*
X125862180Y-93594258D01*
X126622739Y-94354817D01*
X126632501Y-94360951D01*
X126658095Y-94377032D01*
X126663755Y-94381048D01*
X126696413Y-94407092D01*
X126734054Y-94425218D01*
X126740116Y-94428569D01*
X126766637Y-94445233D01*
X126775474Y-94450787D01*
X126775475Y-94450787D01*
X126775478Y-94450789D01*
X126814881Y-94464576D01*
X126821310Y-94467239D01*
X126831849Y-94472314D01*
X126858939Y-94485360D01*
X126899655Y-94494653D01*
X126906328Y-94496576D01*
X126933862Y-94506210D01*
X126945745Y-94510368D01*
X126987241Y-94515043D01*
X126994093Y-94516207D01*
X127034806Y-94525500D01*
X127080046Y-94525500D01*
X128141769Y-94525500D01*
X128208808Y-94545185D01*
X128216080Y-94550233D01*
X128274269Y-94593793D01*
X128306755Y-94618112D01*
X128307668Y-94618795D01*
X128307671Y-94618797D01*
X128442517Y-94669091D01*
X128442516Y-94669091D01*
X128449444Y-94669835D01*
X128502127Y-94675500D01*
X130097872Y-94675499D01*
X130157483Y-94669091D01*
X130292331Y-94618796D01*
X130407546Y-94532546D01*
X130476234Y-94440789D01*
X130532167Y-94398920D01*
X130601859Y-94393936D01*
X130663182Y-94427421D01*
X130696666Y-94488745D01*
X130699500Y-94515102D01*
X130699500Y-96235730D01*
X130679815Y-96302769D01*
X130627011Y-96348524D01*
X130557853Y-96358468D01*
X130494297Y-96329443D01*
X130476234Y-96310042D01*
X130407187Y-96217809D01*
X130292093Y-96131649D01*
X130292086Y-96131645D01*
X130157379Y-96081403D01*
X130157372Y-96081401D01*
X130097844Y-96075000D01*
X129550000Y-96075000D01*
X129550000Y-97975000D01*
X130097828Y-97975000D01*
X130097844Y-97974999D01*
X130157372Y-97968598D01*
X130157379Y-97968596D01*
X130292086Y-97918354D01*
X130292093Y-97918350D01*
X130407187Y-97832190D01*
X130407190Y-97832187D01*
X130476234Y-97739958D01*
X130532168Y-97698087D01*
X130601859Y-97693103D01*
X130663182Y-97726589D01*
X130696666Y-97787912D01*
X130699500Y-97814269D01*
X130699500Y-98217060D01*
X130679815Y-98284099D01*
X130663181Y-98304741D01*
X128804741Y-100163181D01*
X128743418Y-100196666D01*
X128717060Y-100199500D01*
X125290194Y-100199500D01*
X125109806Y-100199500D01*
X125103888Y-100200850D01*
X125069089Y-100208791D01*
X125062235Y-100209955D01*
X125020743Y-100214632D01*
X124981339Y-100228419D01*
X124974658Y-100230344D01*
X124933935Y-100239641D01*
X124896308Y-100257759D01*
X124889885Y-100260420D01*
X124850481Y-100274210D01*
X124850475Y-100274212D01*
X124815122Y-100296425D01*
X124809036Y-100299789D01*
X124771414Y-100317907D01*
X124738768Y-100343941D01*
X124733097Y-100347965D01*
X124697734Y-100370186D01*
X124697733Y-100370187D01*
X124681216Y-100386706D01*
X124665748Y-100402174D01*
X123833622Y-101234300D01*
X123004741Y-102063181D01*
X122943418Y-102096666D01*
X122917060Y-102099500D01*
X117690194Y-102099500D01*
X117509806Y-102099500D01*
X117503888Y-102100850D01*
X117469089Y-102108791D01*
X117462235Y-102109955D01*
X117420743Y-102114632D01*
X117381339Y-102128419D01*
X117374658Y-102130344D01*
X117333935Y-102139641D01*
X117296308Y-102157759D01*
X117289885Y-102160420D01*
X117250481Y-102174210D01*
X117250475Y-102174212D01*
X117215122Y-102196425D01*
X117209036Y-102199789D01*
X117171414Y-102217907D01*
X117138768Y-102243941D01*
X117133097Y-102247965D01*
X117097734Y-102270186D01*
X117097733Y-102270187D01*
X117076410Y-102291511D01*
X117065748Y-102302174D01*
X109783681Y-109584241D01*
X102504741Y-116863181D01*
X102443418Y-116896666D01*
X102417060Y-116899500D01*
X91190194Y-116899500D01*
X91009805Y-116899500D01*
X91009803Y-116899500D01*
X91009797Y-116899501D01*
X90969098Y-116908790D01*
X90962242Y-116909955D01*
X90920743Y-116914632D01*
X90881328Y-116928423D01*
X90874646Y-116930348D01*
X90833940Y-116939640D01*
X90796326Y-116957753D01*
X90789901Y-116960414D01*
X90750482Y-116974209D01*
X90750474Y-116974213D01*
X90715117Y-116996428D01*
X90709032Y-116999791D01*
X90671413Y-117017908D01*
X90671411Y-117017909D01*
X90638769Y-117043941D01*
X90633096Y-117047966D01*
X90597739Y-117070183D01*
X90597735Y-117070186D01*
X85870186Y-121797735D01*
X85870183Y-121797739D01*
X85847966Y-121833096D01*
X85843941Y-121838769D01*
X85817910Y-121871410D01*
X85799791Y-121909033D01*
X85796427Y-121915120D01*
X85774212Y-121950476D01*
X85774208Y-121950483D01*
X85760416Y-121989895D01*
X85757755Y-121996320D01*
X85739639Y-122033939D01*
X85730344Y-122074659D01*
X85728419Y-122081341D01*
X85714632Y-122120744D01*
X85709955Y-122162235D01*
X85708791Y-122169089D01*
X85699500Y-122209806D01*
X85699500Y-125361119D01*
X85679815Y-125428158D01*
X85678757Y-125429777D01*
X85598714Y-125550155D01*
X85598713Y-125550157D01*
X85529356Y-125728909D01*
X85500045Y-125918396D01*
X85504422Y-125987568D01*
X85489009Y-126055717D01*
X85439200Y-126104715D01*
X85370807Y-126119005D01*
X85312012Y-126098656D01*
X85254294Y-126060278D01*
X85075542Y-125990921D01*
X84964330Y-125973718D01*
X84886057Y-125961610D01*
X84886055Y-125961610D01*
X84694701Y-125973718D01*
X84694699Y-125973718D01*
X84571958Y-126008994D01*
X84518002Y-126024501D01*
X84510420Y-126026680D01*
X84500793Y-126031401D01*
X84471684Y-126045675D01*
X84471679Y-126045678D01*
X84339573Y-126121948D01*
X84300374Y-126136446D01*
X84297553Y-126136973D01*
X84297547Y-126136975D01*
X84107364Y-126210651D01*
X84107357Y-126210655D01*
X83933961Y-126318017D01*
X83933956Y-126318020D01*
X83829857Y-126412918D01*
X83808321Y-126428667D01*
X83679008Y-126503327D01*
X83679003Y-126503329D01*
X83679000Y-126503332D01*
X83669104Y-126509976D01*
X83643184Y-126527378D01*
X83643178Y-126527383D01*
X83505172Y-126660492D01*
X83399009Y-126820155D01*
X83399008Y-126820157D01*
X83329651Y-126998909D01*
X83300340Y-127188396D01*
X83300340Y-127188404D01*
X83312448Y-127379746D01*
X83312448Y-127379747D01*
X83365407Y-127564023D01*
X83365410Y-127564029D01*
X83384405Y-127602768D01*
X85080063Y-130539731D01*
X85104114Y-130575552D01*
X85237224Y-130713558D01*
X85256230Y-130726196D01*
X85301156Y-130779705D01*
X85310021Y-130849011D01*
X85280009Y-130912106D01*
X85249573Y-130936840D01*
X62186000Y-144252599D01*
X62118100Y-144269072D01*
X62052073Y-144246219D01*
X62008882Y-144191298D01*
X62000000Y-144145212D01*
X62000000Y-133317763D01*
X66720787Y-133317763D01*
X66750413Y-133587013D01*
X66750415Y-133587024D01*
X66818926Y-133849082D01*
X66818928Y-133849088D01*
X66924870Y-134098390D01*
X66996998Y-134216575D01*
X67065979Y-134329605D01*
X67065986Y-134329615D01*
X67239253Y-134537819D01*
X67239259Y-134537824D01*
X67440998Y-134718582D01*
X67666910Y-134868044D01*
X67912176Y-134983020D01*
X67912183Y-134983022D01*
X67912185Y-134983023D01*
X68171557Y-135061057D01*
X68171564Y-135061058D01*
X68171569Y-135061060D01*
X68439561Y-135100500D01*
X68439566Y-135100500D01*
X68642636Y-135100500D01*
X68694133Y-135096730D01*
X68845156Y-135085677D01*
X68957758Y-135060593D01*
X69109546Y-135026782D01*
X69109548Y-135026781D01*
X69109553Y-135026780D01*
X69362558Y-134930014D01*
X69598777Y-134797441D01*
X69813177Y-134631888D01*
X70001186Y-134436881D01*
X70158799Y-134216579D01*
X70232787Y-134072669D01*
X70282649Y-133975690D01*
X70282651Y-133975684D01*
X70282656Y-133975675D01*
X70370118Y-133719305D01*
X70419319Y-133452933D01*
X70429212Y-133182235D01*
X70399586Y-132912982D01*
X70331072Y-132650912D01*
X70225130Y-132401610D01*
X70084018Y-132170390D01*
X69994747Y-132063119D01*
X69910746Y-131962180D01*
X69910740Y-131962175D01*
X69709002Y-131781418D01*
X69483092Y-131631957D01*
X69483090Y-131631956D01*
X69237824Y-131516980D01*
X69237819Y-131516978D01*
X69237814Y-131516976D01*
X68978442Y-131438942D01*
X68978428Y-131438939D01*
X68862791Y-131421921D01*
X68710439Y-131399500D01*
X68507369Y-131399500D01*
X68507364Y-131399500D01*
X68304844Y-131414323D01*
X68304831Y-131414325D01*
X68040453Y-131473217D01*
X68040446Y-131473220D01*
X67787439Y-131569987D01*
X67551226Y-131702557D01*
X67336822Y-131868112D01*
X67148822Y-132063109D01*
X67148816Y-132063116D01*
X66991202Y-132283419D01*
X66991199Y-132283424D01*
X66867350Y-132524309D01*
X66867343Y-132524327D01*
X66779884Y-132780685D01*
X66779881Y-132780699D01*
X66730681Y-133047068D01*
X66730680Y-133047075D01*
X66720787Y-133317763D01*
X62000000Y-133317763D01*
X62000000Y-125750000D01*
X68850001Y-125750000D01*
X68850001Y-125887486D01*
X68860494Y-125990197D01*
X68915641Y-126156619D01*
X68915643Y-126156624D01*
X69007684Y-126305845D01*
X69131654Y-126429815D01*
X69280875Y-126521856D01*
X69280880Y-126521858D01*
X69447302Y-126577005D01*
X69447309Y-126577006D01*
X69550019Y-126587499D01*
X69824999Y-126587499D01*
X69825000Y-126587498D01*
X69825000Y-125750000D01*
X68850001Y-125750000D01*
X62000000Y-125750000D01*
X62000000Y-115516314D01*
X62019685Y-115449275D01*
X62072489Y-115403520D01*
X62141647Y-115393576D01*
X62168559Y-115401949D01*
X62168913Y-115400988D01*
X62175220Y-115403304D01*
X62175225Y-115403307D01*
X62325013Y-115440558D01*
X62361291Y-115449580D01*
X62361292Y-115449580D01*
X62361296Y-115449581D01*
X62400336Y-115452228D01*
X62404342Y-115452500D01*
X62404342Y-115452499D01*
X62404343Y-115452500D01*
X65795656Y-115452499D01*
X65795657Y-115452499D01*
X65806418Y-115451769D01*
X65838704Y-115449581D01*
X66024775Y-115403307D01*
X66196547Y-115318116D01*
X66345990Y-115197990D01*
X66466116Y-115048547D01*
X66466119Y-115048540D01*
X66466647Y-115047716D01*
X66467103Y-115047318D01*
X66470328Y-115043307D01*
X66471046Y-115043884D01*
X66519338Y-115001832D01*
X66571126Y-114990500D01*
X66707060Y-114990500D01*
X66774099Y-115010185D01*
X66794741Y-115026819D01*
X69238181Y-117470259D01*
X69271666Y-117531582D01*
X69274500Y-117557940D01*
X69274500Y-122337281D01*
X69254815Y-122404320D01*
X69215597Y-122442819D01*
X69131347Y-122494785D01*
X69131343Y-122494788D01*
X69007289Y-122618842D01*
X68915187Y-122768163D01*
X68915185Y-122768168D01*
X68910865Y-122781206D01*
X68860001Y-122934703D01*
X68860001Y-122934704D01*
X68860000Y-122934704D01*
X68849500Y-123037483D01*
X68849500Y-123812501D01*
X68849501Y-123812519D01*
X68860000Y-123915296D01*
X68860001Y-123915299D01*
X68875918Y-123963332D01*
X68915186Y-124081834D01*
X69007288Y-124231156D01*
X69131344Y-124355212D01*
X69134628Y-124357237D01*
X69134653Y-124357253D01*
X69136445Y-124359246D01*
X69137011Y-124359693D01*
X69136934Y-124359789D01*
X69181379Y-124409199D01*
X69192603Y-124478161D01*
X69164761Y-124542244D01*
X69134665Y-124568326D01*
X69131660Y-124570179D01*
X69131655Y-124570183D01*
X69007684Y-124694154D01*
X68915643Y-124843375D01*
X68915641Y-124843380D01*
X68860494Y-125009802D01*
X68860493Y-125009809D01*
X68850000Y-125112513D01*
X68850000Y-125250000D01*
X71299999Y-125250000D01*
X71299999Y-125112528D01*
X71299998Y-125112513D01*
X71289505Y-125009802D01*
X71234358Y-124843380D01*
X71234356Y-124843375D01*
X71142315Y-124694154D01*
X71018344Y-124570183D01*
X71018341Y-124570181D01*
X71015339Y-124568329D01*
X71013713Y-124566521D01*
X71012677Y-124565702D01*
X71012817Y-124565524D01*
X70968617Y-124516380D01*
X70957397Y-124447417D01*
X70985243Y-124383336D01*
X71015344Y-124357254D01*
X71018656Y-124355212D01*
X71106574Y-124267293D01*
X71167893Y-124233811D01*
X71237585Y-124238795D01*
X71293519Y-124280666D01*
X71310434Y-124311644D01*
X71331202Y-124367328D01*
X71331206Y-124367335D01*
X71417452Y-124482544D01*
X71417455Y-124482547D01*
X71532664Y-124568793D01*
X71532671Y-124568797D01*
X71667517Y-124619091D01*
X71667516Y-124619091D01*
X71674444Y-124619835D01*
X71727127Y-124625500D01*
X73322872Y-124625499D01*
X73382483Y-124619091D01*
X73432671Y-124600371D01*
X73502362Y-124595387D01*
X73563685Y-124628871D01*
X73597171Y-124690194D01*
X73592187Y-124759885D01*
X73563686Y-124804234D01*
X72379739Y-125988181D01*
X72318416Y-126021666D01*
X72292058Y-126024500D01*
X71727129Y-126024500D01*
X71727123Y-126024501D01*
X71667516Y-126030908D01*
X71532671Y-126081202D01*
X71532664Y-126081206D01*
X71484707Y-126117107D01*
X71419243Y-126141524D01*
X71350970Y-126126672D01*
X71301565Y-126077267D01*
X71286713Y-126008994D01*
X71289147Y-125991870D01*
X71289506Y-125990191D01*
X71299999Y-125887486D01*
X71300000Y-125887473D01*
X71300000Y-125750000D01*
X70325000Y-125750000D01*
X70325000Y-126587499D01*
X70599972Y-126587499D01*
X70599986Y-126587498D01*
X70702697Y-126577005D01*
X70869119Y-126521858D01*
X70869124Y-126521856D01*
X71018345Y-126429815D01*
X71062862Y-126385298D01*
X71124185Y-126351812D01*
X71193876Y-126356796D01*
X71249810Y-126398667D01*
X71274228Y-126464131D01*
X71274316Y-126473806D01*
X71274500Y-126473806D01*
X71274500Y-127472870D01*
X71274501Y-127472876D01*
X71280908Y-127532483D01*
X71331202Y-127667328D01*
X71331206Y-127667335D01*
X71417452Y-127782544D01*
X71417455Y-127782547D01*
X71532664Y-127868793D01*
X71532671Y-127868797D01*
X71667517Y-127919091D01*
X71667516Y-127919091D01*
X71674444Y-127919835D01*
X71727127Y-127925500D01*
X73322872Y-127925499D01*
X73382483Y-127919091D01*
X73517331Y-127868796D01*
X73632546Y-127782546D01*
X73718796Y-127667331D01*
X73769091Y-127532483D01*
X73775500Y-127472873D01*
X73775500Y-127225000D01*
X76175000Y-127225000D01*
X76175000Y-127472844D01*
X76181401Y-127532372D01*
X76181403Y-127532379D01*
X76231645Y-127667086D01*
X76231649Y-127667093D01*
X76317809Y-127782187D01*
X76317812Y-127782190D01*
X76432906Y-127868350D01*
X76432913Y-127868354D01*
X76567620Y-127918596D01*
X76567627Y-127918598D01*
X76627155Y-127924999D01*
X76627172Y-127925000D01*
X77175000Y-127925000D01*
X77175000Y-127225000D01*
X77675000Y-127225000D01*
X77675000Y-127925000D01*
X78222828Y-127925000D01*
X78222844Y-127924999D01*
X78282372Y-127918598D01*
X78282379Y-127918596D01*
X78417086Y-127868354D01*
X78417093Y-127868350D01*
X78532187Y-127782190D01*
X78532190Y-127782187D01*
X78618350Y-127667093D01*
X78618354Y-127667086D01*
X78668596Y-127532379D01*
X78668598Y-127532372D01*
X78674999Y-127472844D01*
X78675000Y-127472827D01*
X78675000Y-127225000D01*
X77675000Y-127225000D01*
X77175000Y-127225000D01*
X76175000Y-127225000D01*
X73775500Y-127225000D01*
X73775499Y-126907938D01*
X73795183Y-126840900D01*
X73811813Y-126820263D01*
X73907076Y-126725000D01*
X76175000Y-126725000D01*
X77175000Y-126725000D01*
X77175000Y-126025000D01*
X77675000Y-126025000D01*
X77675000Y-126725000D01*
X78675000Y-126725000D01*
X78675000Y-126477172D01*
X78674999Y-126477155D01*
X78668598Y-126417627D01*
X78668596Y-126417620D01*
X78618354Y-126282913D01*
X78618350Y-126282906D01*
X78532190Y-126167812D01*
X78532187Y-126167809D01*
X78417093Y-126081649D01*
X78417086Y-126081645D01*
X78282379Y-126031403D01*
X78282372Y-126031401D01*
X78222844Y-126025000D01*
X77675000Y-126025000D01*
X77175000Y-126025000D01*
X76627155Y-126025000D01*
X76567627Y-126031401D01*
X76567620Y-126031403D01*
X76432913Y-126081645D01*
X76432906Y-126081649D01*
X76317812Y-126167809D01*
X76317809Y-126167812D01*
X76231649Y-126282906D01*
X76231645Y-126282913D01*
X76181403Y-126417620D01*
X76181401Y-126417627D01*
X76175000Y-126477155D01*
X76175000Y-126725000D01*
X73907076Y-126725000D01*
X76092052Y-124540023D01*
X76092057Y-124540020D01*
X76102260Y-124529816D01*
X76102262Y-124529816D01*
X76145812Y-124486266D01*
X76207135Y-124452781D01*
X76276827Y-124457765D01*
X76309303Y-124478636D01*
X76310355Y-124477232D01*
X76432664Y-124568793D01*
X76432671Y-124568797D01*
X76567517Y-124619091D01*
X76567516Y-124619091D01*
X76574444Y-124619835D01*
X76627127Y-124625500D01*
X78222872Y-124625499D01*
X78282483Y-124619091D01*
X78417331Y-124568796D01*
X78532546Y-124482546D01*
X78618796Y-124367331D01*
X78669091Y-124232483D01*
X78675500Y-124172873D01*
X78675499Y-123607938D01*
X78695183Y-123540900D01*
X78711813Y-123520263D01*
X89420258Y-112811819D01*
X89481581Y-112778334D01*
X89507939Y-112775500D01*
X97291769Y-112775500D01*
X97358808Y-112795185D01*
X97366080Y-112800233D01*
X97429497Y-112847706D01*
X97457073Y-112868350D01*
X97457668Y-112868795D01*
X97457671Y-112868797D01*
X97592517Y-112919091D01*
X97592516Y-112919091D01*
X97599444Y-112919835D01*
X97652127Y-112925500D01*
X99247872Y-112925499D01*
X99307483Y-112919091D01*
X99442331Y-112868796D01*
X99557546Y-112782546D01*
X99643796Y-112667331D01*
X99694091Y-112532483D01*
X99700500Y-112472873D01*
X99700500Y-112225000D01*
X102100000Y-112225000D01*
X102100000Y-112472844D01*
X102106401Y-112532372D01*
X102106403Y-112532379D01*
X102156645Y-112667086D01*
X102156649Y-112667093D01*
X102242809Y-112782187D01*
X102242812Y-112782190D01*
X102357906Y-112868350D01*
X102357913Y-112868354D01*
X102492620Y-112918596D01*
X102492627Y-112918598D01*
X102552155Y-112924999D01*
X102552172Y-112925000D01*
X103100000Y-112925000D01*
X103100000Y-112225000D01*
X103600000Y-112225000D01*
X103600000Y-112925000D01*
X104147828Y-112925000D01*
X104147844Y-112924999D01*
X104207372Y-112918598D01*
X104207379Y-112918596D01*
X104342086Y-112868354D01*
X104342093Y-112868350D01*
X104457187Y-112782190D01*
X104457190Y-112782187D01*
X104543350Y-112667093D01*
X104543354Y-112667086D01*
X104593596Y-112532379D01*
X104593598Y-112532372D01*
X104599999Y-112472844D01*
X104600000Y-112472827D01*
X104600000Y-112225000D01*
X103600000Y-112225000D01*
X103100000Y-112225000D01*
X102100000Y-112225000D01*
X99700500Y-112225000D01*
X99700499Y-111725000D01*
X102100000Y-111725000D01*
X103100000Y-111725000D01*
X103100000Y-111025000D01*
X103600000Y-111025000D01*
X103600000Y-111725000D01*
X104600000Y-111725000D01*
X104600000Y-111477172D01*
X104599999Y-111477155D01*
X104593598Y-111417627D01*
X104593596Y-111417620D01*
X104543354Y-111282913D01*
X104543350Y-111282906D01*
X104457190Y-111167812D01*
X104457187Y-111167809D01*
X104342093Y-111081649D01*
X104342086Y-111081645D01*
X104207379Y-111031403D01*
X104207372Y-111031401D01*
X104147844Y-111025000D01*
X103600000Y-111025000D01*
X103100000Y-111025000D01*
X102552155Y-111025000D01*
X102492627Y-111031401D01*
X102492620Y-111031403D01*
X102357913Y-111081645D01*
X102357906Y-111081649D01*
X102242812Y-111167809D01*
X102242809Y-111167812D01*
X102156649Y-111282906D01*
X102156645Y-111282913D01*
X102106403Y-111417620D01*
X102106401Y-111417627D01*
X102100000Y-111477155D01*
X102100000Y-111725000D01*
X99700499Y-111725000D01*
X99700499Y-111477128D01*
X99694091Y-111417517D01*
X99643884Y-111282906D01*
X99643797Y-111282671D01*
X99643793Y-111282664D01*
X99557547Y-111167455D01*
X99557544Y-111167452D01*
X99442335Y-111081206D01*
X99442328Y-111081202D01*
X99307482Y-111030908D01*
X99307483Y-111030908D01*
X99247883Y-111024501D01*
X99247881Y-111024500D01*
X99247873Y-111024500D01*
X99247864Y-111024500D01*
X97652129Y-111024500D01*
X97652123Y-111024501D01*
X97592516Y-111030908D01*
X97457671Y-111081202D01*
X97457666Y-111081205D01*
X97437782Y-111096090D01*
X97372317Y-111120505D01*
X97304045Y-111105652D01*
X97254640Y-111056245D01*
X97239790Y-110987972D01*
X97240116Y-110984217D01*
X97249999Y-110887483D01*
X97250000Y-110887473D01*
X97250000Y-110750000D01*
X94800001Y-110750000D01*
X94800001Y-110887486D01*
X94810493Y-110990195D01*
X94817552Y-111011495D01*
X94819954Y-111081324D01*
X94784223Y-111141366D01*
X94721702Y-111172559D01*
X94699846Y-111174500D01*
X89215195Y-111174500D01*
X89034806Y-111174500D01*
X89028888Y-111175850D01*
X88994089Y-111183791D01*
X88987235Y-111184955D01*
X88945743Y-111189632D01*
X88906339Y-111203419D01*
X88899658Y-111205344D01*
X88858935Y-111214641D01*
X88821308Y-111232759D01*
X88814885Y-111235420D01*
X88775481Y-111249210D01*
X88775475Y-111249212D01*
X88740122Y-111271425D01*
X88734036Y-111274789D01*
X88696416Y-111292906D01*
X88696412Y-111292908D01*
X88663767Y-111318941D01*
X88658095Y-111322966D01*
X88622738Y-111345183D01*
X88495184Y-111472738D01*
X88495182Y-111472740D01*
X87559187Y-112408734D01*
X87497864Y-112442219D01*
X87428172Y-112437235D01*
X87372239Y-112395363D01*
X87347822Y-112329899D01*
X87358716Y-112272858D01*
X87358061Y-112272629D01*
X87359601Y-112268227D01*
X87359788Y-112267247D01*
X87360360Y-112266061D01*
X87369658Y-112225321D01*
X87371571Y-112218680D01*
X87385368Y-112179255D01*
X87390043Y-112137760D01*
X87391208Y-112130905D01*
X87396514Y-112107656D01*
X87400500Y-112090194D01*
X87400500Y-111909806D01*
X87400500Y-95631940D01*
X87420185Y-95564901D01*
X87472989Y-95519146D01*
X87542147Y-95509202D01*
X87605703Y-95538227D01*
X87612181Y-95544259D01*
X93980241Y-101912319D01*
X94013726Y-101973642D01*
X94008742Y-102043334D01*
X93980241Y-102087681D01*
X93770186Y-102297735D01*
X93770183Y-102297739D01*
X93747966Y-102333096D01*
X93743941Y-102338769D01*
X93717910Y-102371410D01*
X93699791Y-102409033D01*
X93696427Y-102415120D01*
X93674212Y-102450476D01*
X93674208Y-102450483D01*
X93660416Y-102489895D01*
X93657755Y-102496320D01*
X93639639Y-102533939D01*
X93630344Y-102574659D01*
X93628419Y-102581341D01*
X93614632Y-102620744D01*
X93609955Y-102662235D01*
X93608791Y-102669089D01*
X93599500Y-102709806D01*
X93599500Y-105790191D01*
X93599501Y-105790200D01*
X93608791Y-105830908D01*
X93609955Y-105837763D01*
X93614632Y-105879259D01*
X93628420Y-105918662D01*
X93630345Y-105925345D01*
X93639639Y-105966061D01*
X93657759Y-106003688D01*
X93660421Y-106010114D01*
X93674212Y-106049525D01*
X93696422Y-106084872D01*
X93699787Y-106090959D01*
X93717910Y-106128589D01*
X93743940Y-106161229D01*
X93747966Y-106166904D01*
X93770182Y-106202259D01*
X93770184Y-106202262D01*
X94984346Y-107416424D01*
X95017831Y-107477747D01*
X95012847Y-107547439D01*
X94984346Y-107591786D01*
X94957289Y-107618842D01*
X94865187Y-107768163D01*
X94865185Y-107768168D01*
X94841985Y-107838181D01*
X94810001Y-107934703D01*
X94810001Y-107934704D01*
X94810000Y-107934704D01*
X94799500Y-108037483D01*
X94799500Y-108812501D01*
X94799501Y-108812519D01*
X94810000Y-108915296D01*
X94810001Y-108915299D01*
X94827964Y-108969507D01*
X94865186Y-109081834D01*
X94957288Y-109231156D01*
X95081344Y-109355212D01*
X95084390Y-109357091D01*
X95084653Y-109357253D01*
X95086445Y-109359246D01*
X95087011Y-109359693D01*
X95086934Y-109359789D01*
X95131379Y-109409199D01*
X95142603Y-109478161D01*
X95114761Y-109542244D01*
X95084665Y-109568326D01*
X95081660Y-109570179D01*
X95081655Y-109570183D01*
X94957684Y-109694154D01*
X94865643Y-109843375D01*
X94865641Y-109843380D01*
X94810494Y-110009802D01*
X94810493Y-110009809D01*
X94800000Y-110112513D01*
X94800000Y-110250000D01*
X97249999Y-110250000D01*
X97249999Y-110112528D01*
X97249998Y-110112513D01*
X97239505Y-110009802D01*
X97184358Y-109843380D01*
X97184356Y-109843375D01*
X97092315Y-109694154D01*
X97085342Y-109687181D01*
X97051857Y-109625858D01*
X97056841Y-109556166D01*
X97098713Y-109500233D01*
X97164177Y-109475816D01*
X97173023Y-109475500D01*
X97291769Y-109475500D01*
X97358808Y-109495185D01*
X97366080Y-109500233D01*
X97383135Y-109513000D01*
X97456147Y-109567657D01*
X97457668Y-109568795D01*
X97457671Y-109568797D01*
X97592517Y-109619091D01*
X97592516Y-109619091D01*
X97599444Y-109619835D01*
X97652127Y-109625500D01*
X99247872Y-109625499D01*
X99307483Y-109619091D01*
X99442331Y-109568796D01*
X99557546Y-109482546D01*
X99643796Y-109367331D01*
X99694091Y-109232483D01*
X99700500Y-109172873D01*
X99700500Y-109172870D01*
X102099500Y-109172870D01*
X102099501Y-109172876D01*
X102105908Y-109232483D01*
X102156202Y-109367328D01*
X102156206Y-109367335D01*
X102242452Y-109482544D01*
X102242455Y-109482547D01*
X102357664Y-109568793D01*
X102357671Y-109568797D01*
X102492517Y-109619091D01*
X102492516Y-109619091D01*
X102499444Y-109619835D01*
X102552127Y-109625500D01*
X104147872Y-109625499D01*
X104207483Y-109619091D01*
X104342331Y-109568796D01*
X104416866Y-109512999D01*
X104433920Y-109500233D01*
X104499385Y-109475816D01*
X104508231Y-109475500D01*
X108315194Y-109475500D01*
X108355905Y-109466208D01*
X108362760Y-109465043D01*
X108404255Y-109460368D01*
X108443680Y-109446571D01*
X108450321Y-109444658D01*
X108491061Y-109435360D01*
X108528693Y-109417236D01*
X108535105Y-109414580D01*
X108574522Y-109400789D01*
X108609889Y-109378565D01*
X108615961Y-109375209D01*
X108653587Y-109357091D01*
X108686236Y-109331052D01*
X108691895Y-109327037D01*
X108727262Y-109304816D01*
X108854816Y-109177262D01*
X120170259Y-97861819D01*
X120231582Y-97828334D01*
X120257940Y-97825500D01*
X123241769Y-97825500D01*
X123308808Y-97845185D01*
X123316080Y-97850233D01*
X123348831Y-97874750D01*
X123407073Y-97918350D01*
X123407668Y-97918795D01*
X123407671Y-97918797D01*
X123542517Y-97969091D01*
X123542516Y-97969091D01*
X123549444Y-97969835D01*
X123602127Y-97975500D01*
X125197872Y-97975499D01*
X125257483Y-97969091D01*
X125392331Y-97918796D01*
X125507546Y-97832546D01*
X125593796Y-97717331D01*
X125644091Y-97582483D01*
X125650500Y-97522873D01*
X125650500Y-97275000D01*
X128050000Y-97275000D01*
X128050000Y-97522844D01*
X128056401Y-97582372D01*
X128056403Y-97582379D01*
X128106645Y-97717086D01*
X128106649Y-97717093D01*
X128192809Y-97832187D01*
X128192812Y-97832190D01*
X128307906Y-97918350D01*
X128307913Y-97918354D01*
X128442620Y-97968596D01*
X128442627Y-97968598D01*
X128502155Y-97974999D01*
X128502172Y-97975000D01*
X129050000Y-97975000D01*
X129050000Y-97275000D01*
X128050000Y-97275000D01*
X125650500Y-97275000D01*
X125650499Y-96775000D01*
X128050000Y-96775000D01*
X129050000Y-96775000D01*
X129050000Y-96075000D01*
X128502155Y-96075000D01*
X128442627Y-96081401D01*
X128442620Y-96081403D01*
X128307913Y-96131645D01*
X128307906Y-96131649D01*
X128192812Y-96217809D01*
X128192809Y-96217812D01*
X128106649Y-96332906D01*
X128106645Y-96332913D01*
X128056403Y-96467620D01*
X128056401Y-96467627D01*
X128050000Y-96527155D01*
X128050000Y-96775000D01*
X125650499Y-96775000D01*
X125650499Y-96527128D01*
X125644091Y-96467517D01*
X125632700Y-96436977D01*
X125593797Y-96332671D01*
X125593793Y-96332664D01*
X125507547Y-96217455D01*
X125507544Y-96217452D01*
X125392335Y-96131206D01*
X125392328Y-96131202D01*
X125257482Y-96080908D01*
X125257483Y-96080908D01*
X125197883Y-96074501D01*
X125197881Y-96074500D01*
X125197873Y-96074500D01*
X125197864Y-96074500D01*
X123602129Y-96074500D01*
X123602123Y-96074501D01*
X123542516Y-96080908D01*
X123407671Y-96131202D01*
X123407665Y-96131205D01*
X123382706Y-96149890D01*
X123317242Y-96174306D01*
X123248969Y-96159454D01*
X123199564Y-96110048D01*
X123184713Y-96041775D01*
X123188647Y-96021930D01*
X123188089Y-96021811D01*
X123189506Y-96015190D01*
X123199999Y-95912486D01*
X123200000Y-95912473D01*
X123200000Y-95775000D01*
X120750001Y-95775000D01*
X120750001Y-95912486D01*
X120760494Y-96015197D01*
X120775836Y-96061496D01*
X120778238Y-96131324D01*
X120742506Y-96191366D01*
X120679986Y-96222559D01*
X120658130Y-96224500D01*
X119965194Y-96224500D01*
X119784806Y-96224500D01*
X119778888Y-96225850D01*
X119744089Y-96233791D01*
X119737235Y-96234955D01*
X119695744Y-96239632D01*
X119656341Y-96253419D01*
X119649659Y-96255344D01*
X119608939Y-96264639D01*
X119571320Y-96282755D01*
X119564895Y-96285416D01*
X119525483Y-96299208D01*
X119525476Y-96299212D01*
X119490120Y-96321427D01*
X119484033Y-96324791D01*
X119446410Y-96342910D01*
X119413769Y-96368941D01*
X119408096Y-96372966D01*
X119372739Y-96395183D01*
X119372735Y-96395186D01*
X107929741Y-107838181D01*
X107868418Y-107871666D01*
X107842060Y-107874500D01*
X104508231Y-107874500D01*
X104441192Y-107854815D01*
X104433920Y-107849767D01*
X104342331Y-107781204D01*
X104342328Y-107781202D01*
X104207482Y-107730908D01*
X104207483Y-107730908D01*
X104147883Y-107724501D01*
X104147881Y-107724500D01*
X104147873Y-107724500D01*
X104147864Y-107724500D01*
X102552129Y-107724500D01*
X102552123Y-107724501D01*
X102492516Y-107730908D01*
X102357671Y-107781202D01*
X102357664Y-107781206D01*
X102242455Y-107867452D01*
X102242452Y-107867455D01*
X102156206Y-107982664D01*
X102156202Y-107982671D01*
X102105908Y-108117517D01*
X102099501Y-108177116D01*
X102099501Y-108177123D01*
X102099500Y-108177135D01*
X102099500Y-109172870D01*
X99700500Y-109172870D01*
X99700499Y-108177128D01*
X99694091Y-108117517D01*
X99688307Y-108102010D01*
X99643797Y-107982671D01*
X99643793Y-107982664D01*
X99557547Y-107867455D01*
X99557544Y-107867452D01*
X99442335Y-107781206D01*
X99442328Y-107781202D01*
X99307482Y-107730908D01*
X99307483Y-107730908D01*
X99247883Y-107724501D01*
X99247881Y-107724500D01*
X99247873Y-107724500D01*
X99247864Y-107724500D01*
X97652129Y-107724500D01*
X97652123Y-107724501D01*
X97592516Y-107730908D01*
X97457671Y-107781202D01*
X97457664Y-107781206D01*
X97380358Y-107839077D01*
X97314894Y-107863494D01*
X97246621Y-107848642D01*
X97197216Y-107799236D01*
X97188342Y-107778812D01*
X97184815Y-107768169D01*
X97184814Y-107768168D01*
X97184814Y-107768166D01*
X97092712Y-107618844D01*
X96968656Y-107494788D01*
X96968652Y-107494785D01*
X96884403Y-107442819D01*
X96837678Y-107390871D01*
X96825500Y-107337281D01*
X96825500Y-107234807D01*
X96825500Y-107234806D01*
X96816207Y-107194093D01*
X96815042Y-107187233D01*
X96810368Y-107145745D01*
X96810367Y-107145742D01*
X96796576Y-107106328D01*
X96794650Y-107099641D01*
X96785361Y-107058941D01*
X96767244Y-107021320D01*
X96764581Y-107014891D01*
X96750789Y-106975477D01*
X96739577Y-106957635D01*
X96728567Y-106940112D01*
X96725206Y-106934030D01*
X96707091Y-106896412D01*
X96707090Y-106896411D01*
X96681055Y-106863765D01*
X96677028Y-106858089D01*
X96654816Y-106822738D01*
X96527262Y-106695184D01*
X95236819Y-105404741D01*
X95203334Y-105343418D01*
X95200500Y-105317060D01*
X95200500Y-103182940D01*
X95220185Y-103115901D01*
X95236819Y-103095259D01*
X95495259Y-102836819D01*
X95556582Y-102803334D01*
X95582940Y-102800500D01*
X109490194Y-102800500D01*
X109530905Y-102791208D01*
X109537760Y-102790043D01*
X109579255Y-102785368D01*
X109618680Y-102771571D01*
X109625321Y-102769658D01*
X109666061Y-102760360D01*
X109703693Y-102742236D01*
X109710105Y-102739580D01*
X109749522Y-102725789D01*
X109784889Y-102703565D01*
X109790961Y-102700209D01*
X109828587Y-102682091D01*
X109861236Y-102656052D01*
X109866895Y-102652037D01*
X109902262Y-102629816D01*
X110029816Y-102502262D01*
X110897826Y-101634252D01*
X110929816Y-101602262D01*
X110952037Y-101566895D01*
X110956052Y-101561236D01*
X110982091Y-101528587D01*
X111000209Y-101490961D01*
X111003565Y-101484889D01*
X111025789Y-101449522D01*
X111039580Y-101410105D01*
X111042236Y-101403693D01*
X111060360Y-101366061D01*
X111069658Y-101325321D01*
X111071571Y-101318680D01*
X111085368Y-101279255D01*
X111090043Y-101237760D01*
X111091208Y-101230905D01*
X111098376Y-101199500D01*
X111100500Y-101190194D01*
X111100500Y-101009806D01*
X111100500Y-96067763D01*
X112920787Y-96067763D01*
X112950413Y-96337013D01*
X112950415Y-96337024D01*
X113005313Y-96547010D01*
X113018928Y-96599088D01*
X113124870Y-96848390D01*
X113265979Y-97079605D01*
X113265986Y-97079615D01*
X113439253Y-97287819D01*
X113439259Y-97287824D01*
X113491680Y-97334793D01*
X113640998Y-97468582D01*
X113866910Y-97618044D01*
X114112176Y-97733020D01*
X114112183Y-97733022D01*
X114112185Y-97733023D01*
X114371557Y-97811057D01*
X114371564Y-97811058D01*
X114371569Y-97811060D01*
X114639561Y-97850500D01*
X114639566Y-97850500D01*
X114842636Y-97850500D01*
X114894133Y-97846730D01*
X115045156Y-97835677D01*
X115203071Y-97800500D01*
X115309546Y-97776782D01*
X115309548Y-97776781D01*
X115309553Y-97776780D01*
X115562558Y-97680014D01*
X115798777Y-97547441D01*
X116013177Y-97381888D01*
X116201186Y-97186881D01*
X116358799Y-96966579D01*
X116432787Y-96822669D01*
X116482649Y-96725690D01*
X116482651Y-96725684D01*
X116482656Y-96725675D01*
X116570118Y-96469305D01*
X116619319Y-96202933D01*
X116629212Y-95932235D01*
X116599586Y-95662982D01*
X116531072Y-95400912D01*
X116425130Y-95151610D01*
X116284018Y-94920390D01*
X116268931Y-94902261D01*
X116110746Y-94712180D01*
X116110740Y-94712175D01*
X115909002Y-94531418D01*
X115683092Y-94381957D01*
X115679370Y-94380212D01*
X115437824Y-94266980D01*
X115437819Y-94266978D01*
X115437814Y-94266976D01*
X115178442Y-94188942D01*
X115178428Y-94188939D01*
X115062791Y-94171921D01*
X114910439Y-94149500D01*
X114707369Y-94149500D01*
X114707364Y-94149500D01*
X114504844Y-94164323D01*
X114504831Y-94164325D01*
X114240453Y-94223217D01*
X114240446Y-94223220D01*
X113987439Y-94319987D01*
X113751226Y-94452557D01*
X113751224Y-94452558D01*
X113751223Y-94452559D01*
X113734167Y-94465729D01*
X113536822Y-94618112D01*
X113348822Y-94813109D01*
X113348816Y-94813116D01*
X113191202Y-95033419D01*
X113191199Y-95033424D01*
X113067350Y-95274309D01*
X113067343Y-95274327D01*
X112979884Y-95530685D01*
X112979881Y-95530699D01*
X112975384Y-95555046D01*
X112932117Y-95789296D01*
X112930681Y-95797068D01*
X112930680Y-95797075D01*
X112920787Y-96067763D01*
X111100500Y-96067763D01*
X111100500Y-94582940D01*
X111120185Y-94515901D01*
X111136819Y-94495259D01*
X112595259Y-93036819D01*
X112656582Y-93003334D01*
X112682940Y-93000500D01*
X117217060Y-93000500D01*
X117284099Y-93020185D01*
G37*
G04 #@! TD.AperFunction*
G04 #@! TA.AperFunction,Conductor*
G36*
X122442539Y-103720185D02*
G01*
X122488294Y-103772989D01*
X122499500Y-103824500D01*
X122499500Y-104148716D01*
X122479815Y-104215755D01*
X122478757Y-104217374D01*
X122423713Y-104300155D01*
X122423712Y-104300157D01*
X122354355Y-104478909D01*
X122325044Y-104668396D01*
X122329421Y-104737568D01*
X122314008Y-104805717D01*
X122264199Y-104854715D01*
X122195806Y-104869005D01*
X122137010Y-104848655D01*
X122079296Y-104810279D01*
X122079294Y-104810278D01*
X121900542Y-104740921D01*
X121789330Y-104723718D01*
X121711057Y-104711610D01*
X121711055Y-104711610D01*
X121519701Y-104723718D01*
X121519699Y-104723718D01*
X121335420Y-104776680D01*
X121296684Y-104795675D01*
X121194424Y-104854715D01*
X120504001Y-105253331D01*
X120468185Y-105277377D01*
X120468178Y-105277383D01*
X120330172Y-105410492D01*
X120224009Y-105570155D01*
X120224008Y-105570157D01*
X120154651Y-105748909D01*
X120141967Y-105830908D01*
X120127440Y-105924823D01*
X120125340Y-105938396D01*
X120129757Y-106008196D01*
X120114345Y-106076345D01*
X120064535Y-106125342D01*
X119996143Y-106139633D01*
X119937346Y-106119284D01*
X119879354Y-106080724D01*
X119700706Y-106011407D01*
X119511328Y-105982113D01*
X119320081Y-105994214D01*
X119135903Y-106047148D01*
X119097180Y-106066136D01*
X119097179Y-106066136D01*
X118304597Y-106523735D01*
X118304596Y-106523735D01*
X118268786Y-106547778D01*
X118268783Y-106547781D01*
X118130854Y-106680814D01*
X118024751Y-106840387D01*
X118024750Y-106840389D01*
X117955432Y-107019040D01*
X117926138Y-107208418D01*
X117926138Y-107208427D01*
X117938239Y-107399660D01*
X117991170Y-107583836D01*
X118010161Y-107622566D01*
X118010161Y-107622567D01*
X118050183Y-107691889D01*
X120137297Y-108251129D01*
X120196957Y-108287494D01*
X120227486Y-108350341D01*
X120224978Y-108402997D01*
X120158167Y-108652344D01*
X119665738Y-110490108D01*
X119705765Y-110559435D01*
X119705765Y-110559436D01*
X119729802Y-110595237D01*
X119729811Y-110595249D01*
X119862839Y-110733169D01*
X119873217Y-110740070D01*
X119918142Y-110793582D01*
X119927006Y-110862887D01*
X119896993Y-110925982D01*
X119866558Y-110950714D01*
X94124557Y-125812865D01*
X94056657Y-125829338D01*
X93990630Y-125806485D01*
X93947439Y-125751564D01*
X93938804Y-125713308D01*
X93937350Y-125690334D01*
X93884421Y-125506165D01*
X93865433Y-125467439D01*
X93865434Y-125467440D01*
X93825404Y-125398109D01*
X91738293Y-124838870D01*
X91678633Y-124802505D01*
X91648104Y-124739658D01*
X91650612Y-124687001D01*
X91713253Y-124453222D01*
X92230891Y-124453222D01*
X93471850Y-124785736D01*
X92563404Y-123212262D01*
X92230891Y-124453222D01*
X91713253Y-124453222D01*
X91747928Y-124323813D01*
X92209851Y-122599889D01*
X92169826Y-122530565D01*
X92169826Y-122530564D01*
X92145788Y-122494762D01*
X92145779Y-122494750D01*
X92012753Y-122356831D01*
X91853173Y-122250724D01*
X91674525Y-122181407D01*
X91485147Y-122152113D01*
X91293900Y-122164214D01*
X91109722Y-122217148D01*
X91070999Y-122236136D01*
X91070998Y-122236136D01*
X90278416Y-122693735D01*
X90278415Y-122693735D01*
X90242605Y-122717778D01*
X90242602Y-122717781D01*
X90104673Y-122850814D01*
X89998570Y-123010387D01*
X89998569Y-123010389D01*
X89929251Y-123189040D01*
X89899957Y-123378418D01*
X89899957Y-123378419D01*
X89904355Y-123447916D01*
X89888943Y-123516064D01*
X89839133Y-123565062D01*
X89770741Y-123579353D01*
X89711945Y-123559004D01*
X89653703Y-123520278D01*
X89474951Y-123450921D01*
X89363739Y-123433718D01*
X89285466Y-123421610D01*
X89285464Y-123421610D01*
X89094110Y-123433718D01*
X89094108Y-123433718D01*
X88909829Y-123486680D01*
X88871093Y-123505675D01*
X88735261Y-123584098D01*
X88078410Y-123963331D01*
X88042594Y-123987377D01*
X88042587Y-123987383D01*
X87904581Y-124120492D01*
X87798418Y-124280155D01*
X87798417Y-124280157D01*
X87729060Y-124458909D01*
X87699749Y-124648396D01*
X87704126Y-124717568D01*
X87688713Y-124785717D01*
X87638904Y-124834715D01*
X87570511Y-124849005D01*
X87511715Y-124828655D01*
X87454001Y-124790279D01*
X87379644Y-124761428D01*
X87324266Y-124718825D01*
X87300710Y-124653046D01*
X87300500Y-124645825D01*
X87300500Y-122682940D01*
X87320185Y-122615901D01*
X87336819Y-122595259D01*
X91395259Y-118536819D01*
X91456582Y-118503334D01*
X91482940Y-118500500D01*
X102890194Y-118500500D01*
X102930905Y-118491208D01*
X102937760Y-118490043D01*
X102979255Y-118485368D01*
X103018680Y-118471571D01*
X103025321Y-118469658D01*
X103066061Y-118460360D01*
X103103693Y-118442236D01*
X103110105Y-118439580D01*
X103149522Y-118425789D01*
X103184889Y-118403565D01*
X103190961Y-118400209D01*
X103228587Y-118382091D01*
X103261236Y-118356052D01*
X103266895Y-118352037D01*
X103302262Y-118329816D01*
X103429816Y-118202262D01*
X113327816Y-108304262D01*
X118403739Y-108304262D01*
X119312185Y-109877736D01*
X119644698Y-108636776D01*
X118403739Y-108304262D01*
X113327816Y-108304262D01*
X117895259Y-103736819D01*
X117956582Y-103703334D01*
X117982940Y-103700500D01*
X122375500Y-103700500D01*
X122442539Y-103720185D01*
G37*
G04 #@! TD.AperFunction*
G04 #@! TA.AperFunction,Conductor*
G36*
X83233480Y-94544097D02*
G01*
X83263280Y-94560567D01*
X83307664Y-94593793D01*
X83307671Y-94593797D01*
X83442517Y-94644091D01*
X83442516Y-94644091D01*
X83449444Y-94644835D01*
X83502127Y-94650500D01*
X84467059Y-94650499D01*
X84534098Y-94670183D01*
X84554740Y-94686818D01*
X85763181Y-95895259D01*
X85796666Y-95956582D01*
X85799500Y-95982940D01*
X85799500Y-111617060D01*
X85779815Y-111684099D01*
X85763181Y-111704741D01*
X74970186Y-122497735D01*
X74970183Y-122497739D01*
X74947966Y-122533096D01*
X74943941Y-122538769D01*
X74917910Y-122571410D01*
X74899791Y-122609033D01*
X74896427Y-122615120D01*
X74874212Y-122650476D01*
X74874208Y-122650483D01*
X74860416Y-122689895D01*
X74857755Y-122696320D01*
X74839639Y-122733939D01*
X74830344Y-122774659D01*
X74828419Y-122781341D01*
X74814632Y-122820744D01*
X74809955Y-122862235D01*
X74808791Y-122869089D01*
X74799500Y-122909806D01*
X74799500Y-123517059D01*
X74779815Y-123584098D01*
X74763181Y-123604740D01*
X73954234Y-124413687D01*
X73892911Y-124447172D01*
X73823219Y-124442188D01*
X73767286Y-124400316D01*
X73742869Y-124334852D01*
X73750370Y-124282675D01*
X73769091Y-124232483D01*
X73775500Y-124172873D01*
X73775499Y-123177128D01*
X73769091Y-123117517D01*
X73739243Y-123037491D01*
X73718797Y-122982671D01*
X73718793Y-122982664D01*
X73632547Y-122867455D01*
X73632544Y-122867452D01*
X73517335Y-122781206D01*
X73517328Y-122781202D01*
X73382482Y-122730908D01*
X73382483Y-122730908D01*
X73322883Y-122724501D01*
X73322881Y-122724500D01*
X73322873Y-122724500D01*
X73322865Y-122724500D01*
X72700493Y-122724500D01*
X72634519Y-122705492D01*
X72624528Y-122699214D01*
X72624525Y-122699212D01*
X72600322Y-122690743D01*
X72585113Y-122685420D01*
X72578688Y-122682759D01*
X72541061Y-122664639D01*
X72500345Y-122655345D01*
X72493662Y-122653420D01*
X72454259Y-122639632D01*
X72412763Y-122634955D01*
X72405908Y-122633791D01*
X72365200Y-122624501D01*
X72365196Y-122624500D01*
X72365194Y-122624500D01*
X72365191Y-122624500D01*
X71199730Y-122624500D01*
X71132691Y-122604815D01*
X71112049Y-122588181D01*
X71018656Y-122494788D01*
X71018652Y-122494785D01*
X70934403Y-122442819D01*
X70887678Y-122390871D01*
X70875500Y-122337281D01*
X70875500Y-117084805D01*
X70875499Y-117084802D01*
X70872163Y-117070186D01*
X70866203Y-117044076D01*
X70865044Y-117037251D01*
X70860368Y-116995745D01*
X70846574Y-116956324D01*
X70844652Y-116949655D01*
X70835359Y-116908939D01*
X70817245Y-116871326D01*
X70814583Y-116864898D01*
X70800789Y-116825478D01*
X70778563Y-116790106D01*
X70775213Y-116784044D01*
X70757091Y-116746413D01*
X70731049Y-116713757D01*
X70727038Y-116708104D01*
X70713017Y-116685790D01*
X70704818Y-116672740D01*
X67926819Y-113894741D01*
X67893334Y-113833418D01*
X67890500Y-113807060D01*
X67890500Y-113092940D01*
X67910185Y-113025901D01*
X67926819Y-113005259D01*
X74855733Y-106076345D01*
X81797826Y-99134252D01*
X81797827Y-99134251D01*
X81829816Y-99102262D01*
X81852037Y-99066895D01*
X81856052Y-99061236D01*
X81882091Y-99028587D01*
X81900215Y-98990949D01*
X81903564Y-98984891D01*
X81925789Y-98949522D01*
X81939581Y-98910103D01*
X81942242Y-98903681D01*
X81949472Y-98888667D01*
X81960359Y-98866061D01*
X81969652Y-98825342D01*
X81971574Y-98818675D01*
X81985368Y-98779255D01*
X81990044Y-98737747D01*
X81991204Y-98730919D01*
X82000500Y-98690195D01*
X82000500Y-98509806D01*
X82000500Y-98509805D01*
X82000500Y-97250000D01*
X83050000Y-97250000D01*
X83050000Y-97497844D01*
X83056401Y-97557372D01*
X83056403Y-97557379D01*
X83106645Y-97692086D01*
X83106649Y-97692093D01*
X83192809Y-97807187D01*
X83192812Y-97807190D01*
X83307906Y-97893350D01*
X83307913Y-97893354D01*
X83442620Y-97943596D01*
X83442627Y-97943598D01*
X83502155Y-97949999D01*
X83502172Y-97950000D01*
X84050000Y-97950000D01*
X84050000Y-97250000D01*
X84550000Y-97250000D01*
X84550000Y-97950000D01*
X85097828Y-97950000D01*
X85097844Y-97949999D01*
X85157372Y-97943598D01*
X85157379Y-97943596D01*
X85292086Y-97893354D01*
X85292093Y-97893350D01*
X85407187Y-97807190D01*
X85407190Y-97807187D01*
X85493350Y-97692093D01*
X85493354Y-97692086D01*
X85543596Y-97557379D01*
X85543598Y-97557372D01*
X85549999Y-97497844D01*
X85550000Y-97497827D01*
X85550000Y-97250000D01*
X84550000Y-97250000D01*
X84050000Y-97250000D01*
X83050000Y-97250000D01*
X82000500Y-97250000D01*
X82000500Y-96750000D01*
X83050000Y-96750000D01*
X84050000Y-96750000D01*
X84050000Y-96050000D01*
X84550000Y-96050000D01*
X84550000Y-96750000D01*
X85550000Y-96750000D01*
X85550000Y-96502172D01*
X85549999Y-96502155D01*
X85543598Y-96442627D01*
X85543596Y-96442620D01*
X85493354Y-96307913D01*
X85493350Y-96307906D01*
X85407190Y-96192812D01*
X85407187Y-96192809D01*
X85292093Y-96106649D01*
X85292086Y-96106645D01*
X85157379Y-96056403D01*
X85157372Y-96056401D01*
X85097844Y-96050000D01*
X84550000Y-96050000D01*
X84050000Y-96050000D01*
X83502155Y-96050000D01*
X83442627Y-96056401D01*
X83442620Y-96056403D01*
X83307913Y-96106645D01*
X83307906Y-96106649D01*
X83192812Y-96192809D01*
X83192809Y-96192812D01*
X83106649Y-96307906D01*
X83106645Y-96307913D01*
X83056403Y-96442620D01*
X83056401Y-96442627D01*
X83050000Y-96502155D01*
X83050000Y-96750000D01*
X82000500Y-96750000D01*
X82000500Y-95882940D01*
X82020185Y-95815901D01*
X82036819Y-95795259D01*
X82475724Y-95356354D01*
X82897826Y-94934252D01*
X82929816Y-94902262D01*
X82952041Y-94866889D01*
X82956039Y-94861255D01*
X82982092Y-94828587D01*
X83000209Y-94790965D01*
X83003575Y-94784874D01*
X83004163Y-94783939D01*
X83025789Y-94749522D01*
X83039578Y-94710109D01*
X83042235Y-94703695D01*
X83060360Y-94666061D01*
X83068078Y-94632243D01*
X83102183Y-94571266D01*
X83163843Y-94538405D01*
X83233480Y-94544097D01*
G37*
G04 #@! TD.AperFunction*
G04 #@! TA.AperFunction,Conductor*
G36*
X66746291Y-80902006D02*
G01*
X66777787Y-80924865D01*
X66963181Y-81110259D01*
X66996666Y-81171582D01*
X66999500Y-81197940D01*
X66999500Y-92240191D01*
X66999501Y-92240200D01*
X67008791Y-92280908D01*
X67009955Y-92287763D01*
X67014632Y-92329259D01*
X67028420Y-92368662D01*
X67030345Y-92375345D01*
X67039639Y-92416061D01*
X67057759Y-92453688D01*
X67060421Y-92460114D01*
X67074212Y-92499525D01*
X67096422Y-92534872D01*
X67099787Y-92540959D01*
X67117910Y-92578589D01*
X67143940Y-92611229D01*
X67147966Y-92616904D01*
X67170182Y-92652259D01*
X67170184Y-92652262D01*
X67202174Y-92684252D01*
X67733652Y-93215730D01*
X68180241Y-93662318D01*
X68213726Y-93723641D01*
X68208742Y-93793332D01*
X68180241Y-93837680D01*
X67597738Y-94420184D01*
X67470186Y-94547735D01*
X67470183Y-94547739D01*
X67447966Y-94583096D01*
X67443941Y-94588769D01*
X67417910Y-94621410D01*
X67399791Y-94659033D01*
X67396427Y-94665120D01*
X67374212Y-94700476D01*
X67374208Y-94700483D01*
X67360416Y-94739895D01*
X67357755Y-94746320D01*
X67339639Y-94783939D01*
X67330344Y-94824659D01*
X67328419Y-94831341D01*
X67314632Y-94870744D01*
X67309955Y-94912235D01*
X67308791Y-94919089D01*
X67299500Y-94959806D01*
X67299500Y-109267059D01*
X67279815Y-109334098D01*
X67263181Y-109354740D01*
X66777787Y-109840134D01*
X66716464Y-109873619D01*
X66646772Y-109868635D01*
X66590839Y-109826763D01*
X66566422Y-109761299D01*
X66569772Y-109722526D01*
X66597579Y-109610712D01*
X66597578Y-109610712D01*
X66597581Y-109610704D01*
X66600500Y-109567657D01*
X66600499Y-108652344D01*
X66597581Y-108609296D01*
X66551307Y-108423225D01*
X66483991Y-108287494D01*
X66466118Y-108251456D01*
X66466116Y-108251453D01*
X66345990Y-108102010D01*
X66345989Y-108102009D01*
X66196546Y-107981883D01*
X66133889Y-107950808D01*
X66082576Y-107903386D01*
X66065048Y-107835751D01*
X66086868Y-107769376D01*
X66133891Y-107728631D01*
X66196275Y-107697692D01*
X66345633Y-107577634D01*
X66345634Y-107577633D01*
X66465692Y-107428275D01*
X66550834Y-107256602D01*
X66597081Y-107070640D01*
X66600000Y-107027608D01*
X66599999Y-106112394D01*
X66597082Y-106069366D01*
X66597082Y-106069365D01*
X66550834Y-105883397D01*
X66465692Y-105711724D01*
X66345634Y-105562366D01*
X66345633Y-105562365D01*
X66196274Y-105442307D01*
X66196275Y-105442307D01*
X66024602Y-105357165D01*
X65838638Y-105310918D01*
X65838641Y-105310918D01*
X65795608Y-105308000D01*
X65715551Y-105308000D01*
X64187680Y-106835871D01*
X64126357Y-106869356D01*
X64056665Y-106864372D01*
X64012318Y-106835871D01*
X62484447Y-105308000D01*
X63191552Y-105308000D01*
X64100000Y-106216447D01*
X64100001Y-106216447D01*
X65008446Y-105308000D01*
X63191552Y-105308000D01*
X62484447Y-105308000D01*
X62404394Y-105308001D01*
X62361366Y-105310917D01*
X62361365Y-105310917D01*
X62175395Y-105357166D01*
X62169087Y-105359484D01*
X62168264Y-105357245D01*
X62110286Y-105367483D01*
X62045835Y-105340505D01*
X62006201Y-105282965D01*
X62000000Y-105244244D01*
X62000000Y-100499500D01*
X62019685Y-100432461D01*
X62072489Y-100386706D01*
X62124000Y-100375500D01*
X62193327Y-100375500D01*
X62628318Y-100337443D01*
X63058337Y-100261619D01*
X63206570Y-100221899D01*
X63480104Y-100148608D01*
X63480104Y-100148607D01*
X63480112Y-100148605D01*
X63890432Y-99999261D01*
X63890431Y-99999261D01*
X63890443Y-99999257D01*
X64286172Y-99814725D01*
X64286172Y-99814724D01*
X64299629Y-99806955D01*
X64664326Y-99596397D01*
X64664326Y-99596396D01*
X64664331Y-99596394D01*
X65022013Y-99345942D01*
X65022013Y-99345943D01*
X65356508Y-99065267D01*
X65665267Y-98756508D01*
X65945943Y-98422013D01*
X65945942Y-98422013D01*
X65945943Y-98422012D01*
X66089452Y-98217060D01*
X66196394Y-98064331D01*
X66251381Y-97969091D01*
X66414723Y-97686174D01*
X66414724Y-97686172D01*
X66414725Y-97686172D01*
X66599257Y-97290443D01*
X66617224Y-97241080D01*
X66748605Y-96880112D01*
X66748607Y-96880104D01*
X66748608Y-96880104D01*
X66843186Y-96527129D01*
X66861619Y-96458337D01*
X66937443Y-96028318D01*
X66975500Y-95593327D01*
X66975500Y-95156673D01*
X66937443Y-94721682D01*
X66861619Y-94291663D01*
X66804855Y-94079816D01*
X66748608Y-93869896D01*
X66748607Y-93869896D01*
X66748605Y-93869888D01*
X66599261Y-93459568D01*
X66599257Y-93459557D01*
X66414725Y-93063828D01*
X66414724Y-93063828D01*
X66414723Y-93063826D01*
X66196397Y-92685674D01*
X66196396Y-92685673D01*
X66196394Y-92685669D01*
X66015751Y-92427685D01*
X65945943Y-92327988D01*
X65945942Y-92327987D01*
X65945943Y-92327987D01*
X65685281Y-92017344D01*
X65665268Y-91993493D01*
X65356507Y-91684732D01*
X65157697Y-91517910D01*
X65022013Y-91404057D01*
X65022013Y-91404058D01*
X65022012Y-91404057D01*
X64752609Y-91215419D01*
X64664331Y-91153606D01*
X64402043Y-91002174D01*
X64286174Y-90935277D01*
X64286172Y-90935276D01*
X64286172Y-90935275D01*
X63890443Y-90750743D01*
X63806485Y-90720185D01*
X63480112Y-90601395D01*
X63480104Y-90601392D01*
X63188362Y-90523221D01*
X63058337Y-90488381D01*
X62628318Y-90412557D01*
X62193327Y-90374500D01*
X62124000Y-90374500D01*
X62056961Y-90354815D01*
X62011206Y-90302011D01*
X62000000Y-90250500D01*
X62000000Y-85520755D01*
X62019685Y-85453716D01*
X62072489Y-85407961D01*
X62141647Y-85398017D01*
X62168743Y-85406451D01*
X62169087Y-85405516D01*
X62175395Y-85407833D01*
X62361361Y-85454081D01*
X62361358Y-85454081D01*
X62404392Y-85457000D01*
X62484446Y-85456999D01*
X62484448Y-85456998D01*
X63191552Y-85456998D01*
X63191553Y-85456999D01*
X65008446Y-85456999D01*
X65008446Y-85456998D01*
X64100000Y-84548553D01*
X63191552Y-85456998D01*
X62484448Y-85456998D01*
X64012319Y-83929128D01*
X64073642Y-83895643D01*
X64143334Y-83900627D01*
X64187681Y-83929128D01*
X65715552Y-85456999D01*
X65795607Y-85456999D01*
X65838632Y-85454082D01*
X65838634Y-85454082D01*
X66024602Y-85407834D01*
X66196275Y-85322692D01*
X66345633Y-85202634D01*
X66345634Y-85202633D01*
X66465692Y-85053275D01*
X66550834Y-84881602D01*
X66597081Y-84695640D01*
X66600000Y-84652608D01*
X66599999Y-83737394D01*
X66597082Y-83694366D01*
X66597082Y-83694365D01*
X66550834Y-83508397D01*
X66465692Y-83336724D01*
X66345634Y-83187366D01*
X66345633Y-83187365D01*
X66196274Y-83067307D01*
X66196272Y-83067305D01*
X66133890Y-83036367D01*
X66082577Y-82988946D01*
X66065047Y-82921311D01*
X66086867Y-82854936D01*
X66133887Y-82814192D01*
X66196547Y-82783116D01*
X66345990Y-82662990D01*
X66466116Y-82513547D01*
X66551307Y-82341775D01*
X66597581Y-82155704D01*
X66600500Y-82112657D01*
X66600499Y-81197344D01*
X66597581Y-81154296D01*
X66569771Y-81042470D01*
X66572695Y-80972664D01*
X66612895Y-80915518D01*
X66677610Y-80889177D01*
X66746291Y-80902006D01*
G37*
G04 #@! TD.AperFunction*
G04 #@! TA.AperFunction,Conductor*
G36*
X74105702Y-95938226D02*
G01*
X74112180Y-95944258D01*
X75670184Y-97502262D01*
X75797738Y-97629816D01*
X75833089Y-97652028D01*
X75838765Y-97656055D01*
X75871411Y-97682090D01*
X75871412Y-97682091D01*
X75879887Y-97686172D01*
X75909035Y-97700208D01*
X75915112Y-97703567D01*
X75932635Y-97714577D01*
X75950477Y-97725789D01*
X75989891Y-97739581D01*
X75996320Y-97742244D01*
X76033941Y-97760361D01*
X76074641Y-97769650D01*
X76081328Y-97771576D01*
X76120742Y-97785367D01*
X76120745Y-97785368D01*
X76162241Y-97790043D01*
X76169093Y-97791207D01*
X76209806Y-97800500D01*
X76255046Y-97800500D01*
X78241769Y-97800500D01*
X78308808Y-97820185D01*
X78316080Y-97825233D01*
X78349833Y-97850500D01*
X78407073Y-97893350D01*
X78407668Y-97893795D01*
X78407671Y-97893797D01*
X78542517Y-97944091D01*
X78542516Y-97944091D01*
X78549444Y-97944835D01*
X78602127Y-97950500D01*
X80197872Y-97950499D01*
X80251407Y-97944744D01*
X80262247Y-97943579D01*
X80331006Y-97955986D01*
X80382143Y-98003597D01*
X80399500Y-98066869D01*
X80399500Y-98217059D01*
X80379815Y-98284098D01*
X80363181Y-98304740D01*
X69112181Y-109555740D01*
X69050858Y-109589225D01*
X68981166Y-109584241D01*
X68925233Y-109542369D01*
X68900816Y-109476905D01*
X68900500Y-109468059D01*
X68900500Y-99873994D01*
X68920185Y-99806955D01*
X68972989Y-99761200D01*
X69042147Y-99751256D01*
X69105703Y-99780281D01*
X69121148Y-99796308D01*
X69154366Y-99837634D01*
X69303725Y-99957692D01*
X69303724Y-99957692D01*
X69475397Y-100042834D01*
X69661361Y-100089081D01*
X69661358Y-100089081D01*
X69704392Y-100092000D01*
X69784446Y-100091999D01*
X69784448Y-100091998D01*
X70491552Y-100091998D01*
X70491553Y-100091999D01*
X72308446Y-100091999D01*
X72308446Y-100091998D01*
X71400000Y-99183553D01*
X70491552Y-100091998D01*
X69784448Y-100091998D01*
X71312319Y-98564128D01*
X71373642Y-98530643D01*
X71443334Y-98535627D01*
X71487681Y-98564128D01*
X73015552Y-100091999D01*
X73095607Y-100091999D01*
X73138632Y-100089082D01*
X73138634Y-100089082D01*
X73324602Y-100042834D01*
X73496275Y-99957692D01*
X73645633Y-99837634D01*
X73645634Y-99837633D01*
X73765692Y-99688275D01*
X73850834Y-99516602D01*
X73897081Y-99330640D01*
X73900000Y-99287608D01*
X73899999Y-98372394D01*
X73897082Y-98329366D01*
X73897082Y-98329365D01*
X73850834Y-98143397D01*
X73765692Y-97971724D01*
X73645634Y-97822366D01*
X73645633Y-97822365D01*
X73496274Y-97702307D01*
X73496272Y-97702305D01*
X73433890Y-97671367D01*
X73382577Y-97623946D01*
X73365047Y-97556311D01*
X73386867Y-97489936D01*
X73433887Y-97449192D01*
X73496547Y-97418116D01*
X73645990Y-97297990D01*
X73766116Y-97148547D01*
X73851307Y-96976775D01*
X73897581Y-96790704D01*
X73900500Y-96747657D01*
X73900499Y-96031938D01*
X73920183Y-95964900D01*
X73972987Y-95919145D01*
X74042146Y-95909201D01*
X74105702Y-95938226D01*
G37*
G04 #@! TD.AperFunction*
G04 #@! TA.AperFunction,Conductor*
G36*
X73884099Y-75220185D02*
G01*
X73904741Y-75236819D01*
X77197740Y-78529818D01*
X77210790Y-78538017D01*
X77233104Y-78552038D01*
X77238757Y-78556049D01*
X77271413Y-78582091D01*
X77309044Y-78600213D01*
X77315106Y-78603563D01*
X77332187Y-78614296D01*
X77350478Y-78625789D01*
X77389898Y-78639583D01*
X77396326Y-78642245D01*
X77433939Y-78660359D01*
X77474655Y-78669652D01*
X77481324Y-78671574D01*
X77520745Y-78685368D01*
X77562251Y-78690044D01*
X77569076Y-78691203D01*
X77609805Y-78700500D01*
X77655046Y-78700500D01*
X92517060Y-78700500D01*
X92584099Y-78720185D01*
X92604741Y-78736819D01*
X93363181Y-79495259D01*
X93396666Y-79556582D01*
X93399500Y-79582940D01*
X93399500Y-82090191D01*
X93399501Y-82090200D01*
X93408791Y-82130908D01*
X93409955Y-82137763D01*
X93414632Y-82179259D01*
X93428420Y-82218662D01*
X93430345Y-82225345D01*
X93439639Y-82266061D01*
X93457759Y-82303688D01*
X93460421Y-82310114D01*
X93474212Y-82349525D01*
X93496422Y-82384872D01*
X93499787Y-82390959D01*
X93517910Y-82428589D01*
X93543940Y-82461229D01*
X93547966Y-82466904D01*
X93564223Y-82492775D01*
X93570184Y-82502262D01*
X93602174Y-82534252D01*
X104045184Y-92977262D01*
X104172738Y-93104816D01*
X104208089Y-93127028D01*
X104213765Y-93131055D01*
X104246411Y-93157090D01*
X104246412Y-93157091D01*
X104264288Y-93165699D01*
X104284035Y-93175208D01*
X104290112Y-93178567D01*
X104307635Y-93189577D01*
X104325477Y-93200789D01*
X104364891Y-93214581D01*
X104371320Y-93217244D01*
X104408941Y-93235361D01*
X104449641Y-93244650D01*
X104456328Y-93246576D01*
X104495742Y-93260367D01*
X104495745Y-93260368D01*
X104537241Y-93265043D01*
X104544093Y-93266207D01*
X104584806Y-93275500D01*
X104630046Y-93275500D01*
X106385874Y-93275500D01*
X106452913Y-93295185D01*
X106486273Y-93328626D01*
X106486672Y-93328307D01*
X106489647Y-93332009D01*
X106490353Y-93332716D01*
X106490884Y-93333547D01*
X106611009Y-93482989D01*
X106611010Y-93482990D01*
X106760453Y-93603116D01*
X106760456Y-93603118D01*
X106879823Y-93662318D01*
X106932225Y-93688307D01*
X107024775Y-93711323D01*
X107082530Y-93743977D01*
X109373417Y-96034864D01*
X109382211Y-96035341D01*
X109448087Y-96058625D01*
X109490917Y-96113828D01*
X109499500Y-96159159D01*
X109499500Y-96377072D01*
X109479815Y-96444111D01*
X109427011Y-96489866D01*
X109357853Y-96499810D01*
X109297813Y-96473720D01*
X109292332Y-96469314D01*
X109239547Y-96426884D01*
X109239544Y-96426882D01*
X109239541Y-96426880D01*
X109067778Y-96341694D01*
X109067771Y-96341691D01*
X108975223Y-96318675D01*
X108917469Y-96286022D01*
X108000000Y-95368553D01*
X107082527Y-96286023D01*
X107024773Y-96318676D01*
X106932228Y-96341691D01*
X106932221Y-96341694D01*
X106760456Y-96426881D01*
X106760453Y-96426883D01*
X106611010Y-96547009D01*
X106611009Y-96547010D01*
X106490884Y-96696452D01*
X106490353Y-96697284D01*
X106489896Y-96697681D01*
X106486672Y-96701693D01*
X106485953Y-96701115D01*
X106437662Y-96743168D01*
X106385874Y-96754500D01*
X106263791Y-96754500D01*
X106196752Y-96734815D01*
X106180253Y-96722137D01*
X106066041Y-96618019D01*
X106066034Y-96618015D01*
X106066032Y-96618013D01*
X105892642Y-96510655D01*
X105892635Y-96510651D01*
X105781289Y-96467516D01*
X105702456Y-96436976D01*
X105501976Y-96399500D01*
X105298024Y-96399500D01*
X105097544Y-96436976D01*
X105097541Y-96436976D01*
X105097541Y-96436977D01*
X104907364Y-96510651D01*
X104907357Y-96510655D01*
X104733967Y-96618013D01*
X104733960Y-96618018D01*
X104733959Y-96618019D01*
X104624087Y-96718181D01*
X104619747Y-96722137D01*
X104556943Y-96752754D01*
X104536209Y-96754500D01*
X93137940Y-96754500D01*
X93070901Y-96734815D01*
X93050259Y-96718181D01*
X90889470Y-94557392D01*
X106357000Y-94557392D01*
X106357001Y-95472606D01*
X106359917Y-95515633D01*
X106359917Y-95515634D01*
X106406165Y-95701602D01*
X106491307Y-95873275D01*
X106611363Y-96022632D01*
X106626580Y-96034864D01*
X107646447Y-95015000D01*
X107646447Y-95014999D01*
X106626581Y-93995133D01*
X106611368Y-94007363D01*
X106611362Y-94007369D01*
X106491307Y-94156724D01*
X106406165Y-94328397D01*
X106359918Y-94514359D01*
X106357000Y-94557392D01*
X90889470Y-94557392D01*
X86802262Y-90470184D01*
X86802259Y-90470182D01*
X86766904Y-90447966D01*
X86761229Y-90443940D01*
X86728589Y-90417910D01*
X86690959Y-90399787D01*
X86684872Y-90396422D01*
X86649525Y-90374212D01*
X86610114Y-90360421D01*
X86603688Y-90357759D01*
X86566061Y-90339639D01*
X86525345Y-90330345D01*
X86518662Y-90328420D01*
X86479259Y-90314632D01*
X86437763Y-90309955D01*
X86430908Y-90308791D01*
X86390200Y-90299501D01*
X86390196Y-90299500D01*
X86390194Y-90299500D01*
X86390191Y-90299500D01*
X73783774Y-90299500D01*
X73716735Y-90279815D01*
X73687127Y-90253187D01*
X73684967Y-90250500D01*
X73645990Y-90202010D01*
X73496547Y-90081884D01*
X73496546Y-90081883D01*
X73496543Y-90081881D01*
X73324778Y-89996694D01*
X73324776Y-89996693D01*
X73324775Y-89996693D01*
X73286939Y-89987283D01*
X73138708Y-89950419D01*
X73095658Y-89947500D01*
X73095657Y-89947500D01*
X69704344Y-89947501D01*
X69704343Y-89947501D01*
X69661298Y-89950418D01*
X69661297Y-89950418D01*
X69475221Y-89996694D01*
X69303456Y-90081881D01*
X69303453Y-90081883D01*
X69154010Y-90202009D01*
X69154009Y-90202010D01*
X69033883Y-90351453D01*
X69033881Y-90351456D01*
X68948694Y-90523221D01*
X68902419Y-90709291D01*
X68899500Y-90752342D01*
X68899501Y-91667656D01*
X68899501Y-91667657D01*
X68902418Y-91710701D01*
X68902419Y-91710705D01*
X68930228Y-91822529D01*
X68927304Y-91892337D01*
X68887103Y-91949483D01*
X68822388Y-91975823D01*
X68753707Y-91962994D01*
X68722217Y-91940139D01*
X68636816Y-91854738D01*
X68603334Y-91793417D01*
X68600500Y-91767060D01*
X68600500Y-80724807D01*
X68600500Y-80724806D01*
X68591207Y-80684093D01*
X68590042Y-80677233D01*
X68585368Y-80635745D01*
X68585367Y-80635742D01*
X68571576Y-80596328D01*
X68569650Y-80589641D01*
X68560361Y-80548941D01*
X68542244Y-80511320D01*
X68539581Y-80504891D01*
X68525789Y-80465477D01*
X68510844Y-80441693D01*
X68503567Y-80430112D01*
X68500206Y-80424030D01*
X68482091Y-80386412D01*
X68482090Y-80386411D01*
X68456055Y-80353765D01*
X68452028Y-80348089D01*
X68429816Y-80312738D01*
X68302262Y-80185184D01*
X67319759Y-79202681D01*
X67286274Y-79141358D01*
X67291258Y-79071666D01*
X67319759Y-79027319D01*
X68971578Y-77375500D01*
X70797827Y-75549251D01*
X70829816Y-75517262D01*
X70835642Y-75507988D01*
X70887976Y-75461696D01*
X70957029Y-75451046D01*
X70985432Y-75458331D01*
X70997544Y-75463024D01*
X71198024Y-75500500D01*
X71198026Y-75500500D01*
X71401974Y-75500500D01*
X71401976Y-75500500D01*
X71602456Y-75463024D01*
X71792637Y-75389348D01*
X71966041Y-75281981D01*
X72019922Y-75232861D01*
X72082724Y-75202246D01*
X72103459Y-75200500D01*
X73455046Y-75200500D01*
X73817060Y-75200500D01*
X73884099Y-75220185D01*
G37*
G04 #@! TD.AperFunction*
G04 #@! TA.AperFunction,Conductor*
G36*
X78463529Y-94614630D02*
G01*
X78542517Y-94644091D01*
X78602127Y-94650500D01*
X79167059Y-94650499D01*
X79234098Y-94670183D01*
X79254740Y-94686818D01*
X80363181Y-95795259D01*
X80396666Y-95856582D01*
X80399500Y-95882940D01*
X80399500Y-95933131D01*
X80379815Y-96000170D01*
X80327011Y-96045925D01*
X80262246Y-96056421D01*
X80255756Y-96055723D01*
X80197873Y-96049500D01*
X80197865Y-96049500D01*
X78602129Y-96049500D01*
X78602122Y-96049501D01*
X78561044Y-96053917D01*
X78492284Y-96041510D01*
X78441148Y-95993898D01*
X78423870Y-95926199D01*
X78424434Y-95918016D01*
X78424999Y-95912485D01*
X78425000Y-95912473D01*
X78425000Y-95775000D01*
X77074000Y-95775000D01*
X77006961Y-95755315D01*
X76961206Y-95702511D01*
X76950000Y-95651000D01*
X76950000Y-95399000D01*
X76969685Y-95331961D01*
X77022489Y-95286206D01*
X77074000Y-95275000D01*
X78424999Y-95275000D01*
X78424999Y-95137528D01*
X78424998Y-95137513D01*
X78414505Y-95034802D01*
X78359358Y-94868380D01*
X78359356Y-94868375D01*
X78314659Y-94795910D01*
X78296219Y-94728517D01*
X78317142Y-94661854D01*
X78370784Y-94617084D01*
X78440114Y-94608423D01*
X78463529Y-94614630D01*
G37*
G04 #@! TD.AperFunction*
G04 #@! TA.AperFunction,Conductor*
G36*
X99930702Y-78463226D02*
G01*
X99937180Y-78469258D01*
X100768616Y-79300694D01*
X100802101Y-79362017D01*
X100804935Y-79388375D01*
X100804935Y-80174003D01*
X100785250Y-80241042D01*
X100732446Y-80286797D01*
X100680935Y-80298003D01*
X99389516Y-80298003D01*
X99343323Y-80313012D01*
X99304935Y-80365849D01*
X99304935Y-80431157D01*
X99343323Y-80483993D01*
X99389518Y-80499003D01*
X100680935Y-80499003D01*
X100747974Y-80518688D01*
X100793729Y-80571492D01*
X100804935Y-80623003D01*
X100804935Y-80811625D01*
X100785250Y-80878664D01*
X100768616Y-80899306D01*
X100675621Y-80992300D01*
X100675618Y-80992304D01*
X100653401Y-81027661D01*
X100649376Y-81033334D01*
X100623345Y-81065975D01*
X100605226Y-81103598D01*
X100601862Y-81109685D01*
X100579647Y-81145041D01*
X100579643Y-81145048D01*
X100565851Y-81184460D01*
X100563190Y-81190885D01*
X100545074Y-81228504D01*
X100535779Y-81269224D01*
X100533854Y-81275906D01*
X100520067Y-81315308D01*
X100515390Y-81356801D01*
X100514226Y-81363654D01*
X100505570Y-81401589D01*
X100471464Y-81462569D01*
X100409804Y-81495430D01*
X100384677Y-81498003D01*
X99886878Y-81498003D01*
X99819839Y-81478318D01*
X99799197Y-81461684D01*
X99757697Y-81420184D01*
X99757694Y-81420182D01*
X99722339Y-81397966D01*
X99716664Y-81393940D01*
X99678578Y-81363567D01*
X99679589Y-81362299D01*
X99655949Y-81340508D01*
X99582546Y-81242454D01*
X99526208Y-81200279D01*
X99467335Y-81156206D01*
X99467328Y-81156202D01*
X99332482Y-81105908D01*
X99332483Y-81105908D01*
X99272883Y-81099501D01*
X99272881Y-81099500D01*
X99272873Y-81099500D01*
X99272864Y-81099500D01*
X97677129Y-81099500D01*
X97677123Y-81099501D01*
X97617515Y-81105909D01*
X97485150Y-81155277D01*
X97415459Y-81160261D01*
X97354136Y-81126775D01*
X97320651Y-81065452D01*
X97318460Y-81026492D01*
X97324999Y-80962486D01*
X97325000Y-80962473D01*
X97325000Y-80825000D01*
X96350000Y-80825000D01*
X96350000Y-81662499D01*
X96624972Y-81662499D01*
X96624986Y-81662498D01*
X96727697Y-81652005D01*
X96894119Y-81596858D01*
X96894130Y-81596853D01*
X97035403Y-81509715D01*
X97102795Y-81491274D01*
X97169459Y-81512196D01*
X97214229Y-81565838D01*
X97224500Y-81615253D01*
X97224500Y-82547870D01*
X97224501Y-82547876D01*
X97230908Y-82607483D01*
X97281202Y-82742328D01*
X97281206Y-82742335D01*
X97367452Y-82857544D01*
X97367455Y-82857547D01*
X97482664Y-82943793D01*
X97482671Y-82943797D01*
X97617517Y-82994091D01*
X97617516Y-82994091D01*
X97624444Y-82994835D01*
X97677127Y-83000500D01*
X99080826Y-83000499D01*
X99146796Y-83019504D01*
X99154416Y-83024292D01*
X99171415Y-83030240D01*
X99193836Y-83038086D01*
X99200264Y-83040748D01*
X99237877Y-83058862D01*
X99278593Y-83068155D01*
X99285262Y-83070077D01*
X99324683Y-83083871D01*
X99366189Y-83088547D01*
X99373014Y-83089706D01*
X99413743Y-83099003D01*
X101161314Y-83099003D01*
X101202025Y-83089711D01*
X101208880Y-83088546D01*
X101250375Y-83083871D01*
X101289800Y-83070074D01*
X101296441Y-83068161D01*
X101337181Y-83058863D01*
X101374813Y-83040739D01*
X101381225Y-83038083D01*
X101420642Y-83024292D01*
X101456009Y-83002068D01*
X101462081Y-82998712D01*
X101499707Y-82980594D01*
X101532356Y-82954555D01*
X101538015Y-82950540D01*
X101573382Y-82928319D01*
X101700936Y-82800765D01*
X101903261Y-82598440D01*
X101930563Y-82571138D01*
X101991886Y-82537653D01*
X102061578Y-82542637D01*
X102117511Y-82584509D01*
X102134426Y-82615485D01*
X102181646Y-82742088D01*
X102181649Y-82742093D01*
X102267809Y-82857187D01*
X102267812Y-82857190D01*
X102382906Y-82943350D01*
X102382913Y-82943354D01*
X102517620Y-82993596D01*
X102517627Y-82993598D01*
X102577155Y-82999999D01*
X102577172Y-83000000D01*
X103125000Y-83000000D01*
X103125000Y-82300000D01*
X103625000Y-82300000D01*
X103625000Y-83000000D01*
X104172828Y-83000000D01*
X104172844Y-82999999D01*
X104232372Y-82993598D01*
X104232379Y-82993596D01*
X104367086Y-82943354D01*
X104367093Y-82943350D01*
X104482187Y-82857190D01*
X104482190Y-82857187D01*
X104568350Y-82742093D01*
X104568354Y-82742086D01*
X104618596Y-82607379D01*
X104618598Y-82607372D01*
X104624999Y-82547844D01*
X104625000Y-82547827D01*
X104625000Y-82300000D01*
X103625000Y-82300000D01*
X103125000Y-82300000D01*
X103125000Y-81924000D01*
X103144685Y-81856961D01*
X103197489Y-81811206D01*
X103249000Y-81800000D01*
X104616560Y-81800000D01*
X104683599Y-81819685D01*
X104704241Y-81836319D01*
X113397740Y-90529818D01*
X113410790Y-90538017D01*
X113433104Y-90552038D01*
X113438757Y-90556049D01*
X113471413Y-90582091D01*
X113509044Y-90600213D01*
X113515106Y-90603563D01*
X113550478Y-90625789D01*
X113589898Y-90639583D01*
X113596326Y-90642245D01*
X113633939Y-90660359D01*
X113674655Y-90669652D01*
X113681324Y-90671574D01*
X113720745Y-90685368D01*
X113762251Y-90690044D01*
X113769076Y-90691203D01*
X113809805Y-90700500D01*
X113855046Y-90700500D01*
X122917060Y-90700500D01*
X122984099Y-90720185D01*
X123004741Y-90736819D01*
X124830741Y-92562819D01*
X124864226Y-92624142D01*
X124859242Y-92693834D01*
X124817370Y-92749767D01*
X124751906Y-92774184D01*
X124743060Y-92774500D01*
X123602129Y-92774500D01*
X123602123Y-92774501D01*
X123542516Y-92780908D01*
X123407671Y-92831202D01*
X123407664Y-92831206D01*
X123336996Y-92884108D01*
X123271532Y-92908525D01*
X123203259Y-92893673D01*
X123153854Y-92844268D01*
X123144980Y-92823846D01*
X123134814Y-92793166D01*
X123042712Y-92643844D01*
X122918656Y-92519788D01*
X122769334Y-92427686D01*
X122602797Y-92372501D01*
X122602795Y-92372500D01*
X122500010Y-92362000D01*
X121449998Y-92362000D01*
X121449980Y-92362001D01*
X121347203Y-92372500D01*
X121347200Y-92372501D01*
X121180668Y-92427685D01*
X121180663Y-92427687D01*
X121031342Y-92519789D01*
X120937951Y-92613181D01*
X120876628Y-92646666D01*
X120850270Y-92649500D01*
X119232940Y-92649500D01*
X119165901Y-92629815D01*
X119145259Y-92613181D01*
X118102262Y-91570184D01*
X118102259Y-91570182D01*
X118066904Y-91547966D01*
X118061229Y-91543940D01*
X118028589Y-91517910D01*
X117990959Y-91499787D01*
X117984872Y-91496422D01*
X117949525Y-91474212D01*
X117910114Y-91460421D01*
X117903688Y-91457759D01*
X117866061Y-91439639D01*
X117825345Y-91430345D01*
X117818662Y-91428420D01*
X117779259Y-91414632D01*
X117737763Y-91409955D01*
X117730908Y-91408791D01*
X117690200Y-91399501D01*
X117690196Y-91399500D01*
X117690194Y-91399500D01*
X117644954Y-91399500D01*
X112390194Y-91399500D01*
X112209806Y-91399500D01*
X112203888Y-91400850D01*
X112169089Y-91408791D01*
X112162235Y-91409955D01*
X112120744Y-91414632D01*
X112081341Y-91428419D01*
X112074659Y-91430344D01*
X112033939Y-91439639D01*
X111996320Y-91457755D01*
X111989895Y-91460416D01*
X111950483Y-91474208D01*
X111950476Y-91474212D01*
X111915120Y-91496427D01*
X111909033Y-91499791D01*
X111871410Y-91517910D01*
X111838769Y-91543941D01*
X111833096Y-91547966D01*
X111797739Y-91570183D01*
X111797735Y-91570186D01*
X110387681Y-92980241D01*
X110326358Y-93013726D01*
X110256666Y-93008742D01*
X110212319Y-92980241D01*
X109679818Y-92447740D01*
X109646333Y-92386417D01*
X109643499Y-92360059D01*
X109643499Y-92017343D01*
X109641882Y-91993492D01*
X109640581Y-91974296D01*
X109594307Y-91788225D01*
X109591695Y-91782959D01*
X109509118Y-91616456D01*
X109509116Y-91616453D01*
X109388990Y-91467010D01*
X109388989Y-91467009D01*
X109239546Y-91346883D01*
X109239543Y-91346881D01*
X109067778Y-91261694D01*
X109067776Y-91261693D01*
X109067775Y-91261693D01*
X109029939Y-91252283D01*
X108881708Y-91215419D01*
X108838658Y-91212500D01*
X108838657Y-91212500D01*
X107161344Y-91212501D01*
X107161343Y-91212501D01*
X107118298Y-91215418D01*
X107118297Y-91215418D01*
X106932221Y-91261694D01*
X106760456Y-91346881D01*
X106760453Y-91346883D01*
X106611010Y-91467009D01*
X106611009Y-91467010D01*
X106490884Y-91616452D01*
X106490353Y-91617284D01*
X106489896Y-91617681D01*
X106486672Y-91621693D01*
X106485953Y-91621115D01*
X106437662Y-91663168D01*
X106385874Y-91674500D01*
X105057940Y-91674500D01*
X104990901Y-91654815D01*
X104970259Y-91638181D01*
X95072345Y-81740267D01*
X95038860Y-81678944D01*
X95043844Y-81609252D01*
X95085716Y-81553319D01*
X95151180Y-81528902D01*
X95219453Y-81543754D01*
X95225123Y-81547048D01*
X95305869Y-81596853D01*
X95305880Y-81596858D01*
X95472302Y-81652005D01*
X95472309Y-81652006D01*
X95575019Y-81662499D01*
X95849999Y-81662499D01*
X95850000Y-81662498D01*
X95850000Y-80449000D01*
X95869685Y-80381961D01*
X95922489Y-80336206D01*
X95974000Y-80325000D01*
X97324999Y-80325000D01*
X97324999Y-80187528D01*
X97324998Y-80187513D01*
X97314505Y-80084802D01*
X97259358Y-79918380D01*
X97259356Y-79918375D01*
X97167315Y-79769154D01*
X97043344Y-79645183D01*
X97043341Y-79645181D01*
X97040339Y-79643329D01*
X97038713Y-79641521D01*
X97037677Y-79640702D01*
X97037817Y-79640524D01*
X96993617Y-79591380D01*
X96982397Y-79522417D01*
X97010243Y-79458336D01*
X97040344Y-79432254D01*
X97043656Y-79430212D01*
X97076946Y-79396921D01*
X97138266Y-79363437D01*
X97207958Y-79368421D01*
X97263892Y-79410291D01*
X97280809Y-79441272D01*
X97281203Y-79442330D01*
X97281206Y-79442335D01*
X97367452Y-79557544D01*
X97367455Y-79557547D01*
X97482664Y-79643793D01*
X97482671Y-79643797D01*
X97617517Y-79694091D01*
X97617516Y-79694091D01*
X97624444Y-79694835D01*
X97677127Y-79700500D01*
X99272872Y-79700499D01*
X99332483Y-79694091D01*
X99467331Y-79643796D01*
X99582546Y-79557546D01*
X99668796Y-79442331D01*
X99719091Y-79307483D01*
X99725500Y-79247873D01*
X99725499Y-78556937D01*
X99745183Y-78489900D01*
X99797987Y-78444145D01*
X99867146Y-78434201D01*
X99930702Y-78463226D01*
G37*
G04 #@! TD.AperFunction*
G04 #@! TA.AperFunction,Conductor*
G36*
X78684099Y-62320185D02*
G01*
X78704741Y-62336819D01*
X78912435Y-62544513D01*
X78945920Y-62605836D01*
X78940936Y-62675528D01*
X78899064Y-62731461D01*
X78869548Y-62747820D01*
X78707373Y-62810647D01*
X78707357Y-62810655D01*
X78587215Y-62885043D01*
X78519854Y-62903598D01*
X78453155Y-62882790D01*
X78447628Y-62878883D01*
X78417335Y-62856206D01*
X78417328Y-62856202D01*
X78282482Y-62805908D01*
X78282483Y-62805908D01*
X78222883Y-62799501D01*
X78222881Y-62799500D01*
X78222873Y-62799500D01*
X78222864Y-62799500D01*
X76627129Y-62799500D01*
X76627123Y-62799501D01*
X76567516Y-62805908D01*
X76432671Y-62856202D01*
X76432664Y-62856206D01*
X76317455Y-62942452D01*
X76317452Y-62942455D01*
X76231206Y-63057664D01*
X76231202Y-63057671D01*
X76180908Y-63192517D01*
X76174501Y-63252116D01*
X76174501Y-63252123D01*
X76174500Y-63252135D01*
X76174500Y-64247870D01*
X76174501Y-64247876D01*
X76180908Y-64307483D01*
X76231202Y-64442328D01*
X76231206Y-64442335D01*
X76317452Y-64557544D01*
X76317455Y-64557547D01*
X76432664Y-64643793D01*
X76432671Y-64643797D01*
X76567517Y-64694091D01*
X76567516Y-64694091D01*
X76574444Y-64694835D01*
X76627127Y-64700500D01*
X78222872Y-64700499D01*
X78282483Y-64694091D01*
X78399445Y-64650466D01*
X78469134Y-64645483D01*
X78526313Y-64675011D01*
X78533959Y-64681981D01*
X78707363Y-64789348D01*
X78897544Y-64863024D01*
X79098024Y-64900500D01*
X79098026Y-64900500D01*
X79301974Y-64900500D01*
X79301976Y-64900500D01*
X79502456Y-64863024D01*
X79692637Y-64789348D01*
X79866041Y-64681981D01*
X80016764Y-64544579D01*
X80139673Y-64381821D01*
X80230582Y-64199250D01*
X80247393Y-64140164D01*
X80284672Y-64081071D01*
X80347982Y-64051514D01*
X80417221Y-64060876D01*
X80454340Y-64086418D01*
X82797740Y-66429818D01*
X82810790Y-66438017D01*
X82833104Y-66452038D01*
X82838757Y-66456049D01*
X82871413Y-66482091D01*
X82909044Y-66500213D01*
X82915106Y-66503563D01*
X82928845Y-66512196D01*
X82950478Y-66525789D01*
X82989898Y-66539583D01*
X82996326Y-66542245D01*
X83033939Y-66560359D01*
X83074655Y-66569652D01*
X83081324Y-66571574D01*
X83120745Y-66585368D01*
X83162251Y-66590044D01*
X83169076Y-66591203D01*
X83209805Y-66600500D01*
X83255046Y-66600500D01*
X85717060Y-66600500D01*
X85784099Y-66620185D01*
X85804741Y-66636819D01*
X94697740Y-75529818D01*
X94710790Y-75538017D01*
X94733104Y-75552038D01*
X94738757Y-75556049D01*
X94771413Y-75582091D01*
X94809044Y-75600213D01*
X94815106Y-75603563D01*
X94850478Y-75625789D01*
X94889898Y-75639583D01*
X94896326Y-75642245D01*
X94933939Y-75660359D01*
X94974655Y-75669652D01*
X94981324Y-75671574D01*
X95020745Y-75685368D01*
X95062251Y-75690044D01*
X95069076Y-75691203D01*
X95109805Y-75700500D01*
X95155046Y-75700500D01*
X106917060Y-75700500D01*
X106984099Y-75720185D01*
X107004741Y-75736819D01*
X118997740Y-87729818D01*
X119010790Y-87738017D01*
X119033104Y-87752038D01*
X119038757Y-87756049D01*
X119071413Y-87782091D01*
X119109044Y-87800213D01*
X119115106Y-87803563D01*
X119150478Y-87825789D01*
X119189898Y-87839583D01*
X119196326Y-87842245D01*
X119233939Y-87860359D01*
X119274655Y-87869652D01*
X119281324Y-87871574D01*
X119320745Y-87885368D01*
X119362251Y-87890044D01*
X119369076Y-87891203D01*
X119409805Y-87900500D01*
X119455046Y-87900500D01*
X122317060Y-87900500D01*
X122384099Y-87920185D01*
X122404741Y-87936819D01*
X123355741Y-88887819D01*
X123389226Y-88949142D01*
X123384242Y-89018834D01*
X123342370Y-89074767D01*
X123276906Y-89099184D01*
X123268060Y-89099500D01*
X114282940Y-89099500D01*
X114215901Y-89079815D01*
X114195259Y-89063181D01*
X105302262Y-80170184D01*
X105302259Y-80170182D01*
X105266904Y-80147966D01*
X105261229Y-80143940D01*
X105228589Y-80117910D01*
X105190959Y-80099787D01*
X105184872Y-80096422D01*
X105149525Y-80074212D01*
X105110114Y-80060421D01*
X105103688Y-80057759D01*
X105066061Y-80039639D01*
X105025345Y-80030345D01*
X105018662Y-80028420D01*
X104979259Y-80014632D01*
X104937763Y-80009955D01*
X104930908Y-80008791D01*
X104890200Y-79999501D01*
X104890196Y-79999500D01*
X104890194Y-79999500D01*
X104844954Y-79999500D01*
X102090194Y-79999500D01*
X101909806Y-79999500D01*
X101903888Y-80000850D01*
X101869089Y-80008791D01*
X101862235Y-80009955D01*
X101820744Y-80014632D01*
X101781341Y-80028419D01*
X101774659Y-80030344D01*
X101733939Y-80039639D01*
X101696320Y-80057755D01*
X101689895Y-80060416D01*
X101650483Y-80074208D01*
X101650476Y-80074212D01*
X101615120Y-80096427D01*
X101609033Y-80099791D01*
X101571410Y-80117910D01*
X101538769Y-80143941D01*
X101533096Y-80147966D01*
X101497739Y-80170183D01*
X101497735Y-80170186D01*
X101406238Y-80261684D01*
X101344915Y-80295169D01*
X101318557Y-80298003D01*
X101129935Y-80298003D01*
X101062896Y-80278318D01*
X101017141Y-80225514D01*
X101005935Y-80174003D01*
X101005935Y-79652460D01*
X101025620Y-79585421D01*
X101078424Y-79539666D01*
X101147582Y-79529722D01*
X101169783Y-79535148D01*
X101170740Y-79535367D01*
X101170743Y-79535367D01*
X101170745Y-79535368D01*
X101212251Y-79540044D01*
X101219076Y-79541203D01*
X101259805Y-79550500D01*
X101305046Y-79550500D01*
X102216769Y-79550500D01*
X102283808Y-79570185D01*
X102291080Y-79575233D01*
X102382668Y-79643795D01*
X102382671Y-79643797D01*
X102517517Y-79694091D01*
X102517516Y-79694091D01*
X102524444Y-79694835D01*
X102577127Y-79700500D01*
X104172872Y-79700499D01*
X104232483Y-79694091D01*
X104367331Y-79643796D01*
X104482546Y-79557546D01*
X104568796Y-79442331D01*
X104619091Y-79307483D01*
X104625500Y-79247873D01*
X104625499Y-78252128D01*
X104619091Y-78192517D01*
X104568796Y-78057669D01*
X104568795Y-78057668D01*
X104568793Y-78057664D01*
X104482547Y-77942455D01*
X104482544Y-77942452D01*
X104367335Y-77856206D01*
X104367328Y-77856202D01*
X104232482Y-77805908D01*
X104232483Y-77805908D01*
X104172883Y-77799501D01*
X104172881Y-77799500D01*
X104172873Y-77799500D01*
X104172864Y-77799500D01*
X102577129Y-77799500D01*
X102577123Y-77799501D01*
X102517516Y-77805908D01*
X102382671Y-77856202D01*
X102382668Y-77856204D01*
X102291080Y-77924767D01*
X102225615Y-77949184D01*
X102216769Y-77949500D01*
X101732940Y-77949500D01*
X101665901Y-77929815D01*
X101645259Y-77913181D01*
X99902262Y-76170184D01*
X99902259Y-76170182D01*
X99866904Y-76147966D01*
X99861229Y-76143940D01*
X99828589Y-76117910D01*
X99790959Y-76099787D01*
X99784872Y-76096422D01*
X99749525Y-76074212D01*
X99710114Y-76060421D01*
X99703688Y-76057759D01*
X99666061Y-76039639D01*
X99625345Y-76030345D01*
X99618662Y-76028420D01*
X99579259Y-76014632D01*
X99537763Y-76009955D01*
X99530908Y-76008791D01*
X99490200Y-75999501D01*
X99490196Y-75999500D01*
X99490194Y-75999500D01*
X99490191Y-75999500D01*
X81882940Y-75999500D01*
X81815901Y-75979815D01*
X81795259Y-75963181D01*
X73732958Y-67900880D01*
X73699473Y-67839557D01*
X73704457Y-67769865D01*
X73715082Y-67750411D01*
X73714544Y-67750118D01*
X73718793Y-67742335D01*
X73718792Y-67742335D01*
X73718796Y-67742331D01*
X73769091Y-67607483D01*
X73775500Y-67547873D01*
X73775500Y-67300000D01*
X76175000Y-67300000D01*
X76175000Y-67547844D01*
X76181401Y-67607372D01*
X76181403Y-67607379D01*
X76231645Y-67742086D01*
X76231649Y-67742093D01*
X76317809Y-67857187D01*
X76317812Y-67857190D01*
X76432906Y-67943350D01*
X76432913Y-67943354D01*
X76567620Y-67993596D01*
X76567627Y-67993598D01*
X76627155Y-67999999D01*
X76627172Y-68000000D01*
X77175000Y-68000000D01*
X77175000Y-67300000D01*
X77675000Y-67300000D01*
X77675000Y-68000000D01*
X78222828Y-68000000D01*
X78222844Y-67999999D01*
X78282372Y-67993598D01*
X78282379Y-67993596D01*
X78417086Y-67943354D01*
X78417093Y-67943350D01*
X78532187Y-67857190D01*
X78532190Y-67857187D01*
X78618350Y-67742093D01*
X78618354Y-67742086D01*
X78668596Y-67607379D01*
X78668598Y-67607372D01*
X78674999Y-67547844D01*
X78675000Y-67547827D01*
X78675000Y-67300000D01*
X77675000Y-67300000D01*
X77175000Y-67300000D01*
X76175000Y-67300000D01*
X73775500Y-67300000D01*
X73775499Y-66800000D01*
X76175000Y-66800000D01*
X77175000Y-66800000D01*
X77175000Y-66100000D01*
X77675000Y-66100000D01*
X77675000Y-66800000D01*
X78675000Y-66800000D01*
X78675000Y-66552172D01*
X78674999Y-66552155D01*
X78668598Y-66492627D01*
X78668596Y-66492620D01*
X78618354Y-66357913D01*
X78618350Y-66357906D01*
X78532190Y-66242812D01*
X78532187Y-66242809D01*
X78417093Y-66156649D01*
X78417086Y-66156645D01*
X78282379Y-66106403D01*
X78282372Y-66106401D01*
X78222844Y-66100000D01*
X77675000Y-66100000D01*
X77175000Y-66100000D01*
X76627155Y-66100000D01*
X76567627Y-66106401D01*
X76567620Y-66106403D01*
X76432913Y-66156645D01*
X76432906Y-66156649D01*
X76317812Y-66242809D01*
X76317809Y-66242812D01*
X76231649Y-66357906D01*
X76231645Y-66357913D01*
X76181403Y-66492620D01*
X76181401Y-66492627D01*
X76175000Y-66552155D01*
X76175000Y-66800000D01*
X73775499Y-66800000D01*
X73775499Y-66552128D01*
X73769091Y-66492517D01*
X73768627Y-66491274D01*
X73718797Y-66357671D01*
X73718793Y-66357664D01*
X73632547Y-66242455D01*
X73632544Y-66242452D01*
X73517335Y-66156206D01*
X73517328Y-66156202D01*
X73382482Y-66105908D01*
X73382483Y-66105908D01*
X73322883Y-66099501D01*
X73322881Y-66099500D01*
X73322873Y-66099500D01*
X73322864Y-66099500D01*
X71727129Y-66099500D01*
X71727123Y-66099501D01*
X71667515Y-66105909D01*
X71535150Y-66155277D01*
X71465459Y-66160261D01*
X71404136Y-66126775D01*
X71370651Y-66065452D01*
X71368460Y-66026492D01*
X71374999Y-65962486D01*
X71375000Y-65962473D01*
X71375000Y-65825000D01*
X70400000Y-65825000D01*
X70400000Y-66662499D01*
X70674972Y-66662499D01*
X70674986Y-66662498D01*
X70777697Y-66652005D01*
X70944119Y-66596858D01*
X70944130Y-66596853D01*
X71085403Y-66509715D01*
X71152795Y-66491274D01*
X71219459Y-66512196D01*
X71264229Y-66565838D01*
X71274500Y-66615253D01*
X71274500Y-67547870D01*
X71274501Y-67547876D01*
X71280908Y-67607483D01*
X71331202Y-67742328D01*
X71331206Y-67742335D01*
X71417452Y-67857544D01*
X71417455Y-67857547D01*
X71532664Y-67943793D01*
X71532671Y-67943797D01*
X71666190Y-67993596D01*
X71667517Y-67994091D01*
X71667519Y-67994091D01*
X71671586Y-67995052D01*
X71674422Y-67996666D01*
X71674785Y-67996802D01*
X71674763Y-67996860D01*
X71732306Y-68029620D01*
X71762054Y-68084592D01*
X71762341Y-68084492D01*
X71762964Y-68086275D01*
X71763973Y-68088138D01*
X71764640Y-68091062D01*
X71782759Y-68128688D01*
X71785421Y-68135114D01*
X71799212Y-68174525D01*
X71821422Y-68209872D01*
X71824787Y-68215959D01*
X71842910Y-68253589D01*
X71868940Y-68286229D01*
X71872966Y-68291904D01*
X71895182Y-68327259D01*
X71895184Y-68327262D01*
X80455741Y-76887819D01*
X80489226Y-76949142D01*
X80484242Y-77018834D01*
X80442370Y-77074767D01*
X80376906Y-77099184D01*
X80368060Y-77099500D01*
X78082940Y-77099500D01*
X78015901Y-77079815D01*
X77995259Y-77063181D01*
X75036819Y-74104741D01*
X75003334Y-74043418D01*
X75000500Y-74017060D01*
X75000500Y-72809807D01*
X75000500Y-72809806D01*
X74991207Y-72769093D01*
X74990042Y-72762233D01*
X74985368Y-72720745D01*
X74981210Y-72708862D01*
X74971576Y-72681328D01*
X74969653Y-72674655D01*
X74960360Y-72633939D01*
X74949872Y-72612161D01*
X74942239Y-72596310D01*
X74939576Y-72589881D01*
X74925789Y-72550478D01*
X74925787Y-72550475D01*
X74925787Y-72550474D01*
X74920233Y-72541637D01*
X74903569Y-72515116D01*
X74900218Y-72509054D01*
X74882092Y-72471413D01*
X74856048Y-72438755D01*
X74852032Y-72433095D01*
X74829816Y-72397738D01*
X74702262Y-72270184D01*
X69436819Y-67004741D01*
X69403334Y-66943418D01*
X69400500Y-66917060D01*
X69400500Y-66776876D01*
X69420185Y-66709837D01*
X69472989Y-66664082D01*
X69537103Y-66653518D01*
X69625019Y-66662499D01*
X69899999Y-66662499D01*
X69900000Y-66662498D01*
X69900000Y-65449000D01*
X69919685Y-65381961D01*
X69972489Y-65336206D01*
X70024000Y-65325000D01*
X71374999Y-65325000D01*
X71374999Y-65187528D01*
X71374998Y-65187513D01*
X71364505Y-65084802D01*
X71309358Y-64918380D01*
X71309356Y-64918375D01*
X71217315Y-64769154D01*
X71210342Y-64762181D01*
X71176857Y-64700858D01*
X71181841Y-64631166D01*
X71223713Y-64575233D01*
X71289177Y-64550816D01*
X71298023Y-64550500D01*
X71366769Y-64550500D01*
X71433808Y-64570185D01*
X71441080Y-64575233D01*
X71532668Y-64643795D01*
X71532671Y-64643797D01*
X71667517Y-64694091D01*
X71667516Y-64694091D01*
X71674444Y-64694835D01*
X71727127Y-64700500D01*
X73322872Y-64700499D01*
X73382483Y-64694091D01*
X73517331Y-64643796D01*
X73632546Y-64557546D01*
X73718796Y-64442331D01*
X73769091Y-64307483D01*
X73775500Y-64247873D01*
X73775499Y-63252128D01*
X73769091Y-63192517D01*
X73760761Y-63170184D01*
X73718797Y-63057671D01*
X73718793Y-63057664D01*
X73632547Y-62942455D01*
X73632544Y-62942452D01*
X73517335Y-62856206D01*
X73517328Y-62856202D01*
X73382482Y-62805908D01*
X73382483Y-62805908D01*
X73322883Y-62799501D01*
X73322881Y-62799500D01*
X73322873Y-62799500D01*
X73322864Y-62799500D01*
X71727129Y-62799500D01*
X71727123Y-62799501D01*
X71667516Y-62805908D01*
X71532671Y-62856202D01*
X71532669Y-62856203D01*
X71494171Y-62885023D01*
X71428706Y-62909439D01*
X71360433Y-62894587D01*
X71314566Y-62848719D01*
X71313605Y-62849313D01*
X71311102Y-62845255D01*
X71311028Y-62845181D01*
X71310899Y-62844926D01*
X71309814Y-62843168D01*
X71309814Y-62843166D01*
X71217712Y-62693844D01*
X71093656Y-62569788D01*
X71093655Y-62569787D01*
X71029212Y-62530039D01*
X70982487Y-62478091D01*
X70971264Y-62409129D01*
X70999107Y-62345047D01*
X71057176Y-62306190D01*
X71094308Y-62300500D01*
X78617060Y-62300500D01*
X78684099Y-62320185D01*
G37*
G04 #@! TD.AperFunction*
G04 #@! TA.AperFunction,Conductor*
G36*
X94097956Y-64937379D02*
G01*
X94121625Y-64947919D01*
X119884235Y-79823967D01*
X119932447Y-79874536D01*
X119945666Y-79943144D01*
X119919694Y-80008007D01*
X119890893Y-80034602D01*
X119887548Y-80036826D01*
X119754513Y-80174753D01*
X119730472Y-80210558D01*
X119690443Y-80279889D01*
X120152368Y-82003815D01*
X120249683Y-82367002D01*
X120248020Y-82436852D01*
X120208857Y-82494714D01*
X120162002Y-82518870D01*
X118074891Y-83078109D01*
X118034864Y-83147439D01*
X118034865Y-83147438D01*
X118015876Y-83186160D01*
X117962944Y-83370339D01*
X117950843Y-83561572D01*
X117950843Y-83561581D01*
X117980137Y-83750959D01*
X118049455Y-83929610D01*
X118049456Y-83929612D01*
X118155559Y-84089185D01*
X118293484Y-84222216D01*
X118329283Y-84246254D01*
X119121885Y-84703863D01*
X119160610Y-84722852D01*
X119344787Y-84775785D01*
X119344784Y-84775785D01*
X119536032Y-84787886D01*
X119536034Y-84787886D01*
X119725411Y-84758592D01*
X119904060Y-84689274D01*
X119962050Y-84650716D01*
X120028774Y-84629988D01*
X120096113Y-84648624D01*
X120142686Y-84700708D01*
X120154462Y-84761803D01*
X120150045Y-84831603D01*
X120179356Y-85021090D01*
X120248713Y-85199842D01*
X120248714Y-85199844D01*
X120354878Y-85359507D01*
X120492876Y-85492611D01*
X120492879Y-85492613D01*
X120492883Y-85492617D01*
X120528703Y-85516668D01*
X120528708Y-85516671D01*
X120528707Y-85516671D01*
X121321393Y-85974327D01*
X121321394Y-85974327D01*
X121360128Y-85993321D01*
X121544407Y-86046282D01*
X121630784Y-86051747D01*
X121696446Y-86075626D01*
X121705885Y-86088022D01*
X121754901Y-86056523D01*
X121770870Y-86052959D01*
X121925246Y-86029079D01*
X122104000Y-85959721D01*
X122161716Y-85921344D01*
X122228438Y-85900616D01*
X122295776Y-85919252D01*
X122342350Y-85971335D01*
X122354126Y-86032431D01*
X122349749Y-86101603D01*
X122349749Y-86101605D01*
X122358247Y-86156547D01*
X122349042Y-86225805D01*
X122303853Y-86279094D01*
X122237028Y-86299493D01*
X122235705Y-86299500D01*
X121789836Y-86299500D01*
X121722797Y-86279815D01*
X121708926Y-86263807D01*
X121650305Y-86296446D01*
X121622953Y-86299500D01*
X119882940Y-86299500D01*
X119815901Y-86279815D01*
X119795259Y-86263181D01*
X115997814Y-82465736D01*
X118428444Y-82465736D01*
X119669403Y-82133222D01*
X119336890Y-80892261D01*
X118428444Y-82465736D01*
X115997814Y-82465736D01*
X107802262Y-74270184D01*
X107802259Y-74270182D01*
X107766904Y-74247966D01*
X107761229Y-74243940D01*
X107728589Y-74217910D01*
X107690959Y-74199787D01*
X107684872Y-74196422D01*
X107649525Y-74174212D01*
X107610114Y-74160421D01*
X107603688Y-74157759D01*
X107566061Y-74139639D01*
X107525345Y-74130345D01*
X107518662Y-74128420D01*
X107479259Y-74114632D01*
X107437763Y-74109955D01*
X107430908Y-74108791D01*
X107390200Y-74099501D01*
X107390196Y-74099500D01*
X107390194Y-74099500D01*
X107390191Y-74099500D01*
X95582940Y-74099500D01*
X95515901Y-74079815D01*
X95495259Y-74063181D01*
X88913293Y-67481215D01*
X88879808Y-67419892D01*
X88884792Y-67350200D01*
X88926664Y-67294267D01*
X88992128Y-67269850D01*
X89035222Y-67274357D01*
X89094111Y-67291282D01*
X89285466Y-67303390D01*
X89474950Y-67274079D01*
X89653704Y-67204721D01*
X89711944Y-67165995D01*
X89778668Y-67145268D01*
X89846007Y-67163905D01*
X89892579Y-67215989D01*
X89904355Y-67277083D01*
X89899957Y-67346580D01*
X89899957Y-67346581D01*
X89929251Y-67535959D01*
X89998569Y-67714610D01*
X89998570Y-67714612D01*
X90104673Y-67874185D01*
X90242598Y-68007216D01*
X90278397Y-68031254D01*
X91070999Y-68488863D01*
X91109724Y-68507852D01*
X91293901Y-68560785D01*
X91293898Y-68560785D01*
X91485146Y-68572886D01*
X91485148Y-68572886D01*
X91674525Y-68543592D01*
X91853173Y-68474275D01*
X92012753Y-68368168D01*
X92145782Y-68230245D01*
X92169827Y-68194438D01*
X92209852Y-68125110D01*
X91742477Y-66380844D01*
X91713253Y-66271776D01*
X92230891Y-66271776D01*
X92563404Y-67512737D01*
X93471850Y-65939262D01*
X92230891Y-66271776D01*
X91713253Y-66271776D01*
X91650612Y-66037997D01*
X91652275Y-65968147D01*
X91691438Y-65910285D01*
X91738293Y-65886129D01*
X93825403Y-65326889D01*
X93865434Y-65257556D01*
X93865434Y-65257557D01*
X93884419Y-65218839D01*
X93937351Y-65034663D01*
X93937441Y-65034144D01*
X93937583Y-65033854D01*
X93939208Y-65028202D01*
X93940220Y-65028492D01*
X93968277Y-64971447D01*
X94028115Y-64935375D01*
X94097956Y-64937379D01*
G37*
G04 #@! TD.AperFunction*
M02*
