G04 #@! TF.GenerationSoftware,KiCad,Pcbnew,7.0.11+1*
G04 #@! TF.ProjectId,makerspace_sign,6d616b65-7273-4706-9163-655f7369676e,rev?*
G04 #@! TF.SameCoordinates,Original*
G04 #@! TF.FileFunction,Copper,L1,Top*
G04 #@! TF.FilePolarity,Positive*
%FSLAX46Y46*%
G04 Gerber Fmt 4.6, Leading zero omitted, Abs format (unit mm)*
%MOMM*%
%LPD*%
G01*
G04 APERTURE LIST*
G04 #@! TA.AperFunction,Profile*
%ADD10C,0.200000*%
G04 #@! TD*
G04 #@! TA.AperFunction,SMDPad,CuDef*
%ADD11R,1.500000X0.900000*%
G04 #@! TD*
G04 #@! TA.AperFunction,ViaPad*
%ADD12C,1.200000*%
G04 #@! TD*
G04 #@! TA.AperFunction,Conductor*
%ADD13C,0.600000*%
G04 #@! TD*
G04 APERTURE END LIST*
D10*
X62000000Y-46400000D02*
X62000000Y-90400000D01*
X62000000Y-100400000D02*
X62000000Y-144400000D01*
X62000000Y-100400000D02*
G75*
G03*
X62000000Y-90400000I0J5000000D01*
G01*
X138210236Y-90400000D02*
X62000000Y-46400000D01*
X62000000Y-144400000D02*
X138210236Y-100400000D01*
X138210236Y-100400000D02*
X138210236Y-90400000D01*
G04 #@! TA.AperFunction,SMDPad,CuDef*
G36*
G01*
X74400000Y-98759000D02*
X74400000Y-99521000D01*
G75*
G02*
X74019000Y-99902000I-381000J0D01*
G01*
X70781000Y-99902000D01*
G75*
G02*
X70400000Y-99521000I0J381000D01*
G01*
X70400000Y-98759000D01*
G75*
G02*
X70781000Y-98378000I381000J0D01*
G01*
X74019000Y-98378000D01*
G75*
G02*
X74400000Y-98759000I0J-381000D01*
G01*
G37*
G04 #@! TD.AperFunction*
G04 #@! TA.AperFunction,SMDPad,CuDef*
G36*
G01*
X74400000Y-96219000D02*
X74400000Y-96981000D01*
G75*
G02*
X74019000Y-97362000I-381000J0D01*
G01*
X70781000Y-97362000D01*
G75*
G02*
X70400000Y-96981000I0J381000D01*
G01*
X70400000Y-96219000D01*
G75*
G02*
X70781000Y-95838000I381000J0D01*
G01*
X74019000Y-95838000D01*
G75*
G02*
X74400000Y-96219000I0J-381000D01*
G01*
G37*
G04 #@! TD.AperFunction*
G04 #@! TA.AperFunction,SMDPad,CuDef*
G36*
G01*
X74400000Y-93679000D02*
X74400000Y-94441000D01*
G75*
G02*
X74019000Y-94822000I-381000J0D01*
G01*
X70781000Y-94822000D01*
G75*
G02*
X70400000Y-94441000I0J381000D01*
G01*
X70400000Y-93679000D01*
G75*
G02*
X70781000Y-93298000I381000J0D01*
G01*
X74019000Y-93298000D01*
G75*
G02*
X74400000Y-93679000I0J-381000D01*
G01*
G37*
G04 #@! TD.AperFunction*
G04 #@! TA.AperFunction,SMDPad,CuDef*
G36*
G01*
X74400000Y-91139000D02*
X74400000Y-91901000D01*
G75*
G02*
X74019000Y-92282000I-381000J0D01*
G01*
X70781000Y-92282000D01*
G75*
G02*
X70400000Y-91901000I0J381000D01*
G01*
X70400000Y-91139000D01*
G75*
G02*
X70781000Y-90758000I381000J0D01*
G01*
X74019000Y-90758000D01*
G75*
G02*
X74400000Y-91139000I0J-381000D01*
G01*
G37*
G04 #@! TD.AperFunction*
G04 #@! TA.AperFunction,SMDPad,CuDef*
G36*
G01*
X88431000Y-87993000D02*
X87669000Y-87993000D01*
G75*
G02*
X87288000Y-87612000I0J381000D01*
G01*
X87288000Y-86088000D01*
G75*
G02*
X87669000Y-85707000I381000J0D01*
G01*
X88431000Y-85707000D01*
G75*
G02*
X88812000Y-86088000I0J-381000D01*
G01*
X88812000Y-87612000D01*
G75*
G02*
X88431000Y-87993000I-381000J0D01*
G01*
G37*
G04 #@! TD.AperFunction*
G04 #@! TA.AperFunction,SMDPad,CuDef*
G36*
G01*
X90971000Y-87993000D02*
X90209000Y-87993000D01*
G75*
G02*
X89828000Y-87612000I0J381000D01*
G01*
X89828000Y-86088000D01*
G75*
G02*
X90209000Y-85707000I381000J0D01*
G01*
X90971000Y-85707000D01*
G75*
G02*
X91352000Y-86088000I0J-381000D01*
G01*
X91352000Y-87612000D01*
G75*
G02*
X90971000Y-87993000I-381000J0D01*
G01*
G37*
G04 #@! TD.AperFunction*
G04 #@! TA.AperFunction,SMDPad,CuDef*
G36*
G01*
X93511000Y-87993000D02*
X92749000Y-87993000D01*
G75*
G02*
X92368000Y-87612000I0J381000D01*
G01*
X92368000Y-86088000D01*
G75*
G02*
X92749000Y-85707000I381000J0D01*
G01*
X93511000Y-85707000D01*
G75*
G02*
X93892000Y-86088000I0J-381000D01*
G01*
X93892000Y-87612000D01*
G75*
G02*
X93511000Y-87993000I-381000J0D01*
G01*
G37*
G04 #@! TD.AperFunction*
G04 #@! TA.AperFunction,SMDPad,CuDef*
G36*
G01*
X96051000Y-87993000D02*
X95289000Y-87993000D01*
G75*
G02*
X94908000Y-87612000I0J381000D01*
G01*
X94908000Y-86088000D01*
G75*
G02*
X95289000Y-85707000I381000J0D01*
G01*
X96051000Y-85707000D01*
G75*
G02*
X96432000Y-86088000I0J-381000D01*
G01*
X96432000Y-87612000D01*
G75*
G02*
X96051000Y-87993000I-381000J0D01*
G01*
G37*
G04 #@! TD.AperFunction*
G04 #@! TA.AperFunction,SMDPad,CuDef*
G36*
G01*
X84655547Y-64207551D02*
X83995635Y-63826551D01*
G75*
G02*
X83856179Y-63306095I190500J329956D01*
G01*
X85475179Y-60501905D01*
G75*
G02*
X85995635Y-60362449I329956J-190500D01*
G01*
X86655547Y-60743449D01*
G75*
G02*
X86795003Y-61263905I-190500J-329956D01*
G01*
X85176003Y-64068095D01*
G75*
G02*
X84655547Y-64207551I-329956J190500D01*
G01*
G37*
G04 #@! TD.AperFunction*
G04 #@! TA.AperFunction,SMDPad,CuDef*
G36*
G01*
X86855252Y-65477551D02*
X86195340Y-65096551D01*
G75*
G02*
X86055884Y-64576095I190500J329956D01*
G01*
X87674884Y-61771905D01*
G75*
G02*
X88195340Y-61632449I329956J-190500D01*
G01*
X88855252Y-62013449D01*
G75*
G02*
X88994708Y-62533905I-190500J-329956D01*
G01*
X87375708Y-65338095D01*
G75*
G02*
X86855252Y-65477551I-329956J190500D01*
G01*
G37*
G04 #@! TD.AperFunction*
G04 #@! TA.AperFunction,SMDPad,CuDef*
G36*
G01*
X89054956Y-66747551D02*
X88395044Y-66366551D01*
G75*
G02*
X88255588Y-65846095I190500J329956D01*
G01*
X89874588Y-63041905D01*
G75*
G02*
X90395044Y-62902449I329956J-190500D01*
G01*
X91054956Y-63283449D01*
G75*
G02*
X91194412Y-63803905I-190500J-329956D01*
G01*
X89575412Y-66608095D01*
G75*
G02*
X89054956Y-66747551I-329956J190500D01*
G01*
G37*
G04 #@! TD.AperFunction*
G04 #@! TA.AperFunction,SMDPad,CuDef*
G36*
G01*
X91254661Y-68017551D02*
X90594749Y-67636551D01*
G75*
G02*
X90455293Y-67116095I190500J329956D01*
G01*
X92074293Y-64311905D01*
G75*
G02*
X92594749Y-64172449I329956J-190500D01*
G01*
X93254661Y-64553449D01*
G75*
G02*
X93394117Y-65073905I-190500J-329956D01*
G01*
X91775117Y-67878095D01*
G75*
G02*
X91254661Y-68017551I-329956J190500D01*
G01*
G37*
G04 #@! TD.AperFunction*
G04 #@! TA.AperFunction,SMDPad,CuDef*
G36*
G01*
X121500000Y-92862500D02*
X122450000Y-92862500D01*
G75*
G02*
X122700000Y-93112500I0J-250000D01*
G01*
X122700000Y-93787500D01*
G75*
G02*
X122450000Y-94037500I-250000J0D01*
G01*
X121500000Y-94037500D01*
G75*
G02*
X121250000Y-93787500I0J250000D01*
G01*
X121250000Y-93112500D01*
G75*
G02*
X121500000Y-92862500I250000J0D01*
G01*
G37*
G04 #@! TD.AperFunction*
G04 #@! TA.AperFunction,SMDPad,CuDef*
G36*
G01*
X121500000Y-94937500D02*
X122450000Y-94937500D01*
G75*
G02*
X122700000Y-95187500I0J-250000D01*
G01*
X122700000Y-95862500D01*
G75*
G02*
X122450000Y-96112500I-250000J0D01*
G01*
X121500000Y-96112500D01*
G75*
G02*
X121250000Y-95862500I0J250000D01*
G01*
X121250000Y-95187500D01*
G75*
G02*
X121500000Y-94937500I250000J0D01*
G01*
G37*
G04 #@! TD.AperFunction*
D11*
X98450000Y-108675000D03*
X98450000Y-111975000D03*
X103350000Y-111975000D03*
X103350000Y-108675000D03*
X124400000Y-93725000D03*
X124400000Y-97025000D03*
X129300000Y-97025000D03*
X129300000Y-93725000D03*
G04 #@! TA.AperFunction,SMDPad,CuDef*
G36*
G01*
X127244749Y-84197449D02*
X127904661Y-84578449D01*
G75*
G02*
X128044117Y-85098905I-190500J-329956D01*
G01*
X126425117Y-87903095D01*
G75*
G02*
X125904661Y-88042551I-329956J190500D01*
G01*
X125244749Y-87661551D01*
G75*
G02*
X125105293Y-87141095I190500J329956D01*
G01*
X126724293Y-84336905D01*
G75*
G02*
X127244749Y-84197449I329956J-190500D01*
G01*
G37*
G04 #@! TD.AperFunction*
G04 #@! TA.AperFunction,SMDPad,CuDef*
G36*
G01*
X125045044Y-82927449D02*
X125704956Y-83308449D01*
G75*
G02*
X125844412Y-83828905I-190500J-329956D01*
G01*
X124225412Y-86633095D01*
G75*
G02*
X123704956Y-86772551I-329956J190500D01*
G01*
X123045044Y-86391551D01*
G75*
G02*
X122905588Y-85871095I190500J329956D01*
G01*
X124524588Y-83066905D01*
G75*
G02*
X125045044Y-82927449I329956J-190500D01*
G01*
G37*
G04 #@! TD.AperFunction*
G04 #@! TA.AperFunction,SMDPad,CuDef*
G36*
G01*
X122845340Y-81657449D02*
X123505252Y-82038449D01*
G75*
G02*
X123644708Y-82558905I-190500J-329956D01*
G01*
X122025708Y-85363095D01*
G75*
G02*
X121505252Y-85502551I-329956J190500D01*
G01*
X120845340Y-85121551D01*
G75*
G02*
X120705884Y-84601095I190500J329956D01*
G01*
X122324884Y-81796905D01*
G75*
G02*
X122845340Y-81657449I329956J-190500D01*
G01*
G37*
G04 #@! TD.AperFunction*
G04 #@! TA.AperFunction,SMDPad,CuDef*
G36*
G01*
X120645635Y-80387449D02*
X121305547Y-80768449D01*
G75*
G02*
X121445003Y-81288905I-190500J-329956D01*
G01*
X119826003Y-84093095D01*
G75*
G02*
X119305547Y-84232551I-329956J190500D01*
G01*
X118645635Y-83851551D01*
G75*
G02*
X118506179Y-83331095I190500J329956D01*
G01*
X120125179Y-80526905D01*
G75*
G02*
X120645635Y-80387449I329956J-190500D01*
G01*
G37*
G04 #@! TD.AperFunction*
X98475000Y-78750000D03*
X98475000Y-82050000D03*
X103375000Y-82050000D03*
X103375000Y-78750000D03*
X72525000Y-63750000D03*
X72525000Y-67050000D03*
X77425000Y-67050000D03*
X77425000Y-63750000D03*
G04 #@! TA.AperFunction,SMDPad,CuDef*
G36*
G01*
X66100000Y-113809000D02*
X66100000Y-114571000D01*
G75*
G02*
X65719000Y-114952000I-381000J0D01*
G01*
X62481000Y-114952000D01*
G75*
G02*
X62100000Y-114571000I0J381000D01*
G01*
X62100000Y-113809000D01*
G75*
G02*
X62481000Y-113428000I381000J0D01*
G01*
X65719000Y-113428000D01*
G75*
G02*
X66100000Y-113809000I0J-381000D01*
G01*
G37*
G04 #@! TD.AperFunction*
G04 #@! TA.AperFunction,SMDPad,CuDef*
G36*
G01*
X66100000Y-111269000D02*
X66100000Y-112031000D01*
G75*
G02*
X65719000Y-112412000I-381000J0D01*
G01*
X62481000Y-112412000D01*
G75*
G02*
X62100000Y-112031000I0J381000D01*
G01*
X62100000Y-111269000D01*
G75*
G02*
X62481000Y-110888000I381000J0D01*
G01*
X65719000Y-110888000D01*
G75*
G02*
X66100000Y-111269000I0J-381000D01*
G01*
G37*
G04 #@! TD.AperFunction*
G04 #@! TA.AperFunction,SMDPad,CuDef*
G36*
G01*
X66100000Y-108729000D02*
X66100000Y-109491000D01*
G75*
G02*
X65719000Y-109872000I-381000J0D01*
G01*
X62481000Y-109872000D01*
G75*
G02*
X62100000Y-109491000I0J381000D01*
G01*
X62100000Y-108729000D01*
G75*
G02*
X62481000Y-108348000I381000J0D01*
G01*
X65719000Y-108348000D01*
G75*
G02*
X66100000Y-108729000I0J-381000D01*
G01*
G37*
G04 #@! TD.AperFunction*
G04 #@! TA.AperFunction,SMDPad,CuDef*
G36*
G01*
X66100000Y-106189000D02*
X66100000Y-106951000D01*
G75*
G02*
X65719000Y-107332000I-381000J0D01*
G01*
X62481000Y-107332000D01*
G75*
G02*
X62100000Y-106951000I0J381000D01*
G01*
X62100000Y-106189000D01*
G75*
G02*
X62481000Y-105808000I381000J0D01*
G01*
X65719000Y-105808000D01*
G75*
G02*
X66100000Y-106189000I0J-381000D01*
G01*
G37*
G04 #@! TD.AperFunction*
G04 #@! TA.AperFunction,SMDPad,CuDef*
G36*
G01*
X125220044Y-103108449D02*
X125879956Y-102727449D01*
G75*
G02*
X126400412Y-102866905I190500J-329956D01*
G01*
X128019412Y-105671095D01*
G75*
G02*
X127879956Y-106191551I-329956J-190500D01*
G01*
X127220044Y-106572551D01*
G75*
G02*
X126699588Y-106433095I-190500J329956D01*
G01*
X125080588Y-103628905D01*
G75*
G02*
X125220044Y-103108449I329956J190500D01*
G01*
G37*
G04 #@! TD.AperFunction*
G04 #@! TA.AperFunction,SMDPad,CuDef*
G36*
G01*
X123020339Y-104378449D02*
X123680251Y-103997449D01*
G75*
G02*
X124200707Y-104136905I190500J-329956D01*
G01*
X125819707Y-106941095D01*
G75*
G02*
X125680251Y-107461551I-329956J-190500D01*
G01*
X125020339Y-107842551D01*
G75*
G02*
X124499883Y-107703095I-190500J329956D01*
G01*
X122880883Y-104898905D01*
G75*
G02*
X123020339Y-104378449I329956J190500D01*
G01*
G37*
G04 #@! TD.AperFunction*
G04 #@! TA.AperFunction,SMDPad,CuDef*
G36*
G01*
X120820635Y-105648449D02*
X121480547Y-105267449D01*
G75*
G02*
X122001003Y-105406905I190500J-329956D01*
G01*
X123620003Y-108211095D01*
G75*
G02*
X123480547Y-108731551I-329956J-190500D01*
G01*
X122820635Y-109112551D01*
G75*
G02*
X122300179Y-108973095I-190500J329956D01*
G01*
X120681179Y-106168905D01*
G75*
G02*
X120820635Y-105648449I329956J190500D01*
G01*
G37*
G04 #@! TD.AperFunction*
G04 #@! TA.AperFunction,SMDPad,CuDef*
G36*
G01*
X118620930Y-106918449D02*
X119280842Y-106537449D01*
G75*
G02*
X119801298Y-106676905I190500J-329956D01*
G01*
X121420298Y-109481095D01*
G75*
G02*
X121280842Y-110001551I-329956J-190500D01*
G01*
X120620930Y-110382551D01*
G75*
G02*
X120100474Y-110243095I-190500J329956D01*
G01*
X118481474Y-107438905D01*
G75*
G02*
X118620930Y-106918449I329956J190500D01*
G01*
G37*
G04 #@! TD.AperFunction*
G04 #@! TA.AperFunction,SMDPad,CuDef*
G36*
G01*
X62100000Y-76956000D02*
X62100000Y-76194000D01*
G75*
G02*
X62481000Y-75813000I381000J0D01*
G01*
X65719000Y-75813000D01*
G75*
G02*
X66100000Y-76194000I0J-381000D01*
G01*
X66100000Y-76956000D01*
G75*
G02*
X65719000Y-77337000I-381000J0D01*
G01*
X62481000Y-77337000D01*
G75*
G02*
X62100000Y-76956000I0J381000D01*
G01*
G37*
G04 #@! TD.AperFunction*
G04 #@! TA.AperFunction,SMDPad,CuDef*
G36*
G01*
X62100000Y-79496000D02*
X62100000Y-78734000D01*
G75*
G02*
X62481000Y-78353000I381000J0D01*
G01*
X65719000Y-78353000D01*
G75*
G02*
X66100000Y-78734000I0J-381000D01*
G01*
X66100000Y-79496000D01*
G75*
G02*
X65719000Y-79877000I-381000J0D01*
G01*
X62481000Y-79877000D01*
G75*
G02*
X62100000Y-79496000I0J381000D01*
G01*
G37*
G04 #@! TD.AperFunction*
G04 #@! TA.AperFunction,SMDPad,CuDef*
G36*
G01*
X62100000Y-82036000D02*
X62100000Y-81274000D01*
G75*
G02*
X62481000Y-80893000I381000J0D01*
G01*
X65719000Y-80893000D01*
G75*
G02*
X66100000Y-81274000I0J-381000D01*
G01*
X66100000Y-82036000D01*
G75*
G02*
X65719000Y-82417000I-381000J0D01*
G01*
X62481000Y-82417000D01*
G75*
G02*
X62100000Y-82036000I0J381000D01*
G01*
G37*
G04 #@! TD.AperFunction*
G04 #@! TA.AperFunction,SMDPad,CuDef*
G36*
G01*
X62100000Y-84576000D02*
X62100000Y-83814000D01*
G75*
G02*
X62481000Y-83433000I381000J0D01*
G01*
X65719000Y-83433000D01*
G75*
G02*
X66100000Y-83814000I0J-381000D01*
G01*
X66100000Y-84576000D01*
G75*
G02*
X65719000Y-84957000I-381000J0D01*
G01*
X62481000Y-84957000D01*
G75*
G02*
X62100000Y-84576000I0J381000D01*
G01*
G37*
G04 #@! TD.AperFunction*
X72525000Y-123675000D03*
X72525000Y-126975000D03*
X77425000Y-126975000D03*
X77425000Y-123675000D03*
G04 #@! TA.AperFunction,SMDPad,CuDef*
G36*
G01*
X86655547Y-129981551D02*
X85995635Y-130362551D01*
G75*
G02*
X85475179Y-130223095I-190500J329956D01*
G01*
X83856179Y-127418905D01*
G75*
G02*
X83995635Y-126898449I329956J190500D01*
G01*
X84655547Y-126517449D01*
G75*
G02*
X85176003Y-126656905I190500J-329956D01*
G01*
X86795003Y-129461095D01*
G75*
G02*
X86655547Y-129981551I-329956J-190500D01*
G01*
G37*
G04 #@! TD.AperFunction*
G04 #@! TA.AperFunction,SMDPad,CuDef*
G36*
G01*
X88855252Y-128711551D02*
X88195340Y-129092551D01*
G75*
G02*
X87674884Y-128953095I-190500J329956D01*
G01*
X86055884Y-126148905D01*
G75*
G02*
X86195340Y-125628449I329956J190500D01*
G01*
X86855252Y-125247449D01*
G75*
G02*
X87375708Y-125386905I190500J-329956D01*
G01*
X88994708Y-128191095D01*
G75*
G02*
X88855252Y-128711551I-329956J-190500D01*
G01*
G37*
G04 #@! TD.AperFunction*
G04 #@! TA.AperFunction,SMDPad,CuDef*
G36*
G01*
X91054956Y-127441551D02*
X90395044Y-127822551D01*
G75*
G02*
X89874588Y-127683095I-190500J329956D01*
G01*
X88255588Y-124878905D01*
G75*
G02*
X88395044Y-124358449I329956J190500D01*
G01*
X89054956Y-123977449D01*
G75*
G02*
X89575412Y-124116905I190500J-329956D01*
G01*
X91194412Y-126921095D01*
G75*
G02*
X91054956Y-127441551I-329956J-190500D01*
G01*
G37*
G04 #@! TD.AperFunction*
G04 #@! TA.AperFunction,SMDPad,CuDef*
G36*
G01*
X93254661Y-126171551D02*
X92594749Y-126552551D01*
G75*
G02*
X92074293Y-126413095I-190500J329956D01*
G01*
X90455293Y-123608905D01*
G75*
G02*
X90594749Y-123088449I329956J190500D01*
G01*
X91254661Y-122707449D01*
G75*
G02*
X91775117Y-122846905I190500J-329956D01*
G01*
X93394117Y-125651095D01*
G75*
G02*
X93254661Y-126171551I-329956J-190500D01*
G01*
G37*
G04 #@! TD.AperFunction*
G04 #@! TA.AperFunction,SMDPad,CuDef*
G36*
G01*
X95550000Y-107837500D02*
X96500000Y-107837500D01*
G75*
G02*
X96750000Y-108087500I0J-250000D01*
G01*
X96750000Y-108762500D01*
G75*
G02*
X96500000Y-109012500I-250000J0D01*
G01*
X95550000Y-109012500D01*
G75*
G02*
X95300000Y-108762500I0J250000D01*
G01*
X95300000Y-108087500D01*
G75*
G02*
X95550000Y-107837500I250000J0D01*
G01*
G37*
G04 #@! TD.AperFunction*
G04 #@! TA.AperFunction,SMDPad,CuDef*
G36*
G01*
X95550000Y-109912500D02*
X96500000Y-109912500D01*
G75*
G02*
X96750000Y-110162500I0J-250000D01*
G01*
X96750000Y-110837500D01*
G75*
G02*
X96500000Y-111087500I-250000J0D01*
G01*
X95550000Y-111087500D01*
G75*
G02*
X95300000Y-110837500I0J250000D01*
G01*
X95300000Y-110162500D01*
G75*
G02*
X95550000Y-109912500I250000J0D01*
G01*
G37*
G04 #@! TD.AperFunction*
G04 #@! TA.AperFunction,SMDPad,CuDef*
G36*
G01*
X69675000Y-62912500D02*
X70625000Y-62912500D01*
G75*
G02*
X70875000Y-63162500I0J-250000D01*
G01*
X70875000Y-63837500D01*
G75*
G02*
X70625000Y-64087500I-250000J0D01*
G01*
X69675000Y-64087500D01*
G75*
G02*
X69425000Y-63837500I0J250000D01*
G01*
X69425000Y-63162500D01*
G75*
G02*
X69675000Y-62912500I250000J0D01*
G01*
G37*
G04 #@! TD.AperFunction*
G04 #@! TA.AperFunction,SMDPad,CuDef*
G36*
G01*
X69675000Y-64987500D02*
X70625000Y-64987500D01*
G75*
G02*
X70875000Y-65237500I0J-250000D01*
G01*
X70875000Y-65912500D01*
G75*
G02*
X70625000Y-66162500I-250000J0D01*
G01*
X69675000Y-66162500D01*
G75*
G02*
X69425000Y-65912500I0J250000D01*
G01*
X69425000Y-65237500D01*
G75*
G02*
X69675000Y-64987500I250000J0D01*
G01*
G37*
G04 #@! TD.AperFunction*
X79400000Y-93700000D03*
X79400000Y-97000000D03*
X84300000Y-97000000D03*
X84300000Y-93700000D03*
G04 #@! TA.AperFunction,SMDPad,CuDef*
G36*
G01*
X69600000Y-122837500D02*
X70550000Y-122837500D01*
G75*
G02*
X70800000Y-123087500I0J-250000D01*
G01*
X70800000Y-123762500D01*
G75*
G02*
X70550000Y-124012500I-250000J0D01*
G01*
X69600000Y-124012500D01*
G75*
G02*
X69350000Y-123762500I0J250000D01*
G01*
X69350000Y-123087500D01*
G75*
G02*
X69600000Y-122837500I250000J0D01*
G01*
G37*
G04 #@! TD.AperFunction*
G04 #@! TA.AperFunction,SMDPad,CuDef*
G36*
G01*
X69600000Y-124912500D02*
X70550000Y-124912500D01*
G75*
G02*
X70800000Y-125162500I0J-250000D01*
G01*
X70800000Y-125837500D01*
G75*
G02*
X70550000Y-126087500I-250000J0D01*
G01*
X69600000Y-126087500D01*
G75*
G02*
X69350000Y-125837500I0J250000D01*
G01*
X69350000Y-125162500D01*
G75*
G02*
X69600000Y-124912500I250000J0D01*
G01*
G37*
G04 #@! TD.AperFunction*
G04 #@! TA.AperFunction,SMDPad,CuDef*
G36*
G01*
X95625000Y-77912500D02*
X96575000Y-77912500D01*
G75*
G02*
X96825000Y-78162500I0J-250000D01*
G01*
X96825000Y-78837500D01*
G75*
G02*
X96575000Y-79087500I-250000J0D01*
G01*
X95625000Y-79087500D01*
G75*
G02*
X95375000Y-78837500I0J250000D01*
G01*
X95375000Y-78162500D01*
G75*
G02*
X95625000Y-77912500I250000J0D01*
G01*
G37*
G04 #@! TD.AperFunction*
G04 #@! TA.AperFunction,SMDPad,CuDef*
G36*
G01*
X95625000Y-79987500D02*
X96575000Y-79987500D01*
G75*
G02*
X96825000Y-80237500I0J-250000D01*
G01*
X96825000Y-80912500D01*
G75*
G02*
X96575000Y-81162500I-250000J0D01*
G01*
X95625000Y-81162500D01*
G75*
G02*
X95375000Y-80912500I0J250000D01*
G01*
X95375000Y-80237500D01*
G75*
G02*
X95625000Y-79987500I250000J0D01*
G01*
G37*
G04 #@! TD.AperFunction*
G04 #@! TA.AperFunction,SMDPad,CuDef*
G36*
G01*
X76725000Y-92862500D02*
X77675000Y-92862500D01*
G75*
G02*
X77925000Y-93112500I0J-250000D01*
G01*
X77925000Y-93787500D01*
G75*
G02*
X77675000Y-94037500I-250000J0D01*
G01*
X76725000Y-94037500D01*
G75*
G02*
X76475000Y-93787500I0J250000D01*
G01*
X76475000Y-93112500D01*
G75*
G02*
X76725000Y-92862500I250000J0D01*
G01*
G37*
G04 #@! TD.AperFunction*
G04 #@! TA.AperFunction,SMDPad,CuDef*
G36*
G01*
X76725000Y-94937500D02*
X77675000Y-94937500D01*
G75*
G02*
X77925000Y-95187500I0J-250000D01*
G01*
X77925000Y-95862500D01*
G75*
G02*
X77675000Y-96112500I-250000J0D01*
G01*
X76725000Y-96112500D01*
G75*
G02*
X76475000Y-95862500I0J250000D01*
G01*
X76475000Y-95187500D01*
G75*
G02*
X76725000Y-94937500I250000J0D01*
G01*
G37*
G04 #@! TD.AperFunction*
D12*
X74957848Y-119577725D03*
X78500000Y-115600000D03*
X71800000Y-72550000D03*
X116276677Y-96747607D03*
X75118149Y-73768149D03*
X121975000Y-93450000D03*
X89123872Y-76365286D03*
X75956750Y-109664218D03*
X98816750Y-96964218D03*
X65796750Y-66484218D03*
X73330000Y-102060000D03*
X65796750Y-122364218D03*
X70876750Y-61404218D03*
X78496750Y-109664218D03*
X103896750Y-94424218D03*
X74610000Y-105900000D03*
X75956750Y-112204218D03*
X124500000Y-99000000D03*
X114489260Y-91025301D03*
X112639260Y-88375301D03*
X122800000Y-91300000D03*
X90046657Y-118622142D03*
X106436750Y-96964218D03*
X86523872Y-74865286D03*
X87273872Y-73715286D03*
X88723872Y-71365286D03*
X93736750Y-94424218D03*
X96276750Y-99504218D03*
X91946657Y-115922142D03*
X92623872Y-73615286D03*
X101356750Y-91884218D03*
X110589260Y-88775301D03*
X101356750Y-102044218D03*
X88656750Y-96964218D03*
X93736750Y-102044218D03*
X81036750Y-91884218D03*
X113400000Y-103600000D03*
X115239260Y-89875301D03*
X91196750Y-104584218D03*
X68336750Y-127444218D03*
X101356750Y-104584218D03*
X113950000Y-101700000D03*
X98816750Y-102044218D03*
X101356750Y-84264218D03*
X91346657Y-117872142D03*
X114100000Y-104800000D03*
X72070000Y-105900000D03*
X116700000Y-103300000D03*
X68336750Y-129984218D03*
X88656750Y-104584218D03*
X112100000Y-104350000D03*
X70876750Y-81724218D03*
X65796750Y-124904218D03*
X98816750Y-94424218D03*
X114500000Y-99800000D03*
X89896657Y-115522142D03*
X75956750Y-79184218D03*
X86116750Y-104584218D03*
X91196750Y-94424218D03*
X116689260Y-87525301D03*
X74600000Y-104600000D03*
X65796750Y-86804218D03*
X65796750Y-89344218D03*
X73330000Y-100790000D03*
X88573872Y-74465286D03*
X90423872Y-77115286D03*
X87823872Y-75615286D03*
X103896750Y-84264218D03*
X88656750Y-94424218D03*
X68336750Y-61404218D03*
X101356750Y-99504218D03*
X110600000Y-102050000D03*
X115389260Y-86775301D03*
X87296657Y-117022142D03*
X111350000Y-103200000D03*
X106436750Y-99504218D03*
X90446657Y-113622142D03*
X103896750Y-99504218D03*
X90023872Y-72115286D03*
X114089260Y-86025301D03*
X86116750Y-102044218D03*
X89873872Y-75215286D03*
X115400000Y-104050000D03*
X89146657Y-114372142D03*
X112089260Y-86475301D03*
X113200000Y-100550000D03*
X124400000Y-91900000D03*
X93736750Y-96964218D03*
X88746657Y-119372142D03*
X88656750Y-99504218D03*
X108976750Y-107124218D03*
X65796750Y-104584218D03*
X98816750Y-99504218D03*
X114700000Y-102850000D03*
X72060000Y-102060000D03*
X91923872Y-74815286D03*
X86546657Y-115872142D03*
X72060000Y-103330000D03*
X91173872Y-75965286D03*
X90646657Y-116672142D03*
X89323872Y-73315286D03*
X87846657Y-115122142D03*
X111339260Y-87625301D03*
X113389260Y-87225301D03*
X111889260Y-89525301D03*
X65796750Y-102044218D03*
X73416750Y-81724218D03*
X73340000Y-105900000D03*
X65796750Y-63944218D03*
X70790000Y-103330000D03*
X88656750Y-102044218D03*
X114689260Y-87975301D03*
X112789260Y-85275301D03*
X115989260Y-88725301D03*
X70790000Y-104600000D03*
X101356750Y-96964218D03*
X93736750Y-104584218D03*
X103896750Y-86804218D03*
X88596657Y-116272142D03*
X70800000Y-105900000D03*
X96276750Y-91884218D03*
X73330000Y-103330000D03*
X91196750Y-99504218D03*
X115250000Y-100950000D03*
X70790000Y-100790000D03*
X73330000Y-104600000D03*
X78496750Y-74104218D03*
X91196750Y-102044218D03*
X91196750Y-96964218D03*
X98816750Y-89344218D03*
X65796750Y-119824218D03*
X103896750Y-102044218D03*
X96276750Y-104584218D03*
X96276750Y-102044218D03*
X112800000Y-105550000D03*
X75956750Y-81724218D03*
X112650000Y-102450000D03*
X74600000Y-103330000D03*
X88046657Y-118172142D03*
X98816750Y-91884218D03*
X90623872Y-74065286D03*
X72060000Y-104600000D03*
X73416750Y-109664218D03*
X96276750Y-94424218D03*
X78496750Y-81724218D03*
X86116750Y-99504218D03*
X103896750Y-96964218D03*
X88023872Y-72565286D03*
X83576750Y-91884218D03*
X123100000Y-99800000D03*
X92646657Y-117122142D03*
X98816750Y-104584218D03*
X72060000Y-100790000D03*
X74600000Y-100790000D03*
X96276750Y-96964218D03*
X89346657Y-117422142D03*
X91323872Y-72865286D03*
X101356750Y-94424218D03*
X91196657Y-114772142D03*
X116000000Y-102100000D03*
X96276750Y-114744218D03*
X113189260Y-90275301D03*
X93736750Y-99504218D03*
X74600000Y-102060000D03*
X70790000Y-102060000D03*
X73416750Y-79184218D03*
X111900000Y-101300000D03*
X113939260Y-89125301D03*
X93750000Y-89000000D03*
X70860000Y-89600000D03*
X73400000Y-88330000D03*
X128950000Y-90800000D03*
X73400000Y-87060000D03*
X70860000Y-85790000D03*
X83450000Y-131150000D03*
X93750000Y-90300000D03*
X127650000Y-90050000D03*
X128300000Y-88850000D03*
X129800000Y-104350000D03*
X82150000Y-59000000D03*
X126950000Y-91200000D03*
X131100000Y-87250000D03*
X74670000Y-85790000D03*
X128950000Y-100100000D03*
X83800000Y-61550000D03*
X83150000Y-128150000D03*
X83700000Y-64650000D03*
X127100000Y-102750000D03*
X126300000Y-89300000D03*
X82250000Y-131850000D03*
X81850000Y-62000000D03*
X70860000Y-87060000D03*
X129050000Y-103200000D03*
X70860000Y-84500000D03*
X92450000Y-89000000D03*
X130350000Y-102500000D03*
X81700000Y-65050000D03*
X125050000Y-88600000D03*
X72130000Y-84500000D03*
X83050000Y-65850000D03*
X129800000Y-86550000D03*
X124350000Y-89750000D03*
X82400000Y-63900000D03*
X83350000Y-59700000D03*
X126300000Y-101600000D03*
X92450000Y-90300000D03*
X128600000Y-105050000D03*
X70860000Y-88330000D03*
X72130000Y-89600000D03*
X80350000Y-64300000D03*
X73400000Y-89600000D03*
X74670000Y-87060000D03*
X74670000Y-88330000D03*
X72130000Y-87060000D03*
X127100000Y-88150000D03*
X127650000Y-100850000D03*
X125050000Y-102300000D03*
X81800000Y-125800000D03*
X79900000Y-128400000D03*
X126950000Y-99700000D03*
X128600000Y-85850000D03*
X129050000Y-87700000D03*
X73400000Y-85790000D03*
X81500000Y-130700000D03*
X128300000Y-102050000D03*
X84650000Y-130450000D03*
X129550000Y-101350000D03*
X125600000Y-90450000D03*
X82700000Y-130000000D03*
X83050000Y-62700000D03*
X83150000Y-125000000D03*
X80700000Y-129550000D03*
X79800000Y-62450000D03*
X80450000Y-126550000D03*
X131100000Y-103650000D03*
X82500000Y-126950000D03*
X127850000Y-87000000D03*
X73400000Y-84500000D03*
X125600000Y-100450000D03*
X129550000Y-89550000D03*
X124350000Y-101150000D03*
X74670000Y-89600000D03*
X84550000Y-60400000D03*
X82600000Y-60850000D03*
X72130000Y-85790000D03*
X81050000Y-63150000D03*
X81400000Y-60150000D03*
X74670000Y-84500000D03*
X83900000Y-129300000D03*
X127850000Y-103900000D03*
X83800000Y-126200000D03*
X72130000Y-88330000D03*
X81950000Y-128850000D03*
X81150000Y-127700000D03*
X130350000Y-88400000D03*
X80600000Y-61300000D03*
X76950000Y-71100000D03*
X73200000Y-71100000D03*
X116349500Y-95350000D03*
X120949500Y-97350000D03*
X116200000Y-98250000D03*
X121000000Y-98900000D03*
X79750000Y-118700000D03*
X77003309Y-121488323D03*
X121000000Y-100550000D03*
X67050000Y-111450000D03*
X68150000Y-108900000D03*
X66665035Y-81234965D03*
X80600000Y-69450000D03*
X117200000Y-91600500D03*
X118750000Y-100300000D03*
X68244964Y-79705036D03*
X113800000Y-94249500D03*
X82677464Y-68372536D03*
X78750000Y-117700000D03*
X75976596Y-120537288D03*
D13*
X70150000Y-63500000D02*
X72275000Y-63500000D01*
X124125000Y-93450000D02*
X124400000Y-93725000D01*
X94150000Y-81950000D02*
X94150000Y-79950000D01*
X77200000Y-93450000D02*
X79150000Y-93450000D01*
X86100000Y-82000000D02*
X88050000Y-83950000D01*
X83300000Y-81950000D02*
X83350000Y-82000000D01*
X98225000Y-78500000D02*
X98475000Y-78750000D01*
X74472275Y-119577725D02*
X72525000Y-121525000D01*
X83350000Y-82000000D02*
X86100000Y-82000000D01*
X88050000Y-83950000D02*
X92150000Y-83950000D01*
X68150000Y-68900000D02*
X67050000Y-70000000D01*
X96025000Y-108425000D02*
X85675000Y-108425000D01*
X72275000Y-123425000D02*
X72525000Y-123675000D01*
X85675000Y-108425000D02*
X78500000Y-115600000D01*
X65190000Y-114190000D02*
X64100000Y-114190000D01*
X96025000Y-108425000D02*
X98200000Y-108425000D01*
X70150000Y-63550000D02*
X70150000Y-63500000D01*
X95600000Y-78500000D02*
X96100000Y-78500000D01*
X111125000Y-96900000D02*
X98025000Y-83800000D01*
X83300000Y-81950000D02*
X75118149Y-73768149D01*
X70075000Y-123425000D02*
X72275000Y-123425000D01*
X112450000Y-96900000D02*
X111850000Y-96900000D01*
X98200000Y-108425000D02*
X98450000Y-108675000D01*
X100075000Y-108675000D02*
X98450000Y-108675000D01*
X88050000Y-83950000D02*
X88050000Y-86850000D01*
X96100000Y-78500000D02*
X98225000Y-78500000D01*
X72525000Y-121525000D02*
X72525000Y-123675000D01*
X72275000Y-63500000D02*
X72525000Y-63750000D01*
X79150000Y-93450000D02*
X79400000Y-93700000D01*
X74957848Y-119577725D02*
X74472275Y-119577725D01*
X67050000Y-74150000D02*
X64625000Y-76575000D01*
X94150000Y-79950000D02*
X95600000Y-78500000D01*
X116124284Y-96900000D02*
X111125000Y-96900000D01*
X111850000Y-96900000D02*
X100075000Y-108675000D01*
X68150000Y-68900000D02*
X68150000Y-65550000D01*
X71800000Y-72550000D02*
X68150000Y-68900000D01*
X121975000Y-93450000D02*
X124125000Y-93450000D01*
X77200000Y-88050000D02*
X77200000Y-93450000D01*
X83300000Y-81950000D02*
X77200000Y-88050000D01*
X72525000Y-121525000D02*
X65190000Y-114190000D01*
X64625000Y-76575000D02*
X64100000Y-76575000D01*
X68150000Y-65550000D02*
X70150000Y-63550000D01*
X92150000Y-83950000D02*
X94150000Y-81950000D01*
X98025000Y-83800000D02*
X96000000Y-83800000D01*
X67050000Y-70000000D02*
X67050000Y-74150000D01*
X116276677Y-96747607D02*
X116124284Y-96900000D01*
X96000000Y-83800000D02*
X94150000Y-81950000D01*
X80850000Y-71100000D02*
X82300000Y-72550000D01*
X91550000Y-81000000D02*
X95750000Y-76800000D01*
X76950000Y-71100000D02*
X80850000Y-71100000D01*
X86550000Y-81000000D02*
X91550000Y-81000000D01*
X72525000Y-70425000D02*
X73200000Y-71100000D01*
X101425000Y-76800000D02*
X103375000Y-78750000D01*
X82300000Y-76750000D02*
X86550000Y-81000000D01*
X72525000Y-67050000D02*
X72525000Y-70425000D01*
X95750000Y-76800000D02*
X101425000Y-76800000D01*
X82300000Y-72550000D02*
X82300000Y-76750000D01*
X118500000Y-94500000D02*
X118500000Y-98494365D01*
X71400000Y-96290000D02*
X69400000Y-96290000D01*
X64100000Y-79115000D02*
X66100000Y-79115000D01*
X85800000Y-124550000D02*
X87525296Y-126275296D01*
X68400000Y-97290000D02*
X68400000Y-106810000D01*
X110350000Y-86150000D02*
X108700000Y-87800000D01*
X119850000Y-99844365D02*
X119850000Y-103550000D01*
X85800000Y-123650000D02*
X85800000Y-124550000D01*
X64100000Y-109110000D02*
X66660000Y-109110000D01*
X89725000Y-65575000D02*
X89725000Y-64825000D01*
X74550000Y-70468630D02*
X76618630Y-68400000D01*
X83400000Y-121250000D02*
X85800000Y-123650000D01*
X117150000Y-93150000D02*
X118500000Y-94500000D01*
X119850000Y-103550000D02*
X120800000Y-104500000D01*
X79275000Y-66525000D02*
X83050000Y-70300000D01*
X67085000Y-79115000D02*
X74550000Y-71650000D01*
X79275000Y-67625000D02*
X79275000Y-66525000D01*
X91050000Y-79050000D02*
X95050000Y-75050000D01*
X68500000Y-81515000D02*
X68500000Y-95390000D01*
X83050000Y-70300000D02*
X86100000Y-70300000D01*
X88000000Y-67300000D02*
X89725000Y-65575000D01*
X108700000Y-87800000D02*
X108700000Y-89350000D01*
X68400000Y-106810000D02*
X66100000Y-109110000D01*
X120800000Y-105839409D02*
X122150591Y-107190000D01*
X87950000Y-68450000D02*
X88000000Y-68450000D01*
X77425000Y-64675000D02*
X79275000Y-66525000D01*
X66100000Y-109110000D02*
X64100000Y-109110000D01*
X87750000Y-79050000D02*
X91050000Y-79050000D01*
X64100000Y-79115000D02*
X67085000Y-79115000D01*
X66660000Y-109110000D02*
X78800000Y-121250000D01*
X110350000Y-81950000D02*
X110350000Y-86150000D01*
X122900000Y-87500000D02*
X122900000Y-87050000D01*
X84400000Y-75700000D02*
X87750000Y-79050000D01*
X87525296Y-126275296D02*
X87525296Y-127170000D01*
X95050000Y-75050000D02*
X103450000Y-75050000D01*
X69400000Y-96290000D02*
X68400000Y-97290000D01*
X108700000Y-89350000D02*
X112500000Y-93150000D01*
X88000000Y-68450000D02*
X88000000Y-67300000D01*
X86100000Y-70300000D02*
X87950000Y-68450000D01*
X78500000Y-68400000D02*
X79275000Y-67625000D01*
X76618630Y-68400000D02*
X78500000Y-68400000D01*
X86100000Y-70300000D02*
X84400000Y-72000000D01*
X118500000Y-98494365D02*
X119850000Y-99844365D01*
X68500000Y-95390000D02*
X69400000Y-96290000D01*
X103450000Y-75050000D02*
X110350000Y-81950000D01*
X112500000Y-93150000D02*
X117150000Y-93150000D01*
X122900000Y-87050000D02*
X124375000Y-85575000D01*
X84400000Y-72000000D02*
X84400000Y-75700000D01*
X78800000Y-121250000D02*
X83400000Y-121250000D01*
X117200000Y-93150000D02*
X117250000Y-93150000D01*
X77425000Y-63750000D02*
X77425000Y-64675000D01*
X66100000Y-79115000D02*
X68500000Y-81515000D01*
X74550000Y-71650000D02*
X74550000Y-70468630D01*
X124375000Y-85575000D02*
X124375000Y-84850000D01*
X120800000Y-104500000D02*
X120800000Y-105839409D01*
X117250000Y-93150000D02*
X122900000Y-87500000D01*
X122167892Y-97350000D02*
X124617892Y-94900000D01*
X100950000Y-82500000D02*
X98925000Y-82500000D01*
X102850000Y-80600000D02*
X100950000Y-82500000D01*
X120949500Y-97350000D02*
X122167892Y-97350000D01*
X104850000Y-80600000D02*
X102850000Y-80600000D01*
X106600000Y-90400000D02*
X106600000Y-82350000D01*
X128125000Y-94900000D02*
X129300000Y-93725000D01*
X106600000Y-82350000D02*
X104850000Y-80600000D01*
X111550000Y-95350000D02*
X106600000Y-90400000D01*
X116349500Y-95350000D02*
X111550000Y-95350000D01*
X98925000Y-82500000D02*
X98475000Y-82050000D01*
X124617892Y-94900000D02*
X128125000Y-94900000D01*
X112350000Y-98250000D02*
X108150000Y-102450000D01*
X121000000Y-98900000D02*
X121800000Y-98900000D01*
X108150000Y-103875000D02*
X103350000Y-108675000D01*
X121800000Y-98900000D02*
X123675000Y-97025000D01*
X108150000Y-102450000D02*
X108150000Y-103875000D01*
X116200000Y-98250000D02*
X112350000Y-98250000D01*
X123675000Y-97025000D02*
X124400000Y-97025000D01*
X77003309Y-123253309D02*
X77425000Y-123675000D01*
X92600000Y-111450000D02*
X87000000Y-111450000D01*
X77003309Y-121488323D02*
X77003309Y-123253309D01*
X98450000Y-111975000D02*
X93125000Y-111975000D01*
X93125000Y-111975000D02*
X92600000Y-111450000D01*
X87000000Y-111450000D02*
X79750000Y-118700000D01*
X87400000Y-122750000D02*
X89725000Y-125075000D01*
X84000000Y-120150000D02*
X86600000Y-122750000D01*
X68900000Y-108150000D02*
X68150000Y-108900000D01*
X83727464Y-68372536D02*
X87525296Y-64574704D01*
X122900000Y-102800000D02*
X122900000Y-103450000D01*
X117200000Y-91600500D02*
X117249500Y-91600500D01*
X75350000Y-70800000D02*
X76700000Y-69450000D01*
X120750000Y-86350000D02*
X120750000Y-85900000D01*
X117249500Y-91600500D02*
X119500000Y-89350000D01*
X107750000Y-87150000D02*
X109400000Y-85500000D01*
X117449500Y-94894365D02*
X117449500Y-99149500D01*
X107750000Y-89800000D02*
X107750000Y-87150000D01*
X118600000Y-100300000D02*
X118750000Y-100300000D01*
X75950000Y-97000000D02*
X75450000Y-96500000D01*
X117449500Y-99149500D02*
X118600000Y-100300000D01*
X64100000Y-81655000D02*
X66245000Y-81655000D01*
X68244964Y-79086406D02*
X75350000Y-71981370D01*
X87525296Y-64574704D02*
X87525296Y-63555000D01*
X67050000Y-111450000D02*
X64300000Y-111450000D01*
X79400000Y-97000000D02*
X79400000Y-104300000D01*
X121000000Y-100550000D02*
X121000000Y-100900000D01*
X69400000Y-93750000D02*
X69400000Y-80860072D01*
X102950000Y-75950000D02*
X95450000Y-75950000D01*
X122900000Y-103450000D02*
X124350295Y-104900295D01*
X76700000Y-69450000D02*
X80600000Y-69450000D01*
X66245000Y-81655000D02*
X66665035Y-81234965D01*
X122175296Y-84474704D02*
X122175296Y-83580000D01*
X68244964Y-79705036D02*
X68244964Y-79086406D01*
X75450000Y-94750000D02*
X74760000Y-94060000D01*
X112199500Y-94249500D02*
X107750000Y-89800000D01*
X91350000Y-80050000D02*
X87200000Y-80050000D01*
X69710000Y-94060000D02*
X69400000Y-93750000D01*
X74760000Y-94060000D02*
X69710000Y-94060000D01*
X79400000Y-104300000D02*
X75550000Y-108150000D01*
X75550000Y-108150000D02*
X68900000Y-108150000D01*
X83400000Y-76250000D02*
X83400000Y-72250000D01*
X68150000Y-108900000D02*
X79400000Y-120150000D01*
X79400000Y-97000000D02*
X75950000Y-97000000D01*
X89725000Y-125075000D02*
X89725000Y-125900000D01*
X119500000Y-89350000D02*
X119500000Y-87600000D01*
X75450000Y-96500000D02*
X75450000Y-94750000D01*
X113800000Y-94249500D02*
X112199500Y-94249500D01*
X120750000Y-85900000D02*
X122175296Y-84474704D01*
X113800000Y-94249500D02*
X116804635Y-94249500D01*
X79400000Y-120150000D02*
X84000000Y-120150000D01*
X109400000Y-85500000D02*
X109400000Y-82400000D01*
X95450000Y-75950000D02*
X91350000Y-80050000D01*
X83400000Y-72250000D02*
X80600000Y-69450000D01*
X86600000Y-122750000D02*
X87400000Y-122750000D01*
X87200000Y-80050000D02*
X83400000Y-76250000D01*
X124350295Y-104900295D02*
X124350295Y-105920000D01*
X121000000Y-100900000D02*
X122900000Y-102800000D01*
X75350000Y-71981370D02*
X75350000Y-70800000D01*
X69400000Y-80860072D02*
X68244964Y-79705036D01*
X116804635Y-94249500D02*
X117449500Y-94894365D01*
X64300000Y-111450000D02*
X64100000Y-111650000D01*
X109400000Y-82400000D02*
X102950000Y-75950000D01*
X82677464Y-68372536D02*
X83727464Y-68372536D01*
X119500000Y-87600000D02*
X120750000Y-86350000D01*
X77150000Y-116100000D02*
X77150000Y-114750000D01*
X82400000Y-95600000D02*
X84300000Y-93700000D01*
X78750000Y-117700000D02*
X77150000Y-116100000D01*
X77150000Y-114750000D02*
X82400000Y-109500000D01*
X82400000Y-109500000D02*
X82400000Y-95600000D01*
X75350000Y-121163884D02*
X75350000Y-124150000D01*
X75976596Y-120537288D02*
X75350000Y-121163884D01*
X75350000Y-124150000D02*
X72525000Y-126975000D01*
G04 #@! TA.AperFunction,Conductor*
G36*
X93896184Y-85420213D02*
G01*
X94025379Y-85479214D01*
X94132718Y-85572224D01*
X94209505Y-85691708D01*
X94249520Y-85827985D01*
X94254577Y-85894373D01*
X94295337Y-90296380D01*
X94276426Y-90437146D01*
X94218623Y-90566881D01*
X94126611Y-90675077D01*
X94007844Y-90752968D01*
X93871943Y-90794242D01*
X93796358Y-90800000D01*
X92499000Y-90800000D01*
X92358415Y-90779787D01*
X92229220Y-90720786D01*
X92121881Y-90627776D01*
X92045094Y-90508292D01*
X92005079Y-90372015D01*
X92000000Y-90301000D01*
X92000000Y-85899000D01*
X92020213Y-85758415D01*
X92079214Y-85629220D01*
X92172224Y-85521881D01*
X92291708Y-85445094D01*
X92427985Y-85405079D01*
X92499000Y-85400000D01*
X93755599Y-85400000D01*
X93896184Y-85420213D01*
G37*
G04 #@! TD.AperFunction*
G04 #@! TA.AperFunction,Conductor*
G36*
X115400969Y-99070713D02*
G01*
X115506816Y-99117981D01*
X121727264Y-109575545D01*
X121675374Y-109774391D01*
X121620318Y-109905317D01*
X121530606Y-110015428D01*
X121442043Y-110080540D01*
X116657098Y-112843130D01*
X116525242Y-112895917D01*
X116383855Y-112909418D01*
X116244391Y-112882538D01*
X116227232Y-112873692D01*
X116080913Y-112835906D01*
X109625023Y-102107054D01*
X111088687Y-100643390D01*
X113840045Y-99050500D01*
X115260384Y-99050500D01*
X115400969Y-99070713D01*
G37*
G04 #@! TD.AperFunction*
G04 #@! TA.AperFunction,Conductor*
G36*
X62168529Y-115402032D02*
G01*
X62168913Y-115400988D01*
X62175220Y-115403304D01*
X62175225Y-115403307D01*
X62325013Y-115440558D01*
X62361291Y-115449580D01*
X62361292Y-115449580D01*
X62361296Y-115449581D01*
X62400336Y-115452228D01*
X62404342Y-115452500D01*
X62404342Y-115452499D01*
X62404343Y-115452500D01*
X65269059Y-115452499D01*
X65336098Y-115472184D01*
X65356740Y-115488818D01*
X71688181Y-121820259D01*
X71721666Y-121881582D01*
X71724500Y-121907940D01*
X71724500Y-122500500D01*
X71704815Y-122567539D01*
X71652011Y-122613294D01*
X71600500Y-122624500D01*
X71199730Y-122624500D01*
X71132691Y-122604815D01*
X71112049Y-122588181D01*
X71018657Y-122494789D01*
X71018656Y-122494788D01*
X70869334Y-122402686D01*
X70702797Y-122347501D01*
X70702795Y-122347500D01*
X70600010Y-122337000D01*
X69549998Y-122337000D01*
X69549980Y-122337001D01*
X69447203Y-122347500D01*
X69447200Y-122347501D01*
X69280668Y-122402685D01*
X69280663Y-122402687D01*
X69131342Y-122494789D01*
X69007289Y-122618842D01*
X68915187Y-122768163D01*
X68915185Y-122768168D01*
X68910865Y-122781206D01*
X68860001Y-122934703D01*
X68860001Y-122934704D01*
X68860000Y-122934704D01*
X68849500Y-123037483D01*
X68849500Y-123812501D01*
X68849501Y-123812519D01*
X68860000Y-123915296D01*
X68860001Y-123915299D01*
X68869929Y-123945259D01*
X68915186Y-124081834D01*
X69007288Y-124231156D01*
X69131344Y-124355212D01*
X69280666Y-124447314D01*
X69447203Y-124502499D01*
X69549991Y-124513000D01*
X70600008Y-124512999D01*
X70600016Y-124512998D01*
X70600019Y-124512998D01*
X70656302Y-124507248D01*
X70702797Y-124502499D01*
X70869334Y-124447314D01*
X71018656Y-124355212D01*
X71106574Y-124267293D01*
X71167893Y-124233811D01*
X71237585Y-124238795D01*
X71293519Y-124280666D01*
X71310434Y-124311644D01*
X71331202Y-124367328D01*
X71331206Y-124367335D01*
X71417452Y-124482544D01*
X71417455Y-124482547D01*
X71532664Y-124568793D01*
X71532671Y-124568797D01*
X71667517Y-124619091D01*
X71667516Y-124619091D01*
X71674444Y-124619835D01*
X71727127Y-124625500D01*
X73322872Y-124625499D01*
X73382483Y-124619091D01*
X73432671Y-124600371D01*
X73502362Y-124595387D01*
X73563685Y-124628871D01*
X73597171Y-124690194D01*
X73592187Y-124759885D01*
X73563686Y-124804234D01*
X72379739Y-125988181D01*
X72318416Y-126021666D01*
X72292058Y-126024500D01*
X71727129Y-126024500D01*
X71727123Y-126024501D01*
X71667516Y-126030908D01*
X71532671Y-126081202D01*
X71532664Y-126081206D01*
X71417455Y-126167452D01*
X71417452Y-126167455D01*
X71331206Y-126282664D01*
X71331202Y-126282671D01*
X71280908Y-126417517D01*
X71274501Y-126477116D01*
X71274500Y-126477135D01*
X71274500Y-127472870D01*
X71274501Y-127472876D01*
X71280908Y-127532483D01*
X71331202Y-127667328D01*
X71331206Y-127667335D01*
X71417452Y-127782544D01*
X71417455Y-127782547D01*
X71532664Y-127868793D01*
X71532671Y-127868797D01*
X71667517Y-127919091D01*
X71667516Y-127919091D01*
X71674444Y-127919835D01*
X71727127Y-127925500D01*
X73322872Y-127925499D01*
X73382483Y-127919091D01*
X73517331Y-127868796D01*
X73632546Y-127782546D01*
X73718796Y-127667331D01*
X73769091Y-127532483D01*
X73775500Y-127472873D01*
X73775499Y-126907938D01*
X73795183Y-126840900D01*
X73811813Y-126820263D01*
X75947826Y-124684252D01*
X75979816Y-124652262D01*
X76002037Y-124616895D01*
X76006052Y-124611236D01*
X76032091Y-124578587D01*
X76050215Y-124540949D01*
X76053564Y-124534891D01*
X76075789Y-124499522D01*
X76079958Y-124487606D01*
X76120677Y-124430829D01*
X76185628Y-124405079D01*
X76254190Y-124418532D01*
X76296267Y-124454244D01*
X76317455Y-124482547D01*
X76432664Y-124568793D01*
X76432671Y-124568797D01*
X76567517Y-124619091D01*
X76567516Y-124619091D01*
X76574444Y-124619835D01*
X76627127Y-124625500D01*
X78222872Y-124625499D01*
X78282483Y-124619091D01*
X78417331Y-124568796D01*
X78532546Y-124482546D01*
X78618796Y-124367331D01*
X78669091Y-124232483D01*
X78675500Y-124172873D01*
X78675499Y-123177128D01*
X78669091Y-123117517D01*
X78639243Y-123037491D01*
X78618797Y-122982671D01*
X78618793Y-122982664D01*
X78532547Y-122867455D01*
X78532544Y-122867452D01*
X78417335Y-122781206D01*
X78417328Y-122781202D01*
X78282482Y-122730908D01*
X78282483Y-122730908D01*
X78222883Y-122724501D01*
X78222881Y-122724500D01*
X78222873Y-122724500D01*
X78222865Y-122724500D01*
X77927809Y-122724500D01*
X77860770Y-122704815D01*
X77815015Y-122652011D01*
X77803809Y-122600500D01*
X77803809Y-122295999D01*
X77823494Y-122228960D01*
X77828848Y-122221281D01*
X77942982Y-122070144D01*
X78033891Y-121887573D01*
X78036307Y-121879080D01*
X78073582Y-121819989D01*
X78136891Y-121790428D01*
X78206131Y-121799788D01*
X78243251Y-121825329D01*
X78274499Y-121856577D01*
X78297738Y-121879816D01*
X78333096Y-121902033D01*
X78338770Y-121906060D01*
X78371411Y-121932090D01*
X78371414Y-121932092D01*
X78409038Y-121950210D01*
X78415123Y-121953574D01*
X78450478Y-121975789D01*
X78489899Y-121989583D01*
X78496307Y-121992238D01*
X78533939Y-122010360D01*
X78574641Y-122019650D01*
X78581328Y-122021576D01*
X78620742Y-122035367D01*
X78620745Y-122035368D01*
X78662241Y-122040043D01*
X78669093Y-122041207D01*
X78709806Y-122050500D01*
X78755046Y-122050500D01*
X83017060Y-122050500D01*
X83084099Y-122070185D01*
X83104741Y-122086819D01*
X84963181Y-123945259D01*
X84996666Y-124006582D01*
X84999500Y-124032940D01*
X84999500Y-124499409D01*
X84979815Y-124566448D01*
X84927011Y-124612203D01*
X84857853Y-124622147D01*
X84794297Y-124593122D01*
X84768878Y-124562716D01*
X84229666Y-123654570D01*
X84221579Y-123641833D01*
X84184304Y-123586819D01*
X84183952Y-123586299D01*
X84183946Y-123586291D01*
X84183939Y-123586282D01*
X84118388Y-123507941D01*
X84118388Y-123507940D01*
X84016690Y-123408771D01*
X83900439Y-123324010D01*
X83900435Y-123324008D01*
X83900434Y-123324007D01*
X83774930Y-123257514D01*
X83774922Y-123257510D01*
X83639500Y-123208935D01*
X83500347Y-123180494D01*
X83356715Y-123172037D01*
X83215182Y-123183952D01*
X83074987Y-123216304D01*
X82995332Y-123247162D01*
X82942552Y-123267609D01*
X82942545Y-123267611D01*
X82942543Y-123267613D01*
X82877322Y-123298397D01*
X81985114Y-123800264D01*
X79465462Y-125217568D01*
X79452669Y-125225580D01*
X79445257Y-125230223D01*
X79445258Y-125230222D01*
X79358211Y-125290638D01*
X79268721Y-125369974D01*
X79268714Y-125369981D01*
X79174322Y-125476117D01*
X79094988Y-125596132D01*
X79094979Y-125596149D01*
X79034324Y-125724557D01*
X79034324Y-125724556D01*
X79008246Y-125791812D01*
X78328053Y-128002437D01*
X78320065Y-128036725D01*
X78295313Y-128190787D01*
X78295312Y-128190788D01*
X78293149Y-128308924D01*
X78292711Y-128332835D01*
X78296329Y-128362180D01*
X78310090Y-128473792D01*
X78310093Y-128473807D01*
X78347838Y-128612632D01*
X78347839Y-128612635D01*
X78347840Y-128612637D01*
X78404228Y-128742990D01*
X78437513Y-128806975D01*
X80962529Y-132915475D01*
X80970513Y-132927664D01*
X80981300Y-132943141D01*
X80983738Y-132946638D01*
X81005923Y-133012892D01*
X80988766Y-133080622D01*
X80944016Y-133124926D01*
X62186506Y-143956036D01*
X62118607Y-143972512D01*
X62052579Y-143949664D01*
X62009385Y-143894745D01*
X62000500Y-143848652D01*
X62000500Y-129717763D01*
X63695787Y-129717763D01*
X63725413Y-129987013D01*
X63725415Y-129987024D01*
X63793926Y-130249082D01*
X63793928Y-130249088D01*
X63899870Y-130498390D01*
X63971998Y-130616575D01*
X64040979Y-130729605D01*
X64040986Y-130729615D01*
X64214253Y-130937819D01*
X64214259Y-130937824D01*
X64415998Y-131118582D01*
X64641910Y-131268044D01*
X64887176Y-131383020D01*
X64887183Y-131383022D01*
X64887185Y-131383023D01*
X65146557Y-131461057D01*
X65146564Y-131461058D01*
X65146569Y-131461060D01*
X65414561Y-131500500D01*
X65414566Y-131500500D01*
X65617636Y-131500500D01*
X65669133Y-131496730D01*
X65820156Y-131485677D01*
X65932758Y-131460593D01*
X66084546Y-131426782D01*
X66084548Y-131426781D01*
X66084553Y-131426780D01*
X66337558Y-131330014D01*
X66573777Y-131197441D01*
X66788177Y-131031888D01*
X66976186Y-130836881D01*
X67133799Y-130616579D01*
X67232726Y-130424165D01*
X67257649Y-130375690D01*
X67257651Y-130375684D01*
X67257656Y-130375675D01*
X67345118Y-130119305D01*
X67394319Y-129852933D01*
X67404212Y-129582235D01*
X67374586Y-129312982D01*
X67306072Y-129050912D01*
X67200130Y-128801610D01*
X67059018Y-128570390D01*
X67057845Y-128568981D01*
X66885746Y-128362180D01*
X66885740Y-128362175D01*
X66684002Y-128181418D01*
X66458092Y-128031957D01*
X66395120Y-128002437D01*
X66212824Y-127916980D01*
X66212819Y-127916978D01*
X66212814Y-127916976D01*
X65953442Y-127838942D01*
X65953428Y-127838939D01*
X65837791Y-127821921D01*
X65685439Y-127799500D01*
X65482369Y-127799500D01*
X65482364Y-127799500D01*
X65279844Y-127814323D01*
X65279831Y-127814325D01*
X65015453Y-127873217D01*
X65015446Y-127873220D01*
X64762439Y-127969987D01*
X64526226Y-128102557D01*
X64311822Y-128268112D01*
X64123822Y-128463109D01*
X64123816Y-128463116D01*
X63966202Y-128683419D01*
X63966199Y-128683424D01*
X63842350Y-128924309D01*
X63842343Y-128924327D01*
X63754884Y-129180685D01*
X63754881Y-129180699D01*
X63705681Y-129447068D01*
X63705680Y-129447075D01*
X63695787Y-129717763D01*
X62000500Y-129717763D01*
X62000500Y-115516562D01*
X62020185Y-115449523D01*
X62072989Y-115403768D01*
X62142147Y-115393824D01*
X62168529Y-115402032D01*
G37*
G04 #@! TD.AperFunction*
G04 #@! TA.AperFunction,Conductor*
G36*
X85296657Y-115472142D02*
G01*
X92057457Y-126707716D01*
X91856163Y-126823950D01*
X91788264Y-126840426D01*
X91722236Y-126817578D01*
X91682821Y-126771158D01*
X91666186Y-126737232D01*
X89970528Y-123800269D01*
X89946477Y-123764448D01*
X89941753Y-123759551D01*
X89813367Y-123626441D01*
X89653705Y-123520279D01*
X89653703Y-123520278D01*
X89474951Y-123450921D01*
X89427579Y-123443593D01*
X89285466Y-123421610D01*
X89285463Y-123421610D01*
X89264452Y-123422939D01*
X89196304Y-123407525D01*
X89168945Y-123386867D01*
X87902262Y-122120184D01*
X87902259Y-122120182D01*
X87866904Y-122097966D01*
X87861229Y-122093940D01*
X87828589Y-122067910D01*
X87790959Y-122049787D01*
X87784872Y-122046422D01*
X87749525Y-122024212D01*
X87710114Y-122010421D01*
X87703688Y-122007759D01*
X87666061Y-121989639D01*
X87625345Y-121980345D01*
X87618662Y-121978420D01*
X87579259Y-121964632D01*
X87537763Y-121959955D01*
X87530908Y-121958791D01*
X87490200Y-121949501D01*
X87490196Y-121949500D01*
X87490194Y-121949500D01*
X87490191Y-121949500D01*
X86982940Y-121949500D01*
X86915901Y-121929815D01*
X86895259Y-121913181D01*
X84502262Y-119520184D01*
X84502259Y-119520182D01*
X84466904Y-119497966D01*
X84461229Y-119493940D01*
X84428589Y-119467910D01*
X84390959Y-119449787D01*
X84384872Y-119446422D01*
X84349525Y-119424212D01*
X84310114Y-119410421D01*
X84303688Y-119407759D01*
X84266061Y-119389639D01*
X84225345Y-119380345D01*
X84218662Y-119378420D01*
X84179259Y-119364632D01*
X84137763Y-119359955D01*
X84130908Y-119358791D01*
X84090200Y-119349501D01*
X84090196Y-119349500D01*
X84090194Y-119349500D01*
X84090191Y-119349500D01*
X80856240Y-119349500D01*
X80789201Y-119329815D01*
X80743446Y-119277011D01*
X80733502Y-119207853D01*
X80745240Y-119170229D01*
X80780575Y-119099265D01*
X80780576Y-119099260D01*
X80780582Y-119099250D01*
X80836397Y-118903083D01*
X80848340Y-118774186D01*
X80874126Y-118709249D01*
X80884122Y-118697954D01*
X87295259Y-112286819D01*
X87356582Y-112253334D01*
X87382940Y-112250500D01*
X90861311Y-112250500D01*
X85296657Y-115472142D01*
G37*
G04 #@! TD.AperFunction*
G04 #@! TA.AperFunction,Conductor*
G36*
X116080913Y-112835905D02*
G01*
X116080913Y-112835906D01*
X97703553Y-123447503D01*
X91043267Y-112250500D01*
X92217060Y-112250500D01*
X92284099Y-112270185D01*
X92304741Y-112286819D01*
X92495184Y-112477262D01*
X92622738Y-112604816D01*
X92658089Y-112627028D01*
X92663765Y-112631055D01*
X92696411Y-112657090D01*
X92696412Y-112657091D01*
X92717548Y-112667269D01*
X92734035Y-112675208D01*
X92740112Y-112678567D01*
X92757635Y-112689577D01*
X92775477Y-112700789D01*
X92814891Y-112714581D01*
X92821320Y-112717244D01*
X92858941Y-112735361D01*
X92899641Y-112744650D01*
X92906328Y-112746576D01*
X92945742Y-112760367D01*
X92945745Y-112760368D01*
X92987241Y-112765043D01*
X92994093Y-112766207D01*
X93034806Y-112775500D01*
X93080046Y-112775500D01*
X97291769Y-112775500D01*
X97358808Y-112795185D01*
X97366080Y-112800233D01*
X97457668Y-112868795D01*
X97457671Y-112868797D01*
X97592517Y-112919091D01*
X97592516Y-112919091D01*
X97599444Y-112919835D01*
X97652127Y-112925500D01*
X99247872Y-112925499D01*
X99307483Y-112919091D01*
X99442331Y-112868796D01*
X99557546Y-112782546D01*
X99643796Y-112667331D01*
X99694091Y-112532483D01*
X99700500Y-112472873D01*
X99700499Y-111477128D01*
X99694091Y-111417517D01*
X99643796Y-111282669D01*
X99643795Y-111282668D01*
X99643793Y-111282664D01*
X99557547Y-111167455D01*
X99557544Y-111167452D01*
X99442335Y-111081206D01*
X99442328Y-111081202D01*
X99307482Y-111030908D01*
X99307483Y-111030908D01*
X99247883Y-111024501D01*
X99247881Y-111024500D01*
X99247873Y-111024500D01*
X99247864Y-111024500D01*
X97652129Y-111024500D01*
X97652123Y-111024501D01*
X97592516Y-111030908D01*
X97457671Y-111081202D01*
X97457668Y-111081204D01*
X97366080Y-111149767D01*
X97300615Y-111174184D01*
X97291769Y-111174500D01*
X93507940Y-111174500D01*
X93440901Y-111154815D01*
X93420259Y-111138181D01*
X93102262Y-110820184D01*
X93102259Y-110820182D01*
X93066904Y-110797966D01*
X93061229Y-110793940D01*
X93028589Y-110767910D01*
X92990959Y-110749787D01*
X92984872Y-110746422D01*
X92949525Y-110724212D01*
X92910114Y-110710421D01*
X92903688Y-110707759D01*
X92866061Y-110689639D01*
X92825345Y-110680345D01*
X92818662Y-110678420D01*
X92779259Y-110664632D01*
X92737763Y-110659955D01*
X92730908Y-110658791D01*
X92690200Y-110649501D01*
X92690196Y-110649500D01*
X92690194Y-110649500D01*
X92644954Y-110649500D01*
X87090194Y-110649500D01*
X86909805Y-110649500D01*
X86909803Y-110649500D01*
X86909797Y-110649501D01*
X86869098Y-110658790D01*
X86862242Y-110659955D01*
X86820743Y-110664632D01*
X86781328Y-110678423D01*
X86774646Y-110680348D01*
X86733940Y-110689640D01*
X86696326Y-110707753D01*
X86689901Y-110710414D01*
X86650482Y-110724209D01*
X86650474Y-110724213D01*
X86615117Y-110746428D01*
X86609032Y-110749791D01*
X86571413Y-110767908D01*
X86571411Y-110767909D01*
X86538769Y-110793941D01*
X86533096Y-110797966D01*
X86497739Y-110820183D01*
X86497735Y-110820186D01*
X86465748Y-110852174D01*
X79981091Y-117336829D01*
X79919768Y-117370314D01*
X79850076Y-117365330D01*
X79794143Y-117323458D01*
X79782410Y-117304420D01*
X79733170Y-117205535D01*
X79689673Y-117118179D01*
X79566764Y-116955421D01*
X79566762Y-116955418D01*
X79416041Y-116818019D01*
X79416039Y-116818017D01*
X79242642Y-116710655D01*
X79242640Y-116710654D01*
X79242637Y-116710652D01*
X79242634Y-116710651D01*
X79242629Y-116710648D01*
X79199462Y-116693925D01*
X79144061Y-116651352D01*
X79120471Y-116585585D01*
X79136183Y-116517504D01*
X79162858Y-116486999D01*
X79161805Y-116485843D01*
X79316762Y-116344581D01*
X79316764Y-116344579D01*
X79439673Y-116181821D01*
X79530582Y-115999250D01*
X79586397Y-115803083D01*
X79598340Y-115674186D01*
X79624126Y-115609249D01*
X79634122Y-115597954D01*
X85970259Y-109261819D01*
X86031582Y-109228334D01*
X86057940Y-109225500D01*
X94900270Y-109225500D01*
X94967309Y-109245185D01*
X94987951Y-109261819D01*
X95081344Y-109355212D01*
X95230666Y-109447314D01*
X95397203Y-109502499D01*
X95499991Y-109513000D01*
X96550008Y-109512999D01*
X96550016Y-109512998D01*
X96550019Y-109512998D01*
X96606302Y-109507248D01*
X96652797Y-109502499D01*
X96819334Y-109447314D01*
X96968656Y-109355212D01*
X97038365Y-109285502D01*
X97099684Y-109252020D01*
X97169376Y-109257004D01*
X97225310Y-109298875D01*
X97242225Y-109329853D01*
X97256202Y-109367328D01*
X97256206Y-109367335D01*
X97342452Y-109482544D01*
X97342455Y-109482547D01*
X97457664Y-109568793D01*
X97457671Y-109568797D01*
X97592517Y-109619091D01*
X97592516Y-109619091D01*
X97599444Y-109619835D01*
X97652127Y-109625500D01*
X99247872Y-109625499D01*
X99307483Y-109619091D01*
X99442331Y-109568796D01*
X99516866Y-109512999D01*
X99533920Y-109500233D01*
X99599385Y-109475816D01*
X99608231Y-109475500D01*
X100165194Y-109475500D01*
X100205905Y-109466208D01*
X100212760Y-109465043D01*
X100254255Y-109460368D01*
X100293680Y-109446571D01*
X100300321Y-109444658D01*
X100341061Y-109435360D01*
X100378693Y-109417236D01*
X100385105Y-109414580D01*
X100424522Y-109400789D01*
X100459889Y-109378565D01*
X100465961Y-109375209D01*
X100503587Y-109357091D01*
X100536236Y-109331052D01*
X100541895Y-109327037D01*
X100577262Y-109304816D01*
X100704816Y-109177262D01*
X100704816Y-109177261D01*
X101905897Y-107976179D01*
X101967218Y-107942696D01*
X102036910Y-107947680D01*
X102092843Y-107989552D01*
X102117260Y-108055016D01*
X102109759Y-108107191D01*
X102105909Y-108117512D01*
X102105908Y-108117516D01*
X102099501Y-108177116D01*
X102099500Y-108177135D01*
X102099500Y-109172870D01*
X102099501Y-109172876D01*
X102105908Y-109232483D01*
X102156202Y-109367328D01*
X102156206Y-109367335D01*
X102242452Y-109482544D01*
X102242455Y-109482547D01*
X102357664Y-109568793D01*
X102357671Y-109568797D01*
X102492517Y-109619091D01*
X102492516Y-109619091D01*
X102499444Y-109619835D01*
X102552127Y-109625500D01*
X104147872Y-109625499D01*
X104207483Y-109619091D01*
X104342331Y-109568796D01*
X104457546Y-109482546D01*
X104543796Y-109367331D01*
X104594091Y-109232483D01*
X104600500Y-109172873D01*
X104600499Y-108607938D01*
X104620183Y-108540900D01*
X104636813Y-108520263D01*
X108747826Y-104409252D01*
X108779816Y-104377262D01*
X108802037Y-104341895D01*
X108806052Y-104336236D01*
X108832091Y-104303587D01*
X108850209Y-104265961D01*
X108853565Y-104259889D01*
X108875789Y-104224522D01*
X108889580Y-104185105D01*
X108892236Y-104178693D01*
X108910360Y-104141061D01*
X108919658Y-104100321D01*
X108921571Y-104093680D01*
X108935368Y-104054255D01*
X108940043Y-104012760D01*
X108941208Y-104005905D01*
X108946185Y-103984099D01*
X108950500Y-103965194D01*
X108950500Y-103784806D01*
X108950500Y-102832940D01*
X108970185Y-102765901D01*
X108986819Y-102745259D01*
X109625023Y-102107054D01*
X116080913Y-112835905D01*
G37*
G04 #@! TD.AperFunction*
G04 #@! TA.AperFunction,Conductor*
G36*
X85784099Y-82820185D02*
G01*
X85804741Y-82836819D01*
X87213181Y-84245259D01*
X87246666Y-84306582D01*
X87249500Y-84332940D01*
X87249500Y-85235873D01*
X87229815Y-85302912D01*
X87196374Y-85336275D01*
X87196693Y-85336672D01*
X87193005Y-85339635D01*
X87192295Y-85340345D01*
X87191457Y-85340880D01*
X87042010Y-85461009D01*
X87042009Y-85461010D01*
X86921883Y-85610453D01*
X86921881Y-85610456D01*
X86836694Y-85782221D01*
X86790419Y-85968291D01*
X86787500Y-86011342D01*
X86787501Y-87688656D01*
X86787501Y-87688657D01*
X86790418Y-87731701D01*
X86790418Y-87731702D01*
X86809297Y-87807614D01*
X86831093Y-87895259D01*
X86836694Y-87917778D01*
X86921881Y-88089543D01*
X86921883Y-88089546D01*
X87042009Y-88238989D01*
X87042010Y-88238990D01*
X87191453Y-88359116D01*
X87191456Y-88359118D01*
X87341277Y-88433422D01*
X87363225Y-88444307D01*
X87505398Y-88479664D01*
X87549291Y-88490580D01*
X87549292Y-88490580D01*
X87549296Y-88490581D01*
X87588336Y-88493228D01*
X87592342Y-88493500D01*
X87592342Y-88493499D01*
X87592343Y-88493500D01*
X88507656Y-88493499D01*
X88507657Y-88493499D01*
X88518418Y-88492769D01*
X88550704Y-88490581D01*
X88736775Y-88444307D01*
X88908547Y-88359116D01*
X89057990Y-88238990D01*
X89178116Y-88089547D01*
X89263307Y-87917775D01*
X89309581Y-87731704D01*
X89312500Y-87688657D01*
X89312499Y-86011344D01*
X89309581Y-85968296D01*
X89263307Y-85782225D01*
X89215822Y-85686480D01*
X89178118Y-85610456D01*
X89178116Y-85610453D01*
X89057990Y-85461010D01*
X89057989Y-85461009D01*
X88908542Y-85340880D01*
X88907705Y-85340345D01*
X88907305Y-85339885D01*
X88903307Y-85336672D01*
X88903883Y-85335955D01*
X88861826Y-85287648D01*
X88850500Y-85235873D01*
X88850500Y-84874500D01*
X88870185Y-84807461D01*
X88922989Y-84761706D01*
X88974500Y-84750500D01*
X92038168Y-84750500D01*
X92105207Y-84770185D01*
X92150962Y-84822989D01*
X92160906Y-84892147D01*
X92131881Y-84955703D01*
X92089680Y-84987294D01*
X92059920Y-85000884D01*
X92018417Y-85019838D01*
X92018415Y-85019839D01*
X91898935Y-85096623D01*
X91898057Y-85097331D01*
X91897248Y-85098085D01*
X91790189Y-85190851D01*
X91697181Y-85298188D01*
X91695768Y-85300305D01*
X91695362Y-85301018D01*
X91619399Y-85419221D01*
X91619392Y-85419235D01*
X91560394Y-85548423D01*
X91519858Y-85686473D01*
X91519856Y-85686480D01*
X91499645Y-85827056D01*
X91494500Y-85899000D01*
X91494500Y-88420800D01*
X91481500Y-88476072D01*
X91419422Y-88600739D01*
X91419417Y-88600752D01*
X91363602Y-88796917D01*
X91344785Y-88999999D01*
X91344785Y-89000000D01*
X91363602Y-89203082D01*
X91419418Y-89399253D01*
X91481500Y-89523927D01*
X91494500Y-89579199D01*
X91494500Y-89720800D01*
X91481500Y-89776072D01*
X91419422Y-89900739D01*
X91419417Y-89900752D01*
X91363602Y-90096917D01*
X91344785Y-90299999D01*
X91344785Y-90300000D01*
X91363602Y-90503082D01*
X91419417Y-90699247D01*
X91419422Y-90699260D01*
X91510327Y-90881821D01*
X91633237Y-91044581D01*
X91783958Y-91181980D01*
X91783960Y-91181982D01*
X91883141Y-91243392D01*
X91957363Y-91289348D01*
X92147544Y-91363024D01*
X92348024Y-91400500D01*
X92348026Y-91400500D01*
X92551974Y-91400500D01*
X92551976Y-91400500D01*
X92752456Y-91363024D01*
X92809708Y-91340844D01*
X92879332Y-91313873D01*
X92924125Y-91305500D01*
X93275875Y-91305500D01*
X93320668Y-91313873D01*
X93434450Y-91357951D01*
X93447544Y-91363024D01*
X93648024Y-91400500D01*
X93648026Y-91400500D01*
X93851974Y-91400500D01*
X93851976Y-91400500D01*
X94052456Y-91363024D01*
X94242637Y-91289348D01*
X94416041Y-91181981D01*
X94566764Y-91044579D01*
X94689673Y-90881821D01*
X94780582Y-90699250D01*
X94836397Y-90503083D01*
X94855215Y-90300000D01*
X94836397Y-90096917D01*
X94802326Y-89977176D01*
X94797598Y-89944391D01*
X94795613Y-89729949D01*
X94792339Y-89376384D01*
X94797067Y-89341310D01*
X94836397Y-89203083D01*
X94855215Y-89000000D01*
X94836397Y-88796917D01*
X94789884Y-88633448D01*
X94785156Y-88600662D01*
X94784658Y-88546883D01*
X94803721Y-88479664D01*
X94856099Y-88433422D01*
X94925163Y-88422839D01*
X94963746Y-88434646D01*
X94983225Y-88444307D01*
X95108575Y-88475480D01*
X95169291Y-88490580D01*
X95169292Y-88490580D01*
X95169296Y-88490581D01*
X95208336Y-88493228D01*
X95212342Y-88493500D01*
X95212342Y-88493499D01*
X95212343Y-88493500D01*
X96127656Y-88493499D01*
X96127657Y-88493499D01*
X96138418Y-88492769D01*
X96170704Y-88490581D01*
X96356775Y-88444307D01*
X96528547Y-88359116D01*
X96677990Y-88238990D01*
X96798116Y-88089547D01*
X96883307Y-87917775D01*
X96929581Y-87731704D01*
X96932500Y-87688657D01*
X96932499Y-86011344D01*
X96929581Y-85968296D01*
X96883307Y-85782225D01*
X96835822Y-85686480D01*
X96798118Y-85610456D01*
X96798116Y-85610453D01*
X96677990Y-85461010D01*
X96677989Y-85461009D01*
X96528546Y-85340883D01*
X96528543Y-85340881D01*
X96356778Y-85255694D01*
X96356776Y-85255693D01*
X96356775Y-85255693D01*
X96310026Y-85244067D01*
X96170708Y-85209419D01*
X96127658Y-85206500D01*
X96127657Y-85206500D01*
X95212344Y-85206501D01*
X95212343Y-85206501D01*
X95169298Y-85209418D01*
X95169297Y-85209418D01*
X94983221Y-85255694D01*
X94811456Y-85340881D01*
X94811453Y-85340883D01*
X94769553Y-85374564D01*
X94704969Y-85401223D01*
X94636225Y-85388732D01*
X94587551Y-85344957D01*
X94557973Y-85298932D01*
X94557972Y-85298931D01*
X94557968Y-85298927D01*
X94557275Y-85298067D01*
X94556529Y-85297266D01*
X94463751Y-85190193D01*
X94438626Y-85168422D01*
X94356410Y-85097181D01*
X94354311Y-85095779D01*
X94353590Y-85095369D01*
X94235377Y-85019399D01*
X94235373Y-85019397D01*
X94235370Y-85019395D01*
X94106175Y-84960394D01*
X94090199Y-84955703D01*
X93968125Y-84919858D01*
X93968118Y-84919856D01*
X93827543Y-84899645D01*
X93755599Y-84894500D01*
X92581858Y-84894500D01*
X92514819Y-84874815D01*
X92469064Y-84822011D01*
X92459120Y-84752853D01*
X92488145Y-84689297D01*
X92515882Y-84665509D01*
X92534883Y-84653569D01*
X92540953Y-84650213D01*
X92578587Y-84632091D01*
X92611236Y-84606052D01*
X92616895Y-84602037D01*
X92652262Y-84579816D01*
X92779816Y-84452262D01*
X94062319Y-83169759D01*
X94123642Y-83136274D01*
X94193334Y-83141258D01*
X94237681Y-83169759D01*
X95370184Y-84302262D01*
X95497738Y-84429816D01*
X95533089Y-84452028D01*
X95538765Y-84456055D01*
X95571411Y-84482090D01*
X95571412Y-84482091D01*
X95592548Y-84492269D01*
X95609035Y-84500208D01*
X95615112Y-84503567D01*
X95632635Y-84514577D01*
X95650477Y-84525789D01*
X95689891Y-84539581D01*
X95696320Y-84542244D01*
X95733941Y-84560361D01*
X95774641Y-84569650D01*
X95781328Y-84571576D01*
X95804878Y-84579816D01*
X95820745Y-84585368D01*
X95862241Y-84590043D01*
X95869093Y-84591207D01*
X95909806Y-84600500D01*
X95955046Y-84600500D01*
X97642060Y-84600500D01*
X97709099Y-84620185D01*
X97729741Y-84636819D01*
X110267741Y-97174818D01*
X110301226Y-97236141D01*
X110296242Y-97305833D01*
X110267741Y-97350180D01*
X99779741Y-107838181D01*
X99718418Y-107871666D01*
X99692060Y-107874500D01*
X99608231Y-107874500D01*
X99541192Y-107854815D01*
X99533920Y-107849767D01*
X99442331Y-107781204D01*
X99442328Y-107781202D01*
X99307482Y-107730908D01*
X99307483Y-107730908D01*
X99247883Y-107724501D01*
X99247881Y-107724500D01*
X99247873Y-107724500D01*
X99247865Y-107724500D01*
X98625493Y-107724500D01*
X98559519Y-107705492D01*
X98549528Y-107699214D01*
X98549525Y-107699212D01*
X98510114Y-107685421D01*
X98503688Y-107682759D01*
X98466061Y-107664639D01*
X98425345Y-107655345D01*
X98418662Y-107653420D01*
X98379259Y-107639632D01*
X98337763Y-107634955D01*
X98330908Y-107633791D01*
X98290200Y-107624501D01*
X98290196Y-107624500D01*
X98290194Y-107624500D01*
X98290191Y-107624500D01*
X97149730Y-107624500D01*
X97082691Y-107604815D01*
X97062049Y-107588181D01*
X96968657Y-107494789D01*
X96968656Y-107494788D01*
X96819334Y-107402686D01*
X96652797Y-107347501D01*
X96652795Y-107347500D01*
X96550010Y-107337000D01*
X95499998Y-107337000D01*
X95499980Y-107337001D01*
X95397203Y-107347500D01*
X95397200Y-107347501D01*
X95230668Y-107402685D01*
X95230663Y-107402687D01*
X95081342Y-107494789D01*
X94987951Y-107588181D01*
X94926628Y-107621666D01*
X94900270Y-107624500D01*
X85765194Y-107624500D01*
X85584805Y-107624500D01*
X85584803Y-107624500D01*
X85584797Y-107624501D01*
X85544098Y-107633790D01*
X85537242Y-107634955D01*
X85495743Y-107639632D01*
X85456328Y-107653423D01*
X85449646Y-107655348D01*
X85408940Y-107664640D01*
X85371326Y-107682753D01*
X85364901Y-107685414D01*
X85325482Y-107699209D01*
X85325474Y-107699213D01*
X85290117Y-107721428D01*
X85284032Y-107724791D01*
X85246413Y-107742908D01*
X85246411Y-107742909D01*
X85213769Y-107768941D01*
X85208096Y-107772966D01*
X85172739Y-107795183D01*
X85172735Y-107795186D01*
X85140748Y-107827174D01*
X83412181Y-109555740D01*
X83350858Y-109589225D01*
X83281166Y-109584241D01*
X83225233Y-109542369D01*
X83200816Y-109476905D01*
X83200500Y-109468059D01*
X83200500Y-95982939D01*
X83220185Y-95915900D01*
X83236814Y-95895263D01*
X84445259Y-94686817D01*
X84506582Y-94653333D01*
X84532940Y-94650499D01*
X85097871Y-94650499D01*
X85097872Y-94650499D01*
X85157483Y-94644091D01*
X85292331Y-94593796D01*
X85407546Y-94507546D01*
X85493796Y-94392331D01*
X85544091Y-94257483D01*
X85550500Y-94197873D01*
X85550499Y-93202128D01*
X85544091Y-93142517D01*
X85524066Y-93088828D01*
X85493797Y-93007671D01*
X85493793Y-93007664D01*
X85407547Y-92892455D01*
X85407544Y-92892452D01*
X85292335Y-92806206D01*
X85292328Y-92806202D01*
X85157482Y-92755908D01*
X85157483Y-92755908D01*
X85097883Y-92749501D01*
X85097881Y-92749500D01*
X85097873Y-92749500D01*
X85097864Y-92749500D01*
X83502129Y-92749500D01*
X83502123Y-92749501D01*
X83442516Y-92755908D01*
X83307671Y-92806202D01*
X83307664Y-92806206D01*
X83192455Y-92892452D01*
X83192452Y-92892455D01*
X83106206Y-93007664D01*
X83106202Y-93007671D01*
X83055908Y-93142517D01*
X83049572Y-93201453D01*
X83049501Y-93202123D01*
X83049500Y-93202135D01*
X83049500Y-93767059D01*
X83029815Y-93834098D01*
X83013181Y-93854740D01*
X81897738Y-94970184D01*
X81770186Y-95097735D01*
X81770183Y-95097739D01*
X81747966Y-95133096D01*
X81743941Y-95138769D01*
X81717910Y-95171410D01*
X81699791Y-95209033D01*
X81696427Y-95215120D01*
X81674212Y-95250476D01*
X81674208Y-95250483D01*
X81660416Y-95289895D01*
X81657755Y-95296320D01*
X81639639Y-95333939D01*
X81630344Y-95374659D01*
X81628419Y-95381341D01*
X81614632Y-95420744D01*
X81609955Y-95462235D01*
X81608791Y-95469089D01*
X81599500Y-95509806D01*
X81599500Y-109117060D01*
X81579815Y-109184099D01*
X81563181Y-109204741D01*
X76520186Y-114247735D01*
X76520183Y-114247739D01*
X76497966Y-114283096D01*
X76493941Y-114288769D01*
X76467910Y-114321410D01*
X76449791Y-114359033D01*
X76446427Y-114365120D01*
X76424212Y-114400476D01*
X76424208Y-114400483D01*
X76410416Y-114439895D01*
X76407755Y-114446320D01*
X76389639Y-114483939D01*
X76380344Y-114524659D01*
X76378419Y-114531341D01*
X76364632Y-114570744D01*
X76359955Y-114612235D01*
X76358791Y-114619089D01*
X76349500Y-114659806D01*
X76349500Y-115668060D01*
X76329815Y-115735099D01*
X76277011Y-115780854D01*
X76207853Y-115790798D01*
X76144297Y-115761773D01*
X76137819Y-115755741D01*
X69544259Y-109162181D01*
X69510774Y-109100858D01*
X69515758Y-109031166D01*
X69557630Y-108975233D01*
X69623094Y-108950816D01*
X69631940Y-108950500D01*
X75640194Y-108950500D01*
X75680905Y-108941208D01*
X75687760Y-108940043D01*
X75729255Y-108935368D01*
X75768680Y-108921571D01*
X75775321Y-108919658D01*
X75816061Y-108910360D01*
X75853693Y-108892236D01*
X75860105Y-108889580D01*
X75899522Y-108875789D01*
X75934889Y-108853565D01*
X75940961Y-108850209D01*
X75978587Y-108832091D01*
X76011236Y-108806052D01*
X76016895Y-108802037D01*
X76052262Y-108779816D01*
X76179816Y-108652262D01*
X79997826Y-104834252D01*
X80029816Y-104802262D01*
X80052037Y-104766895D01*
X80056052Y-104761236D01*
X80082091Y-104728587D01*
X80100209Y-104690961D01*
X80103565Y-104684889D01*
X80125789Y-104649522D01*
X80139580Y-104610105D01*
X80142236Y-104603693D01*
X80160360Y-104566061D01*
X80169658Y-104525321D01*
X80171571Y-104518680D01*
X80185368Y-104479255D01*
X80190043Y-104437760D01*
X80191208Y-104430905D01*
X80196023Y-104409807D01*
X80200500Y-104390194D01*
X80200500Y-104209806D01*
X80200500Y-98051439D01*
X80220185Y-97984400D01*
X80272989Y-97938645D01*
X80281168Y-97935257D01*
X80290381Y-97931821D01*
X80325311Y-97918793D01*
X80392326Y-97893798D01*
X80392326Y-97893797D01*
X80392331Y-97893796D01*
X80507546Y-97807546D01*
X80593796Y-97692331D01*
X80644091Y-97557483D01*
X80650500Y-97497873D01*
X80650499Y-96502128D01*
X80644091Y-96442517D01*
X80634415Y-96416575D01*
X80593797Y-96307671D01*
X80593793Y-96307664D01*
X80507547Y-96192455D01*
X80507544Y-96192452D01*
X80392335Y-96106206D01*
X80392328Y-96106202D01*
X80257482Y-96055908D01*
X80257483Y-96055908D01*
X80197883Y-96049501D01*
X80197881Y-96049500D01*
X80197873Y-96049500D01*
X80197864Y-96049500D01*
X78602129Y-96049500D01*
X78602123Y-96049501D01*
X78542516Y-96055908D01*
X78407671Y-96106202D01*
X78407668Y-96106204D01*
X78316080Y-96174767D01*
X78250615Y-96199184D01*
X78241769Y-96199500D01*
X76374500Y-96199500D01*
X76307461Y-96179815D01*
X76261706Y-96127011D01*
X76250500Y-96075500D01*
X76250500Y-94659805D01*
X76250499Y-94659802D01*
X76241204Y-94619079D01*
X76240043Y-94612245D01*
X76238934Y-94602399D01*
X76250993Y-94533581D01*
X76298345Y-94482204D01*
X76365956Y-94464584D01*
X76401159Y-94470820D01*
X76405664Y-94472312D01*
X76405666Y-94472314D01*
X76572203Y-94527499D01*
X76674991Y-94538000D01*
X77725008Y-94537999D01*
X77725016Y-94537998D01*
X77725019Y-94537998D01*
X77785242Y-94531846D01*
X77827797Y-94527499D01*
X77994334Y-94472314D01*
X78083789Y-94417137D01*
X78151181Y-94398698D01*
X78217844Y-94419621D01*
X78248151Y-94448365D01*
X78292455Y-94507547D01*
X78407664Y-94593793D01*
X78407671Y-94593797D01*
X78542517Y-94644091D01*
X78542516Y-94644091D01*
X78549444Y-94644835D01*
X78602127Y-94650500D01*
X80197872Y-94650499D01*
X80257483Y-94644091D01*
X80392331Y-94593796D01*
X80507546Y-94507546D01*
X80593796Y-94392331D01*
X80644091Y-94257483D01*
X80650500Y-94197873D01*
X80650499Y-93202128D01*
X80644091Y-93142517D01*
X80624066Y-93088828D01*
X80593797Y-93007671D01*
X80593793Y-93007664D01*
X80507547Y-92892455D01*
X80507544Y-92892452D01*
X80392335Y-92806206D01*
X80392328Y-92806202D01*
X80257482Y-92755908D01*
X80257483Y-92755908D01*
X80197883Y-92749501D01*
X80197881Y-92749500D01*
X80197873Y-92749500D01*
X80197865Y-92749500D01*
X79575493Y-92749500D01*
X79509519Y-92730492D01*
X79499528Y-92724214D01*
X79499525Y-92724212D01*
X79460114Y-92710421D01*
X79453688Y-92707759D01*
X79416061Y-92689639D01*
X79375345Y-92680345D01*
X79368662Y-92678420D01*
X79329259Y-92664632D01*
X79287763Y-92659955D01*
X79280908Y-92658791D01*
X79240200Y-92649501D01*
X79240196Y-92649500D01*
X79240194Y-92649500D01*
X79240191Y-92649500D01*
X78324730Y-92649500D01*
X78257691Y-92629815D01*
X78237049Y-92613181D01*
X78143656Y-92519788D01*
X78143652Y-92519785D01*
X78059403Y-92467819D01*
X78012678Y-92415871D01*
X78000500Y-92362281D01*
X78000500Y-88432940D01*
X78020185Y-88365901D01*
X78036819Y-88345259D01*
X83545259Y-82836819D01*
X83606582Y-82803334D01*
X83632940Y-82800500D01*
X85717060Y-82800500D01*
X85784099Y-82820185D01*
G37*
G04 #@! TD.AperFunction*
G04 #@! TA.AperFunction,Conductor*
G36*
X115533959Y-99131981D02*
G01*
X115707363Y-99239348D01*
X115897544Y-99313024D01*
X116098024Y-99350500D01*
X116098026Y-99350500D01*
X116301974Y-99350500D01*
X116301976Y-99350500D01*
X116502456Y-99313024D01*
X116518708Y-99306727D01*
X116588329Y-99300865D01*
X116650070Y-99333574D01*
X116684325Y-99394470D01*
X116684391Y-99394758D01*
X116689139Y-99415560D01*
X116707259Y-99453188D01*
X116709921Y-99459614D01*
X116723712Y-99499025D01*
X116745922Y-99534372D01*
X116749287Y-99540459D01*
X116767410Y-99578089D01*
X116793440Y-99610729D01*
X116797466Y-99616404D01*
X116819682Y-99651759D01*
X116819684Y-99651762D01*
X116851674Y-99683752D01*
X117637887Y-100469964D01*
X117669472Y-100523710D01*
X117719417Y-100699247D01*
X117719422Y-100699260D01*
X117810327Y-100881821D01*
X117933237Y-101044581D01*
X118083958Y-101181980D01*
X118083960Y-101181982D01*
X118144488Y-101219459D01*
X118257363Y-101289348D01*
X118447544Y-101363024D01*
X118648024Y-101400500D01*
X118648026Y-101400500D01*
X118851975Y-101400500D01*
X118851976Y-101400500D01*
X118902714Y-101391015D01*
X118972228Y-101398045D01*
X119026908Y-101441541D01*
X119049391Y-101507695D01*
X119049500Y-101512903D01*
X119049500Y-103640191D01*
X119049501Y-103640200D01*
X119058791Y-103680908D01*
X119059955Y-103687763D01*
X119064632Y-103729259D01*
X119078420Y-103768662D01*
X119080345Y-103775345D01*
X119089639Y-103816061D01*
X119107759Y-103853688D01*
X119110421Y-103860114D01*
X119124212Y-103899525D01*
X119146422Y-103934872D01*
X119149787Y-103940959D01*
X119167910Y-103978589D01*
X119193940Y-104011229D01*
X119197966Y-104016904D01*
X119220182Y-104052259D01*
X119220184Y-104052262D01*
X119963181Y-104795259D01*
X119996666Y-104856582D01*
X119999500Y-104882940D01*
X119999500Y-105929600D01*
X119999501Y-105929609D01*
X120008791Y-105970317D01*
X120009955Y-105977172D01*
X120014632Y-106018668D01*
X120028420Y-106058071D01*
X120030345Y-106064754D01*
X120039639Y-106105470D01*
X120057759Y-106143097D01*
X120060421Y-106149523D01*
X120074212Y-106188934D01*
X120096422Y-106224281D01*
X120099787Y-106230368D01*
X120117910Y-106267998D01*
X120143940Y-106300638D01*
X120147966Y-106306313D01*
X120170182Y-106341668D01*
X120170184Y-106341671D01*
X120236279Y-106407766D01*
X120255985Y-106433447D01*
X121869615Y-109228334D01*
X121905066Y-109289736D01*
X121919715Y-109311554D01*
X121940742Y-109378184D01*
X121922408Y-109445606D01*
X121878774Y-109488058D01*
X121727264Y-109575545D01*
X115492854Y-99094508D01*
X115533959Y-99131981D01*
G37*
G04 #@! TD.AperFunction*
G04 #@! TA.AperFunction,Conductor*
G36*
X67613417Y-81942757D02*
G01*
X67671226Y-81981999D01*
X67698643Y-82046265D01*
X67699500Y-82060818D01*
X67699500Y-95480191D01*
X67699501Y-95480200D01*
X67708791Y-95520908D01*
X67709955Y-95527763D01*
X67714632Y-95569259D01*
X67728420Y-95608662D01*
X67730345Y-95615345D01*
X67739639Y-95656061D01*
X67757759Y-95693688D01*
X67760421Y-95700114D01*
X67774212Y-95739525D01*
X67796422Y-95774872D01*
X67799787Y-95780959D01*
X67817910Y-95818589D01*
X67843940Y-95851229D01*
X67847966Y-95856904D01*
X67870182Y-95892259D01*
X67870184Y-95892262D01*
X68180241Y-96202319D01*
X68213726Y-96263642D01*
X68208742Y-96333334D01*
X68180241Y-96377681D01*
X67770186Y-96787735D01*
X67770183Y-96787739D01*
X67747966Y-96823096D01*
X67743941Y-96828769D01*
X67717910Y-96861410D01*
X67699791Y-96899033D01*
X67696427Y-96905120D01*
X67674212Y-96940476D01*
X67674208Y-96940483D01*
X67660416Y-96979895D01*
X67657755Y-96986320D01*
X67639639Y-97023939D01*
X67630344Y-97064659D01*
X67628419Y-97071341D01*
X67614632Y-97110744D01*
X67609955Y-97152235D01*
X67608791Y-97159089D01*
X67599500Y-97199806D01*
X67599500Y-106427059D01*
X67579815Y-106494098D01*
X67563181Y-106514740D01*
X66192340Y-107885580D01*
X66131017Y-107919065D01*
X66061325Y-107914081D01*
X66049569Y-107908989D01*
X66024775Y-107896693D01*
X65980089Y-107885580D01*
X65838708Y-107850419D01*
X65795658Y-107847500D01*
X65795657Y-107847500D01*
X62404344Y-107847501D01*
X62404343Y-107847501D01*
X62361298Y-107850418D01*
X62361297Y-107850418D01*
X62175221Y-107896694D01*
X62168913Y-107899012D01*
X62168019Y-107896578D01*
X62110741Y-107906671D01*
X62046300Y-107879670D01*
X62006687Y-107822115D01*
X62000500Y-107783437D01*
X62000500Y-100524500D01*
X62020185Y-100457461D01*
X62072989Y-100411706D01*
X62124500Y-100400500D01*
X62218327Y-100400500D01*
X62653318Y-100362443D01*
X63083337Y-100286619D01*
X63297830Y-100229146D01*
X63505104Y-100173608D01*
X63505104Y-100173607D01*
X63505112Y-100173605D01*
X63915432Y-100024261D01*
X63915431Y-100024261D01*
X63915443Y-100024257D01*
X64311172Y-99839725D01*
X64311172Y-99839724D01*
X64549827Y-99701937D01*
X64689326Y-99621397D01*
X64689326Y-99621396D01*
X64689331Y-99621394D01*
X64983292Y-99415560D01*
X65047012Y-99370943D01*
X65047013Y-99370942D01*
X65047013Y-99370943D01*
X65331795Y-99131981D01*
X65381507Y-99090268D01*
X65690268Y-98781507D01*
X65805567Y-98644099D01*
X65970943Y-98447013D01*
X65970942Y-98447013D01*
X65970943Y-98447012D01*
X66131715Y-98217405D01*
X66221394Y-98089331D01*
X66287115Y-97975499D01*
X66439723Y-97711174D01*
X66439724Y-97711172D01*
X66439725Y-97711172D01*
X66624257Y-97315443D01*
X66652211Y-97238640D01*
X66773605Y-96905112D01*
X66773607Y-96905104D01*
X66773608Y-96905104D01*
X66853907Y-96605421D01*
X66886619Y-96483337D01*
X66962443Y-96053318D01*
X67000500Y-95618327D01*
X67000500Y-95181673D01*
X66962443Y-94746682D01*
X66886619Y-94316663D01*
X66831825Y-94112169D01*
X66773608Y-93894896D01*
X66773607Y-93894896D01*
X66773605Y-93894888D01*
X66624261Y-93484568D01*
X66624257Y-93484557D01*
X66439725Y-93088828D01*
X66439724Y-93088828D01*
X66439723Y-93088826D01*
X66221397Y-92710674D01*
X66221396Y-92710673D01*
X66221394Y-92710669D01*
X66014974Y-92415871D01*
X65970943Y-92352988D01*
X65970942Y-92352987D01*
X65970943Y-92352987D01*
X65690267Y-92018492D01*
X65381508Y-91709733D01*
X65047013Y-91429057D01*
X65047013Y-91429058D01*
X65047012Y-91429057D01*
X64847481Y-91289344D01*
X64689331Y-91178606D01*
X64412329Y-91018679D01*
X64311174Y-90960277D01*
X64311172Y-90960276D01*
X64311172Y-90960275D01*
X63915443Y-90775743D01*
X63907665Y-90772912D01*
X63505112Y-90626395D01*
X63505104Y-90626392D01*
X63231570Y-90553100D01*
X63083337Y-90513381D01*
X62653318Y-90437557D01*
X62218327Y-90399500D01*
X62124500Y-90399500D01*
X62057461Y-90379815D01*
X62011706Y-90327011D01*
X62000500Y-90275500D01*
X62000500Y-82981562D01*
X62020185Y-82914523D01*
X62072989Y-82868768D01*
X62142147Y-82858824D01*
X62168529Y-82867032D01*
X62168913Y-82865988D01*
X62175220Y-82868304D01*
X62175225Y-82868307D01*
X62325013Y-82905558D01*
X62361291Y-82914580D01*
X62361292Y-82914580D01*
X62361296Y-82914581D01*
X62400336Y-82917228D01*
X62404342Y-82917500D01*
X62404342Y-82917499D01*
X62404343Y-82917500D01*
X65795656Y-82917499D01*
X65795657Y-82917499D01*
X65806418Y-82916769D01*
X65838704Y-82914581D01*
X66024775Y-82868307D01*
X66196547Y-82783116D01*
X66345990Y-82662990D01*
X66466116Y-82513547D01*
X66496373Y-82452537D01*
X66543791Y-82401227D01*
X66566501Y-82390593D01*
X66594522Y-82380789D01*
X66629882Y-82358569D01*
X66635963Y-82355209D01*
X66651469Y-82347741D01*
X66705265Y-82335465D01*
X66767009Y-82335465D01*
X66767011Y-82335465D01*
X66967491Y-82297989D01*
X67157672Y-82224313D01*
X67331076Y-82116946D01*
X67450208Y-82008342D01*
X67481796Y-81979547D01*
X67483860Y-81977283D01*
X67485118Y-81976517D01*
X67486036Y-81975682D01*
X67486199Y-81975861D01*
X67543570Y-81941000D01*
X67613417Y-81942757D01*
G37*
G04 #@! TD.AperFunction*
G04 #@! TA.AperFunction,Conductor*
G36*
X69869981Y-97110185D02*
G01*
X69915736Y-97162989D01*
X69923275Y-97184570D01*
X69947220Y-97280852D01*
X69948694Y-97286778D01*
X70033881Y-97458543D01*
X70033883Y-97458546D01*
X70154009Y-97607989D01*
X70154010Y-97607990D01*
X70303453Y-97728116D01*
X70303456Y-97728118D01*
X70388765Y-97770427D01*
X70475225Y-97813307D01*
X70625013Y-97850558D01*
X70661291Y-97859580D01*
X70661292Y-97859580D01*
X70661296Y-97859581D01*
X70700336Y-97862228D01*
X70704342Y-97862500D01*
X70704342Y-97862499D01*
X70704343Y-97862500D01*
X74095656Y-97862499D01*
X74095657Y-97862499D01*
X74106418Y-97861769D01*
X74138704Y-97859581D01*
X74324775Y-97813307D01*
X74496547Y-97728116D01*
X74645990Y-97607990D01*
X74766116Y-97458547D01*
X74851307Y-97286775D01*
X74851309Y-97286765D01*
X74852485Y-97283567D01*
X74853735Y-97281878D01*
X74854294Y-97280753D01*
X74854495Y-97280852D01*
X74894076Y-97227426D01*
X74959418Y-97202683D01*
X75027764Y-97217194D01*
X75056562Y-97238640D01*
X75447739Y-97629817D01*
X75447742Y-97629819D01*
X75483089Y-97652029D01*
X75488763Y-97656055D01*
X75520957Y-97681728D01*
X75521414Y-97682092D01*
X75538435Y-97690289D01*
X75559033Y-97700209D01*
X75565122Y-97703574D01*
X75600471Y-97725785D01*
X75600474Y-97725786D01*
X75600478Y-97725789D01*
X75639899Y-97739583D01*
X75646307Y-97742238D01*
X75683939Y-97760360D01*
X75724641Y-97769650D01*
X75731328Y-97771576D01*
X75770742Y-97785367D01*
X75770745Y-97785368D01*
X75812241Y-97790043D01*
X75819093Y-97791207D01*
X75859806Y-97800500D01*
X75905046Y-97800500D01*
X78241769Y-97800500D01*
X78308808Y-97820185D01*
X78316080Y-97825233D01*
X78365863Y-97862500D01*
X78407669Y-97893796D01*
X78407670Y-97893796D01*
X78407673Y-97893798D01*
X78518832Y-97935257D01*
X78574766Y-97977127D01*
X78599184Y-98042592D01*
X78599500Y-98051439D01*
X78599500Y-103917060D01*
X78579815Y-103984099D01*
X78563181Y-104004741D01*
X75254741Y-107313181D01*
X75193418Y-107346666D01*
X75167060Y-107349500D01*
X69230779Y-107349500D01*
X69163740Y-107329815D01*
X69117985Y-107277011D01*
X69108041Y-107207853D01*
X69123376Y-107166088D01*
X69122768Y-107165796D01*
X69125780Y-107159539D01*
X69125786Y-107159526D01*
X69125789Y-107159522D01*
X69139580Y-107120105D01*
X69142236Y-107113693D01*
X69160360Y-107076061D01*
X69169658Y-107035321D01*
X69171571Y-107028680D01*
X69185368Y-106989255D01*
X69190043Y-106947760D01*
X69191208Y-106940905D01*
X69192726Y-106934249D01*
X69200500Y-106900194D01*
X69200500Y-106719806D01*
X69200500Y-97672940D01*
X69220185Y-97605901D01*
X69236819Y-97585259D01*
X69695259Y-97126819D01*
X69756582Y-97093334D01*
X69782940Y-97090500D01*
X69802942Y-97090500D01*
X69869981Y-97110185D01*
G37*
G04 #@! TD.AperFunction*
G04 #@! TA.AperFunction,Conductor*
G36*
X132922617Y-87349227D02*
G01*
X132938532Y-87356958D01*
X133906650Y-87915901D01*
X137963976Y-90258398D01*
X138012191Y-90308964D01*
X138025975Y-90365784D01*
X138025975Y-100092631D01*
X138006290Y-100159670D01*
X137963981Y-100200015D01*
X132557726Y-103321734D01*
X132489827Y-103338210D01*
X132423799Y-103315362D01*
X132382697Y-103265357D01*
X132366813Y-103230160D01*
X132366812Y-103230159D01*
X132332530Y-103166702D01*
X132332531Y-103166703D01*
X131001883Y-101075687D01*
X129932801Y-99395701D01*
X129915371Y-99371572D01*
X129915366Y-99371565D01*
X129831848Y-99269224D01*
X129831835Y-99269210D01*
X129736292Y-99179115D01*
X129736282Y-99179107D01*
X129621178Y-99095923D01*
X129621175Y-99095922D01*
X129493754Y-99029100D01*
X129359874Y-98981712D01*
X129359873Y-98981711D01*
X129359871Y-98981711D01*
X129325102Y-98972133D01*
X129290331Y-98962554D01*
X129290332Y-98962554D01*
X127170724Y-98538633D01*
X127154098Y-98535881D01*
X127079855Y-98526119D01*
X127079841Y-98526118D01*
X126974220Y-98523371D01*
X126974213Y-98523371D01*
X126874043Y-98531270D01*
X126835060Y-98534345D01*
X126833965Y-98534388D01*
X126832627Y-98534537D01*
X126692262Y-98566146D01*
X126638139Y-98586783D01*
X126559555Y-98616749D01*
X126494163Y-98647192D01*
X126494162Y-98647193D01*
X123491907Y-100315112D01*
X123484934Y-100319375D01*
X123473966Y-100326080D01*
X123419692Y-100362442D01*
X123396359Y-100378074D01*
X123309423Y-100451783D01*
X123309419Y-100451787D01*
X123212132Y-100555268D01*
X123129506Y-100673046D01*
X123066531Y-100797341D01*
X123065515Y-100799147D01*
X123019211Y-100936042D01*
X123019210Y-100936048D01*
X122993315Y-101075687D01*
X122993315Y-101075693D01*
X122987481Y-101219443D01*
X122987481Y-101219459D01*
X122994652Y-101289348D01*
X123001977Y-101360743D01*
X123009547Y-101391015D01*
X123029791Y-101471974D01*
X123026957Y-101541787D01*
X122986830Y-101598984D01*
X122922149Y-101625408D01*
X122853451Y-101612667D01*
X122821814Y-101589736D01*
X122115500Y-100883422D01*
X122082015Y-100822099D01*
X122083916Y-100761803D01*
X122084558Y-100759545D01*
X122086397Y-100753083D01*
X122105215Y-100550000D01*
X122086397Y-100346917D01*
X122030582Y-100150750D01*
X122001642Y-100092631D01*
X121967596Y-100024257D01*
X121939673Y-99968179D01*
X121877045Y-99885246D01*
X121852353Y-99819884D01*
X121866918Y-99751550D01*
X121916116Y-99701937D01*
X121962115Y-99687299D01*
X121979255Y-99685368D01*
X122018680Y-99671571D01*
X122025321Y-99669658D01*
X122066061Y-99660360D01*
X122103693Y-99642236D01*
X122110105Y-99639580D01*
X122149522Y-99625789D01*
X122184889Y-99603565D01*
X122190961Y-99600209D01*
X122228587Y-99582091D01*
X122261236Y-99556052D01*
X122266895Y-99552037D01*
X122302262Y-99529816D01*
X122429816Y-99402262D01*
X123820259Y-98011817D01*
X123881582Y-97978333D01*
X123907940Y-97975499D01*
X125197871Y-97975499D01*
X125197872Y-97975499D01*
X125257483Y-97969091D01*
X125392331Y-97918796D01*
X125507546Y-97832546D01*
X125593796Y-97717331D01*
X125644091Y-97582483D01*
X125650500Y-97522873D01*
X125650499Y-96527128D01*
X125644091Y-96467517D01*
X125634766Y-96442516D01*
X125593797Y-96332671D01*
X125593793Y-96332664D01*
X125507547Y-96217455D01*
X125507544Y-96217452D01*
X125392335Y-96131206D01*
X125392328Y-96131202D01*
X125257482Y-96080908D01*
X125257483Y-96080908D01*
X125197883Y-96074501D01*
X125197881Y-96074500D01*
X125197873Y-96074500D01*
X125197865Y-96074500D01*
X124874832Y-96074500D01*
X124807793Y-96054815D01*
X124762038Y-96002011D01*
X124752094Y-95932853D01*
X124781119Y-95869297D01*
X124787151Y-95862819D01*
X124913151Y-95736819D01*
X124974474Y-95703334D01*
X125000832Y-95700500D01*
X128215194Y-95700500D01*
X128255905Y-95691208D01*
X128262760Y-95690043D01*
X128304255Y-95685368D01*
X128343680Y-95671571D01*
X128350321Y-95669658D01*
X128391061Y-95660360D01*
X128428693Y-95642236D01*
X128435105Y-95639580D01*
X128474522Y-95625789D01*
X128509889Y-95603565D01*
X128515961Y-95600209D01*
X128553587Y-95582091D01*
X128586236Y-95556052D01*
X128591895Y-95552037D01*
X128627262Y-95529816D01*
X128639315Y-95517763D01*
X132295787Y-95517763D01*
X132325413Y-95787013D01*
X132325415Y-95787024D01*
X132363540Y-95932853D01*
X132393928Y-96049088D01*
X132499870Y-96298390D01*
X132633370Y-96517137D01*
X132640979Y-96529605D01*
X132640986Y-96529615D01*
X132814253Y-96737819D01*
X132814259Y-96737824D01*
X132869967Y-96787738D01*
X133015998Y-96918582D01*
X133241910Y-97068044D01*
X133487176Y-97183020D01*
X133487183Y-97183022D01*
X133487185Y-97183023D01*
X133746557Y-97261057D01*
X133746564Y-97261058D01*
X133746569Y-97261060D01*
X134014561Y-97300500D01*
X134014566Y-97300500D01*
X134217636Y-97300500D01*
X134269133Y-97296730D01*
X134420156Y-97285677D01*
X134532758Y-97260593D01*
X134684546Y-97226782D01*
X134684548Y-97226781D01*
X134684553Y-97226780D01*
X134937558Y-97130014D01*
X135173777Y-96997441D01*
X135388177Y-96831888D01*
X135576186Y-96636881D01*
X135733799Y-96416579D01*
X135819700Y-96249500D01*
X135857649Y-96175690D01*
X135857651Y-96175684D01*
X135857656Y-96175675D01*
X135945118Y-95919305D01*
X135994319Y-95652933D01*
X136004212Y-95382235D01*
X135974586Y-95112982D01*
X135906072Y-94850912D01*
X135800130Y-94601610D01*
X135659018Y-94370390D01*
X135618259Y-94321413D01*
X135485746Y-94162180D01*
X135485740Y-94162175D01*
X135284002Y-93981418D01*
X135058092Y-93831957D01*
X135029217Y-93818421D01*
X134812824Y-93716980D01*
X134812819Y-93716978D01*
X134812814Y-93716976D01*
X134553442Y-93638942D01*
X134553428Y-93638939D01*
X134437791Y-93621921D01*
X134285439Y-93599500D01*
X134082369Y-93599500D01*
X134082364Y-93599500D01*
X133879844Y-93614323D01*
X133879831Y-93614325D01*
X133615453Y-93673217D01*
X133615446Y-93673220D01*
X133362439Y-93769987D01*
X133126226Y-93902557D01*
X133126224Y-93902558D01*
X133126223Y-93902559D01*
X133089559Y-93930870D01*
X132911822Y-94068112D01*
X132723822Y-94263109D01*
X132723816Y-94263116D01*
X132566202Y-94483419D01*
X132566199Y-94483424D01*
X132442350Y-94724309D01*
X132442343Y-94724327D01*
X132354884Y-94980685D01*
X132354881Y-94980699D01*
X132336248Y-95081578D01*
X132310882Y-95218912D01*
X132305681Y-95247068D01*
X132305680Y-95247075D01*
X132295787Y-95517763D01*
X128639315Y-95517763D01*
X128754816Y-95402262D01*
X129445259Y-94711817D01*
X129506582Y-94678333D01*
X129532940Y-94675499D01*
X130097871Y-94675499D01*
X130097872Y-94675499D01*
X130157483Y-94669091D01*
X130292331Y-94618796D01*
X130407546Y-94532546D01*
X130493796Y-94417331D01*
X130544091Y-94282483D01*
X130550500Y-94222873D01*
X130550499Y-93227128D01*
X130544091Y-93167517D01*
X130534766Y-93142516D01*
X130493797Y-93032671D01*
X130493793Y-93032664D01*
X130407547Y-92917455D01*
X130407544Y-92917452D01*
X130292335Y-92831206D01*
X130292328Y-92831202D01*
X130157482Y-92780908D01*
X130157483Y-92780908D01*
X130097883Y-92774501D01*
X130097881Y-92774500D01*
X130097873Y-92774500D01*
X130097864Y-92774500D01*
X128502129Y-92774500D01*
X128502123Y-92774501D01*
X128442516Y-92780908D01*
X128307671Y-92831202D01*
X128307664Y-92831206D01*
X128192455Y-92917452D01*
X128192452Y-92917455D01*
X128106206Y-93032664D01*
X128106202Y-93032671D01*
X128055908Y-93167517D01*
X128049501Y-93227116D01*
X128049501Y-93227123D01*
X128049500Y-93227135D01*
X128049500Y-93792059D01*
X128029815Y-93859098D01*
X128013181Y-93879740D01*
X127829741Y-94063181D01*
X127768418Y-94096666D01*
X127742060Y-94099500D01*
X125774500Y-94099500D01*
X125707461Y-94079815D01*
X125661706Y-94027011D01*
X125650500Y-93975500D01*
X125650499Y-93227129D01*
X125650498Y-93227123D01*
X125650497Y-93227116D01*
X125644091Y-93167517D01*
X125634766Y-93142516D01*
X125593797Y-93032671D01*
X125593793Y-93032664D01*
X125507547Y-92917455D01*
X125507544Y-92917452D01*
X125392335Y-92831206D01*
X125392328Y-92831202D01*
X125257482Y-92780908D01*
X125257483Y-92780908D01*
X125197883Y-92774501D01*
X125197881Y-92774500D01*
X125197873Y-92774500D01*
X125197865Y-92774500D01*
X124595576Y-92774500D01*
X124541770Y-92762218D01*
X124533587Y-92758277D01*
X124515959Y-92749787D01*
X124509872Y-92746422D01*
X124474525Y-92724212D01*
X124435114Y-92710421D01*
X124428688Y-92707759D01*
X124391061Y-92689639D01*
X124350345Y-92680345D01*
X124343662Y-92678420D01*
X124304259Y-92664632D01*
X124262763Y-92659955D01*
X124255908Y-92658791D01*
X124215200Y-92649501D01*
X124215196Y-92649500D01*
X124215194Y-92649500D01*
X124215191Y-92649500D01*
X123099730Y-92649500D01*
X123032691Y-92629815D01*
X123012049Y-92613181D01*
X122918657Y-92519789D01*
X122918656Y-92519788D01*
X122772648Y-92429730D01*
X122769336Y-92427687D01*
X122769331Y-92427685D01*
X122767862Y-92427198D01*
X122602797Y-92372501D01*
X122602795Y-92372500D01*
X122500016Y-92362000D01*
X122500009Y-92362000D01*
X122155338Y-92362000D01*
X122132554Y-92359889D01*
X122128094Y-92359055D01*
X122076976Y-92349500D01*
X121873024Y-92349500D01*
X121873022Y-92349500D01*
X121817443Y-92359889D01*
X121794660Y-92362000D01*
X121449998Y-92362000D01*
X121449980Y-92362001D01*
X121347203Y-92372500D01*
X121347200Y-92372501D01*
X121180668Y-92427685D01*
X121180663Y-92427687D01*
X121031342Y-92519789D01*
X120907289Y-92643842D01*
X120815187Y-92793163D01*
X120815185Y-92793168D01*
X120803268Y-92829132D01*
X120760001Y-92959703D01*
X120760001Y-92959704D01*
X120760000Y-92959704D01*
X120749500Y-93062483D01*
X120749500Y-93837501D01*
X120749501Y-93837519D01*
X120760000Y-93940296D01*
X120760001Y-93940299D01*
X120815185Y-94106831D01*
X120815187Y-94106836D01*
X120820294Y-94115116D01*
X120907288Y-94256156D01*
X121031344Y-94380212D01*
X121180666Y-94472314D01*
X121347203Y-94527499D01*
X121449991Y-94538000D01*
X121794659Y-94537999D01*
X121817444Y-94540110D01*
X121873024Y-94550500D01*
X121873026Y-94550500D01*
X122076974Y-94550500D01*
X122076976Y-94550500D01*
X122132556Y-94540110D01*
X122155341Y-94537999D01*
X122500002Y-94537999D01*
X122500008Y-94537999D01*
X122602797Y-94527499D01*
X122769334Y-94472314D01*
X122918656Y-94380212D01*
X122981574Y-94317293D01*
X123042893Y-94283811D01*
X123112585Y-94288795D01*
X123168519Y-94330666D01*
X123185434Y-94361644D01*
X123206202Y-94417328D01*
X123206206Y-94417335D01*
X123292452Y-94532544D01*
X123292455Y-94532547D01*
X123407664Y-94618793D01*
X123407671Y-94618797D01*
X123488614Y-94648987D01*
X123544548Y-94690858D01*
X123568965Y-94756322D01*
X123554113Y-94824595D01*
X123532962Y-94852850D01*
X121872633Y-96513181D01*
X121811310Y-96546666D01*
X121784952Y-96549500D01*
X121752959Y-96549500D01*
X121685920Y-96529815D01*
X121669427Y-96517143D01*
X121615541Y-96468019D01*
X121615538Y-96468017D01*
X121615537Y-96468016D01*
X121442142Y-96360655D01*
X121442135Y-96360651D01*
X121281419Y-96298390D01*
X121251956Y-96286976D01*
X121051476Y-96249500D01*
X120847524Y-96249500D01*
X120647044Y-96286976D01*
X120647041Y-96286976D01*
X120647041Y-96286977D01*
X120456864Y-96360651D01*
X120456857Y-96360655D01*
X120283460Y-96468017D01*
X120283458Y-96468019D01*
X120132737Y-96605418D01*
X120009827Y-96768178D01*
X119918922Y-96950739D01*
X119918917Y-96950752D01*
X119863102Y-97146917D01*
X119844285Y-97349999D01*
X119844285Y-97350000D01*
X119863102Y-97553082D01*
X119918917Y-97749247D01*
X119918922Y-97749260D01*
X120009827Y-97931821D01*
X120124527Y-98083709D01*
X120149219Y-98149071D01*
X120134654Y-98217405D01*
X120124528Y-98233162D01*
X120060327Y-98318179D01*
X119969422Y-98500739D01*
X119969419Y-98500747D01*
X119953854Y-98555450D01*
X119916573Y-98614542D01*
X119853263Y-98644099D01*
X119784023Y-98634735D01*
X119746907Y-98609194D01*
X119336819Y-98199106D01*
X119303334Y-98137783D01*
X119300500Y-98111425D01*
X119300500Y-94409805D01*
X119300499Y-94409802D01*
X119298371Y-94400478D01*
X119291203Y-94369076D01*
X119290044Y-94362251D01*
X119285368Y-94320745D01*
X119271574Y-94281324D01*
X119269652Y-94274655D01*
X119260359Y-94233939D01*
X119242245Y-94196326D01*
X119239583Y-94189898D01*
X119225789Y-94150478D01*
X119206754Y-94120184D01*
X119203563Y-94115106D01*
X119200213Y-94109044D01*
X119182091Y-94071413D01*
X119156049Y-94038757D01*
X119152038Y-94033104D01*
X119138017Y-94010790D01*
X119129818Y-93997740D01*
X118419759Y-93287681D01*
X118386274Y-93226358D01*
X118391258Y-93156666D01*
X118419759Y-93112319D01*
X120935485Y-90596593D01*
X123454842Y-88077235D01*
X123516163Y-88043752D01*
X123585855Y-88048736D01*
X123641788Y-88090608D01*
X123666205Y-88156072D01*
X123651353Y-88224345D01*
X123649008Y-88228452D01*
X123520221Y-88444307D01*
X123116388Y-89121154D01*
X123112800Y-89127675D01*
X123107837Y-89136698D01*
X123072295Y-89207057D01*
X123072291Y-89207067D01*
X123034316Y-89307562D01*
X123034314Y-89307568D01*
X122998514Y-89445010D01*
X122982431Y-89587980D01*
X122982430Y-89587993D01*
X122986801Y-89729944D01*
X122986801Y-89729950D01*
X123005959Y-89839209D01*
X123011651Y-89871668D01*
X123021173Y-89900752D01*
X123055840Y-90006647D01*
X123119608Y-90135620D01*
X123119609Y-90135622D01*
X123119611Y-90135625D01*
X123200039Y-90252688D01*
X123243655Y-90300000D01*
X123297561Y-90358473D01*
X123297571Y-90358482D01*
X123407701Y-90448127D01*
X123407701Y-90448128D01*
X123407709Y-90448133D01*
X123407712Y-90448136D01*
X123466753Y-90489561D01*
X123634536Y-90590230D01*
X123654278Y-90604923D01*
X123683958Y-90631980D01*
X123683960Y-90631982D01*
X123783141Y-90693392D01*
X123857363Y-90739348D01*
X123920004Y-90763615D01*
X123939003Y-90772911D01*
X126267867Y-92170229D01*
X126384946Y-92240476D01*
X126402599Y-92250135D01*
X126442645Y-92270016D01*
X126482693Y-92289898D01*
X126588098Y-92328327D01*
X126726111Y-92361869D01*
X126726113Y-92361870D01*
X126869336Y-92375605D01*
X126940272Y-92372255D01*
X127011202Y-92368906D01*
X127036459Y-92365896D01*
X127082824Y-92360372D01*
X128309049Y-92124559D01*
X129312314Y-91931625D01*
X129335033Y-91926156D01*
X129335035Y-91926155D01*
X129335035Y-91926154D01*
X129335039Y-91926154D01*
X129434783Y-91897204D01*
X129544071Y-91850982D01*
X129666052Y-91781502D01*
X129666956Y-91781019D01*
X129667467Y-91780696D01*
X129667486Y-91780686D01*
X129667488Y-91780685D01*
X129781102Y-91692406D01*
X129879712Y-91590188D01*
X129879717Y-91590182D01*
X129879717Y-91590183D01*
X129925957Y-91534841D01*
X132080066Y-88546883D01*
X132594251Y-87833659D01*
X132594250Y-87833660D01*
X132610712Y-87807615D01*
X132610714Y-87807612D01*
X132676619Y-87687751D01*
X132724914Y-87563368D01*
X132756028Y-87435110D01*
X132790961Y-87374603D01*
X132853064Y-87342586D01*
X132922617Y-87349227D01*
G37*
G04 #@! TD.AperFunction*
G04 #@! TA.AperFunction,Conductor*
G36*
X111088685Y-100643392D02*
G01*
X112645259Y-99086819D01*
X112706582Y-99053334D01*
X112732940Y-99050500D01*
X113840045Y-99050500D01*
X111088685Y-100643392D01*
G37*
G04 #@! TD.AperFunction*
G04 #@! TA.AperFunction,Conductor*
G36*
X74180763Y-74385197D02*
G01*
X74236383Y-74426652D01*
X74301386Y-74512729D01*
X74452107Y-74650129D01*
X74452109Y-74650131D01*
X74455551Y-74652262D01*
X74625512Y-74757497D01*
X74815693Y-74831173D01*
X75016173Y-74868649D01*
X75035209Y-74868649D01*
X75102248Y-74888334D01*
X75122890Y-74904968D01*
X82080241Y-81862319D01*
X82113726Y-81923642D01*
X82108742Y-81993334D01*
X82080241Y-82037681D01*
X76570186Y-87547735D01*
X76570183Y-87547739D01*
X76547966Y-87583096D01*
X76543941Y-87588769D01*
X76517910Y-87621410D01*
X76499791Y-87659033D01*
X76496427Y-87665120D01*
X76474212Y-87700476D01*
X76474208Y-87700483D01*
X76460416Y-87739895D01*
X76457755Y-87746320D01*
X76439639Y-87783939D01*
X76430344Y-87824659D01*
X76428419Y-87831341D01*
X76414632Y-87870744D01*
X76409955Y-87912235D01*
X76408791Y-87919089D01*
X76399500Y-87959806D01*
X76399500Y-92362281D01*
X76379815Y-92429320D01*
X76340597Y-92467819D01*
X76256347Y-92519785D01*
X76256343Y-92519788D01*
X76132289Y-92643842D01*
X76040187Y-92793163D01*
X76040185Y-92793168D01*
X76028268Y-92829132D01*
X75985001Y-92959703D01*
X75985001Y-92959704D01*
X75985000Y-92959704D01*
X75974500Y-93062483D01*
X75974500Y-93062496D01*
X75974501Y-93840665D01*
X75973571Y-93840665D01*
X75958206Y-93904859D01*
X75907787Y-93953230D01*
X75839221Y-93966663D01*
X75774277Y-93940894D01*
X75762948Y-93930870D01*
X75262262Y-93430184D01*
X75262259Y-93430182D01*
X75226904Y-93407966D01*
X75221229Y-93403940D01*
X75188589Y-93377910D01*
X75150959Y-93359787D01*
X75144872Y-93356422D01*
X75109525Y-93334212D01*
X75070114Y-93320421D01*
X75063688Y-93317759D01*
X75026061Y-93299639D01*
X74985345Y-93290345D01*
X74978662Y-93288420D01*
X74939259Y-93274632D01*
X74897763Y-93269955D01*
X74890908Y-93268791D01*
X74844727Y-93258252D01*
X74783747Y-93224146D01*
X74767836Y-93204144D01*
X74766115Y-93201452D01*
X74738836Y-93167516D01*
X74645990Y-93052010D01*
X74641236Y-93047256D01*
X74643399Y-93045092D01*
X74611155Y-92998616D01*
X74608687Y-92928790D01*
X74644361Y-92868714D01*
X74706852Y-92837462D01*
X74728824Y-92835500D01*
X75040024Y-92835500D01*
X75058060Y-92834856D01*
X75138076Y-92829133D01*
X75244432Y-92809944D01*
X75380709Y-92769929D01*
X75511584Y-92710161D01*
X75631068Y-92633374D01*
X75631069Y-92633373D01*
X75631086Y-92633357D01*
X75631924Y-92632682D01*
X75632710Y-92631950D01*
X75739807Y-92539152D01*
X75832817Y-92431813D01*
X75832818Y-92431811D01*
X75834208Y-92429730D01*
X75834617Y-92429012D01*
X75843062Y-92415871D01*
X75910605Y-92310771D01*
X75969606Y-92181576D01*
X76010142Y-92043525D01*
X76016436Y-91999750D01*
X76030355Y-91902944D01*
X76035500Y-91831000D01*
X76035500Y-84265961D01*
X76034937Y-84249092D01*
X76029930Y-84174237D01*
X76029930Y-84174233D01*
X76011878Y-84070043D01*
X75973127Y-83933402D01*
X75914572Y-83801977D01*
X75838894Y-83681787D01*
X75838892Y-83681785D01*
X75838890Y-83681781D01*
X75745686Y-83572184D01*
X75745683Y-83572181D01*
X75640652Y-83479454D01*
X75639860Y-83478709D01*
X75639210Y-83478181D01*
X75533587Y-83408911D01*
X75518896Y-83399276D01*
X75390253Y-83339081D01*
X75252583Y-83297269D01*
X75252582Y-83297268D01*
X75187932Y-83287361D01*
X75112193Y-83275755D01*
X75040302Y-83269944D01*
X70699177Y-83229748D01*
X70699176Y-83229748D01*
X70679962Y-83230301D01*
X70658659Y-83231725D01*
X70594747Y-83236000D01*
X70594735Y-83236002D01*
X70486071Y-83255348D01*
X70359435Y-83292533D01*
X70289566Y-83292533D01*
X70230787Y-83254759D01*
X70201762Y-83191203D01*
X70200500Y-83173556D01*
X70200500Y-80769879D01*
X70200500Y-80769878D01*
X70191207Y-80729165D01*
X70190042Y-80722305D01*
X70185368Y-80680817D01*
X70185367Y-80680814D01*
X70171576Y-80641400D01*
X70169650Y-80634713D01*
X70160360Y-80594011D01*
X70142238Y-80556379D01*
X70139583Y-80549971D01*
X70125789Y-80510550D01*
X70103574Y-80475195D01*
X70100208Y-80469105D01*
X70082092Y-80431487D01*
X70082090Y-80431483D01*
X70056060Y-80398842D01*
X70052033Y-80393168D01*
X70029816Y-80357810D01*
X69379094Y-79707088D01*
X69345609Y-79645765D01*
X69343304Y-79630848D01*
X69339596Y-79590833D01*
X69331361Y-79501953D01*
X69275546Y-79305786D01*
X69275545Y-79305784D01*
X69275544Y-79305780D01*
X69273473Y-79300433D01*
X69274871Y-79299891D01*
X69263864Y-79238184D01*
X69290729Y-79173685D01*
X69299436Y-79164010D01*
X74049750Y-74413696D01*
X74111071Y-74380213D01*
X74180763Y-74385197D01*
G37*
G04 #@! TD.AperFunction*
G04 #@! TA.AperFunction,Conductor*
G36*
X114821967Y-92349500D02*
G01*
X112882940Y-92349500D01*
X112815901Y-92329815D01*
X112795259Y-92313181D01*
X110094792Y-89612714D01*
X114821967Y-92349500D01*
G37*
G04 #@! TD.AperFunction*
G04 #@! TA.AperFunction,Conductor*
G36*
X122086599Y-81091591D02*
G01*
X122134814Y-81142157D01*
X122148037Y-81210764D01*
X122122069Y-81275629D01*
X122093261Y-81302231D01*
X122086928Y-81306441D01*
X121953818Y-81444447D01*
X121929773Y-81480259D01*
X121929767Y-81480268D01*
X120374407Y-84174233D01*
X120234112Y-84417232D01*
X120215115Y-84455970D01*
X120162153Y-84640254D01*
X120150045Y-84831595D01*
X120150045Y-84831603D01*
X120150045Y-84831605D01*
X120163697Y-84919858D01*
X120179356Y-85021090D01*
X120238860Y-85174447D01*
X120244759Y-85244067D01*
X120212082Y-85305825D01*
X120210939Y-85306983D01*
X120120183Y-85397739D01*
X120097966Y-85433096D01*
X120093941Y-85438769D01*
X120067910Y-85471410D01*
X120049791Y-85509033D01*
X120046427Y-85515120D01*
X120024212Y-85550476D01*
X120024208Y-85550483D01*
X120010416Y-85589895D01*
X120007755Y-85596320D01*
X119989639Y-85633939D01*
X119980344Y-85674659D01*
X119978419Y-85681341D01*
X119964632Y-85720744D01*
X119959955Y-85762235D01*
X119958791Y-85769089D01*
X119949500Y-85809806D01*
X119949500Y-85967060D01*
X119929815Y-86034099D01*
X119913181Y-86054741D01*
X118870186Y-87097735D01*
X118870183Y-87097739D01*
X118847966Y-87133096D01*
X118843941Y-87138769D01*
X118817910Y-87171410D01*
X118799791Y-87209033D01*
X118796427Y-87215120D01*
X118774212Y-87250476D01*
X118774208Y-87250483D01*
X118760416Y-87289895D01*
X118757755Y-87296320D01*
X118739639Y-87333939D01*
X118730344Y-87374659D01*
X118728419Y-87381341D01*
X118714632Y-87420744D01*
X118709955Y-87462235D01*
X118708791Y-87469089D01*
X118699500Y-87509806D01*
X118699500Y-88967060D01*
X118679815Y-89034099D01*
X118663181Y-89054741D01*
X117254241Y-90463681D01*
X117192918Y-90497166D01*
X117166560Y-90500000D01*
X117098024Y-90500000D01*
X116897544Y-90537476D01*
X116897541Y-90537476D01*
X116897541Y-90537477D01*
X116707364Y-90611151D01*
X116707357Y-90611155D01*
X116533960Y-90718517D01*
X116533958Y-90718519D01*
X116383237Y-90855918D01*
X116260327Y-91018678D01*
X116169422Y-91201239D01*
X116169417Y-91201252D01*
X116113602Y-91397417D01*
X116094785Y-91600499D01*
X116094785Y-91600500D01*
X116113602Y-91803582D01*
X116169417Y-91999747D01*
X116169424Y-91999765D01*
X116254305Y-92170229D01*
X116266566Y-92239014D01*
X116239693Y-92303509D01*
X116182217Y-92343236D01*
X116143305Y-92349500D01*
X115114090Y-92349500D01*
X121881158Y-80972979D01*
X122086599Y-81091591D01*
G37*
G04 #@! TD.AperFunction*
G04 #@! TA.AperFunction,Conductor*
G36*
X104534099Y-81420185D02*
G01*
X104554741Y-81436819D01*
X105763181Y-82645259D01*
X105796666Y-82706582D01*
X105799500Y-82732940D01*
X105799500Y-90143060D01*
X105779815Y-90210099D01*
X105727011Y-90255854D01*
X105657853Y-90265798D01*
X105594297Y-90236773D01*
X105587819Y-90230741D01*
X98869259Y-83512181D01*
X98835774Y-83450858D01*
X98840758Y-83381166D01*
X98882630Y-83325233D01*
X98948094Y-83300816D01*
X98956940Y-83300500D01*
X101040194Y-83300500D01*
X101080905Y-83291208D01*
X101087760Y-83290043D01*
X101129255Y-83285368D01*
X101168680Y-83271571D01*
X101175321Y-83269658D01*
X101216061Y-83260360D01*
X101253693Y-83242236D01*
X101260105Y-83239580D01*
X101299522Y-83225789D01*
X101334889Y-83203565D01*
X101340961Y-83200209D01*
X101378587Y-83182091D01*
X101411236Y-83156052D01*
X101416895Y-83152037D01*
X101452262Y-83129816D01*
X101579816Y-83002262D01*
X103145259Y-81436819D01*
X103206582Y-81403334D01*
X103232940Y-81400500D01*
X104467060Y-81400500D01*
X104534099Y-81420185D01*
G37*
G04 #@! TD.AperFunction*
G04 #@! TA.AperFunction,Conductor*
G36*
X109500500Y-88907341D02*
G01*
X109500500Y-88182940D01*
X109520185Y-88115901D01*
X109536819Y-88095259D01*
X110222273Y-87409805D01*
X110672576Y-86959501D01*
X109500500Y-88907341D01*
G37*
G04 #@! TD.AperFunction*
G04 #@! TA.AperFunction,Conductor*
G36*
X101945602Y-69463181D02*
G01*
X116236029Y-77713763D01*
X111150500Y-86165254D01*
X111150500Y-86059806D01*
X111150500Y-81905046D01*
X111150500Y-81859806D01*
X111141207Y-81819093D01*
X111140042Y-81812233D01*
X111138756Y-81800816D01*
X111135368Y-81770745D01*
X111134985Y-81769650D01*
X111121576Y-81731328D01*
X111119650Y-81724641D01*
X111110360Y-81683939D01*
X111092238Y-81646307D01*
X111089583Y-81639899D01*
X111075789Y-81600478D01*
X111053574Y-81565123D01*
X111050208Y-81559033D01*
X111046886Y-81552135D01*
X111032092Y-81521414D01*
X111032090Y-81521411D01*
X111006060Y-81488770D01*
X111002033Y-81483096D01*
X110979816Y-81447738D01*
X103952262Y-74420184D01*
X103952259Y-74420182D01*
X103916904Y-74397966D01*
X103911229Y-74393940D01*
X103878589Y-74367910D01*
X103840959Y-74349787D01*
X103834872Y-74346422D01*
X103799525Y-74324212D01*
X103760114Y-74310421D01*
X103753688Y-74307759D01*
X103716061Y-74289639D01*
X103675345Y-74280345D01*
X103668662Y-74278420D01*
X103629259Y-74264632D01*
X103587763Y-74259955D01*
X103580908Y-74258791D01*
X103540200Y-74249501D01*
X103540196Y-74249500D01*
X103540194Y-74249500D01*
X103494954Y-74249500D01*
X95140194Y-74249500D01*
X94959806Y-74249500D01*
X94953888Y-74250850D01*
X94919089Y-74258791D01*
X94912235Y-74259955D01*
X94870744Y-74264632D01*
X94831341Y-74278419D01*
X94824659Y-74280344D01*
X94783939Y-74289639D01*
X94746320Y-74307755D01*
X94739895Y-74310416D01*
X94700483Y-74324208D01*
X94700476Y-74324212D01*
X94665120Y-74346427D01*
X94659033Y-74349791D01*
X94621410Y-74367910D01*
X94588769Y-74393941D01*
X94583096Y-74397966D01*
X94547739Y-74420183D01*
X94547735Y-74420186D01*
X91812495Y-77155426D01*
X97808749Y-67074768D01*
X101945602Y-69463181D01*
G37*
G04 #@! TD.AperFunction*
G04 #@! TA.AperFunction,Conductor*
G36*
X101109099Y-77620185D02*
G01*
X101129741Y-77636819D01*
X102088181Y-78595259D01*
X102121666Y-78656582D01*
X102124500Y-78682940D01*
X102124500Y-79247870D01*
X102124501Y-79247876D01*
X102130908Y-79307483D01*
X102181202Y-79442328D01*
X102181206Y-79442335D01*
X102267452Y-79557544D01*
X102267455Y-79557547D01*
X102382664Y-79643793D01*
X102382673Y-79643798D01*
X102451614Y-79669511D01*
X102507548Y-79711381D01*
X102531966Y-79776846D01*
X102517115Y-79845119D01*
X102474258Y-79890684D01*
X102465128Y-79896421D01*
X102459038Y-79899788D01*
X102421414Y-79917907D01*
X102388768Y-79943941D01*
X102383097Y-79947965D01*
X102347734Y-79970186D01*
X102347733Y-79970187D01*
X102326410Y-79991511D01*
X102315748Y-80002174D01*
X101349697Y-80968225D01*
X100654741Y-81663181D01*
X100593418Y-81696666D01*
X100567060Y-81699500D01*
X99849499Y-81699500D01*
X99782460Y-81679815D01*
X99736705Y-81627011D01*
X99725499Y-81575500D01*
X99725499Y-81552129D01*
X99725498Y-81552123D01*
X99725497Y-81552116D01*
X99719091Y-81492517D01*
X99717693Y-81488770D01*
X99668797Y-81357671D01*
X99668793Y-81357664D01*
X99582547Y-81242455D01*
X99582544Y-81242452D01*
X99467335Y-81156206D01*
X99467328Y-81156202D01*
X99332482Y-81105908D01*
X99332483Y-81105908D01*
X99272883Y-81099501D01*
X99272881Y-81099500D01*
X99272873Y-81099500D01*
X99272864Y-81099500D01*
X97677129Y-81099500D01*
X97677123Y-81099501D01*
X97617516Y-81105908D01*
X97482671Y-81156202D01*
X97482664Y-81156206D01*
X97367455Y-81242452D01*
X97367452Y-81242455D01*
X97281206Y-81357664D01*
X97281202Y-81357671D01*
X97230908Y-81492517D01*
X97224501Y-81552116D01*
X97224501Y-81552123D01*
X97224500Y-81552135D01*
X97224500Y-82547870D01*
X97224501Y-82547876D01*
X97230908Y-82607483D01*
X97281202Y-82742328D01*
X97281204Y-82742331D01*
X97325265Y-82801189D01*
X97349683Y-82866652D01*
X97334832Y-82934925D01*
X97285427Y-82984331D01*
X97225999Y-82999500D01*
X96382940Y-82999500D01*
X96315901Y-82979815D01*
X96295259Y-82963181D01*
X94986819Y-81654741D01*
X94953334Y-81593418D01*
X94950500Y-81567060D01*
X94950500Y-80332938D01*
X94970185Y-80265899D01*
X94986815Y-80245261D01*
X95607758Y-79624317D01*
X95669081Y-79590833D01*
X95695439Y-79587999D01*
X96625002Y-79587999D01*
X96625008Y-79587999D01*
X96727797Y-79577499D01*
X96894334Y-79522314D01*
X97043656Y-79430212D01*
X97076946Y-79396921D01*
X97138266Y-79363437D01*
X97207958Y-79368421D01*
X97263892Y-79410291D01*
X97280809Y-79441272D01*
X97281203Y-79442330D01*
X97281206Y-79442335D01*
X97367452Y-79557544D01*
X97367455Y-79557547D01*
X97482664Y-79643793D01*
X97482671Y-79643797D01*
X97617517Y-79694091D01*
X97617516Y-79694091D01*
X97624444Y-79694835D01*
X97677127Y-79700500D01*
X99272872Y-79700499D01*
X99332483Y-79694091D01*
X99467331Y-79643796D01*
X99582546Y-79557546D01*
X99668796Y-79442331D01*
X99719091Y-79307483D01*
X99725500Y-79247873D01*
X99725499Y-78252128D01*
X99719091Y-78192517D01*
X99668796Y-78057669D01*
X99668795Y-78057668D01*
X99668793Y-78057664D01*
X99582547Y-77942455D01*
X99582544Y-77942452D01*
X99467335Y-77856206D01*
X99467328Y-77856202D01*
X99425715Y-77840682D01*
X99369781Y-77798811D01*
X99345364Y-77733347D01*
X99360215Y-77665074D01*
X99409620Y-77615668D01*
X99469048Y-77600500D01*
X101042060Y-77600500D01*
X101109099Y-77620185D01*
G37*
G04 #@! TD.AperFunction*
G04 #@! TA.AperFunction,Conductor*
G36*
X80534099Y-71920185D02*
G01*
X80554741Y-71936819D01*
X81463181Y-72845258D01*
X81496666Y-72906581D01*
X81499500Y-72932939D01*
X81499500Y-76840191D01*
X81499501Y-76840200D01*
X81508791Y-76880908D01*
X81509955Y-76887763D01*
X81514632Y-76929259D01*
X81528420Y-76968662D01*
X81530345Y-76975345D01*
X81539639Y-77016061D01*
X81557759Y-77053688D01*
X81560421Y-77060114D01*
X81574212Y-77099525D01*
X81596422Y-77134872D01*
X81599787Y-77140959D01*
X81617910Y-77178589D01*
X81643940Y-77211229D01*
X81647966Y-77216904D01*
X81670182Y-77252259D01*
X81670184Y-77252262D01*
X85405741Y-80987819D01*
X85439226Y-81049142D01*
X85434242Y-81118834D01*
X85392370Y-81174767D01*
X85326906Y-81199184D01*
X85318060Y-81199500D01*
X83732940Y-81199500D01*
X83665901Y-81179815D01*
X83645259Y-81163181D01*
X76252279Y-73770201D01*
X76218794Y-73708878D01*
X76216489Y-73693961D01*
X76207886Y-73601116D01*
X76204546Y-73565066D01*
X76148731Y-73368899D01*
X76057822Y-73186328D01*
X75934913Y-73023570D01*
X75934911Y-73023567D01*
X75784191Y-72886168D01*
X75780014Y-72883014D01*
X75738380Y-72826903D01*
X75733692Y-72757191D01*
X75767061Y-72696386D01*
X75947826Y-72515622D01*
X75979816Y-72483632D01*
X76002037Y-72448265D01*
X76006052Y-72442606D01*
X76032091Y-72409957D01*
X76050209Y-72372331D01*
X76053565Y-72366259D01*
X76075789Y-72330892D01*
X76089580Y-72291475D01*
X76092236Y-72285063D01*
X76110360Y-72247431D01*
X76119658Y-72206691D01*
X76121571Y-72200050D01*
X76135368Y-72160625D01*
X76140043Y-72119130D01*
X76141208Y-72112275D01*
X76146323Y-72089864D01*
X76180433Y-72028886D01*
X76242095Y-71996029D01*
X76311732Y-72001725D01*
X76332491Y-72012031D01*
X76359713Y-72028886D01*
X76457363Y-72089348D01*
X76647544Y-72163024D01*
X76848024Y-72200500D01*
X76848026Y-72200500D01*
X77051974Y-72200500D01*
X77051976Y-72200500D01*
X77252456Y-72163024D01*
X77442637Y-72089348D01*
X77616041Y-71981981D01*
X77669922Y-71932861D01*
X77732724Y-71902246D01*
X77753459Y-71900500D01*
X80467060Y-71900500D01*
X80534099Y-71920185D01*
G37*
G04 #@! TD.AperFunction*
G04 #@! TA.AperFunction,Conductor*
G36*
X91899007Y-63665904D02*
G01*
X91922682Y-63676446D01*
X92163559Y-63815516D01*
X85273872Y-75265286D01*
X90428423Y-78249500D01*
X88132940Y-78249500D01*
X88065901Y-78229815D01*
X88045259Y-78213181D01*
X85236819Y-75404741D01*
X85203334Y-75343418D01*
X85200500Y-75317060D01*
X85200500Y-72382940D01*
X85220185Y-72315901D01*
X85236819Y-72295259D01*
X86729816Y-70802262D01*
X87016887Y-70515191D01*
X88357851Y-69174225D01*
X88379557Y-69156916D01*
X88502259Y-69079818D01*
X88502259Y-69079817D01*
X88502262Y-69079816D01*
X88629816Y-68952262D01*
X88725789Y-68799522D01*
X88785368Y-68629255D01*
X88786734Y-68617137D01*
X88800498Y-68494973D01*
X88800498Y-68494969D01*
X88800500Y-68494954D01*
X88800500Y-68494953D01*
X88805565Y-68450000D01*
X88800889Y-68408502D01*
X88800500Y-68401564D01*
X88800500Y-67682939D01*
X88820185Y-67615900D01*
X88836815Y-67595262D01*
X89098408Y-67333668D01*
X89159731Y-67300184D01*
X89193917Y-67297597D01*
X89285466Y-67303390D01*
X89474950Y-67274079D01*
X89653704Y-67204721D01*
X89813367Y-67098558D01*
X89946477Y-66960552D01*
X89970529Y-66924732D01*
X91666184Y-63987768D01*
X91685181Y-63949029D01*
X91738142Y-63764749D01*
X91738143Y-63764732D01*
X91738499Y-63762681D01*
X91739069Y-63761520D01*
X91739999Y-63758287D01*
X91740577Y-63758453D01*
X91769331Y-63699982D01*
X91829166Y-63663905D01*
X91899007Y-63665904D01*
G37*
G04 #@! TD.AperFunction*
G04 #@! TA.AperFunction,Conductor*
G36*
X62186499Y-46508252D02*
G01*
X81095454Y-57425343D01*
X81143669Y-57475909D01*
X81156892Y-57544516D01*
X81130924Y-57609381D01*
X81116526Y-57624788D01*
X81040469Y-57693420D01*
X80949648Y-57802597D01*
X80907592Y-57861200D01*
X78328301Y-62058013D01*
X78328301Y-62058014D01*
X78311998Y-62089215D01*
X78249525Y-62232215D01*
X78211508Y-62369108D01*
X78193112Y-62509933D01*
X78193112Y-62509941D01*
X78194967Y-62653802D01*
X78195356Y-62656276D01*
X78195246Y-62657110D01*
X78195340Y-62658211D01*
X78195100Y-62658231D01*
X78186302Y-62725557D01*
X78141230Y-62778945D01*
X78074449Y-62799490D01*
X78072855Y-62799500D01*
X76627129Y-62799500D01*
X76627123Y-62799501D01*
X76567516Y-62805908D01*
X76432671Y-62856202D01*
X76432664Y-62856206D01*
X76317455Y-62942452D01*
X76317452Y-62942455D01*
X76231206Y-63057664D01*
X76231202Y-63057671D01*
X76180908Y-63192517D01*
X76174501Y-63252116D01*
X76174501Y-63252123D01*
X76174500Y-63252135D01*
X76174500Y-64247870D01*
X76174501Y-64247876D01*
X76180908Y-64307483D01*
X76231202Y-64442328D01*
X76231206Y-64442335D01*
X76317452Y-64557544D01*
X76317455Y-64557547D01*
X76432664Y-64643793D01*
X76432671Y-64643797D01*
X76549389Y-64687330D01*
X76605323Y-64729201D01*
X76626948Y-64775923D01*
X76633791Y-64805907D01*
X76634955Y-64812762D01*
X76639632Y-64854259D01*
X76653420Y-64893662D01*
X76655345Y-64900345D01*
X76664639Y-64941061D01*
X76682759Y-64978688D01*
X76685421Y-64985114D01*
X76699212Y-65024525D01*
X76721422Y-65059872D01*
X76724787Y-65065959D01*
X76742910Y-65103589D01*
X76768940Y-65136229D01*
X76772966Y-65141904D01*
X76795182Y-65177259D01*
X76795184Y-65177262D01*
X78438181Y-66820259D01*
X78471666Y-66881582D01*
X78474500Y-66907940D01*
X78474500Y-67242060D01*
X78454815Y-67309099D01*
X78438181Y-67329741D01*
X78204741Y-67563181D01*
X78143418Y-67596666D01*
X78117060Y-67599500D01*
X76708825Y-67599500D01*
X76528436Y-67599500D01*
X76522518Y-67600850D01*
X76487719Y-67608791D01*
X76480865Y-67609955D01*
X76439373Y-67614632D01*
X76399969Y-67628419D01*
X76393288Y-67630344D01*
X76352565Y-67639641D01*
X76314938Y-67657759D01*
X76308515Y-67660420D01*
X76269111Y-67674210D01*
X76269105Y-67674212D01*
X76233752Y-67696425D01*
X76227666Y-67699789D01*
X76190047Y-67717905D01*
X76157393Y-67743945D01*
X76151720Y-67747970D01*
X76116371Y-67770181D01*
X76116369Y-67770182D01*
X73920186Y-69966365D01*
X73920183Y-69966369D01*
X73897966Y-70001726D01*
X73893941Y-70007399D01*
X73867909Y-70040041D01*
X73861094Y-70054192D01*
X73814268Y-70106049D01*
X73746839Y-70124357D01*
X73698118Y-70112370D01*
X73697982Y-70112723D01*
X73695252Y-70111665D01*
X73694104Y-70111383D01*
X73692635Y-70110651D01*
X73502455Y-70036975D01*
X73426713Y-70022816D01*
X73364433Y-69991148D01*
X73329161Y-69930835D01*
X73325500Y-69900928D01*
X73325500Y-68101439D01*
X73345185Y-68034400D01*
X73397989Y-67988645D01*
X73406168Y-67985257D01*
X73517326Y-67943798D01*
X73517326Y-67943797D01*
X73517331Y-67943796D01*
X73632546Y-67857546D01*
X73718796Y-67742331D01*
X73769091Y-67607483D01*
X73775500Y-67547873D01*
X73775499Y-66552128D01*
X73769091Y-66492517D01*
X73757857Y-66462398D01*
X73718797Y-66357671D01*
X73718793Y-66357664D01*
X73632547Y-66242455D01*
X73632544Y-66242452D01*
X73517335Y-66156206D01*
X73517328Y-66156202D01*
X73382482Y-66105908D01*
X73382483Y-66105908D01*
X73322883Y-66099501D01*
X73322881Y-66099500D01*
X73322873Y-66099500D01*
X73322864Y-66099500D01*
X71727129Y-66099500D01*
X71727123Y-66099501D01*
X71667516Y-66105908D01*
X71532671Y-66156202D01*
X71532664Y-66156206D01*
X71417455Y-66242452D01*
X71417452Y-66242455D01*
X71331206Y-66357664D01*
X71331202Y-66357671D01*
X71280908Y-66492517D01*
X71274501Y-66552116D01*
X71274501Y-66552123D01*
X71274500Y-66552135D01*
X71274500Y-67547870D01*
X71274501Y-67547876D01*
X71280908Y-67607483D01*
X71331202Y-67742328D01*
X71331206Y-67742335D01*
X71417452Y-67857544D01*
X71417455Y-67857547D01*
X71532664Y-67943793D01*
X71532673Y-67943798D01*
X71643832Y-67985257D01*
X71699766Y-68027127D01*
X71724184Y-68092592D01*
X71724500Y-68101439D01*
X71724500Y-70515191D01*
X71724501Y-70515200D01*
X71733791Y-70555908D01*
X71734955Y-70562763D01*
X71739632Y-70604259D01*
X71753420Y-70643662D01*
X71755345Y-70650345D01*
X71764639Y-70691061D01*
X71782759Y-70728688D01*
X71785421Y-70735114D01*
X71799212Y-70774525D01*
X71821422Y-70809872D01*
X71824787Y-70815959D01*
X71842910Y-70853589D01*
X71868940Y-70886229D01*
X71872966Y-70891904D01*
X71895182Y-70927259D01*
X71895184Y-70927262D01*
X72065869Y-71097947D01*
X72099354Y-71159270D01*
X72101659Y-71174187D01*
X72113602Y-71303080D01*
X72113603Y-71303083D01*
X72114348Y-71305703D01*
X72114687Y-71306892D01*
X72114095Y-71376759D01*
X72075825Y-71435216D01*
X72012026Y-71463702D01*
X71972634Y-71462708D01*
X71936434Y-71455941D01*
X71901976Y-71449500D01*
X71901975Y-71449500D01*
X71882940Y-71449500D01*
X71815901Y-71429815D01*
X71795259Y-71413181D01*
X68986819Y-68604741D01*
X68953334Y-68543418D01*
X68950500Y-68517060D01*
X68950500Y-65932939D01*
X68970185Y-65865900D01*
X68986814Y-65845263D01*
X70207759Y-64624317D01*
X70269082Y-64590833D01*
X70295440Y-64587999D01*
X70675002Y-64587999D01*
X70675008Y-64587999D01*
X70777797Y-64577499D01*
X70944334Y-64522314D01*
X71093656Y-64430212D01*
X71126946Y-64396921D01*
X71188266Y-64363437D01*
X71257958Y-64368421D01*
X71313892Y-64410291D01*
X71330809Y-64441272D01*
X71331203Y-64442330D01*
X71331206Y-64442335D01*
X71417452Y-64557544D01*
X71417455Y-64557547D01*
X71532664Y-64643793D01*
X71532671Y-64643797D01*
X71667517Y-64694091D01*
X71667516Y-64694091D01*
X71674444Y-64694835D01*
X71727127Y-64700500D01*
X73322872Y-64700499D01*
X73382483Y-64694091D01*
X73517331Y-64643796D01*
X73632546Y-64557546D01*
X73718796Y-64442331D01*
X73769091Y-64307483D01*
X73775500Y-64247873D01*
X73775499Y-63252128D01*
X73769091Y-63192517D01*
X73739243Y-63112491D01*
X73718797Y-63057671D01*
X73718793Y-63057664D01*
X73632547Y-62942455D01*
X73632544Y-62942452D01*
X73517335Y-62856206D01*
X73517328Y-62856202D01*
X73382482Y-62805908D01*
X73382483Y-62805908D01*
X73322883Y-62799501D01*
X73322881Y-62799500D01*
X73322873Y-62799500D01*
X73322865Y-62799500D01*
X72700493Y-62799500D01*
X72634519Y-62780492D01*
X72624528Y-62774214D01*
X72624525Y-62774212D01*
X72585114Y-62760421D01*
X72578688Y-62757759D01*
X72541061Y-62739639D01*
X72500345Y-62730345D01*
X72493662Y-62728420D01*
X72454259Y-62714632D01*
X72412763Y-62709955D01*
X72405908Y-62708791D01*
X72365200Y-62699501D01*
X72365196Y-62699500D01*
X72365194Y-62699500D01*
X72365191Y-62699500D01*
X71274730Y-62699500D01*
X71207691Y-62679815D01*
X71187049Y-62663181D01*
X71093657Y-62569789D01*
X71093656Y-62569788D01*
X70971998Y-62494749D01*
X70944336Y-62477687D01*
X70944331Y-62477685D01*
X70942862Y-62477198D01*
X70777797Y-62422501D01*
X70777795Y-62422500D01*
X70675010Y-62412000D01*
X69624998Y-62412000D01*
X69624980Y-62412001D01*
X69522203Y-62422500D01*
X69522200Y-62422501D01*
X69355668Y-62477685D01*
X69355663Y-62477687D01*
X69206342Y-62569789D01*
X69082289Y-62693842D01*
X68990187Y-62843163D01*
X68990185Y-62843168D01*
X68985865Y-62856206D01*
X68935001Y-63009703D01*
X68935001Y-63009704D01*
X68935000Y-63009704D01*
X68924500Y-63112483D01*
X68924500Y-63592059D01*
X68904815Y-63659098D01*
X68888181Y-63679740D01*
X67647738Y-64920184D01*
X67520186Y-65047735D01*
X67520183Y-65047739D01*
X67497966Y-65083096D01*
X67493941Y-65088769D01*
X67467910Y-65121410D01*
X67449791Y-65159033D01*
X67446427Y-65165120D01*
X67424212Y-65200476D01*
X67424208Y-65200483D01*
X67410416Y-65239895D01*
X67407755Y-65246320D01*
X67389639Y-65283939D01*
X67380344Y-65324659D01*
X67378419Y-65331341D01*
X67364632Y-65370744D01*
X67359955Y-65412235D01*
X67358791Y-65419089D01*
X67349500Y-65459806D01*
X67349500Y-68517060D01*
X67329815Y-68584099D01*
X67313181Y-68604741D01*
X66420186Y-69497735D01*
X66420183Y-69497739D01*
X66397966Y-69533096D01*
X66393941Y-69538769D01*
X66367910Y-69571410D01*
X66349791Y-69609033D01*
X66346427Y-69615120D01*
X66324212Y-69650476D01*
X66324208Y-69650483D01*
X66310416Y-69689895D01*
X66307755Y-69696320D01*
X66289639Y-69733939D01*
X66280344Y-69774659D01*
X66278419Y-69781341D01*
X66264632Y-69820744D01*
X66259955Y-69862235D01*
X66258791Y-69869089D01*
X66249500Y-69909806D01*
X66249500Y-73767059D01*
X66229815Y-73834098D01*
X66213181Y-73854740D01*
X64791740Y-75276181D01*
X64730417Y-75309666D01*
X64704059Y-75312500D01*
X62404344Y-75312501D01*
X62404343Y-75312501D01*
X62361298Y-75315418D01*
X62361297Y-75315418D01*
X62175221Y-75361694D01*
X62168913Y-75364012D01*
X62168019Y-75361578D01*
X62110741Y-75371671D01*
X62046300Y-75344670D01*
X62006687Y-75287115D01*
X62000500Y-75248437D01*
X62000500Y-61267763D01*
X63695787Y-61267763D01*
X63725413Y-61537013D01*
X63725415Y-61537024D01*
X63787759Y-61775493D01*
X63793928Y-61799088D01*
X63899870Y-62048390D01*
X63939857Y-62113911D01*
X64040979Y-62279605D01*
X64040986Y-62279615D01*
X64214253Y-62487819D01*
X64214259Y-62487824D01*
X64305737Y-62569788D01*
X64415998Y-62668582D01*
X64641910Y-62818044D01*
X64887176Y-62933020D01*
X64887183Y-62933022D01*
X64887185Y-62933023D01*
X65146557Y-63011057D01*
X65146564Y-63011058D01*
X65146569Y-63011060D01*
X65414561Y-63050500D01*
X65414566Y-63050500D01*
X65617636Y-63050500D01*
X65669133Y-63046730D01*
X65820156Y-63035677D01*
X65932758Y-63010593D01*
X66084546Y-62976782D01*
X66084548Y-62976781D01*
X66084553Y-62976780D01*
X66337558Y-62880014D01*
X66573777Y-62747441D01*
X66788177Y-62581888D01*
X66976186Y-62386881D01*
X67133799Y-62166579D01*
X67207787Y-62022669D01*
X67257649Y-61925690D01*
X67257651Y-61925684D01*
X67257656Y-61925675D01*
X67345118Y-61669305D01*
X67394319Y-61402933D01*
X67404212Y-61132235D01*
X67374586Y-60862982D01*
X67306072Y-60600912D01*
X67200130Y-60351610D01*
X67059018Y-60120390D01*
X66969747Y-60013119D01*
X66885746Y-59912180D01*
X66885740Y-59912175D01*
X66684002Y-59731418D01*
X66458092Y-59581957D01*
X66458090Y-59581956D01*
X66212824Y-59466980D01*
X66212819Y-59466978D01*
X66212814Y-59466976D01*
X65953442Y-59388942D01*
X65953428Y-59388939D01*
X65837791Y-59371921D01*
X65685439Y-59349500D01*
X65482369Y-59349500D01*
X65482364Y-59349500D01*
X65279844Y-59364323D01*
X65279831Y-59364325D01*
X65015453Y-59423217D01*
X65015446Y-59423220D01*
X64762439Y-59519987D01*
X64526226Y-59652557D01*
X64311822Y-59818112D01*
X64123822Y-60013109D01*
X64123816Y-60013116D01*
X63966202Y-60233419D01*
X63966199Y-60233424D01*
X63842350Y-60474309D01*
X63842343Y-60474327D01*
X63754884Y-60730685D01*
X63754881Y-60730699D01*
X63705681Y-60997068D01*
X63705680Y-60997075D01*
X63695787Y-61267763D01*
X62000500Y-61267763D01*
X62000500Y-46615640D01*
X62020185Y-46548601D01*
X62072989Y-46502846D01*
X62142147Y-46492902D01*
X62186499Y-46508252D01*
G37*
G04 #@! TD.AperFunction*
G04 #@! TA.AperFunction,Conductor*
G36*
X127218979Y-84066870D02*
G01*
X127275703Y-84094873D01*
X130728496Y-86080993D01*
X132019909Y-86826590D01*
X132131549Y-86914386D01*
X132213935Y-87030080D01*
X132260388Y-87164299D01*
X132267146Y-87306168D01*
X132233662Y-87444195D01*
X132175183Y-87550551D01*
X129515907Y-91239224D01*
X129417297Y-91341442D01*
X129293882Y-91411738D01*
X129205365Y-91437429D01*
X126987362Y-91863968D01*
X126845490Y-91870668D01*
X126707477Y-91837126D01*
X126636394Y-91801836D01*
X123726831Y-90056098D01*
X123616680Y-89966435D01*
X123536252Y-89849372D01*
X123492062Y-89714391D01*
X123487692Y-89572428D01*
X123523493Y-89434984D01*
X123555037Y-89372541D01*
X126598372Y-84271742D01*
X126687760Y-84161372D01*
X126804624Y-84080655D01*
X126939495Y-84036131D01*
X127081447Y-84031409D01*
X127218979Y-84066870D01*
G37*
G04 #@! TD.AperFunction*
G04 #@! TA.AperFunction,Conductor*
G36*
X81961498Y-57929181D02*
G01*
X82012876Y-57955016D01*
X82308818Y-58125879D01*
X86799863Y-60718785D01*
X86911506Y-60806583D01*
X86993892Y-60922277D01*
X87040345Y-61056496D01*
X87047103Y-61198365D01*
X87013619Y-61336392D01*
X86979431Y-61405691D01*
X83698860Y-66930866D01*
X83609705Y-67041429D01*
X83493014Y-67122395D01*
X83358238Y-67167206D01*
X83216296Y-67172231D01*
X83078689Y-67137063D01*
X83025152Y-67111023D01*
X79623688Y-65197699D01*
X79511067Y-65111159D01*
X79427390Y-64996395D01*
X79391394Y-64909532D01*
X78716378Y-62715729D01*
X78694354Y-62575417D01*
X78712751Y-62434583D01*
X78768180Y-62307705D01*
X79602604Y-60950000D01*
X81338260Y-58125879D01*
X81429083Y-58016700D01*
X81546997Y-57937524D01*
X81682442Y-57894775D01*
X81824443Y-57891917D01*
X81961498Y-57929181D01*
G37*
G04 #@! TD.AperFunction*
G04 #@! TA.AperFunction,Conductor*
G36*
X75035622Y-83775422D02*
G01*
X75176012Y-83796936D01*
X75304655Y-83857131D01*
X75411128Y-83951131D01*
X75486806Y-84071321D01*
X75525557Y-84207962D01*
X75530000Y-84274401D01*
X75530000Y-91831000D01*
X75509787Y-91971585D01*
X75450786Y-92100780D01*
X75357776Y-92208119D01*
X75238292Y-92284906D01*
X75102015Y-92324921D01*
X75031000Y-92330000D01*
X70699500Y-92330000D01*
X70558915Y-92309787D01*
X70429720Y-92250786D01*
X70322381Y-92157776D01*
X70245594Y-92038292D01*
X70205579Y-91902015D01*
X70200500Y-91831000D01*
X70200500Y-84234294D01*
X70220713Y-84093709D01*
X70279714Y-83964514D01*
X70372724Y-83857175D01*
X70492208Y-83780388D01*
X70628485Y-83740373D01*
X70704107Y-83735315D01*
X75035622Y-83775422D01*
G37*
G04 #@! TD.AperFunction*
G04 #@! TA.AperFunction,Conductor*
G36*
X92233220Y-63861600D02*
G01*
X92297261Y-63892709D01*
X97808747Y-67074767D01*
X91812495Y-77155426D01*
X90864576Y-78103346D01*
X90750875Y-78188462D01*
X90617800Y-78238096D01*
X90511730Y-78249500D01*
X90428423Y-78249500D01*
X85273872Y-75265286D01*
X92148234Y-63840982D01*
X92233220Y-63861600D01*
G37*
G04 #@! TD.AperFunction*
G04 #@! TA.AperFunction,Conductor*
G36*
X97703554Y-123447505D02*
G01*
X97652236Y-123644158D01*
X97597180Y-123775083D01*
X97507468Y-123885194D01*
X97418905Y-123950306D01*
X92632810Y-126713559D01*
X92500954Y-126766346D01*
X92359567Y-126779847D01*
X92220103Y-126752967D01*
X92207483Y-126746461D01*
X92057457Y-126707716D01*
X85296657Y-115472142D01*
X90861311Y-112250500D01*
X91043267Y-112250500D01*
X97703554Y-123447505D01*
G37*
G04 #@! TD.AperFunction*
G04 #@! TA.AperFunction,Conductor*
G36*
X121705130Y-80871350D02*
G01*
X121816773Y-80959148D01*
X121856336Y-81014706D01*
X115114090Y-92349500D01*
X114821967Y-92349500D01*
X110094792Y-89612714D01*
X109646654Y-89164576D01*
X109561538Y-89050875D01*
X109511904Y-88917800D01*
X109509221Y-88892847D01*
X110672573Y-86959504D01*
X110947826Y-86684252D01*
X110979816Y-86652262D01*
X110996422Y-86625831D01*
X111012631Y-86602988D01*
X111032091Y-86578587D01*
X111045641Y-86550448D01*
X111059171Y-86525968D01*
X111075789Y-86499522D01*
X111086099Y-86470055D01*
X111096815Y-86444184D01*
X111110359Y-86416061D01*
X111117306Y-86385623D01*
X111125053Y-86358732D01*
X111135368Y-86329255D01*
X111138865Y-86298213D01*
X111143551Y-86270636D01*
X111150500Y-86240195D01*
X111150500Y-86165254D01*
X116236028Y-77713763D01*
X121705130Y-80871350D01*
G37*
G04 #@! TD.AperFunction*
G04 #@! TA.AperFunction,Conductor*
G36*
X83538275Y-123704196D02*
G01*
X83663779Y-123770689D01*
X83765466Y-123869847D01*
X83798860Y-123919133D01*
X86382768Y-128270978D01*
X87031794Y-129364073D01*
X87086188Y-129495275D01*
X87101415Y-129636487D01*
X87076240Y-129776268D01*
X87012705Y-129903295D01*
X86915955Y-130007276D01*
X86852227Y-130050979D01*
X82064010Y-132815457D01*
X81932154Y-132868244D01*
X81790767Y-132881745D01*
X81651303Y-132854865D01*
X81525062Y-132789783D01*
X81422269Y-132691771D01*
X81389381Y-132644587D01*
X79704629Y-129903295D01*
X78868180Y-128542294D01*
X78811792Y-128411941D01*
X78794412Y-128270978D01*
X78816375Y-128134278D01*
X79491396Y-125940462D01*
X79552057Y-125812044D01*
X79646444Y-125705913D01*
X79723684Y-125652302D01*
X83125155Y-123738975D01*
X83257592Y-123687670D01*
X83399122Y-123675755D01*
X83538275Y-123704196D01*
G37*
G04 #@! TD.AperFunction*
G04 #@! TA.AperFunction,Conductor*
G36*
X127079849Y-99035969D02*
G01*
X129191197Y-99458239D01*
X129325086Y-99505631D01*
X129440202Y-99588824D01*
X129514321Y-99679648D01*
X131906061Y-103438097D01*
X131964485Y-103567555D01*
X131984069Y-103708228D01*
X131963228Y-103848721D01*
X131903650Y-103977651D01*
X131810161Y-104084574D01*
X131734574Y-104138145D01*
X127238903Y-106733722D01*
X127107047Y-106786509D01*
X126965660Y-106800010D01*
X126826196Y-106773130D01*
X126699955Y-106708048D01*
X126597163Y-106610036D01*
X126559027Y-106554117D01*
X123558550Y-101440628D01*
X123504837Y-101309150D01*
X123490341Y-101167862D01*
X123516238Y-101028212D01*
X123580430Y-100901516D01*
X123677716Y-100798036D01*
X123746589Y-100751894D01*
X126739664Y-99089075D01*
X126872369Y-99038472D01*
X127013960Y-99027306D01*
X127079849Y-99035969D01*
G37*
G04 #@! TD.AperFunction*
M02*
