%TF.GenerationSoftware,KiCad,Pcbnew,7.0.11+1*%
%TF.ProjectId,makerspace_sign,6d616b65-7273-4706-9163-655f7369676e,rev?*%
%TF.SameCoordinates,Original*%
%TF.FileFunction,Drillmap*%
%TF.FilePolarity,Positive*%
%FSLAX45Y45*%
G04 Gerber Fmt 4.5, Leading zero omitted, Abs format (unit mm)*
%MOMM*%
%LPD*%
G01*
G04 APERTURE LIST*
%ADD10C,0.200000*%
%ADD11C,0.100000*%
G04 APERTURE END LIST*
D10*
X6197500Y-14437500D02*
X13818524Y-10037500D01*
X6197500Y-10037500D02*
G75*
G03*
X6197500Y-9037500I0J500000D01*
G01*
X13818524Y-9037500D02*
X6197500Y-4637500D01*
X13818524Y-10037500D02*
X13818524Y-9037500D01*
X6197500Y-4637500D02*
X6197500Y-9037500D01*
X6197500Y-10037500D02*
X6197500Y-14437500D01*
D11*
X6310000Y-8680000D02*
X6350000Y-8720000D01*
X6350000Y-8680000D02*
X6310000Y-8720000D01*
X6310000Y-8840000D02*
X6350000Y-8880000D01*
X6350000Y-8840000D02*
X6310000Y-8880000D01*
X6510000Y-8140000D02*
X6550000Y-8180000D01*
X6550000Y-8140000D02*
X6510000Y-8180000D01*
X6520000Y-10890000D02*
X6560000Y-10930000D01*
X6560000Y-10890000D02*
X6520000Y-10930000D01*
X6880000Y-7420000D02*
X6920000Y-7460000D01*
X6920000Y-7420000D02*
X6880000Y-7460000D01*
X7110000Y-7420000D02*
X7150000Y-7460000D01*
X7150000Y-7420000D02*
X7110000Y-7460000D01*
X7250000Y-9600000D02*
X7290000Y-9640000D01*
X7290000Y-9600000D02*
X7250000Y-9640000D01*
X7570000Y-9860000D02*
X7610000Y-9900000D01*
X7610000Y-9860000D02*
X7570000Y-9900000D01*
X7700000Y-9530000D02*
X7740000Y-9570000D01*
X7740000Y-9530000D02*
X7700000Y-9570000D01*
X7720000Y-9860000D02*
X7760000Y-9900000D01*
X7760000Y-9860000D02*
X7720000Y-9900000D01*
X7900000Y-6360000D02*
X7940000Y-6400000D01*
X7940000Y-6360000D02*
X7900000Y-6400000D01*
X8110000Y-10210000D02*
X8150000Y-10250000D01*
X8150000Y-10210000D02*
X8110000Y-10250000D01*
X8260000Y-10210000D02*
X8300000Y-10250000D01*
X8300000Y-10210000D02*
X8260000Y-10250000D01*
X8440000Y-12700000D02*
X8480000Y-12740000D01*
X8480000Y-12700000D02*
X8440000Y-12740000D01*
X8450000Y-6290000D02*
X8490000Y-6330000D01*
X8490000Y-6290000D02*
X8450000Y-6330000D01*
X8880000Y-6580000D02*
X8920000Y-6620000D01*
X8920000Y-6580000D02*
X8880000Y-6620000D01*
X8890000Y-12450000D02*
X8930000Y-12490000D01*
X8930000Y-12450000D02*
X8890000Y-12490000D01*
X10100000Y-8580000D02*
X10140000Y-8620000D01*
X10140000Y-8580000D02*
X10100000Y-8620000D01*
X10240000Y-8580000D02*
X10280000Y-8620000D01*
X10280000Y-8580000D02*
X10240000Y-8620000D01*
X10240000Y-9400000D02*
X10280000Y-9440000D01*
X10280000Y-9400000D02*
X10240000Y-9440000D01*
X10240000Y-9540000D02*
X10280000Y-9580000D01*
X10280000Y-9540000D02*
X10240000Y-9580000D01*
X10520000Y-9730000D02*
X10560000Y-9770000D01*
X10560000Y-9730000D02*
X10520000Y-9770000D01*
X11540000Y-8790000D02*
X11580000Y-8830000D01*
X11580000Y-8790000D02*
X11540000Y-8830000D01*
X11640000Y-11120000D02*
X11680000Y-11160000D01*
X11680000Y-11120000D02*
X11640000Y-11160000D01*
X11690000Y-8790000D02*
X11730000Y-8830000D01*
X11730000Y-8790000D02*
X11690000Y-8830000D01*
X11790000Y-11030000D02*
X11830000Y-11070000D01*
X11830000Y-11030000D02*
X11790000Y-11070000D01*
X12130000Y-10590000D02*
X12170000Y-10630000D01*
X12170000Y-10590000D02*
X12130000Y-10630000D01*
X12140000Y-8460000D02*
X12180000Y-8500000D01*
X12180000Y-8460000D02*
X12140000Y-8500000D01*
X12570000Y-10330000D02*
X12610000Y-10370000D01*
X12610000Y-10330000D02*
X12570000Y-10370000D01*
X12580000Y-8700000D02*
X12620000Y-8740000D01*
X12620000Y-8700000D02*
X12580000Y-8740000D01*
X12720000Y-9900000D02*
X12760000Y-9940000D01*
X12760000Y-9900000D02*
X12720000Y-9940000D01*
X12870000Y-9900000D02*
X12910000Y-9940000D01*
X12910000Y-9900000D02*
X12870000Y-9940000D01*
D10*
X6448277Y-14758984D02*
X6448277Y-14558984D01*
X6448277Y-14558984D02*
X6495896Y-14558984D01*
X6495896Y-14558984D02*
X6524467Y-14568508D01*
X6524467Y-14568508D02*
X6543515Y-14587555D01*
X6543515Y-14587555D02*
X6553039Y-14606603D01*
X6553039Y-14606603D02*
X6562562Y-14644698D01*
X6562562Y-14644698D02*
X6562562Y-14673269D01*
X6562562Y-14673269D02*
X6553039Y-14711365D01*
X6553039Y-14711365D02*
X6543515Y-14730412D01*
X6543515Y-14730412D02*
X6524467Y-14749460D01*
X6524467Y-14749460D02*
X6495896Y-14758984D01*
X6495896Y-14758984D02*
X6448277Y-14758984D01*
X6648277Y-14758984D02*
X6648277Y-14625650D01*
X6648277Y-14663746D02*
X6657801Y-14644698D01*
X6657801Y-14644698D02*
X6667324Y-14635174D01*
X6667324Y-14635174D02*
X6686372Y-14625650D01*
X6686372Y-14625650D02*
X6705420Y-14625650D01*
X6772086Y-14758984D02*
X6772086Y-14625650D01*
X6772086Y-14558984D02*
X6762562Y-14568508D01*
X6762562Y-14568508D02*
X6772086Y-14578031D01*
X6772086Y-14578031D02*
X6781610Y-14568508D01*
X6781610Y-14568508D02*
X6772086Y-14558984D01*
X6772086Y-14558984D02*
X6772086Y-14578031D01*
X6895896Y-14758984D02*
X6876848Y-14749460D01*
X6876848Y-14749460D02*
X6867324Y-14730412D01*
X6867324Y-14730412D02*
X6867324Y-14558984D01*
X7000658Y-14758984D02*
X6981610Y-14749460D01*
X6981610Y-14749460D02*
X6972086Y-14730412D01*
X6972086Y-14730412D02*
X6972086Y-14558984D01*
X7229229Y-14758984D02*
X7229229Y-14558984D01*
X7229229Y-14558984D02*
X7295896Y-14701841D01*
X7295896Y-14701841D02*
X7362562Y-14558984D01*
X7362562Y-14558984D02*
X7362562Y-14758984D01*
X7543515Y-14758984D02*
X7543515Y-14654222D01*
X7543515Y-14654222D02*
X7533991Y-14635174D01*
X7533991Y-14635174D02*
X7514943Y-14625650D01*
X7514943Y-14625650D02*
X7476848Y-14625650D01*
X7476848Y-14625650D02*
X7457801Y-14635174D01*
X7543515Y-14749460D02*
X7524467Y-14758984D01*
X7524467Y-14758984D02*
X7476848Y-14758984D01*
X7476848Y-14758984D02*
X7457801Y-14749460D01*
X7457801Y-14749460D02*
X7448277Y-14730412D01*
X7448277Y-14730412D02*
X7448277Y-14711365D01*
X7448277Y-14711365D02*
X7457801Y-14692317D01*
X7457801Y-14692317D02*
X7476848Y-14682793D01*
X7476848Y-14682793D02*
X7524467Y-14682793D01*
X7524467Y-14682793D02*
X7543515Y-14673269D01*
X7638753Y-14625650D02*
X7638753Y-14825650D01*
X7638753Y-14635174D02*
X7657801Y-14625650D01*
X7657801Y-14625650D02*
X7695896Y-14625650D01*
X7695896Y-14625650D02*
X7714943Y-14635174D01*
X7714943Y-14635174D02*
X7724467Y-14644698D01*
X7724467Y-14644698D02*
X7733991Y-14663746D01*
X7733991Y-14663746D02*
X7733991Y-14720888D01*
X7733991Y-14720888D02*
X7724467Y-14739936D01*
X7724467Y-14739936D02*
X7714943Y-14749460D01*
X7714943Y-14749460D02*
X7695896Y-14758984D01*
X7695896Y-14758984D02*
X7657801Y-14758984D01*
X7657801Y-14758984D02*
X7638753Y-14749460D01*
X7819705Y-14739936D02*
X7829229Y-14749460D01*
X7829229Y-14749460D02*
X7819705Y-14758984D01*
X7819705Y-14758984D02*
X7810182Y-14749460D01*
X7810182Y-14749460D02*
X7819705Y-14739936D01*
X7819705Y-14739936D02*
X7819705Y-14758984D01*
X7819705Y-14635174D02*
X7829229Y-14644698D01*
X7829229Y-14644698D02*
X7819705Y-14654222D01*
X7819705Y-14654222D02*
X7810182Y-14644698D01*
X7810182Y-14644698D02*
X7819705Y-14635174D01*
X7819705Y-14635174D02*
X7819705Y-14654222D01*
D11*
X6147500Y-15067500D02*
X6187500Y-15107500D01*
X6187500Y-15067500D02*
X6147500Y-15107500D01*
D10*
X6486372Y-14978984D02*
X6505420Y-14978984D01*
X6505420Y-14978984D02*
X6524467Y-14988508D01*
X6524467Y-14988508D02*
X6533991Y-14998031D01*
X6533991Y-14998031D02*
X6543515Y-15017079D01*
X6543515Y-15017079D02*
X6553039Y-15055174D01*
X6553039Y-15055174D02*
X6553039Y-15102793D01*
X6553039Y-15102793D02*
X6543515Y-15140888D01*
X6543515Y-15140888D02*
X6533991Y-15159936D01*
X6533991Y-15159936D02*
X6524467Y-15169460D01*
X6524467Y-15169460D02*
X6505420Y-15178984D01*
X6505420Y-15178984D02*
X6486372Y-15178984D01*
X6486372Y-15178984D02*
X6467324Y-15169460D01*
X6467324Y-15169460D02*
X6457801Y-15159936D01*
X6457801Y-15159936D02*
X6448277Y-15140888D01*
X6448277Y-15140888D02*
X6438753Y-15102793D01*
X6438753Y-15102793D02*
X6438753Y-15055174D01*
X6438753Y-15055174D02*
X6448277Y-15017079D01*
X6448277Y-15017079D02*
X6457801Y-14998031D01*
X6457801Y-14998031D02*
X6467324Y-14988508D01*
X6467324Y-14988508D02*
X6486372Y-14978984D01*
X6638753Y-15159936D02*
X6648277Y-15169460D01*
X6648277Y-15169460D02*
X6638753Y-15178984D01*
X6638753Y-15178984D02*
X6629229Y-15169460D01*
X6629229Y-15169460D02*
X6638753Y-15159936D01*
X6638753Y-15159936D02*
X6638753Y-15178984D01*
X6819705Y-15045650D02*
X6819705Y-15178984D01*
X6772086Y-14969460D02*
X6724467Y-15112317D01*
X6724467Y-15112317D02*
X6848277Y-15112317D01*
X6962562Y-14978984D02*
X6981610Y-14978984D01*
X6981610Y-14978984D02*
X7000658Y-14988508D01*
X7000658Y-14988508D02*
X7010182Y-14998031D01*
X7010182Y-14998031D02*
X7019705Y-15017079D01*
X7019705Y-15017079D02*
X7029229Y-15055174D01*
X7029229Y-15055174D02*
X7029229Y-15102793D01*
X7029229Y-15102793D02*
X7019705Y-15140888D01*
X7019705Y-15140888D02*
X7010182Y-15159936D01*
X7010182Y-15159936D02*
X7000658Y-15169460D01*
X7000658Y-15169460D02*
X6981610Y-15178984D01*
X6981610Y-15178984D02*
X6962562Y-15178984D01*
X6962562Y-15178984D02*
X6943515Y-15169460D01*
X6943515Y-15169460D02*
X6933991Y-15159936D01*
X6933991Y-15159936D02*
X6924467Y-15140888D01*
X6924467Y-15140888D02*
X6914943Y-15102793D01*
X6914943Y-15102793D02*
X6914943Y-15055174D01*
X6914943Y-15055174D02*
X6924467Y-15017079D01*
X6924467Y-15017079D02*
X6933991Y-14998031D01*
X6933991Y-14998031D02*
X6943515Y-14988508D01*
X6943515Y-14988508D02*
X6962562Y-14978984D01*
X7153039Y-14978984D02*
X7172086Y-14978984D01*
X7172086Y-14978984D02*
X7191134Y-14988508D01*
X7191134Y-14988508D02*
X7200658Y-14998031D01*
X7200658Y-14998031D02*
X7210182Y-15017079D01*
X7210182Y-15017079D02*
X7219705Y-15055174D01*
X7219705Y-15055174D02*
X7219705Y-15102793D01*
X7219705Y-15102793D02*
X7210182Y-15140888D01*
X7210182Y-15140888D02*
X7200658Y-15159936D01*
X7200658Y-15159936D02*
X7191134Y-15169460D01*
X7191134Y-15169460D02*
X7172086Y-15178984D01*
X7172086Y-15178984D02*
X7153039Y-15178984D01*
X7153039Y-15178984D02*
X7133991Y-15169460D01*
X7133991Y-15169460D02*
X7124467Y-15159936D01*
X7124467Y-15159936D02*
X7114943Y-15140888D01*
X7114943Y-15140888D02*
X7105420Y-15102793D01*
X7105420Y-15102793D02*
X7105420Y-15055174D01*
X7105420Y-15055174D02*
X7114943Y-15017079D01*
X7114943Y-15017079D02*
X7124467Y-14998031D01*
X7124467Y-14998031D02*
X7133991Y-14988508D01*
X7133991Y-14988508D02*
X7153039Y-14978984D01*
X7305420Y-15178984D02*
X7305420Y-15045650D01*
X7305420Y-15064698D02*
X7314943Y-15055174D01*
X7314943Y-15055174D02*
X7333991Y-15045650D01*
X7333991Y-15045650D02*
X7362563Y-15045650D01*
X7362563Y-15045650D02*
X7381610Y-15055174D01*
X7381610Y-15055174D02*
X7391134Y-15074222D01*
X7391134Y-15074222D02*
X7391134Y-15178984D01*
X7391134Y-15074222D02*
X7400658Y-15055174D01*
X7400658Y-15055174D02*
X7419705Y-15045650D01*
X7419705Y-15045650D02*
X7448277Y-15045650D01*
X7448277Y-15045650D02*
X7467324Y-15055174D01*
X7467324Y-15055174D02*
X7476848Y-15074222D01*
X7476848Y-15074222D02*
X7476848Y-15178984D01*
X7572086Y-15178984D02*
X7572086Y-15045650D01*
X7572086Y-15064698D02*
X7581610Y-15055174D01*
X7581610Y-15055174D02*
X7600658Y-15045650D01*
X7600658Y-15045650D02*
X7629229Y-15045650D01*
X7629229Y-15045650D02*
X7648277Y-15055174D01*
X7648277Y-15055174D02*
X7657801Y-15074222D01*
X7657801Y-15074222D02*
X7657801Y-15178984D01*
X7657801Y-15074222D02*
X7667324Y-15055174D01*
X7667324Y-15055174D02*
X7686372Y-15045650D01*
X7686372Y-15045650D02*
X7714943Y-15045650D01*
X7714943Y-15045650D02*
X7733991Y-15055174D01*
X7733991Y-15055174D02*
X7743515Y-15074222D01*
X7743515Y-15074222D02*
X7743515Y-15178984D01*
X8133991Y-14969460D02*
X7962563Y-15226603D01*
X8391134Y-14978984D02*
X8410182Y-14978984D01*
X8410182Y-14978984D02*
X8429229Y-14988508D01*
X8429229Y-14988508D02*
X8438753Y-14998031D01*
X8438753Y-14998031D02*
X8448277Y-15017079D01*
X8448277Y-15017079D02*
X8457801Y-15055174D01*
X8457801Y-15055174D02*
X8457801Y-15102793D01*
X8457801Y-15102793D02*
X8448277Y-15140888D01*
X8448277Y-15140888D02*
X8438753Y-15159936D01*
X8438753Y-15159936D02*
X8429229Y-15169460D01*
X8429229Y-15169460D02*
X8410182Y-15178984D01*
X8410182Y-15178984D02*
X8391134Y-15178984D01*
X8391134Y-15178984D02*
X8372086Y-15169460D01*
X8372086Y-15169460D02*
X8362563Y-15159936D01*
X8362563Y-15159936D02*
X8353039Y-15140888D01*
X8353039Y-15140888D02*
X8343515Y-15102793D01*
X8343515Y-15102793D02*
X8343515Y-15055174D01*
X8343515Y-15055174D02*
X8353039Y-15017079D01*
X8353039Y-15017079D02*
X8362563Y-14998031D01*
X8362563Y-14998031D02*
X8372086Y-14988508D01*
X8372086Y-14988508D02*
X8391134Y-14978984D01*
X8543515Y-15159936D02*
X8553039Y-15169460D01*
X8553039Y-15169460D02*
X8543515Y-15178984D01*
X8543515Y-15178984D02*
X8533991Y-15169460D01*
X8533991Y-15169460D02*
X8543515Y-15159936D01*
X8543515Y-15159936D02*
X8543515Y-15178984D01*
X8676848Y-14978984D02*
X8695896Y-14978984D01*
X8695896Y-14978984D02*
X8714944Y-14988508D01*
X8714944Y-14988508D02*
X8724468Y-14998031D01*
X8724468Y-14998031D02*
X8733991Y-15017079D01*
X8733991Y-15017079D02*
X8743515Y-15055174D01*
X8743515Y-15055174D02*
X8743515Y-15102793D01*
X8743515Y-15102793D02*
X8733991Y-15140888D01*
X8733991Y-15140888D02*
X8724468Y-15159936D01*
X8724468Y-15159936D02*
X8714944Y-15169460D01*
X8714944Y-15169460D02*
X8695896Y-15178984D01*
X8695896Y-15178984D02*
X8676848Y-15178984D01*
X8676848Y-15178984D02*
X8657801Y-15169460D01*
X8657801Y-15169460D02*
X8648277Y-15159936D01*
X8648277Y-15159936D02*
X8638753Y-15140888D01*
X8638753Y-15140888D02*
X8629229Y-15102793D01*
X8629229Y-15102793D02*
X8629229Y-15055174D01*
X8629229Y-15055174D02*
X8638753Y-15017079D01*
X8638753Y-15017079D02*
X8648277Y-14998031D01*
X8648277Y-14998031D02*
X8657801Y-14988508D01*
X8657801Y-14988508D02*
X8676848Y-14978984D01*
X8933991Y-15178984D02*
X8819706Y-15178984D01*
X8876848Y-15178984D02*
X8876848Y-14978984D01*
X8876848Y-14978984D02*
X8857801Y-15007555D01*
X8857801Y-15007555D02*
X8838753Y-15026603D01*
X8838753Y-15026603D02*
X8819706Y-15036127D01*
X9114944Y-14978984D02*
X9019706Y-14978984D01*
X9019706Y-14978984D02*
X9010182Y-15074222D01*
X9010182Y-15074222D02*
X9019706Y-15064698D01*
X9019706Y-15064698D02*
X9038753Y-15055174D01*
X9038753Y-15055174D02*
X9086372Y-15055174D01*
X9086372Y-15055174D02*
X9105420Y-15064698D01*
X9105420Y-15064698D02*
X9114944Y-15074222D01*
X9114944Y-15074222D02*
X9124468Y-15093269D01*
X9124468Y-15093269D02*
X9124468Y-15140888D01*
X9124468Y-15140888D02*
X9114944Y-15159936D01*
X9114944Y-15159936D02*
X9105420Y-15169460D01*
X9105420Y-15169460D02*
X9086372Y-15178984D01*
X9086372Y-15178984D02*
X9038753Y-15178984D01*
X9038753Y-15178984D02*
X9019706Y-15169460D01*
X9019706Y-15169460D02*
X9010182Y-15159936D01*
X9191134Y-14978984D02*
X9324468Y-14978984D01*
X9324468Y-14978984D02*
X9238753Y-15178984D01*
X9391134Y-14978984D02*
X9391134Y-15017079D01*
X9467325Y-14978984D02*
X9467325Y-15017079D01*
X9762563Y-15255174D02*
X9753039Y-15245650D01*
X9753039Y-15245650D02*
X9733991Y-15217079D01*
X9733991Y-15217079D02*
X9724468Y-15198031D01*
X9724468Y-15198031D02*
X9714944Y-15169460D01*
X9714944Y-15169460D02*
X9705420Y-15121841D01*
X9705420Y-15121841D02*
X9705420Y-15083746D01*
X9705420Y-15083746D02*
X9714944Y-15036127D01*
X9714944Y-15036127D02*
X9724468Y-15007555D01*
X9724468Y-15007555D02*
X9733991Y-14988508D01*
X9733991Y-14988508D02*
X9753039Y-14959936D01*
X9753039Y-14959936D02*
X9762563Y-14950412D01*
X9819706Y-14978984D02*
X9943515Y-14978984D01*
X9943515Y-14978984D02*
X9876849Y-15055174D01*
X9876849Y-15055174D02*
X9905420Y-15055174D01*
X9905420Y-15055174D02*
X9924468Y-15064698D01*
X9924468Y-15064698D02*
X9933991Y-15074222D01*
X9933991Y-15074222D02*
X9943515Y-15093269D01*
X9943515Y-15093269D02*
X9943515Y-15140888D01*
X9943515Y-15140888D02*
X9933991Y-15159936D01*
X9933991Y-15159936D02*
X9924468Y-15169460D01*
X9924468Y-15169460D02*
X9905420Y-15178984D01*
X9905420Y-15178984D02*
X9848277Y-15178984D01*
X9848277Y-15178984D02*
X9829230Y-15169460D01*
X9829230Y-15169460D02*
X9819706Y-15159936D01*
X10019706Y-14998031D02*
X10029230Y-14988508D01*
X10029230Y-14988508D02*
X10048277Y-14978984D01*
X10048277Y-14978984D02*
X10095896Y-14978984D01*
X10095896Y-14978984D02*
X10114944Y-14988508D01*
X10114944Y-14988508D02*
X10124468Y-14998031D01*
X10124468Y-14998031D02*
X10133991Y-15017079D01*
X10133991Y-15017079D02*
X10133991Y-15036127D01*
X10133991Y-15036127D02*
X10124468Y-15064698D01*
X10124468Y-15064698D02*
X10010182Y-15178984D01*
X10010182Y-15178984D02*
X10133991Y-15178984D01*
X10372087Y-15178984D02*
X10372087Y-14978984D01*
X10457801Y-15178984D02*
X10457801Y-15074222D01*
X10457801Y-15074222D02*
X10448277Y-15055174D01*
X10448277Y-15055174D02*
X10429230Y-15045650D01*
X10429230Y-15045650D02*
X10400658Y-15045650D01*
X10400658Y-15045650D02*
X10381611Y-15055174D01*
X10381611Y-15055174D02*
X10372087Y-15064698D01*
X10581611Y-15178984D02*
X10562563Y-15169460D01*
X10562563Y-15169460D02*
X10553039Y-15159936D01*
X10553039Y-15159936D02*
X10543515Y-15140888D01*
X10543515Y-15140888D02*
X10543515Y-15083746D01*
X10543515Y-15083746D02*
X10553039Y-15064698D01*
X10553039Y-15064698D02*
X10562563Y-15055174D01*
X10562563Y-15055174D02*
X10581611Y-15045650D01*
X10581611Y-15045650D02*
X10610182Y-15045650D01*
X10610182Y-15045650D02*
X10629230Y-15055174D01*
X10629230Y-15055174D02*
X10638753Y-15064698D01*
X10638753Y-15064698D02*
X10648277Y-15083746D01*
X10648277Y-15083746D02*
X10648277Y-15140888D01*
X10648277Y-15140888D02*
X10638753Y-15159936D01*
X10638753Y-15159936D02*
X10629230Y-15169460D01*
X10629230Y-15169460D02*
X10610182Y-15178984D01*
X10610182Y-15178984D02*
X10581611Y-15178984D01*
X10762563Y-15178984D02*
X10743515Y-15169460D01*
X10743515Y-15169460D02*
X10733992Y-15150412D01*
X10733992Y-15150412D02*
X10733992Y-14978984D01*
X10914944Y-15169460D02*
X10895896Y-15178984D01*
X10895896Y-15178984D02*
X10857801Y-15178984D01*
X10857801Y-15178984D02*
X10838753Y-15169460D01*
X10838753Y-15169460D02*
X10829230Y-15150412D01*
X10829230Y-15150412D02*
X10829230Y-15074222D01*
X10829230Y-15074222D02*
X10838753Y-15055174D01*
X10838753Y-15055174D02*
X10857801Y-15045650D01*
X10857801Y-15045650D02*
X10895896Y-15045650D01*
X10895896Y-15045650D02*
X10914944Y-15055174D01*
X10914944Y-15055174D02*
X10924468Y-15074222D01*
X10924468Y-15074222D02*
X10924468Y-15093269D01*
X10924468Y-15093269D02*
X10829230Y-15112317D01*
X11000658Y-15169460D02*
X11019706Y-15178984D01*
X11019706Y-15178984D02*
X11057801Y-15178984D01*
X11057801Y-15178984D02*
X11076849Y-15169460D01*
X11076849Y-15169460D02*
X11086373Y-15150412D01*
X11086373Y-15150412D02*
X11086373Y-15140888D01*
X11086373Y-15140888D02*
X11076849Y-15121841D01*
X11076849Y-15121841D02*
X11057801Y-15112317D01*
X11057801Y-15112317D02*
X11029230Y-15112317D01*
X11029230Y-15112317D02*
X11010182Y-15102793D01*
X11010182Y-15102793D02*
X11000658Y-15083746D01*
X11000658Y-15083746D02*
X11000658Y-15074222D01*
X11000658Y-15074222D02*
X11010182Y-15055174D01*
X11010182Y-15055174D02*
X11029230Y-15045650D01*
X11029230Y-15045650D02*
X11057801Y-15045650D01*
X11057801Y-15045650D02*
X11076849Y-15055174D01*
X11153039Y-15255174D02*
X11162563Y-15245650D01*
X11162563Y-15245650D02*
X11181611Y-15217079D01*
X11181611Y-15217079D02*
X11191134Y-15198031D01*
X11191134Y-15198031D02*
X11200658Y-15169460D01*
X11200658Y-15169460D02*
X11210182Y-15121841D01*
X11210182Y-15121841D02*
X11210182Y-15083746D01*
X11210182Y-15083746D02*
X11200658Y-15036127D01*
X11200658Y-15036127D02*
X11191134Y-15007555D01*
X11191134Y-15007555D02*
X11181611Y-14988508D01*
X11181611Y-14988508D02*
X11162563Y-14959936D01*
X11162563Y-14959936D02*
X11153039Y-14950412D01*
M02*
