G04 #@! TF.GenerationSoftware,KiCad,Pcbnew,7.0.11+1*
G04 #@! TF.ProjectId,makerspace_sign,6d616b65-7273-4706-9163-655f7369676e,rev?*
G04 #@! TF.SameCoordinates,Original*
G04 #@! TF.FileFunction,Copper,L2,Bot*
G04 #@! TF.FilePolarity,Positive*
%FSLAX46Y46*%
G04 Gerber Fmt 4.6, Leading zero omitted, Abs format (unit mm)*
%MOMM*%
%LPD*%
G01*
G04 APERTURE LIST*
G04 #@! TA.AperFunction,Profile*
%ADD10C,0.200000*%
G04 #@! TD*
G04 #@! TA.AperFunction,ViaPad*
%ADD11C,1.200000*%
G04 #@! TD*
G04 #@! TA.AperFunction,Conductor*
%ADD12C,0.600000*%
G04 #@! TD*
G04 APERTURE END LIST*
D10*
X62000000Y-46400000D02*
X62000000Y-90400000D01*
X62000000Y-100400000D02*
X62000000Y-144400000D01*
X62000000Y-100400000D02*
G75*
G03*
X62000000Y-90400000I0J5000000D01*
G01*
X138210236Y-90400000D02*
X62000000Y-46400000D01*
X62000000Y-144400000D02*
X138210236Y-100400000D01*
X138210236Y-100400000D02*
X138210236Y-90400000D01*
D11*
X74957848Y-119577725D03*
X78500000Y-115600000D03*
X71877713Y-72636392D03*
X116349500Y-96747607D03*
X77000000Y-72650000D03*
X121975000Y-93450000D03*
X96276750Y-96964218D03*
X96276750Y-89344218D03*
X89123872Y-76365286D03*
X73416750Y-79184218D03*
X72630000Y-102100000D03*
X73910000Y-105940000D03*
X91196750Y-96964218D03*
X124500000Y-99000000D03*
X101356750Y-84264218D03*
X114489260Y-91025301D03*
X112639260Y-88375301D03*
X122800000Y-91300000D03*
X96276750Y-94424218D03*
X90046657Y-118622142D03*
X86523872Y-74865286D03*
X87273872Y-73715286D03*
X88723872Y-71365286D03*
X103896750Y-96964218D03*
X91946657Y-115922142D03*
X78496750Y-79184218D03*
X93736750Y-102044218D03*
X92623872Y-73615286D03*
X110589260Y-88775301D03*
X101356750Y-99504218D03*
X113400000Y-103600000D03*
X115239260Y-89875301D03*
X65796750Y-104584218D03*
X106436750Y-99504218D03*
X113950000Y-101700000D03*
X96276750Y-102044218D03*
X91346657Y-117872142D03*
X88656750Y-94424218D03*
X88656750Y-91884218D03*
X114100000Y-104800000D03*
X93736750Y-99504218D03*
X106436750Y-96964218D03*
X71370000Y-105940000D03*
X70350000Y-68050000D03*
X116700000Y-103300000D03*
X98816750Y-94424218D03*
X112100000Y-104350000D03*
X65796750Y-119824218D03*
X86116750Y-99504218D03*
X98816750Y-91884218D03*
X65796750Y-102044218D03*
X88656750Y-102044218D03*
X68336750Y-96964218D03*
X114500000Y-99800000D03*
X78496750Y-81724218D03*
X89896657Y-115522142D03*
X68336750Y-94424218D03*
X88656750Y-99504218D03*
X93736750Y-94424218D03*
X88656750Y-104584218D03*
X93736750Y-96964218D03*
X116689260Y-87525301D03*
X91196750Y-104584218D03*
X77500000Y-67100000D03*
X98816750Y-102044218D03*
X73900000Y-104640000D03*
X70400000Y-69600000D03*
X72630000Y-100830000D03*
X88573872Y-74465286D03*
X90423872Y-77115286D03*
X91196750Y-102044218D03*
X87823872Y-75615286D03*
X78496750Y-76644218D03*
X110600000Y-102050000D03*
X115389260Y-86775301D03*
X87296657Y-117022142D03*
X111350000Y-103200000D03*
X98816750Y-99504218D03*
X90446657Y-113622142D03*
X90023872Y-72115286D03*
X103896750Y-99504218D03*
X114089260Y-86025301D03*
X101356750Y-102044218D03*
X83576750Y-91884218D03*
X88656750Y-96964218D03*
X89873872Y-75215286D03*
X115400000Y-104050000D03*
X89146657Y-114372142D03*
X112089260Y-86475301D03*
X113200000Y-100550000D03*
X78496750Y-109664218D03*
X124400000Y-91900000D03*
X88746657Y-119372142D03*
X98816750Y-104584218D03*
X91196750Y-94424218D03*
X114700000Y-102850000D03*
X71360000Y-102100000D03*
X103896750Y-94424218D03*
X91923872Y-74815286D03*
X86546657Y-115872142D03*
X71360000Y-103370000D03*
X65796750Y-124904218D03*
X91173872Y-75965286D03*
X90646657Y-116672142D03*
X89323872Y-73315286D03*
X87846657Y-115122142D03*
X111339260Y-87625301D03*
X113389260Y-87225301D03*
X111889260Y-89525301D03*
X91196750Y-99504218D03*
X72640000Y-105940000D03*
X70090000Y-103370000D03*
X114689260Y-87975301D03*
X96276750Y-99504218D03*
X112789260Y-85275301D03*
X115989260Y-88725301D03*
X70090000Y-104640000D03*
X96276750Y-104584218D03*
X68336750Y-127444218D03*
X65796750Y-122364218D03*
X101356750Y-96964218D03*
X81036750Y-91884218D03*
X88596657Y-116272142D03*
X70100000Y-105940000D03*
X86116750Y-102044218D03*
X72630000Y-103370000D03*
X86116750Y-104584218D03*
X115250000Y-100950000D03*
X70090000Y-100830000D03*
X72630000Y-104640000D03*
X112800000Y-105550000D03*
X101356750Y-104584218D03*
X108976750Y-107124218D03*
X112650000Y-102450000D03*
X73900000Y-103370000D03*
X103896750Y-102044218D03*
X75956750Y-112204218D03*
X86116750Y-91884218D03*
X93736750Y-104584218D03*
X88046657Y-118172142D03*
X101356750Y-94424218D03*
X96276750Y-114744218D03*
X90623872Y-74065286D03*
X71360000Y-104640000D03*
X98816750Y-96964218D03*
X88023872Y-72565286D03*
X103896750Y-86804218D03*
X103896750Y-84264218D03*
X123100000Y-99800000D03*
X92646657Y-117122142D03*
X71360000Y-100830000D03*
X73900000Y-100830000D03*
X101356750Y-91884218D03*
X89346657Y-117422142D03*
X91323872Y-72865286D03*
X91196657Y-114772142D03*
X116000000Y-102100000D03*
X113189260Y-90275301D03*
X68336750Y-129984218D03*
X98816750Y-89344218D03*
X73900000Y-102100000D03*
X96276750Y-91884218D03*
X70090000Y-102100000D03*
X111900000Y-101300000D03*
X113939260Y-89125301D03*
X93750000Y-88500000D03*
X69860000Y-89740000D03*
X72400000Y-88470000D03*
X128950000Y-90800000D03*
X72400000Y-87200000D03*
X69860000Y-85930000D03*
X83450000Y-131150000D03*
X93750000Y-89800000D03*
X127650000Y-90050000D03*
X128300000Y-88850000D03*
X129800000Y-104350000D03*
X82150000Y-59000000D03*
X126950000Y-91200000D03*
X131100000Y-87250000D03*
X73670000Y-85930000D03*
X128950000Y-100100000D03*
X83800000Y-61550000D03*
X83150000Y-128150000D03*
X83700000Y-64650000D03*
X127100000Y-102750000D03*
X126300000Y-89300000D03*
X82250000Y-131850000D03*
X81850000Y-62000000D03*
X69860000Y-87200000D03*
X129050000Y-103200000D03*
X69860000Y-84640000D03*
X92450000Y-88500000D03*
X130350000Y-102500000D03*
X81700000Y-65050000D03*
X125050000Y-88600000D03*
X71130000Y-84640000D03*
X83050000Y-65850000D03*
X129800000Y-86550000D03*
X124350000Y-89750000D03*
X82400000Y-63900000D03*
X83350000Y-59700000D03*
X126300000Y-101600000D03*
X92450000Y-89800000D03*
X128600000Y-105050000D03*
X69860000Y-88470000D03*
X71130000Y-89740000D03*
X80350000Y-64300000D03*
X72400000Y-89740000D03*
X73670000Y-87200000D03*
X73670000Y-88470000D03*
X71130000Y-87200000D03*
X127100000Y-88150000D03*
X127650000Y-100850000D03*
X125050000Y-102300000D03*
X81800000Y-125800000D03*
X79900000Y-128400000D03*
X126950000Y-99700000D03*
X128600000Y-85850000D03*
X129050000Y-87700000D03*
X72400000Y-85930000D03*
X81500000Y-130700000D03*
X128300000Y-102050000D03*
X84650000Y-130450000D03*
X129550000Y-101350000D03*
X125600000Y-90450000D03*
X82700000Y-130000000D03*
X83050000Y-62700000D03*
X83150000Y-125000000D03*
X80700000Y-129550000D03*
X79800000Y-62450000D03*
X80450000Y-126550000D03*
X131100000Y-103650000D03*
X82500000Y-126950000D03*
X127850000Y-87000000D03*
X72400000Y-84640000D03*
X125600000Y-100450000D03*
X129550000Y-89550000D03*
X124350000Y-101150000D03*
X73670000Y-89740000D03*
X84550000Y-60400000D03*
X82600000Y-60850000D03*
X71130000Y-85930000D03*
X81050000Y-63150000D03*
X81400000Y-60150000D03*
X73670000Y-84640000D03*
X83900000Y-129300000D03*
X127850000Y-103900000D03*
X83800000Y-126200000D03*
X71130000Y-88470000D03*
X81950000Y-128850000D03*
X81150000Y-127700000D03*
X130350000Y-88400000D03*
X80600000Y-61300000D03*
X76950000Y-71100000D03*
X71877713Y-71072785D03*
X77000000Y-74200000D03*
X72400000Y-96600000D03*
X76600000Y-91600000D03*
X71877713Y-74200000D03*
X116349500Y-95350000D03*
X120949500Y-97350000D03*
X116349500Y-98250000D03*
X121000000Y-98900000D03*
X79750000Y-118700000D03*
X77003309Y-121488323D03*
X121000000Y-100550000D03*
X67050000Y-111450000D03*
X68150000Y-108900000D03*
X80600000Y-69450000D03*
X117200000Y-91600500D03*
X118750000Y-100300000D03*
X113800000Y-94249500D03*
X82677464Y-68372536D03*
X78750000Y-117700000D03*
X75976596Y-120537288D03*
D12*
X115250000Y-94681870D02*
X115250000Y-96050000D01*
X116731870Y-93200000D02*
X115250000Y-94681870D01*
X115250000Y-96050000D02*
X115947607Y-96747607D01*
X121725000Y-93200000D02*
X116731870Y-93200000D01*
X76900000Y-72550000D02*
X71800000Y-72550000D01*
X74957848Y-119577725D02*
X74957848Y-119092152D01*
X115947607Y-96747607D02*
X116276677Y-96747607D01*
X78450000Y-115600000D02*
X78500000Y-115600000D01*
X74957848Y-119092152D02*
X78450000Y-115600000D01*
X121975000Y-93450000D02*
X121725000Y-93200000D01*
X77000000Y-72650000D02*
X76900000Y-72550000D01*
X71904928Y-71100000D02*
X76950000Y-71100000D01*
X71877713Y-71072785D02*
X71904928Y-71100000D01*
X72400000Y-95800000D02*
X76600000Y-91600000D01*
X72400000Y-96600000D02*
X72400000Y-95800000D01*
X77000000Y-74200000D02*
X71800000Y-74200000D01*
X116349500Y-95350000D02*
X118949500Y-95350000D01*
X118949500Y-95350000D02*
X120949500Y-97350000D01*
X116200000Y-98250000D02*
X116850000Y-98900000D01*
X116850000Y-98900000D02*
X121000000Y-98900000D01*
X79750000Y-118700000D02*
X77003309Y-121446691D01*
X77003309Y-121446691D02*
X77003309Y-121488323D01*
X119000000Y-100550000D02*
X118750000Y-100300000D01*
X81600000Y-69450000D02*
X82677464Y-68372536D01*
X121000000Y-100550000D02*
X119000000Y-100550000D01*
X80600000Y-69450000D02*
X81600000Y-69450000D01*
X114551000Y-94249500D02*
X117200000Y-91600500D01*
X68150000Y-108900000D02*
X67050000Y-110000000D01*
X113800000Y-94249500D02*
X114551000Y-94249500D01*
X67050000Y-110000000D02*
X67050000Y-111450000D01*
X76012712Y-120537288D02*
X78750000Y-117800000D01*
X78750000Y-117800000D02*
X78750000Y-117700000D01*
X75976596Y-120537288D02*
X76012712Y-120537288D01*
G04 #@! TA.AperFunction,Conductor*
G36*
X73311781Y-61627295D02*
G01*
X73317494Y-61630389D01*
X82711099Y-67040584D01*
X82759368Y-67091100D01*
X82772663Y-67159693D01*
X82746763Y-67224585D01*
X82689892Y-67265173D01*
X82649212Y-67272036D01*
X82575488Y-67272036D01*
X82375008Y-67309512D01*
X82375005Y-67309512D01*
X82375005Y-67309513D01*
X82184828Y-67383187D01*
X82184821Y-67383191D01*
X82011424Y-67490553D01*
X82011422Y-67490555D01*
X81860701Y-67627954D01*
X81737791Y-67790714D01*
X81646886Y-67973275D01*
X81646881Y-67973288D01*
X81591066Y-68169454D01*
X81579123Y-68298347D01*
X81553337Y-68363285D01*
X81543333Y-68374587D01*
X81387284Y-68530636D01*
X81325961Y-68564121D01*
X81256269Y-68559137D01*
X81234330Y-68548384D01*
X81092637Y-68460652D01*
X81092635Y-68460651D01*
X80997546Y-68423814D01*
X80902456Y-68386976D01*
X80701976Y-68349500D01*
X80498024Y-68349500D01*
X80297544Y-68386976D01*
X80297541Y-68386976D01*
X80297541Y-68386977D01*
X80107364Y-68460651D01*
X80107357Y-68460655D01*
X79933960Y-68568017D01*
X79933958Y-68568019D01*
X79783237Y-68705418D01*
X79660327Y-68868178D01*
X79569422Y-69050739D01*
X79569417Y-69050752D01*
X79513602Y-69246917D01*
X79494785Y-69449999D01*
X79494785Y-69450000D01*
X79513602Y-69653082D01*
X79569417Y-69849247D01*
X79569422Y-69849260D01*
X79660327Y-70031821D01*
X79783237Y-70194581D01*
X79933958Y-70331980D01*
X79933960Y-70331982D01*
X79933962Y-70331983D01*
X80107363Y-70439348D01*
X80297544Y-70513024D01*
X80498024Y-70550500D01*
X80498026Y-70550500D01*
X80701974Y-70550500D01*
X80701976Y-70550500D01*
X80902456Y-70513024D01*
X81092637Y-70439348D01*
X81266041Y-70331981D01*
X81319922Y-70282861D01*
X81382724Y-70252246D01*
X81403459Y-70250500D01*
X81690194Y-70250500D01*
X81730905Y-70241208D01*
X81737760Y-70240043D01*
X81779255Y-70235368D01*
X81818680Y-70221571D01*
X81825321Y-70219658D01*
X81866061Y-70210360D01*
X81903693Y-70192236D01*
X81910105Y-70189580D01*
X81949522Y-70175789D01*
X81984889Y-70153565D01*
X81990961Y-70150209D01*
X82028587Y-70132091D01*
X82061236Y-70106052D01*
X82066895Y-70102037D01*
X82102262Y-70079816D01*
X82229816Y-69952262D01*
X82672723Y-69509355D01*
X82734046Y-69475870D01*
X82760404Y-69473036D01*
X82779438Y-69473036D01*
X82779440Y-69473036D01*
X82979920Y-69435560D01*
X83170101Y-69361884D01*
X83343505Y-69254517D01*
X83494228Y-69117115D01*
X83617137Y-68954357D01*
X83708046Y-68771786D01*
X83763861Y-68575619D01*
X83782679Y-68372536D01*
X83780544Y-68349500D01*
X83763861Y-68169453D01*
X83708046Y-67973286D01*
X83640869Y-67838377D01*
X83628609Y-67769592D01*
X83655482Y-67705097D01*
X83712958Y-67665370D01*
X83782788Y-67663022D01*
X83813757Y-67675654D01*
X123838896Y-90727914D01*
X123857358Y-90739346D01*
X123862496Y-90741904D01*
X123862367Y-90742162D01*
X123869823Y-90745726D01*
X126237566Y-92109415D01*
X126285832Y-92159928D01*
X126299663Y-92215093D01*
X126346581Y-95499254D01*
X126346949Y-95524984D01*
X126389278Y-98488082D01*
X126370553Y-98555396D01*
X126327364Y-98597198D01*
X125474686Y-99090267D01*
X125000714Y-99364345D01*
X124990600Y-99370943D01*
X124977971Y-99379181D01*
X124977970Y-99379181D01*
X124977963Y-99379185D01*
X124977960Y-99379188D01*
X124934586Y-99410928D01*
X124913554Y-99428127D01*
X124913543Y-99428136D01*
X124883674Y-99455365D01*
X124868588Y-99469118D01*
X124850330Y-99482906D01*
X124776117Y-99528856D01*
X124755634Y-99539055D01*
X124619140Y-99591934D01*
X124601197Y-99599695D01*
X124566315Y-99616413D01*
X124549023Y-99625538D01*
X123859499Y-100024261D01*
X123601230Y-100173607D01*
X123572042Y-100190485D01*
X123572040Y-100190486D01*
X123552804Y-100203033D01*
X123549279Y-100205333D01*
X123549280Y-100205333D01*
X123505902Y-100237076D01*
X123492451Y-100248075D01*
X123484875Y-100254271D01*
X123484870Y-100254275D01*
X123484867Y-100254278D01*
X123484866Y-100254279D01*
X123468588Y-100269118D01*
X123450332Y-100282905D01*
X123376119Y-100328855D01*
X123355642Y-100339051D01*
X123269233Y-100372527D01*
X123251289Y-100380288D01*
X123216408Y-100397007D01*
X123199115Y-100406132D01*
X122250589Y-100954623D01*
X122182700Y-100971142D01*
X122116658Y-100948334D01*
X122073430Y-100893442D01*
X122066741Y-100823894D01*
X122069240Y-100813381D01*
X122086397Y-100753083D01*
X122105215Y-100550000D01*
X122086397Y-100346917D01*
X122030582Y-100150750D01*
X121939673Y-99968179D01*
X121816764Y-99805421D01*
X121816763Y-99805420D01*
X121813309Y-99800846D01*
X121815178Y-99799434D01*
X121788997Y-99745788D01*
X121797164Y-99676397D01*
X121814226Y-99649846D01*
X121813309Y-99649154D01*
X121818532Y-99642238D01*
X121939673Y-99481821D01*
X122030582Y-99299250D01*
X122086397Y-99103083D01*
X122105215Y-98900000D01*
X122086397Y-98696917D01*
X122030582Y-98500750D01*
X122024274Y-98488082D01*
X121986272Y-98411764D01*
X121939673Y-98318179D01*
X121824972Y-98166290D01*
X121800280Y-98100928D01*
X121814845Y-98032594D01*
X121824967Y-98016842D01*
X121889173Y-97931821D01*
X121980082Y-97749250D01*
X122035897Y-97553083D01*
X122054715Y-97350000D01*
X122052808Y-97329425D01*
X122035897Y-97146917D01*
X121993884Y-96999260D01*
X121980082Y-96950750D01*
X121980052Y-96950690D01*
X121906553Y-96803083D01*
X121889173Y-96768179D01*
X121766264Y-96605421D01*
X121766262Y-96605418D01*
X121615541Y-96468019D01*
X121615539Y-96468017D01*
X121442142Y-96360655D01*
X121442135Y-96360651D01*
X121347046Y-96323814D01*
X121251956Y-96286976D01*
X121051476Y-96249500D01*
X121051474Y-96249500D01*
X121032440Y-96249500D01*
X120965401Y-96229815D01*
X120944759Y-96213181D01*
X119451762Y-94720184D01*
X119451759Y-94720182D01*
X119416404Y-94697966D01*
X119410729Y-94693940D01*
X119378089Y-94667910D01*
X119340459Y-94649787D01*
X119334372Y-94646422D01*
X119299025Y-94624212D01*
X119259614Y-94610421D01*
X119253188Y-94607759D01*
X119215561Y-94589639D01*
X119174845Y-94580345D01*
X119168162Y-94578420D01*
X119128759Y-94564632D01*
X119087263Y-94559955D01*
X119080408Y-94558791D01*
X119039700Y-94549501D01*
X119039696Y-94549500D01*
X119039694Y-94549500D01*
X119039691Y-94549500D01*
X117152959Y-94549500D01*
X117085920Y-94529815D01*
X117069427Y-94517143D01*
X117015541Y-94468019D01*
X117015538Y-94468017D01*
X117015537Y-94468016D01*
X117015538Y-94468016D01*
X116889488Y-94389970D01*
X116842852Y-94337942D01*
X116831748Y-94268960D01*
X116859701Y-94204926D01*
X116867058Y-94196889D01*
X117027130Y-94036816D01*
X117088453Y-94003334D01*
X117114810Y-94000500D01*
X120949930Y-94000500D01*
X121016969Y-94020185D01*
X121048884Y-94049773D01*
X121158237Y-94194581D01*
X121308958Y-94331980D01*
X121308960Y-94331982D01*
X121318586Y-94337942D01*
X121482363Y-94439348D01*
X121672544Y-94513024D01*
X121873024Y-94550500D01*
X121873026Y-94550500D01*
X122076974Y-94550500D01*
X122076976Y-94550500D01*
X122277456Y-94513024D01*
X122467637Y-94439348D01*
X122641041Y-94331981D01*
X122791764Y-94194579D01*
X122914673Y-94031821D01*
X123005582Y-93849250D01*
X123061397Y-93653083D01*
X123080215Y-93450000D01*
X123061397Y-93246917D01*
X123005582Y-93050750D01*
X122914673Y-92868179D01*
X122791764Y-92705421D01*
X122791762Y-92705418D01*
X122641041Y-92568019D01*
X122641039Y-92568017D01*
X122467642Y-92460655D01*
X122467635Y-92460651D01*
X122288168Y-92391126D01*
X122277456Y-92386976D01*
X122076976Y-92349500D01*
X121873024Y-92349500D01*
X121672544Y-92386976D01*
X121672542Y-92386976D01*
X121672540Y-92386977D01*
X121667010Y-92389119D01*
X121661830Y-92391126D01*
X121617038Y-92399500D01*
X118224693Y-92399500D01*
X118157654Y-92379815D01*
X118111899Y-92327011D01*
X118101955Y-92257853D01*
X118125738Y-92200774D01*
X118126073Y-92200329D01*
X118139673Y-92182321D01*
X118230582Y-91999750D01*
X118286397Y-91803583D01*
X118305215Y-91600500D01*
X118304311Y-91590749D01*
X118286397Y-91397417D01*
X118260002Y-91304649D01*
X118230582Y-91201250D01*
X118230334Y-91200752D01*
X118148739Y-91036887D01*
X118139673Y-91018679D01*
X118063427Y-90917713D01*
X118016762Y-90855918D01*
X117866041Y-90718519D01*
X117866039Y-90718517D01*
X117692642Y-90611155D01*
X117692635Y-90611151D01*
X117597546Y-90574314D01*
X117502456Y-90537476D01*
X117301976Y-90500000D01*
X117098024Y-90500000D01*
X116897544Y-90537476D01*
X116897541Y-90537476D01*
X116897541Y-90537477D01*
X116707364Y-90611151D01*
X116707357Y-90611155D01*
X116533960Y-90718517D01*
X116533958Y-90718519D01*
X116383237Y-90855918D01*
X116260327Y-91018678D01*
X116169422Y-91201239D01*
X116169417Y-91201252D01*
X116113602Y-91397418D01*
X116101659Y-91526311D01*
X116075873Y-91591249D01*
X116065869Y-91602551D01*
X114432918Y-93235502D01*
X114371595Y-93268987D01*
X114301903Y-93264003D01*
X114296304Y-93261572D01*
X114155779Y-93207133D01*
X114102456Y-93186476D01*
X113901976Y-93149000D01*
X113698024Y-93149000D01*
X113497544Y-93186476D01*
X113497541Y-93186476D01*
X113497541Y-93186477D01*
X113307364Y-93260151D01*
X113307357Y-93260155D01*
X113133960Y-93367517D01*
X113133958Y-93367519D01*
X112983237Y-93504918D01*
X112860327Y-93667678D01*
X112769422Y-93850239D01*
X112769417Y-93850252D01*
X112713602Y-94046417D01*
X112694785Y-94249499D01*
X112694785Y-94249500D01*
X112713602Y-94452582D01*
X112769417Y-94648747D01*
X112769422Y-94648760D01*
X112860327Y-94831321D01*
X112983237Y-94994081D01*
X113133958Y-95131480D01*
X113133960Y-95131482D01*
X113215022Y-95181673D01*
X113307363Y-95238848D01*
X113497544Y-95312524D01*
X113698024Y-95350000D01*
X113698026Y-95350000D01*
X113901974Y-95350000D01*
X113901976Y-95350000D01*
X114102456Y-95312524D01*
X114280706Y-95243469D01*
X114350330Y-95237608D01*
X114412070Y-95270318D01*
X114446325Y-95331215D01*
X114449500Y-95359097D01*
X114449500Y-96140191D01*
X114449501Y-96140200D01*
X114458791Y-96180908D01*
X114459955Y-96187763D01*
X114464632Y-96229259D01*
X114478420Y-96268662D01*
X114480345Y-96275345D01*
X114489639Y-96316061D01*
X114507759Y-96353688D01*
X114510421Y-96360114D01*
X114524212Y-96399525D01*
X114546422Y-96434872D01*
X114549787Y-96440959D01*
X114567910Y-96478589D01*
X114593940Y-96511229D01*
X114597966Y-96516904D01*
X114615322Y-96544524D01*
X114620184Y-96552262D01*
X114652174Y-96584252D01*
X115317791Y-97249869D01*
X115445266Y-97377344D01*
X115450903Y-97383822D01*
X115481301Y-97424077D01*
X115505993Y-97489438D01*
X115491428Y-97557773D01*
X115481302Y-97573529D01*
X115409827Y-97668178D01*
X115318922Y-97850739D01*
X115318917Y-97850752D01*
X115263102Y-98046917D01*
X115244285Y-98249999D01*
X115244285Y-98250000D01*
X115263102Y-98453082D01*
X115318917Y-98649247D01*
X115318922Y-98649260D01*
X115409827Y-98831821D01*
X115532737Y-98994581D01*
X115683458Y-99131980D01*
X115683460Y-99131982D01*
X115782641Y-99193392D01*
X115856863Y-99239348D01*
X116047044Y-99313024D01*
X116112491Y-99325257D01*
X116174771Y-99356925D01*
X116177387Y-99359465D01*
X116347739Y-99529817D01*
X116347742Y-99529819D01*
X116383089Y-99552029D01*
X116388763Y-99556055D01*
X116420957Y-99581728D01*
X116421414Y-99582092D01*
X116438435Y-99590289D01*
X116459033Y-99600209D01*
X116465122Y-99603574D01*
X116500471Y-99625785D01*
X116500474Y-99625786D01*
X116500478Y-99625789D01*
X116539899Y-99639583D01*
X116546307Y-99642238D01*
X116583939Y-99660360D01*
X116624641Y-99669650D01*
X116631328Y-99671576D01*
X116670742Y-99685367D01*
X116670745Y-99685368D01*
X116712241Y-99690043D01*
X116719093Y-99691207D01*
X116759806Y-99700500D01*
X116805046Y-99700500D01*
X117618863Y-99700500D01*
X117685902Y-99720185D01*
X117731657Y-99772989D01*
X117741601Y-99842147D01*
X117729864Y-99879771D01*
X117719421Y-99900743D01*
X117719417Y-99900752D01*
X117663602Y-100096917D01*
X117644785Y-100299999D01*
X117644785Y-100300000D01*
X117663602Y-100503082D01*
X117719417Y-100699247D01*
X117719422Y-100699260D01*
X117810327Y-100881821D01*
X117933237Y-101044581D01*
X118083958Y-101181980D01*
X118083960Y-101181982D01*
X118183141Y-101243392D01*
X118257363Y-101289348D01*
X118447544Y-101363024D01*
X118648024Y-101400500D01*
X118648026Y-101400500D01*
X118851974Y-101400500D01*
X118851976Y-101400500D01*
X119052456Y-101363024D01*
X119063169Y-101358873D01*
X119107962Y-101350500D01*
X120196541Y-101350500D01*
X120263580Y-101370185D01*
X120280072Y-101382856D01*
X120333959Y-101431981D01*
X120507363Y-101539348D01*
X120697544Y-101613024D01*
X120702890Y-101615095D01*
X120702082Y-101617180D01*
X120752906Y-101649247D01*
X120782460Y-101712558D01*
X120773094Y-101781797D01*
X120727781Y-101834981D01*
X120721947Y-101838573D01*
X62186573Y-135687092D01*
X62118684Y-135703611D01*
X62052642Y-135680803D01*
X62009414Y-135625911D01*
X62000500Y-135579747D01*
X62000500Y-129717763D01*
X63695787Y-129717763D01*
X63725413Y-129987013D01*
X63725415Y-129987024D01*
X63793926Y-130249082D01*
X63793928Y-130249088D01*
X63899870Y-130498390D01*
X63971998Y-130616575D01*
X64040979Y-130729605D01*
X64040986Y-130729615D01*
X64214253Y-130937819D01*
X64214259Y-130937824D01*
X64415998Y-131118582D01*
X64641910Y-131268044D01*
X64887176Y-131383020D01*
X64887183Y-131383022D01*
X64887185Y-131383023D01*
X65146557Y-131461057D01*
X65146564Y-131461058D01*
X65146569Y-131461060D01*
X65414561Y-131500500D01*
X65414566Y-131500500D01*
X65617636Y-131500500D01*
X65669133Y-131496730D01*
X65820156Y-131485677D01*
X65932758Y-131460593D01*
X66084546Y-131426782D01*
X66084548Y-131426781D01*
X66084553Y-131426780D01*
X66337558Y-131330014D01*
X66573777Y-131197441D01*
X66788177Y-131031888D01*
X66976186Y-130836881D01*
X67133799Y-130616579D01*
X67207787Y-130472669D01*
X67257649Y-130375690D01*
X67257651Y-130375684D01*
X67257656Y-130375675D01*
X67345118Y-130119305D01*
X67394319Y-129852933D01*
X67404212Y-129582235D01*
X67374586Y-129312982D01*
X67306072Y-129050912D01*
X67200130Y-128801610D01*
X67059018Y-128570390D01*
X66969747Y-128463119D01*
X66885746Y-128362180D01*
X66885740Y-128362175D01*
X66684002Y-128181418D01*
X66458092Y-128031957D01*
X66458090Y-128031956D01*
X66212824Y-127916980D01*
X66212819Y-127916978D01*
X66212814Y-127916976D01*
X65953442Y-127838942D01*
X65953428Y-127838939D01*
X65837791Y-127821921D01*
X65685439Y-127799500D01*
X65482369Y-127799500D01*
X65482364Y-127799500D01*
X65279844Y-127814323D01*
X65279831Y-127814325D01*
X65015453Y-127873217D01*
X65015446Y-127873220D01*
X64762439Y-127969987D01*
X64526226Y-128102557D01*
X64311822Y-128268112D01*
X64123822Y-128463109D01*
X64123816Y-128463116D01*
X63966202Y-128683419D01*
X63966199Y-128683424D01*
X63842350Y-128924309D01*
X63842343Y-128924327D01*
X63754884Y-129180685D01*
X63754881Y-129180699D01*
X63705681Y-129447068D01*
X63705680Y-129447075D01*
X63695787Y-129717763D01*
X62000500Y-129717763D01*
X62000500Y-119577725D01*
X73852633Y-119577725D01*
X73871450Y-119780807D01*
X73927265Y-119976972D01*
X73927270Y-119976985D01*
X74018175Y-120159546D01*
X74141085Y-120322306D01*
X74291806Y-120459705D01*
X74291808Y-120459707D01*
X74390989Y-120521117D01*
X74465211Y-120567073D01*
X74655392Y-120640749D01*
X74797982Y-120667403D01*
X74860262Y-120699071D01*
X74894462Y-120755357D01*
X74946013Y-120936535D01*
X74946018Y-120936548D01*
X75036923Y-121119109D01*
X75159833Y-121281869D01*
X75310554Y-121419268D01*
X75310556Y-121419270D01*
X75409737Y-121480680D01*
X75483959Y-121526636D01*
X75674140Y-121600312D01*
X75827706Y-121629018D01*
X75889986Y-121660685D01*
X75924186Y-121716971D01*
X75972726Y-121887570D01*
X75972731Y-121887583D01*
X76063636Y-122070144D01*
X76186546Y-122232904D01*
X76337267Y-122370303D01*
X76337269Y-122370305D01*
X76436450Y-122431715D01*
X76510672Y-122477671D01*
X76700853Y-122551347D01*
X76901333Y-122588823D01*
X76901335Y-122588823D01*
X77105283Y-122588823D01*
X77105285Y-122588823D01*
X77305765Y-122551347D01*
X77495946Y-122477671D01*
X77669350Y-122370304D01*
X77820073Y-122232902D01*
X77942982Y-122070144D01*
X78033891Y-121887573D01*
X78089706Y-121691406D01*
X78105901Y-121516623D01*
X78131687Y-121451688D01*
X78141683Y-121440393D01*
X79745258Y-119836819D01*
X79806581Y-119803334D01*
X79832939Y-119800500D01*
X79851974Y-119800500D01*
X79851976Y-119800500D01*
X80052456Y-119763024D01*
X80242637Y-119689348D01*
X80416041Y-119581981D01*
X80566764Y-119444579D01*
X80689673Y-119281821D01*
X80780582Y-119099250D01*
X80836397Y-118903083D01*
X80855215Y-118700000D01*
X80836397Y-118496917D01*
X80780582Y-118300750D01*
X80689673Y-118118179D01*
X80566764Y-117955421D01*
X80566762Y-117955418D01*
X80416041Y-117818019D01*
X80416039Y-117818017D01*
X80242642Y-117710655D01*
X80242635Y-117710651D01*
X80147546Y-117673814D01*
X80052456Y-117636976D01*
X79937840Y-117615550D01*
X79875560Y-117583883D01*
X79840287Y-117523570D01*
X79837155Y-117505098D01*
X79836397Y-117496917D01*
X79780582Y-117300750D01*
X79689673Y-117118179D01*
X79566764Y-116955421D01*
X79566762Y-116955418D01*
X79416041Y-116818019D01*
X79416039Y-116818017D01*
X79242642Y-116710655D01*
X79242640Y-116710654D01*
X79242637Y-116710652D01*
X79242634Y-116710651D01*
X79242629Y-116710648D01*
X79199462Y-116693925D01*
X79144061Y-116651352D01*
X79120471Y-116585585D01*
X79136183Y-116517504D01*
X79162858Y-116486999D01*
X79161805Y-116485843D01*
X79316762Y-116344581D01*
X79316764Y-116344579D01*
X79439673Y-116181821D01*
X79530582Y-115999250D01*
X79586397Y-115803083D01*
X79605215Y-115600000D01*
X79586397Y-115396917D01*
X79530582Y-115200750D01*
X79439673Y-115018179D01*
X79316764Y-114855421D01*
X79316762Y-114855418D01*
X79166041Y-114718019D01*
X79166039Y-114718017D01*
X78992642Y-114610655D01*
X78992635Y-114610651D01*
X78897546Y-114573814D01*
X78802456Y-114536976D01*
X78601976Y-114499500D01*
X78398024Y-114499500D01*
X78197544Y-114536976D01*
X78197541Y-114536976D01*
X78197541Y-114536977D01*
X78007364Y-114610651D01*
X78007357Y-114610655D01*
X77833960Y-114718017D01*
X77833958Y-114718019D01*
X77683237Y-114855418D01*
X77560327Y-115018178D01*
X77469422Y-115200739D01*
X77469417Y-115200752D01*
X77413603Y-115396916D01*
X77406765Y-115470706D01*
X77380978Y-115535643D01*
X77370975Y-115546945D01*
X74455586Y-118462336D01*
X74328034Y-118589887D01*
X74328031Y-118589891D01*
X74305814Y-118625248D01*
X74301789Y-118630921D01*
X74275757Y-118663563D01*
X74261068Y-118694065D01*
X74258211Y-118699999D01*
X74257639Y-118701186D01*
X74254274Y-118707274D01*
X74229891Y-118746079D01*
X74208437Y-118771743D01*
X74141086Y-118833143D01*
X74141086Y-118833144D01*
X74018175Y-118995903D01*
X73927270Y-119178464D01*
X73927265Y-119178477D01*
X73871450Y-119374642D01*
X73852633Y-119577724D01*
X73852633Y-119577725D01*
X62000500Y-119577725D01*
X62000500Y-111450000D01*
X65944785Y-111450000D01*
X65963602Y-111653082D01*
X66019417Y-111849247D01*
X66019422Y-111849260D01*
X66110327Y-112031821D01*
X66233237Y-112194581D01*
X66383958Y-112331980D01*
X66383960Y-112331982D01*
X66483141Y-112393392D01*
X66557363Y-112439348D01*
X66747544Y-112513024D01*
X66948024Y-112550500D01*
X66948026Y-112550500D01*
X67151974Y-112550500D01*
X67151976Y-112550500D01*
X67352456Y-112513024D01*
X67542637Y-112439348D01*
X67716041Y-112331981D01*
X67866764Y-112194579D01*
X67989673Y-112031821D01*
X68080582Y-111849250D01*
X68136397Y-111653083D01*
X68155215Y-111450000D01*
X68136397Y-111246917D01*
X68080582Y-111050750D01*
X67989673Y-110868179D01*
X67875546Y-110717050D01*
X67850854Y-110651688D01*
X67850500Y-110642323D01*
X67850500Y-110382940D01*
X67870185Y-110315901D01*
X67886819Y-110295259D01*
X68145259Y-110036819D01*
X68206582Y-110003334D01*
X68232940Y-110000500D01*
X68251974Y-110000500D01*
X68251976Y-110000500D01*
X68452456Y-109963024D01*
X68642637Y-109889348D01*
X68816041Y-109781981D01*
X68966764Y-109644579D01*
X69089673Y-109481821D01*
X69180582Y-109299250D01*
X69236397Y-109103083D01*
X69255215Y-108900000D01*
X69236397Y-108696917D01*
X69180582Y-108500750D01*
X69089673Y-108318179D01*
X68966764Y-108155421D01*
X68966762Y-108155418D01*
X68816041Y-108018019D01*
X68816039Y-108018017D01*
X68642642Y-107910655D01*
X68642635Y-107910651D01*
X68547546Y-107873814D01*
X68452456Y-107836976D01*
X68251976Y-107799500D01*
X68048024Y-107799500D01*
X67847544Y-107836976D01*
X67847541Y-107836976D01*
X67847541Y-107836977D01*
X67657364Y-107910651D01*
X67657357Y-107910655D01*
X67483960Y-108018017D01*
X67483958Y-108018019D01*
X67333237Y-108155418D01*
X67210327Y-108318178D01*
X67119422Y-108500739D01*
X67119417Y-108500752D01*
X67063602Y-108696918D01*
X67051659Y-108825812D01*
X67025873Y-108890750D01*
X67015869Y-108902052D01*
X66547738Y-109370184D01*
X66420186Y-109497735D01*
X66420183Y-109497739D01*
X66397966Y-109533096D01*
X66393941Y-109538769D01*
X66367910Y-109571410D01*
X66349791Y-109609033D01*
X66346427Y-109615120D01*
X66324212Y-109650476D01*
X66324208Y-109650483D01*
X66310416Y-109689895D01*
X66307755Y-109696320D01*
X66289639Y-109733939D01*
X66280344Y-109774659D01*
X66278419Y-109781341D01*
X66264632Y-109820744D01*
X66259955Y-109862235D01*
X66258791Y-109869089D01*
X66249500Y-109909806D01*
X66249500Y-110642323D01*
X66229815Y-110709362D01*
X66224454Y-110717050D01*
X66110327Y-110868178D01*
X66019422Y-111050739D01*
X66019417Y-111050752D01*
X65963602Y-111246917D01*
X65944785Y-111449999D01*
X65944785Y-111450000D01*
X62000500Y-111450000D01*
X62000500Y-100524500D01*
X62020185Y-100457461D01*
X62072989Y-100411706D01*
X62124500Y-100400500D01*
X62218327Y-100400500D01*
X62653318Y-100362443D01*
X63083337Y-100286619D01*
X63231570Y-100246899D01*
X63505104Y-100173608D01*
X63505104Y-100173607D01*
X63505112Y-100173605D01*
X63915432Y-100024261D01*
X63915431Y-100024261D01*
X63915443Y-100024257D01*
X64311172Y-99839725D01*
X64311172Y-99839724D01*
X64380957Y-99799434D01*
X64689326Y-99621397D01*
X64689326Y-99621396D01*
X64689331Y-99621394D01*
X64965332Y-99428136D01*
X65047012Y-99370943D01*
X65047013Y-99370942D01*
X65047013Y-99370943D01*
X65381508Y-99090267D01*
X65690267Y-98781508D01*
X65970943Y-98447013D01*
X65970942Y-98447013D01*
X65970943Y-98447012D01*
X66108893Y-98249999D01*
X66221394Y-98089331D01*
X66254151Y-98032594D01*
X66439723Y-97711174D01*
X66439724Y-97711172D01*
X66439725Y-97711172D01*
X66624257Y-97315443D01*
X66685595Y-97146917D01*
X66773605Y-96905112D01*
X66773607Y-96905104D01*
X66773608Y-96905104D01*
X66853907Y-96605421D01*
X66886619Y-96483337D01*
X66962443Y-96053318D01*
X67000500Y-95618327D01*
X67000500Y-95181673D01*
X66962443Y-94746682D01*
X66886619Y-94316663D01*
X66830181Y-94106034D01*
X66773608Y-93894896D01*
X66773607Y-93894896D01*
X66773605Y-93894888D01*
X66624261Y-93484568D01*
X66624257Y-93484557D01*
X66439725Y-93088828D01*
X66439724Y-93088828D01*
X66439723Y-93088826D01*
X66221397Y-92710674D01*
X66221396Y-92710673D01*
X66221394Y-92710669D01*
X65994742Y-92386977D01*
X65970943Y-92352988D01*
X65970942Y-92352987D01*
X65970943Y-92352987D01*
X65690267Y-92018492D01*
X65381508Y-91709733D01*
X65047013Y-91429057D01*
X65047013Y-91429058D01*
X65047012Y-91429057D01*
X64869339Y-91304649D01*
X64689331Y-91178606D01*
X64443867Y-91036887D01*
X64395651Y-90986320D01*
X64382428Y-90917713D01*
X64408397Y-90852848D01*
X64465311Y-90812320D01*
X64505867Y-90805500D01*
X69559298Y-90805500D01*
X69582082Y-90807610D01*
X69758024Y-90840500D01*
X69758026Y-90840500D01*
X69961974Y-90840500D01*
X69961976Y-90840500D01*
X70137917Y-90807610D01*
X70160702Y-90805500D01*
X70829298Y-90805500D01*
X70852082Y-90807610D01*
X71028024Y-90840500D01*
X71028026Y-90840500D01*
X71231974Y-90840500D01*
X71231976Y-90840500D01*
X71407917Y-90807610D01*
X71430702Y-90805500D01*
X72099298Y-90805500D01*
X72122082Y-90807610D01*
X72298024Y-90840500D01*
X72298026Y-90840500D01*
X72501974Y-90840500D01*
X72501976Y-90840500D01*
X72677917Y-90807610D01*
X72700702Y-90805500D01*
X73369298Y-90805500D01*
X73392082Y-90807610D01*
X73568024Y-90840500D01*
X73568026Y-90840500D01*
X73771974Y-90840500D01*
X73771976Y-90840500D01*
X73947917Y-90807610D01*
X73970702Y-90805500D01*
X74200000Y-90805500D01*
X75571909Y-90805500D01*
X75638948Y-90825185D01*
X75684703Y-90877989D01*
X75694647Y-90947147D01*
X75670863Y-91004227D01*
X75660327Y-91018178D01*
X75569422Y-91200739D01*
X75569417Y-91200752D01*
X75513602Y-91396918D01*
X75501659Y-91525811D01*
X75475873Y-91590749D01*
X75465869Y-91602051D01*
X71897738Y-95170184D01*
X71770186Y-95297735D01*
X71770183Y-95297739D01*
X71747966Y-95333096D01*
X71743941Y-95338769D01*
X71717910Y-95371410D01*
X71699791Y-95409033D01*
X71696427Y-95415120D01*
X71674212Y-95450476D01*
X71674208Y-95450483D01*
X71660416Y-95489895D01*
X71657755Y-95496320D01*
X71639639Y-95533939D01*
X71630344Y-95574659D01*
X71628419Y-95581341D01*
X71614632Y-95620744D01*
X71609955Y-95662235D01*
X71608791Y-95669089D01*
X71599500Y-95709806D01*
X71599500Y-95792323D01*
X71579815Y-95859362D01*
X71574454Y-95867050D01*
X71460327Y-96018178D01*
X71369422Y-96200739D01*
X71369417Y-96200752D01*
X71313602Y-96396917D01*
X71294785Y-96599999D01*
X71294785Y-96600000D01*
X71313602Y-96803082D01*
X71369417Y-96999247D01*
X71369422Y-96999260D01*
X71460327Y-97181821D01*
X71583237Y-97344581D01*
X71733958Y-97481980D01*
X71733960Y-97481982D01*
X71833141Y-97543392D01*
X71907363Y-97589348D01*
X72097544Y-97663024D01*
X72298024Y-97700500D01*
X72298026Y-97700500D01*
X72501974Y-97700500D01*
X72501976Y-97700500D01*
X72702456Y-97663024D01*
X72892637Y-97589348D01*
X73066041Y-97481981D01*
X73194122Y-97365219D01*
X73216762Y-97344581D01*
X73228205Y-97329428D01*
X73339673Y-97181821D01*
X73430582Y-96999250D01*
X73486397Y-96803083D01*
X73505215Y-96600000D01*
X73486397Y-96396917D01*
X73430582Y-96200750D01*
X73424115Y-96187763D01*
X73370873Y-96080837D01*
X73358612Y-96012051D01*
X73385485Y-95947556D01*
X73394182Y-95937894D01*
X76595259Y-92736819D01*
X76656582Y-92703334D01*
X76682940Y-92700500D01*
X76701974Y-92700500D01*
X76701976Y-92700500D01*
X76902456Y-92663024D01*
X77092637Y-92589348D01*
X77266041Y-92481981D01*
X77416764Y-92344579D01*
X77539673Y-92181821D01*
X77630582Y-91999250D01*
X77686397Y-91803083D01*
X77705215Y-91600000D01*
X77686397Y-91396917D01*
X77630582Y-91200750D01*
X77619554Y-91178603D01*
X77548988Y-91036887D01*
X77539673Y-91018179D01*
X77529137Y-91004227D01*
X77504445Y-90938866D01*
X77519010Y-90870531D01*
X77568207Y-90820918D01*
X77628091Y-90805500D01*
X91975875Y-90805500D01*
X92020668Y-90813873D01*
X92089402Y-90840500D01*
X92147544Y-90863024D01*
X92348024Y-90900500D01*
X92348026Y-90900500D01*
X92551974Y-90900500D01*
X92551976Y-90900500D01*
X92752456Y-90863024D01*
X92850131Y-90825185D01*
X92879332Y-90813873D01*
X92924125Y-90805500D01*
X93275875Y-90805500D01*
X93320668Y-90813873D01*
X93389402Y-90840500D01*
X93447544Y-90863024D01*
X93648024Y-90900500D01*
X93648026Y-90900500D01*
X93851974Y-90900500D01*
X93851976Y-90900500D01*
X94052456Y-90863024D01*
X94195266Y-90807699D01*
X94226792Y-90800039D01*
X94283456Y-90793947D01*
X94334967Y-90782741D01*
X94369197Y-90771347D01*
X94437497Y-90748616D01*
X94437501Y-90748613D01*
X94437504Y-90748613D01*
X94558543Y-90670825D01*
X94611347Y-90625070D01*
X94705567Y-90516336D01*
X94765338Y-90385459D01*
X94785023Y-90318420D01*
X94785024Y-90318416D01*
X94805500Y-90176000D01*
X94805500Y-90128970D01*
X94810234Y-90095035D01*
X94818490Y-90066018D01*
X94836397Y-90003083D01*
X94855215Y-89800000D01*
X94836397Y-89596917D01*
X94810234Y-89504964D01*
X94805500Y-89471030D01*
X94805500Y-88828970D01*
X94810234Y-88795035D01*
X94810419Y-88794384D01*
X94836397Y-88703083D01*
X94855215Y-88500000D01*
X94836397Y-88296917D01*
X94810234Y-88204964D01*
X94805500Y-88171030D01*
X94805500Y-88024010D01*
X94805500Y-88024000D01*
X94793947Y-87916544D01*
X94782741Y-87865033D01*
X94782637Y-87864722D01*
X94748616Y-87762502D01*
X94748613Y-87762496D01*
X94670828Y-87641462D01*
X94670825Y-87641457D01*
X94670820Y-87641451D01*
X94625076Y-87588659D01*
X94625072Y-87588656D01*
X94625070Y-87588653D01*
X94516336Y-87494433D01*
X94516333Y-87494431D01*
X94516331Y-87494430D01*
X94385465Y-87434664D01*
X94385460Y-87434662D01*
X94385459Y-87434662D01*
X94362858Y-87428025D01*
X94318425Y-87414978D01*
X94318419Y-87414976D01*
X94232966Y-87402690D01*
X94176000Y-87394500D01*
X94175998Y-87394500D01*
X76129500Y-87394500D01*
X76062461Y-87374815D01*
X76016706Y-87322011D01*
X76005500Y-87270500D01*
X76005500Y-84289976D01*
X76004856Y-84271940D01*
X75999133Y-84191924D01*
X75979944Y-84085568D01*
X75939929Y-83949291D01*
X75880161Y-83818416D01*
X75803374Y-83698932D01*
X75803373Y-83698931D01*
X75803369Y-83698927D01*
X75802676Y-83698067D01*
X75801930Y-83697266D01*
X75709152Y-83590193D01*
X75601813Y-83497183D01*
X75601811Y-83497181D01*
X75599712Y-83495779D01*
X75598991Y-83495369D01*
X75480778Y-83419399D01*
X75480774Y-83419397D01*
X75480771Y-83419395D01*
X75351576Y-83360394D01*
X75213526Y-83319858D01*
X75213519Y-83319856D01*
X75072944Y-83299645D01*
X75001000Y-83294500D01*
X69626263Y-83294500D01*
X69559224Y-83274815D01*
X69513469Y-83222011D01*
X69502265Y-83171139D01*
X69461121Y-75189344D01*
X69456021Y-74200000D01*
X70772498Y-74200000D01*
X70791315Y-74403082D01*
X70847130Y-74599247D01*
X70847135Y-74599260D01*
X70938040Y-74781821D01*
X71060950Y-74944581D01*
X71211671Y-75081980D01*
X71211673Y-75081982D01*
X71211675Y-75081983D01*
X71385076Y-75189348D01*
X71575257Y-75263024D01*
X71775737Y-75300500D01*
X71775739Y-75300500D01*
X71979687Y-75300500D01*
X71979689Y-75300500D01*
X72180169Y-75263024D01*
X72370350Y-75189348D01*
X72543754Y-75081981D01*
X72597635Y-75032861D01*
X72660437Y-75002246D01*
X72681172Y-75000500D01*
X76196541Y-75000500D01*
X76263580Y-75020185D01*
X76280072Y-75032856D01*
X76333959Y-75081981D01*
X76507363Y-75189348D01*
X76697544Y-75263024D01*
X76898024Y-75300500D01*
X76898026Y-75300500D01*
X77101974Y-75300500D01*
X77101976Y-75300500D01*
X77302456Y-75263024D01*
X77492637Y-75189348D01*
X77666041Y-75081981D01*
X77816764Y-74944579D01*
X77939673Y-74781821D01*
X78030582Y-74599250D01*
X78086397Y-74403083D01*
X78105215Y-74200000D01*
X78086397Y-73996917D01*
X78030582Y-73800750D01*
X77939673Y-73618179D01*
X77850221Y-73499726D01*
X77825530Y-73434366D01*
X77840095Y-73366031D01*
X77850222Y-73350273D01*
X77939673Y-73231821D01*
X78030582Y-73049250D01*
X78086397Y-72853083D01*
X78105215Y-72650000D01*
X78086397Y-72446917D01*
X78030582Y-72250750D01*
X77939673Y-72068179D01*
X77825222Y-71916621D01*
X77800530Y-71851259D01*
X77815095Y-71782925D01*
X77825217Y-71767173D01*
X77889673Y-71681821D01*
X77980582Y-71499250D01*
X78036397Y-71303083D01*
X78055215Y-71100000D01*
X78036397Y-70896917D01*
X77980582Y-70700750D01*
X77889673Y-70518179D01*
X77766764Y-70355421D01*
X77766762Y-70355418D01*
X77616041Y-70218019D01*
X77616039Y-70218017D01*
X77442642Y-70110655D01*
X77442635Y-70110651D01*
X77347546Y-70073814D01*
X77252456Y-70036976D01*
X77051976Y-69999500D01*
X76848024Y-69999500D01*
X76647544Y-70036976D01*
X76647541Y-70036976D01*
X76647541Y-70036977D01*
X76457364Y-70110651D01*
X76457357Y-70110655D01*
X76283962Y-70218016D01*
X76280055Y-70221578D01*
X76230077Y-70267138D01*
X76167276Y-70297754D01*
X76146541Y-70299500D01*
X72711026Y-70299500D01*
X72643987Y-70279815D01*
X72627488Y-70267137D01*
X72543754Y-70190804D01*
X72543752Y-70190802D01*
X72370355Y-70083440D01*
X72370348Y-70083436D01*
X72250422Y-70036977D01*
X72180169Y-70009761D01*
X71979689Y-69972285D01*
X71775737Y-69972285D01*
X71575257Y-70009761D01*
X71575254Y-70009761D01*
X71575254Y-70009762D01*
X71385077Y-70083436D01*
X71385070Y-70083440D01*
X71211673Y-70190802D01*
X71211671Y-70190804D01*
X71060950Y-70328203D01*
X70938040Y-70490963D01*
X70847135Y-70673524D01*
X70847130Y-70673537D01*
X70791315Y-70869702D01*
X70772498Y-71072784D01*
X70772498Y-71072785D01*
X70791315Y-71275867D01*
X70847130Y-71472032D01*
X70847135Y-71472045D01*
X70938040Y-71654606D01*
X71032628Y-71779861D01*
X71057320Y-71845223D01*
X71042755Y-71913557D01*
X71032628Y-71929314D01*
X70938041Y-72054567D01*
X70847135Y-72237131D01*
X70847130Y-72237144D01*
X70791315Y-72433309D01*
X70772498Y-72636391D01*
X70772498Y-72636392D01*
X70791315Y-72839474D01*
X70847130Y-73035639D01*
X70847135Y-73035652D01*
X70938041Y-73218216D01*
X71032628Y-73343470D01*
X71057320Y-73408831D01*
X71042755Y-73477166D01*
X71032628Y-73492922D01*
X70938041Y-73618175D01*
X70847135Y-73800739D01*
X70847130Y-73800752D01*
X70791315Y-73996917D01*
X70772498Y-74199999D01*
X70772498Y-74200000D01*
X69456021Y-74200000D01*
X69407066Y-64702912D01*
X69426404Y-64635773D01*
X69453841Y-64605255D01*
X73178388Y-61640819D01*
X73243098Y-61614474D01*
X73311781Y-61627295D01*
G37*
G04 #@! TD.AperFunction*
G04 #@! TA.AperFunction,Conductor*
G36*
X62186499Y-46508252D02*
G01*
X114921180Y-76954634D01*
X118358464Y-78939151D01*
X138138022Y-90364200D01*
X138186227Y-90414777D01*
X138200000Y-90471575D01*
X138200000Y-100278356D01*
X138180315Y-100345395D01*
X138137932Y-100385782D01*
X62186432Y-144172579D01*
X62118522Y-144189009D01*
X62052509Y-144166115D01*
X62009353Y-144111167D01*
X62000500Y-144065153D01*
X62000500Y-143534797D01*
X62049511Y-136420965D01*
X62069657Y-136354062D01*
X62111432Y-136314475D01*
X123443701Y-100848630D01*
X123460952Y-100840362D01*
X123592637Y-100789348D01*
X123766041Y-100681981D01*
X123815394Y-100636988D01*
X123836844Y-100621292D01*
X124793609Y-100068036D01*
X124810860Y-100059768D01*
X124992637Y-99989348D01*
X125166041Y-99881981D01*
X125244072Y-99810845D01*
X125265521Y-99795149D01*
X126900000Y-98850000D01*
X126852397Y-95517763D01*
X132295787Y-95517763D01*
X132325413Y-95787013D01*
X132325415Y-95787024D01*
X132382008Y-96003494D01*
X132393928Y-96049088D01*
X132499870Y-96298390D01*
X132609843Y-96478587D01*
X132640979Y-96529605D01*
X132640986Y-96529615D01*
X132814253Y-96737819D01*
X132814259Y-96737824D01*
X132887093Y-96803083D01*
X133015998Y-96918582D01*
X133241910Y-97068044D01*
X133487176Y-97183020D01*
X133487183Y-97183022D01*
X133487185Y-97183023D01*
X133746557Y-97261057D01*
X133746564Y-97261058D01*
X133746569Y-97261060D01*
X134014561Y-97300500D01*
X134014566Y-97300500D01*
X134217636Y-97300500D01*
X134269133Y-97296730D01*
X134420156Y-97285677D01*
X134532758Y-97260593D01*
X134684546Y-97226782D01*
X134684548Y-97226781D01*
X134684553Y-97226780D01*
X134937558Y-97130014D01*
X135173777Y-96997441D01*
X135388177Y-96831888D01*
X135576186Y-96636881D01*
X135733799Y-96416579D01*
X135835053Y-96219639D01*
X135857649Y-96175690D01*
X135857651Y-96175684D01*
X135857656Y-96175675D01*
X135945118Y-95919305D01*
X135994319Y-95652933D01*
X136004212Y-95382235D01*
X135974586Y-95112982D01*
X135906072Y-94850912D01*
X135800130Y-94601610D01*
X135659018Y-94370390D01*
X135627054Y-94331981D01*
X135485746Y-94162180D01*
X135485740Y-94162175D01*
X135284002Y-93981418D01*
X135058092Y-93831957D01*
X135058090Y-93831956D01*
X134812824Y-93716980D01*
X134812819Y-93716978D01*
X134812814Y-93716976D01*
X134553442Y-93638942D01*
X134553428Y-93638939D01*
X134437791Y-93621921D01*
X134285439Y-93599500D01*
X134082369Y-93599500D01*
X134082364Y-93599500D01*
X133879844Y-93614323D01*
X133879831Y-93614325D01*
X133615453Y-93673217D01*
X133615446Y-93673220D01*
X133362439Y-93769987D01*
X133126226Y-93902557D01*
X132911822Y-94068112D01*
X132723822Y-94263109D01*
X132723816Y-94263116D01*
X132566202Y-94483419D01*
X132566199Y-94483424D01*
X132442350Y-94724309D01*
X132442343Y-94724327D01*
X132354884Y-94980685D01*
X132354881Y-94980699D01*
X132305681Y-95247068D01*
X132305680Y-95247075D01*
X132295787Y-95517763D01*
X126852397Y-95517763D01*
X126800000Y-91850000D01*
X126799999Y-91849999D01*
X73198671Y-60978608D01*
X73800000Y-60500000D01*
X62000500Y-54027700D01*
X62000500Y-46615640D01*
X62020185Y-46548601D01*
X62072989Y-46502846D01*
X62142147Y-46492902D01*
X62186499Y-46508252D01*
G37*
G04 #@! TD.AperFunction*
G04 #@! TA.AperFunction,Conductor*
G36*
X73800000Y-60500000D02*
G01*
X73198670Y-60978608D01*
X73198669Y-60978609D01*
X68900000Y-64400000D01*
X68899999Y-64400002D01*
X68999999Y-83799999D01*
X68999999Y-83800000D01*
X69000000Y-83800000D01*
X75001000Y-83800000D01*
X75141585Y-83820213D01*
X75270780Y-83879214D01*
X75378119Y-83972224D01*
X75454906Y-84091708D01*
X75494921Y-84227985D01*
X75500000Y-84299000D01*
X75500000Y-87900000D01*
X74200000Y-87900000D01*
X74200000Y-90300000D01*
X62499500Y-90300000D01*
X62358915Y-90279787D01*
X62229720Y-90220786D01*
X62122381Y-90127776D01*
X62045594Y-90008292D01*
X62005579Y-89872015D01*
X62000500Y-89801000D01*
X62000500Y-61267761D01*
X63695788Y-61267761D01*
X63725415Y-61537024D01*
X63793924Y-61799076D01*
X63793927Y-61799085D01*
X63899869Y-62048388D01*
X64040985Y-62279615D01*
X64214249Y-62487813D01*
X64214251Y-62487816D01*
X64214253Y-62487818D01*
X64214255Y-62487820D01*
X64415998Y-62668582D01*
X64641910Y-62818044D01*
X64887176Y-62933020D01*
X65146569Y-63011060D01*
X65235899Y-63024206D01*
X65414557Y-63050500D01*
X65414561Y-63050500D01*
X65617630Y-63050500D01*
X65617631Y-63050500D01*
X65820156Y-63035677D01*
X66084553Y-62976780D01*
X66337558Y-62880014D01*
X66573777Y-62747441D01*
X66788177Y-62581888D01*
X66976186Y-62386881D01*
X67133799Y-62166579D01*
X67257656Y-61925675D01*
X67345118Y-61669305D01*
X67394319Y-61402933D01*
X67404212Y-61132235D01*
X67374586Y-60862982D01*
X67306072Y-60600912D01*
X67200130Y-60351610D01*
X67059018Y-60120390D01*
X67059016Y-60120388D01*
X67059014Y-60120384D01*
X66885750Y-59912186D01*
X66885748Y-59912183D01*
X66885745Y-59912180D01*
X66684002Y-59731418D01*
X66458090Y-59581956D01*
X66212824Y-59466980D01*
X66067373Y-59423220D01*
X65953428Y-59388939D01*
X65685443Y-59349500D01*
X65685439Y-59349500D01*
X65482369Y-59349500D01*
X65466376Y-59350670D01*
X65279846Y-59364322D01*
X65015452Y-59423218D01*
X65015445Y-59423220D01*
X64762437Y-59519988D01*
X64762436Y-59519988D01*
X64526223Y-59652559D01*
X64526217Y-59652563D01*
X64311827Y-59818107D01*
X64221125Y-59912186D01*
X64123814Y-60013119D01*
X63966201Y-60233421D01*
X63842344Y-60474325D01*
X63842342Y-60474329D01*
X63754883Y-60730690D01*
X63705681Y-60997066D01*
X63705680Y-60997073D01*
X63695788Y-61267761D01*
X62000500Y-61267761D01*
X62000500Y-54027700D01*
X73800000Y-60500000D01*
G37*
G04 #@! TD.AperFunction*
G04 #@! TA.AperFunction,Conductor*
G36*
X94243039Y-87919685D02*
G01*
X94288794Y-87972489D01*
X94300000Y-88024000D01*
X94300000Y-90176000D01*
X94280315Y-90243039D01*
X94227511Y-90288794D01*
X94176000Y-90300000D01*
X74200000Y-90300000D01*
X74200000Y-87900000D01*
X75500000Y-87900000D01*
X94176000Y-87900000D01*
X94243039Y-87919685D01*
G37*
G04 #@! TD.AperFunction*
M02*
